<?xml version="1.0" encoding="UTF-8"?><svg xmlns="http://www.w3.org/2000/svg" xmlns:xlink="http://www.w3.org/1999/xlink" viewBox="0 0 2161.11 1080.55"><defs><style>.cls-1{fill:url(#_Áĺçűě_ííűé_ăđŕäčĺíň_188-6);}.cls-1,.cls-2,.cls-3,.cls-4,.cls-5,.cls-6,.cls-7,.cls-8,.cls-9,.cls-10,.cls-11,.cls-12,.cls-13,.cls-14,.cls-15,.cls-16,.cls-17,.cls-18,.cls-19,.cls-20,.cls-21,.cls-22,.cls-23,.cls-24,.cls-25,.cls-26,.cls-27,.cls-28,.cls-29,.cls-30,.cls-31,.cls-32,.cls-33,.cls-34,.cls-35,.cls-36,.cls-37,.cls-38,.cls-39,.cls-40,.cls-41,.cls-42,.cls-43,.cls-44,.cls-45,.cls-46,.cls-47,.cls-48,.cls-49,.cls-50,.cls-51{mix-blend-mode:screen;}.cls-2{fill:url(#_Áĺçűě_ííűé_ăđŕäčĺíň_176-4);}.cls-2,.cls-3,.cls-4,.cls-5,.cls-6,.cls-7,.cls-8,.cls-9,.cls-10,.cls-11,.cls-13,.cls-14,.cls-15,.cls-16,.cls-17,.cls-19,.cls-21,.cls-23,.cls-24,.cls-26,.cls-27,.cls-28,.cls-31,.cls-32,.cls-34,.cls-35,.cls-36,.cls-37,.cls-38,.cls-39,.cls-40,.cls-41,.cls-42,.cls-43,.cls-45,.cls-46,.cls-47,.cls-48,.cls-49,.cls-50,.cls-51{opacity:.2;}.cls-3{fill:url(#_Áĺçűě_ííűé_ăđŕäčĺíň_15-3);}.cls-3,.cls-4,.cls-5,.cls-6,.cls-8,.cls-9,.cls-10,.cls-11,.cls-12,.cls-13,.cls-14,.cls-15,.cls-17,.cls-18,.cls-19,.cls-20,.cls-21,.cls-22,.cls-23,.cls-24,.cls-26,.cls-27,.cls-28,.cls-29,.cls-31,.cls-33,.cls-34,.cls-35,.cls-36,.cls-37,.cls-39,.cls-40,.cls-41,.cls-42,.cls-43,.cls-44,.cls-46,.cls-47,.cls-48,.cls-49,.cls-50,.cls-51{fill-rule:evenodd;}.cls-4{fill:url(#_Áĺçűě_ííűé_ăđŕäčĺíň_73-13);}.cls-5{fill:url(#_Áĺçűě_ííűé_ăđŕäčĺíň_15-6);}.cls-6{fill:url(#_Áĺçűě_ííűé_ăđŕäčĺíň_73-10);}.cls-7{fill:url(#_Áĺçűě_ííűé_ăđŕäčĺíň_184);}.cls-8{fill:url(#_Áĺçűě_ííűé_ăđŕäčĺíň_73-5);}.cls-9{fill:url(#_Áĺçűě_ííűé_ăđŕäčĺíň_73-8);}.cls-10{fill:url(#_Áĺçűě_ííűé_ăđŕäčĺíň_73-26);}.cls-52{opacity:.9;}.cls-11{fill:url(#_Áĺçűě_ííűé_ăđŕäčĺíň_73-11);}.cls-12{fill:url(#_Áĺçűě_ííűé_ăđŕäčĺíň_176-2);opacity:.5;}.cls-13{fill:url(#_Áĺçűě_ííűé_ăđŕäčĺíň_73-23);}.cls-53{isolation:isolate;}.cls-14{fill:url(#_Áĺçűě_ííűé_ăđŕäčĺíň_15-4);}.cls-15{fill:url(#_Áĺçűě_ííűé_ăđŕäčĺíň_73-21);}.cls-16{fill:url(#_Áĺçűě_ííűé_ăđŕäčĺíň_176-3);}.cls-17{fill:url(#_Áĺçűě_ííűé_ăđŕäčĺíň_73-15);}.cls-18{fill:url(#_Áĺçűě_ííűé_ăđŕäčĺíň_188);}.cls-19{fill:url(#_Áĺçűě_ííűé_ăđŕäčĺíň_15-9);}.cls-20{fill:url(#_Áĺçűě_ííűé_ăđŕäčĺíň_176);}.cls-20,.cls-22,.cls-33{opacity:.3;}.cls-21{fill:url(#_Áĺçűě_ííűé_ăđŕäčĺíň_73-9);}.cls-22{fill:url(#_Áĺçűě_ííűé_ăđŕäčĺíň_15-7);}.cls-23{fill:url(#_Áĺçűě_ííűé_ăđŕäčĺíň_73-16);}.cls-24{fill:url(#_Áĺçűě_ííűé_ăđŕäčĺíň_73-4);}.cls-25{fill:url(#_Áĺçűě_ííűé_ăđŕäčĺíň_188-3);}.cls-26{fill:url(#_Áĺçűě_ííűé_ăđŕäčĺíň_73-7);}.cls-27{fill:url(#_Áĺçűě_ííűé_ăđŕäčĺíň_73-25);}.cls-28{fill:url(#_Áĺçűě_ííűé_ăđŕäčĺíň_73-19);}.cls-29{fill:url(#_Áĺçűě_ííűé_ăđŕäčĺíň_188-4);}.cls-30{fill:url(#_Áĺçűě_ííűé_ăđŕäčĺíň_188-2);}.cls-31{fill:url(#_Áĺçűě_ííűé_ăđŕäčĺíň_15-10);}.cls-32{fill:url(#_Áĺçűě_ííűé_ăđŕäčĺíň_184-2);}.cls-33{fill:url(#_Áĺçűě_ííűé_ăđŕäčĺíň_15-5);}.cls-54{clip-path:url(#clippath);}.cls-55{fill:none;}.cls-34{fill:url(#_Áĺçűě_ííűé_ăđŕäčĺíň_15-8);}.cls-35{fill:url(#_Áĺçűě_ííűé_ăđŕäčĺíň_15);}.cls-36{fill:url(#_Áĺçűě_ííűé_ăđŕäčĺíň_73-17);}.cls-37{fill:url(#_Áĺçűě_ííűé_ăđŕäčĺíň_189-2);}.cls-38{fill:url(#_Áĺçűě_ííűé_ăđŕäčĺíň_189);}.cls-39{fill:url(#_Áĺçűě_ííűé_ăđŕäčĺíň_73-2);}.cls-40{fill:url(#_Áĺçűě_ííűé_ăđŕäčĺíň_73-20);}.cls-41{fill:url(#_Áĺçűě_ííűé_ăđŕäčĺíň_15-2);}.cls-42{fill:url(#_Áĺçűě_ííűé_ăđŕäčĺíň_73-14);}.cls-43{fill:url(#_Áĺçűě_ííűé_ăđŕäčĺíň_73-12);}.cls-44{fill:url(#_Áĺçűě_ííűé_ăđŕäčĺíň_188-5);}.cls-45{fill:url(#_Áĺçűě_ííűé_ăđŕäčĺíň_191);}.cls-46{fill:url(#_Áĺçűě_ííűé_ăđŕäčĺíň_73-24);}.cls-47{fill:url(#_Áĺçűě_ííűé_ăđŕäčĺíň_73-18);}.cls-48{fill:url(#_Áĺçűě_ííűé_ăđŕäčĺíň_73);}.cls-49{fill:url(#_Áĺçűě_ííűé_ăđŕäčĺíň_73-22);}.cls-50{fill:url(#_Áĺçűě_ííűé_ăđŕäčĺíň_73-3);}.cls-51{fill:url(#_Áĺçűě_ííűé_ăđŕäčĺíň_73-6);}</style><clipPath id="clippath"><rect class="cls-55" width="2161.11" height="1080.55"/></clipPath><linearGradient id="_Áĺçűě_ííűé_ăđŕäčĺíň_73" x1="-2194.06" y1="152.3" x2="-2194.06" y2="-762.18" gradientTransform="translate(2040.65 -1328.03) rotate(-73.42) scale(1.15 1.24) skewX(1.77)" gradientUnits="userSpaceOnUse"><stop offset="0" stop-color="#826051"/><stop offset=".14" stop-color="#7a5a4c"/><stop offset=".34" stop-color="#674c40"/><stop offset=".59" stop-color="#46342c"/><stop offset=".86" stop-color="#1a1310"/><stop offset="1" stop-color="#000"/></linearGradient><linearGradient id="_Áĺçűě_ííűé_ăđŕäčĺíň_15" x1="-2321.06" y1="-261.65" x2="-2069" y2="-261.65" gradientTransform="translate(2040.65 -1328.03) rotate(-73.42) scale(1.15 1.24) skewX(1.77)" gradientUnits="userSpaceOnUse"><stop offset="0" stop-color="#000"/><stop offset=".14" stop-color="#1a1310"/><stop offset=".41" stop-color="#46342c"/><stop offset=".66" stop-color="#674c40"/><stop offset=".86" stop-color="#7a5a4c"/><stop offset="1" stop-color="#826051"/></linearGradient><linearGradient id="_Áĺçűě_ííűé_ăđŕäčĺíň_73-2" x1="-2154.04" y1="155.66" x2="-2154.04" y2="-733.82" xlink:href="#_Áĺçűě_ííűé_ăđŕäčĺíň_73"/><linearGradient id="_Áĺçűě_ííűé_ăđŕäčĺíň_15-2" x1="-2172.69" y1="-454.12" x2="-2172.69" y2="-765.15" xlink:href="#_Áĺçűě_ííűé_ăđŕäčĺíň_15"/><linearGradient id="_Áĺçűě_ííűé_ăđŕäčĺíň_73-3" x1="-2261.33" y1="152.3" x2="-2261.33" y2="-430.05" xlink:href="#_Áĺçűě_ííűé_ăđŕäčĺíň_73"/><linearGradient id="_Áĺçűě_ííűé_ăđŕäčĺíň_73-4" x1="-2057.43" y1="148.75" x2="-2057.43" y2="-517.09" gradientTransform="translate(2025.12 -1239.13) rotate(-73.42) scale(1.15 1.25)" xlink:href="#_Áĺçűě_ííűé_ăđŕäčĺíň_73"/><linearGradient id="_Áĺçűě_ííűé_ăđŕäčĺíň_73-5" x1="2296.77" y1="1286.95" x2="2296.77" y2="230.31" gradientTransform="translate(2495.85 -874.59) rotate(148.67) scale(1 -1) skewX(1.77)" xlink:href="#_Áĺçűě_ííűé_ăđŕäčĺíň_73"/><linearGradient id="_Áĺçűě_ííűé_ăđŕäčĺíň_73-6" x1="2104.83" y1="823.85" x2="2488.9" y2="823.85" gradientTransform="translate(2495.85 -874.59) rotate(148.67) scale(1 -1) skewX(1.77)" xlink:href="#_Áĺçűě_ííűé_ăđŕäčĺíň_73"/><linearGradient id="_Áĺçűě_ííűé_ăđŕäčĺíň_73-7" x1="2356.75" y1="1290.83" x2="2356.75" y2="263.07" gradientTransform="translate(2495.85 -874.59) rotate(148.67) scale(1 -1) skewX(1.77)" xlink:href="#_Áĺçűě_ííűé_ăđŕäčĺíň_73"/><linearGradient id="_Áĺçűě_ííűé_ăđŕäčĺíň_15-3" x1="2325.75" y1="586.26" x2="2325.75" y2="226.88" gradientTransform="translate(2495.85 -874.59) rotate(148.67) scale(1 -1) skewX(1.77)" xlink:href="#_Áĺçűě_ííűé_ăđŕäčĺíň_15"/><linearGradient id="_Áĺçűě_ííűé_ăđŕäčĺíň_73-8" x1="2191.7" y1="1286.95" x2="2191.7" y2="614.07" gradientTransform="translate(2495.85 -874.59) rotate(148.67) scale(1 -1) skewX(1.77)" xlink:href="#_Áĺçűě_ííűé_ăđŕäčĺíň_73"/><linearGradient id="_Áĺçűě_ííűé_ăđŕäčĺíň_73-9" x1="2503.56" y1="1281.15" x2="2503.56" y2="511.77" gradientTransform="translate(2566.64 -908.56) rotate(148.67) scale(1 -1)" xlink:href="#_Áĺçűě_ííűé_ăđŕäčĺíň_73"/><linearGradient id="_Áĺçűě_ííűé_ăđŕäčĺíň_73-10" x1="-193.39" y1="1083.34" x2="-193.39" y2="295.7" gradientTransform="translate(1607.26) rotate(-180) scale(1 -1)" xlink:href="#_Áĺçűě_ííűé_ăđŕäčĺíň_73"/><linearGradient id="_Áĺçűě_ííűé_ăđŕäčĺíň_15-4" x1="-198.29" y1="1082.31" x2="-198.29" y2="325.28" gradientTransform="translate(1607.26) rotate(-180) scale(1 -1)" xlink:href="#_Áĺçűě_ííűé_ăđŕäčĺíň_15"/><linearGradient id="_Áĺçűě_ííűé_ăđŕäčĺíň_73-11" x1="1878.58" y1="1079.85" x2="1878.58" y2="637.01" gradientTransform="matrix(1,0,0,1,0,0)" xlink:href="#_Áĺçűě_ííűé_ăđŕäčĺíň_73"/><linearGradient id="_Áĺçűě_ííűé_ăđŕäčĺíň_15-5" x1="1758.55" y1="598.65" x2="1758.55" y2="326.53" gradientTransform="matrix(1,0,0,1,0,0)" xlink:href="#_Áĺçűě_ííűé_ăđŕäčĺíň_15"/><linearGradient id="_Áĺçűě_ííűé_ăđŕäčĺíň_15-6" x1="1831.43" y1="583.9" x2="1831.43" y2="484.33" gradientTransform="matrix(1,0,0,1,0,0)" xlink:href="#_Áĺçűě_ííűé_ăđŕäčĺíň_15"/><linearGradient id="_Áĺçűě_ííűé_ăđŕäčĺíň_15-7" x1="1753.91" y1="1080.39" x2="1753.91" y2="695.47" gradientTransform="matrix(1,0,0,1,0,0)" xlink:href="#_Áĺçűě_ííűé_ăđŕäčĺíň_15"/><linearGradient id="_Áĺçűě_ííűé_ăđŕäčĺíň_73-12" x1="-198.81" y1="1091.91" x2="-198.81" y2="35.25" gradientTransform="translate(1554.53 -8.34) rotate(-180) scale(1 -1) skewX(1.76)" xlink:href="#_Áĺçűě_ííűé_ăđŕäčĺíň_73"/><linearGradient id="_Áĺçűě_ííűé_ăđŕäčĺíň_73-13" x1="-390.69" y1="628.8" x2="-6.69" y2="628.8" gradientTransform="translate(1554.53 -8.34) rotate(-180) scale(1 -1) skewX(1.76)" xlink:href="#_Áĺçűě_ííűé_ăđŕäčĺíň_73"/><linearGradient id="_Áĺçűě_ííűé_ăđŕäčĺíň_73-14" x1="-138.84" y1="1095.79" x2="-138.84" y2="68.01" gradientTransform="translate(1554.53 -8.34) rotate(-180) scale(1 -1) skewX(1.76)" xlink:href="#_Áĺçűě_ííűé_ăđŕäčĺíň_73"/><linearGradient id="_Áĺçűě_ííűé_ăđŕäčĺíň_15-8" x1="-169.86" y1="391.21" x2="-169.86" y2="31.82" gradientTransform="translate(1554.53 -8.34) rotate(-180) scale(1 -1) skewX(1.76)" xlink:href="#_Áĺçűě_ííűé_ăđŕäčĺíň_15"/><linearGradient id="_Áĺçűě_ííűé_ăđŕäčĺíň_73-15" x1="-303.88" y1="1091.91" x2="-303.88" y2="419.01" gradientTransform="translate(1554.53 -8.34) rotate(-180) scale(1 -1) skewX(1.76)" xlink:href="#_Áĺçűě_ííűé_ăđŕäčĺíň_73"/><linearGradient id="_Áĺçűě_ííűé_ăđŕäčĺíň_73-16" x1=".62" y1="1086.15" x2=".62" y2="316.79" gradientTransform="translate(1631.42) rotate(-180) scale(1 -1)" xlink:href="#_Áĺçűě_ííűé_ăđŕäčĺíň_73"/><linearGradient id="_Áĺçűě_ííűé_ăđŕäčĺíň_73-17" x1="287.73" y1="1090.4" x2="287.73" y2="256.29" gradientTransform="translate(76.89 -8.34) skewX(1.76)" xlink:href="#_Áĺçűě_ííűé_ăđŕäčĺíň_73"/><linearGradient id="_Áĺçűě_ííűé_ăđŕäčĺíň_73-18" x1="161.85" y1="724.83" x2="412.4" y2="724.83" gradientTransform="translate(76.89 -8.34) skewX(1.76)" xlink:href="#_Áĺçűě_ííűé_ăđŕäčĺíň_73"/><linearGradient id="_Áĺçűě_ííűé_ăđŕäčĺíň_73-19" x1="327.28" y1="1093.46" x2="327.28" y2="282.15" gradientTransform="translate(76.89 -8.34) skewX(1.76)" xlink:href="#_Áĺçűě_ííűé_ăđŕäčĺíň_73"/><linearGradient id="_Áĺçűě_ííűé_ăđŕäčĺíň_15-9" x1="308.16" y1="537.27" x2="308.16" y2="253.58" gradientTransform="translate(76.89 -8.34) skewX(1.76)" xlink:href="#_Áĺçűě_ííűé_ăđŕäčĺíň_15"/><linearGradient id="_Áĺçűě_ííűé_ăđŕäčĺíň_73-20" x1="220.28" y1="1090.4" x2="220.28" y2="559.23" gradientTransform="translate(76.89 -8.34) skewX(1.76)" xlink:href="#_Áĺçűě_ííűé_ăđŕäčĺíň_73"/><linearGradient id="_Áĺçűě_ííűé_ăđŕäčĺíň_73-21" x1="453.5" y1="1083.34" x2="453.5" y2="476.02" gradientTransform="matrix(1,0,0,1,0,0)" xlink:href="#_Áĺçűě_ííűé_ăđŕäčĺíň_73"/><linearGradient id="_Áĺçűě_ííűé_ăđŕäčĺíň_73-22" x1="612.04" y1="938.43" x2="612.04" y2="-195.77" gradientTransform="translate(889.53 358.61) rotate(-164.79) scale(1 -1) skewX(1.77)" xlink:href="#_Áĺçűě_ííűé_ăđŕäčĺíň_73"/><linearGradient id="_Áĺçűě_ííűé_ăđŕäčĺíň_73-23" x1="437.14" y1="422.67" x2="789.27" y2="422.67" gradientTransform="translate(889.53 358.61) rotate(-164.79) scale(1 -1) skewX(1.77)" xlink:href="#_Áĺçűě_ííűé_ăđŕäčĺíň_73"/><linearGradient id="_Áĺçűě_ííűé_ăđŕäčĺíň_73-24" x1="654.24" y1="942.01" x2="654.24" y2="-149.79" gradientTransform="translate(889.53 358.61) rotate(-164.79) scale(1 -1) skewX(1.77)" xlink:href="#_Áĺçűě_ííűé_ăđŕäčĺíň_73"/><linearGradient id="_Áĺçűě_ííűé_ăđŕäčĺíň_15-10" x1="634.26" y1="252.3" x2="634.26" y2="-157.6" gradientTransform="translate(889.53 358.61) rotate(-164.79) scale(1 -1) skewX(1.77)" xlink:href="#_Áĺçűě_ííűé_ăđŕäčĺíň_15"/><linearGradient id="_Áĺçűě_ííűé_ăđŕäčĺíň_73-25" x1="497.97" y1="937.95" x2="497.97" y2="193.36" gradientTransform="translate(889.53 358.61) rotate(-164.79) scale(1 -1) skewX(1.77)" xlink:href="#_Áĺçűě_ííűé_ăđŕäčĺíň_73"/><linearGradient id="_Áĺçűě_ííűé_ăđŕäčĺíň_73-26" x1="799.55" y1="932.74" x2="799.55" y2="190.1" gradientTransform="translate(961.99 387.22) rotate(-164.79) scale(1 -1)" xlink:href="#_Áĺçűě_ííűé_ăđŕäčĺíň_73"/><radialGradient id="_Áĺçűě_ííűé_ăđŕäčĺíň_176" cx="385.53" cy="767.41" fx="385.53" fy="767.41" r="6.14" gradientUnits="userSpaceOnUse"><stop offset=".89" stop-color="#ff7734"/><stop offset=".9" stop-color="#f77332"/><stop offset=".92" stop-color="#e46a2e"/><stop offset=".93" stop-color="#c35b27"/><stop offset=".95" stop-color="#96461e"/><stop offset=".97" stop-color="#5c2b12"/><stop offset=".99" stop-color="#170a04"/><stop offset="1" stop-color="#000"/></radialGradient><radialGradient id="_Áĺçűě_ííűé_ăđŕäčĺíň_176-2" cx="335.01" cy="778.79" fx="335.01" fy="778.79" r="3.07" xlink:href="#_Áĺçűě_ííűé_ăđŕäčĺíň_176"/><radialGradient id="_Áĺçűě_ííűé_ăđŕäčĺíň_188" cx="58.64" cy="779.68" fx="58.64" fy="779.68" r="2.17" gradientUnits="userSpaceOnUse"><stop offset=".89" stop-color="#ffffa6"/><stop offset=".9" stop-color="#f7f7a1"/><stop offset=".92" stop-color="#e4e494"/><stop offset=".93" stop-color="#c3c37f"/><stop offset=".95" stop-color="#969662"/><stop offset=".97" stop-color="#5c5c3c"/><stop offset=".99" stop-color="#17170f"/><stop offset="1" stop-color="#000"/></radialGradient><radialGradient id="_Áĺçűě_ííűé_ăđŕäčĺíň_188-2" cx="1906.25" cy="765.84" fx="1906.25" fy="765.84" r="2.17" xlink:href="#_Áĺçűě_ííűé_ăđŕäčĺíň_188"/><radialGradient id="_Áĺçűě_ííűé_ăđŕäčĺíň_188-3" cx="329.76" cy="867.84" fx="329.76" fy="867.84" r="2.17" xlink:href="#_Áĺçűě_ííűé_ăđŕäčĺíň_188"/><radialGradient id="_Áĺçűě_ííűé_ăđŕäčĺíň_188-4" cx="1857.73" cy="713.72" fx="1857.73" fy="713.72" r="3.07" xlink:href="#_Áĺçűě_ííűé_ăđŕäčĺíň_188"/><radialGradient id="_Áĺçűě_ííűé_ăđŕäčĺíň_188-5" cx="1832.74" cy="869.34" fx="1832.74" fy="869.34" r="3.07" xlink:href="#_Áĺçűě_ííűé_ăđŕäčĺíň_188"/><radialGradient id="_Áĺçűě_ííűé_ăđŕäčĺíň_188-6" cx="171.05" cy="1004.56" fx="171.05" fy="1004.56" r="3.07" xlink:href="#_Áĺçűě_ííűé_ăđŕäčĺíň_188"/><radialGradient id="_Áĺçűě_ííűé_ăđŕäčĺíň_189" cx="255.36" cy="849.25" fx="255.36" fy="849.25" r="16.13" gradientTransform="translate(342.78 -33.24) rotate(22.39)" gradientUnits="userSpaceOnUse"><stop offset=".77" stop-color="#ff7734"/><stop offset=".79" stop-color="#f77332"/><stop offset=".82" stop-color="#e46a2e"/><stop offset=".85" stop-color="#c35b27"/><stop offset=".89" stop-color="#96461e"/><stop offset=".94" stop-color="#5c2b12"/><stop offset=".99" stop-color="#170a04"/><stop offset="1" stop-color="#000"/></radialGradient><radialGradient id="_Áĺçűě_ííűé_ăđŕäčĺíň_189-2" cx="1859.5" cy="839.03" fx="1859.5" fy="839.03" r="16.13" gradientTransform="matrix(1,0,0,1,0,0)" xlink:href="#_Áĺçűě_ííűé_ăđŕäčĺíň_189"/><radialGradient id="_Áĺçűě_ííűé_ăđŕäčĺíň_176-3" cx="288.94" cy="700.95" fx="288.94" fy="700.95" r="27.24" gradientTransform="translate(936.56 306.73) rotate(81.07)" xlink:href="#_Áĺçűě_ííűé_ăđŕäčĺíň_176"/><radialGradient id="_Áĺçűě_ííűé_ăđŕäčĺíň_191" cx="1740.96" cy="716.79" fx="1740.96" fy="716.79" r="29.08" gradientTransform="translate(1016.76 -1021.1) rotate(45)" gradientUnits="userSpaceOnUse"><stop offset=".64" stop-color="#ff7734"/><stop offset=".67" stop-color="#f77332"/><stop offset=".72" stop-color="#e46a2e"/><stop offset=".77" stop-color="#c35b27"/><stop offset=".83" stop-color="#96461e"/><stop offset=".9" stop-color="#5c2b12"/><stop offset=".98" stop-color="#170a04"/><stop offset="1" stop-color="#000"/></radialGradient><radialGradient id="_Áĺçűě_ííűé_ăđŕäčĺíň_176-4" cx="331.93" cy="1001.73" fx="331.93" fy="1001.73" r="16.13" gradientTransform="translate(1267.75 513.98) rotate(80.8)" xlink:href="#_Áĺçűě_ííűé_ăđŕäčĺíň_176"/><radialGradient id="_Áĺçűě_ííűé_ăđŕäčĺíň_184" cx="302.23" cy="886.98" fx="302.23" fy="886.98" r="30.71" gradientUnits="userSpaceOnUse"><stop offset=".73" stop-color="#8b1a34"/><stop offset=".76" stop-color="#831831"/><stop offset=".82" stop-color="#701429"/><stop offset=".88" stop-color="#4f0e1d"/><stop offset=".95" stop-color="#23060d"/><stop offset="1" stop-color="#000"/></radialGradient><radialGradient id="_Áĺçűě_ííűé_ăđŕäčĺíň_184-2" cx="1764.04" cy="751.26" fx="1764.04" fy="751.26" r="30.71" gradientTransform="translate(362.34 -556.97) rotate(19.96)" xlink:href="#_Áĺçűě_ííűé_ăđŕäčĺíň_184"/></defs><g class="cls-53"><g id="Ebene_2"><g id="Ebene_1-2"><g class="cls-52"><g class="cls-54"><path class="cls-48" d="m1458.39,1292.5c-35.62-42.36-267.89-191.57-417.86-198.54-149.97-6.97-157.19-38.7-204.76-99.01-47.57-60.31,140.53-82.36-3.9-100.41-144.43-18.05-168.19,22.88-129.96,109.08,38.23,86.19-107.4,35.13-177.38,2.05-69.98-33.08-166.72-186.61-76.09-239.22,90.62-52.61,125.11-34.63,193.76,4.69,68.64,39.32-2.66,70.85.82,128.55,3.48,57.7-54.19-42.19-105.65-62.5-51.46-20.32-6.01,129.18,74.28,152.24,80.29,23.06,41.1-37.94,77.58-103.54,36.49-65.6,152.62-81.48,254.29-45.08,101.67,36.4-24.19,79.01,63.47,141.46,87.66,62.46,506.93,123.65,506.93,123.65l-55.53,186.59Z"/><path class="cls-35" d="m1505.07,1135.64c-31.54,42.39-465.77-24.65-575.78-103.15-110.01-78.5,1.98-73.63,33.03-97.77,31.06-24.14,22.79-51.43-40.89-89.09-63.69-37.66-178.16-17.25-220.18,35.27-42.02,52.52-26.47,44.62-33.32,105.33-6.85,60.72-91.22,12.37-150-46.38-58.78-58.75-24.81,24.79,80.86,73.82,105.67,49.03,57.35-29.21,102.3-102.4,44.95-73.2,193.06-26.81,223.19-1.7,30.13,25.11-65.87,37.92-52.99,74.98,23.09,66.44,159.6,98.85,358.07,164.16,198.46,65.31,223.89,128.02,231.18,136.51,7.29,8.49,44.52-149.59,44.52-149.59Z"/><path class="cls-39" d="m1480.86,1227.72s-160.13-94.36-316.34-152.64c-156.2-58.28-97.38-96.86-8.84-171.62,88.54-74.75-262.51-133.32-390.97-134.52-128.46-1.21-86.19,171.08-115.89,212.2-29.7,41.12-92.19,12.8-144.94-20.47-52.75-33.27-10.15-98.74-11.36-138.78-1.2-40.04,70.63,1.62,95.31,21.7,24.69,20.08,21.53,11.67,1.04,15.52s14.22,26.85,34.02,50.01c19.81,23.16,15.22-71.18,40.32-91.18,25.1-20-126.81-36.44-176.71-55.61-49.89-19.17,3.79,36.35-14.32,135.62-18.11,99.27,159.63,140.18,208.29,136.23,48.65-3.95-44.38-75,12.77-171.76,57.15-96.75,192.94-5.17,153.9,102.92-39.04,108.09,54.61,97.28,222.99,132.11,168.38,34.82,407.01,146.67,407.01,146.67l3.71-16.4Z"/><path class="cls-41" d="m593,817.92c23.64,19.12,15.97,26.9,53.04,7.49,37.07-19.41-63.99-48.39-141-57.19-77.01-8.79-66.69,38.4-16.06,127.61,40.91,72.08,121.83,116.23,163.31,101.84,41.48-14.39.75-57.15,41.67-107.5,40.92-50.35,113.73-57.59,113.73-57.59,0,0-93.54,23.46-116.9,75.94-23.37,52.48-4.56,52.13-17.7,91.6-13.13,39.47-116.18,9.39-163.2-62.42-47.02-71.81-68.81-121.58-87.48-154.88-18.67-33.31,125.63-58.97,206.99-25.84,78.47,31.95,53.23,36.4,14.03,87.85-39.21,51.45-21.84,55.8-24.96,65.61s-26.85-26.24-33.63-40.78c-6.79-14.54,8.16-51.75,8.16-51.75Z"/><path class="cls-50" d="m1443.51,1342.49s-160.29-142.3-257.31-163.62c-97.01-21.33-19.59,28.16-112.85,59.19-93.27,31.03-187.26-21.4-252.34-92.48-65.07-71.08-41.5-180.9,20.51-211.79,62.01-30.89-9.66-39.24-9.66-39.24,0,0,44.75-6.33,51.4,22.31,6.65,28.64-52.35,28.52-31.98,69.77,20.37,41.25,79.42,50.49,207.86,72.39,128.44,21.9,419,167.12,419,167.12l-34.63,116.35Z"/><path class="cls-24" d="m1517.65,1116.83c-259.48-63.97-414.09-69.59-353.12-164.73,60.97-95.13-33.65-127.53-161.35-155.41-127.7-27.87-248.22-17.84-253.56-14.11s124.88,37.88,216.5,48.74c91.62,10.85,36.37-3.2-10.38-19.95-46.75-16.75,117.56-2,179.4,37.43,61.85,39.42-66.32,81.51-94.66,143.94-28.34,62.43,179,136.38,305.7,177.49,126.7,41.11,139.39,41.49,139.39,41.49l32.08-94.88Z"/><path class="cls-8" d="m1339.33,1330.96c-57.19-15.26-272.89-171.2-301.52-311.61-28.63-140.41-68.88-133.21-149.89-151.92-81.01-18.71-83.2,171.07-124.81,40.89-41.61-130.18,5.89-171.11,117.69-172.83,111.8-1.72,29.15-118.38-21.13-170.64-50.28-52.26-253.25-76.59-306.29,33.51-53.04,110.1-26.18,135.11,31.65,183.32,57.84,48.21,87.36-34.04,159.24-56.35,71.89-22.31-59.45-33.1-91.47-73.31-32.02-40.21,159.11-63.16,198.37,3.42,39.26,66.58-41.49,56.19-117.82,120.25-76.33,64.07-80.5,182.26-21.88,263.36,58.62,81.11,94.57-58.26,183.59-2.14,89.01,56.12,220.7,430.12,220.7,430.12l223.57-136.07Z"/><path class="cls-51" d="m1151.38,1445.34c48.27-49.02-92.66-434.73-204.51-505.11-111.85-70.38-90.88,34.62-116.62,75.06-25.74,40.45-60.62,44.67-115.74.47s-45.13-162.81,14.29-226.36c59.41-63.55,51.7-45.15,125.95-78.7,74.25-33.54,3.14-92.79-77.43-122.92,0,0,58.85.12,102.17,44.57,76.21,78.2-28.5,67.86-113.11,143.4-84.61,75.54-28.69,211.57,6.41,229.24,35.1,17.67,59.42-94.8,107.02-98.95,85.33-7.43,143.66,108.79,250.98,269.67,107.32,160.88,188.35,157.34,199.83,160.54,11.48,3.2-179.24,109.09-179.24,109.09Z"/><path class="cls-26" d="m1262.13,1381.25s-138.18-111.29-231.16-234.86c-92.99-123.57-132.9-50.13-213.62,67.81-80.72,117.94-200.06-191.94-218.69-314.32-18.63-122.39,200.28-158.51,247.22-205.2,46.94-46.69,3.55-93.9-44.68-129.59-48.22-35.69-123.59,34.17-173.32,50.82-49.73,16.65,11.42,66.86,39.58,81.56,28.16,14.7,17.32,15.41,19.35-5.91,2.04-21.32,35.14,1.67,66.45,10.33,31.31,8.66-86.09,46.2-107.5,79.1-21.41,32.91-62.03-105.15-92.42-144.37-30.39-39.22,45.5-12.53,165.97-73.98,120.47-61.44,194.82,90.45,196.43,138.76s-98.77-9.13-210.92,88.56c-112.15,97.69,19.34,186.93,147.94,101.52,128.6-85.4,127.72,9.02,193.29,154.66,65.57,145.64,235.88,324.27,235.88,324.27l-19.8,10.83Z"/><path class="cls-3" d="m636.37,713.81c26.82,14.12,35.43,3.33,16.34,47.43-19.09,44.1-68.45-39.72-89.61-109.51-21.16-69.78,38.64-80.89,155.83-72.08,94.69,7.11,160.14,64.92,147.86,111-12.28,46.08-70.65,26.12-127.51,87.65-56.86,61.53-56.11,134.42-56.11,134.42,0,0,16.56-99.93,78.41-145.62,61.85-45.69,63.92-27.54,111.03-57.65,47.11-30.11-3.87-115.34-99.04-128.42-95.17-13.08-159.68-11.81-203.4-14.87-43.72-3.06-56.24,146.43-4.38,209.55,50.02,60.89,52.16,34.76,110.62-25.62,58.46-60.39,66.16-45.7,77.89-53.04,11.73-7.34-36.06-14.03-54.97-14.06-18.91-.03-62.98,30.81-62.98,30.81Z"/><path class="cls-9" d="m1399.23,1294.5s-197.54-90.14-236.88-173.49c-39.35-83.35,32.24-31.26,58.21-134.29,25.97-103.04-51.47-169.68-148.15-200.35-96.68-30.68-229.48,40.69-259.44,113.75-29.97,73.07-49.87,8.2-49.87,8.2,0,0-1.86,45.63,34.48,39.27,36.34-6.36,28.33-62.77,82.1-61.62,53.78,1.16,73.1,53.56,117.34,166.73,44.24,113.17,262.79,326.66,262.79,326.66l139.42-84.85Z"/><path class="cls-21" d="m1129.77,1465.74c-113.81-219.86-141.4-365.31-251.03-264.69-109.63,100.62-162.36,24.48-213.91-85.32-51.54-109.81-55.2-229.59-51.3-236.36,3.9-6.76,63.56,102.65,89.22,185.5,25.66,82.85.89,36.23-26.09-1.06-26.97-37.29,13.21,113.37,70.27,155.04,57.05,41.66,92.06-99.69,165.56-154.55,73.5-54.87,192.71,110.67,260.51,213.64,67.8,102.96,69.96,114.94,69.96,114.94l-113.17,72.86Z"/><path class="cls-6" d="m1527.38,1083.34c66.09-2.79,90.63-402.39,325.54-453.81,234.91-51.42-99.94-99.13-168.92-19.12-68.97,80-91.62-13.69-93.4-173.13-1.78-159.44,23.75-152.58,77.05-128.71,53.29,23.86,44.93,53.26,16.35,102.99-28.57,49.72-33.03-2.34-59.74-3.6-26.71-1.27-43.1,83.71,5.5,138.95,48.6,55.24,134.37,15.92,165.74-116.2,31.36-132.12,126.06,4,224.48,164.16,98.42,160.15-20.52,118.87-48.95,248.16-28.43,129.28,102.88,237.54,102.88,237.54l-546.54,2.79Z"/><path class="cls-14" d="m1591.34,1079.79c7.15-80.2,72.55-365.58,223.57-364.29,151.02,1.29,162.13-21.79,152.37-120.6-9.76-98.81-145.53-102.19-237.78-32.19-92.24,70-114.05,77.57-133.17-66.53-19.12-144.1,15.3-152.85,48.67-167.57,33.37-14.72,37.15,22.25,35.92,56.11-1.23,33.87-18.54,19.02-54.58,13.39-36.03-5.63-44.61,163.18,11,185.79,55.61,22.6,140.19-48.28,164.46-130.45,24.27-82.17,118.49-23.96,197.62,138.13,79.13,162.09-82.98,111.82-216.56,160.01-133.58,48.19-53.35,330.73-53.35,330.73l-138.16-2.52Z"/><path class="cls-11" d="m1706.44,1079.85s-2.79-201.98,43.01-282.42c45.81-80.44,114.77-44.76,200.76-39.16,85.99,5.6,93.63-81.19,91.99-114.02-1.64-32.83,15.19,55.26,5.55,80.01-9.64,24.74-51.44,35.81-73.67,80.78-22.23,44.97-32.06,6.75,5.07-29.28,37.13-36.03-10.46,2.55-77.53-14.11-129.49-32.16-152.32,23.39-167.61,128.21-15.29,104.83,45.42-5.75,91.78-60.48,46.35-54.72,2.13,56.68,46.35,151.12,44.22,94.44-165.7,99.35-165.7,99.35Z"/><path class="cls-33" d="m1928.24,530.67s-42.46-41.13-81.22-44.89c-38.76-3.76-102.64,87.89-164.33,103.21-61.69,15.32-113.56-94.94-84.62-179.03,28.94-84.09,39.14-48.67,70.35,3.51,31.2,52.17-11.54-8.8-18.83,26.33-7.29,35.13,27.91,48.33,53.16,63.84,25.26,15.51,13.25-13.04,38.36-79.02,25.11-65.98-55.21-88.06-75.93-96.01-20.72-7.95-63.75,5.6-72.24,63.93-8.48,58.33-7.9,152.2,43.38,196.46,51.28,44.26,151.19-78.01,202.51-77.2,51.32.8,89.41,18.88,89.41,18.88Z"/><path class="cls-5" d="m1700.85,583.9s70.74-65.4,124.97-69.31c54.23-3.91,111.7,7.59,136.2,48.11,0,0-30.85-53.54-89.99-74.48-59.13-20.95-113.61,48.79-135,64.93-21.4,16.14-36.18,30.74-36.18,30.74Z"/><path class="cls-22" d="m1591.34,1079.79s32.55-204.64,103.36-279.23c70.81-74.59,92.81-80.17,147.41-82.24,54.6-2.07,83.42-7.03,105.86-22.84,0,0-43.05,22.15-89.47,19.55-46.42-2.6-89.55-15.42-145.24,35.21-55.69,50.63-153.42,330.17-153.42,330.17l31.49-.61Z"/><path class="cls-43" d="m1921.55,1079.97c-40.92-42.77-144.11-288.12-95.57-422.95,48.54-134.83,10.42-149.61-49.06-207.71-59.47-58.1-160.01,102.88-127.88-29.96,32.13-132.84,93.99-143.11,190.39-86.45,96.4,56.65,86.45-85.97,70.67-156.75-15.78-70.78-176.51-197.09-279.06-130.61-102.55,66.48-92.61,101.8-68.27,173.05,24.34,71.25,92.32,16.34,165.33,34.65,73.01,18.32-33.58-59.18-40.02-110.18-6.45-50.99,168.75,28.77,167.68,106.05-1.07,77.29-64.65,26.43-163.17,41.47-98.51,15.04-163.52,113.84-155.61,213.6,7.91,99.76,111.08-.6,157.94,93.62,46.86,94.22-35.09,482.16-35.09,482.16h261.72Z"/><path class="cls-4" d="m1701.53,1079.97c66.72-16.78,146.86-419.53,87.9-537.8-58.96-118.27-95.63-17.68-138.65,3.49-43.02,21.17-75.01,6.64-99.11-59.78-24.1-66.41,46.09-162.54,129.89-185.94,83.8-23.4,67.64-11.69,148.5-1.75,80.86,9.95,50.92-77.63-2.24-145.26,0,0,50.21,30.7,64.11,91.19,24.45,106.42-59.63,43.15-171.18,63.69-111.55,20.54-134.5,165.81-113.7,199.15,20.8,33.35,100.05-50.09,142.86-28.88,76.75,38.01,66.16,167.62,74.2,360.84,8.04,193.23,79.09,232.33,87.24,241.03,8.15,8.7-209.83,0-209.83,0Z"/><path class="cls-42" d="m1829.46,1082.79s-60.17-166.9-75.36-320.8c-15.19-153.9-87.47-111.92-217.74-53.13-130.27,58.78-71.11-267.97-23.4-382.2,47.71-114.23,253.5-31.28,317.86-46.76,64.37-15.48,51.85-78.37,29.21-133.93-22.64-55.56-123.34-35.07-174.47-46.7s-25,63.05-8.59,90.25c16.41,27.19,6.78,22.17,19.6,5.02,12.83-17.15,29.15,19.69,51.39,43.37,22.25,23.68-97.56-5.29-132.95,11.69-35.4,16.98,1.68-122.07-3.89-171.37-5.57-49.3,45.39,12.95,180.24,23.1,134.85,10.14,119.4,178.55,95.65,220.65-23.75,42.1-79.62-59.15-226.21-34.01-146.59,25.14-80.66,169.73,73.6,163.64,154.26-6.09,104.41,74.11,84.7,232.61-19.7,158.5,32.91,399.63,32.91,399.63l-22.55-1.04Z"/><path class="cls-34" d="m1641.92,187.32c15.57,26.01,28.53,21.26-10.7,49.01-39.23,27.75-37.82-69.52-19.61-140.13,18.21-70.61,75.06-49.01,170.59,19.44,77.19,55.3,103.05,138.71,68.6,171.7-34.45,32.98-73.93-14.42-154.49,8.58-80.57,23-117.82,85.66-117.82,85.66,0,0,66.1-76.75,142.69-83.62,76.59-6.87,68.92,9.71,124.82,8.48,55.9-1.23,56.66-100.54-17.84-161.2-74.5-60.65-130.27-93.1-166.02-118.45-35.76-25.34-124.17,95.84-112.68,176.73,11.08,78.02,26.48,56.81,107.82,35.62,81.34-21.19,80.27-4.64,94.11-4.81,13.84-.17-23.51-30.73-39.65-40.59-16.14-9.86-69.81-6.43-69.81-6.43Z"/><path class="cls-17" d="m1991.67,1079.97s-121.88-179.7-112.15-271.36c9.72-91.66,43.79-9.94,119.54-84.45,75.75-74.52,44.24-171.7-22.39-248.17-66.64-76.47-217.18-84.55-280.76-37.71-63.59,46.84-46.86-18.92-46.86-18.92,0,0-25.31,38.01,9.04,51.47,34.35,13.46,56.83-38.9,102.17-9.95,45.34,28.95,34.6,83.75,13.56,203.43-21.04,119.68,54.65,415.66,54.65,415.66h163.21Z"/><path class="cls-23" d="m1672.47,1086.15c17.08-246.99,69.13-385.57-76.83-356.61-145.97,28.96-151.43-63.5-138.37-184.09,13.06-120.6,72.21-224.82,79.06-228.57,6.85-3.75.92,120.73-20.23,204.85-21.15,84.11-18.07,31.41-21.73-14.47-3.66-45.88-47.66,103.72-20.58,168.97,27.08,65.25,130.47-37.3,221.78-45.95,91.31-8.66,107.08,194.73,111.46,317.93,4.38,123.2,0,134.56,0,134.56l-134.56,3.4Z"/><path class="cls-36" d="m265.9,1078.46c26.4-33.76,92.98-227.43,61.66-333.87-31.32-106.43-6.72-118.1,31.65-163.96,38.37-45.86,103.24,81.21,82.51-23.65-20.73-104.86-60.64-112.97-122.84-68.25-62.2,44.72-55.78-67.86-45.6-123.74,10.18-55.87,113.89-155.58,180.05-103.1,66.17,52.48,59.75,80.36,44.05,136.6-15.7,56.24-59.57,12.9-106.67,27.35-47.11,14.46,21.66-46.72,25.82-86.97,4.16-40.25-108.88,22.71-108.19,83.72.69,61.01,41.71,20.86,105.28,32.74,63.56,11.87,105.51,89.86,100.4,168.61-5.1,78.75-71.67-.47-101.9,73.9-30.23,74.38,22.64,380.61,22.64,380.61h-168.87Z"/><path class="cls-47" d="m407.86,1078.46c-43.05-13.25-94.76-331.17-56.72-424.53,38.04-93.36,61.7-13.95,89.46,2.76,27.76,16.71,48.4,5.24,63.95-47.19,15.55-52.43-29.74-128.3-83.81-146.78-54.07-18.47-43.64-9.23-95.82-1.38-52.17,7.85-32.85-61.28,1.44-114.66,0,0-32.4,24.23-41.36,71.98-15.77,84.01,38.47,34.06,110.45,50.28,71.98,16.22,86.78,130.89,73.36,157.21-13.42,26.32-64.55-39.54-92.18-22.8-49.52,30.01-42.69,132.31-47.87,284.84-5.18,152.53-51.03,183.4-56.29,190.26-5.26,6.87,135.38,0,135.38,0Z"/><path class="cls-28" d="m325.31,1080.69s38.83-131.75,48.63-253.23c9.8-121.48,56.44-88.34,140.49-41.94,84.05,46.4,45.88-211.53,15.09-301.7-30.79-90.17-163.56-24.69-205.09-36.91-41.53-12.22-33.45-61.86-18.85-105.72,14.61-43.86,79.58-27.68,112.57-36.86,32.99-9.18,16.13,49.77,5.54,71.24-10.59,21.47-4.37,17.5-12.65,3.96-8.27-13.54-18.81,15.55-33.16,34.24-14.35,18.69,62.94-4.18,85.78,9.22,22.84,13.4-1.09-96.36,2.51-135.28,3.59-38.92-29.28,10.22-116.29,18.23-87.01,8.01-77.04,140.94-61.72,174.18,15.32,33.23,51.37-46.69,145.95-26.84,94.58,19.85,52.04,133.98-47.48,129.17-99.53-4.81-67.37,58.5-54.65,183.61,12.71,125.12-21.23,315.46-21.23,315.46l14.55-.82Z"/><path class="cls-19" d="m446.32,373.82c-10.05,20.53-18.41,16.79,6.9,38.69,25.31,21.9,24.4-54.87,12.65-110.61-11.75-55.74-48.43-38.69-110.07,15.34-49.8,43.66-66.49,109.5-44.26,135.53,22.23,26.04,47.7-11.38,99.68,6.78,51.98,18.16,76.02,67.61,76.02,67.61,0,0-42.65-60.59-92.06-66.01-49.42-5.42-44.47,7.67-80.53,6.7-36.07-.97-36.56-79.37,11.51-127.24,48.07-47.88,84.05-73.49,107.12-93.5,23.07-20.01,80.11,75.66,72.71,139.51-7.15,61.58-17.09,44.85-69.57,28.12-52.48-16.73-51.79-3.66-60.72-3.8-8.93-.14,15.17-24.26,25.58-32.04,10.41-7.78,45.04-5.07,45.04-5.07Z"/><path class="cls-40" d="m220.66,1078.46s78.64-141.85,72.36-214.2c-6.27-72.35-28.26-7.84-77.13-66.66-48.87-58.82-28.55-135.54,14.45-195.9,42.99-60.36,140.13-66.74,181.15-29.77,41.03,36.97,30.23-14.94,30.23-14.94,0,0,16.33,30-5.83,40.63-22.16,10.63-36.67-30.7-65.92-7.85-29.25,22.85-22.33,66.11-8.75,160.58,13.58,94.47-35.26,328.11-35.26,328.11h-105.3Z"/><path class="cls-15" d="m426.61,1083.34c-11.02-194.97-44.61-304.36,49.57-281.5,94.18,22.86,97.7-50.12,89.28-145.32-8.42-95.2-46.59-177.47-51.01-180.43-4.42-2.96-.6,95.3,13.05,161.7,13.65,66.4,11.66,24.79,14.02-11.42,2.36-36.22,30.75,81.87,13.28,133.38-17.47,51.51-84.18-29.44-143.09-36.27-58.91-6.83-69.09,153.71-71.92,250.97-2.83,97.25,0,106.22,0,106.22l86.82,2.69Z"/><path class="cls-49" d="m205.07,1141.03c-29.3-55.73-58.85-327.63,30.94-463.64,95.54-144.73,57.94-160.4,12.53-220.99-43.25-57.71-183.72,107.85-117.53-24.69,69.12-138.41,135.06-156.81,222.24-106.65,95.06,54.7,132.15-110.27,136.99-190.35,4.8-79.53-142.13-180.3-269.13-83.25-114.98,87.86-115.71,121.07-113.35,187.94,2.4,67.76,81.84,3.91,149.76,12.97,72.5,9.68-16.65-57.6-7.96-110.32,8.69-52.72,177-1.3,149.98,86.84-26.73,87.19-81.79,38.89-189.28,67.31-98.13,25.94-181.85,127.3-201.4,222.16-19.47,94.47,97.53-2.26,114.48,92.34,17.49,97.58-163.58,464.45-163.58,464.45l245.32,65.89Z"/><path class="cls-13" d="m-4.9,1084.64c64.05-.6,263.61-402.26,238.06-530.04-24.52-122.65-89.87-18.01-136.04,3.34-44.35,20.51-68.16,6.21-71.07-57.3-2.87-62.67,84.53-161.23,170.53-193.47,93.01-34.86,72.29-20.22,157.3-19.55,91.82.73,85.24-95.57,44.82-162.37,0,0,49.39,24.79,45.7,92.04-6.54,119.33-84.43,57.89-210.89,93.76-113.87,32.3-174.35,176.9-165.08,209.01,9.4,32.57,107.3-52.84,143.63-32.3,68.59,38.78,17.09,177.09-33.5,380.33-49.81,200.12,10.02,258.68,15.81,270.06,5.83,11.46-199.27-53.52-199.27-53.52Z"/><path class="cls-46" d="m111.18,1118.89s-8.93-181.13,21.16-338.48c30.22-157.99-49.91-118.63-176.99-69.74-113.37,43.6,11.26-249.87,79.9-360.52,72.32-116.57,249.68-57.66,325.43-82.99,80.78-27.01,86.96-97.37,78.41-156.73-8.42-58.45-128.8-12.56-178.96-14.28-47.94-1.64-43.96,71.08-35.61,96.71,8.45,25.93.24,22.13,18.31,2.07,18.32-20.34,24.09,16.22,40.22,38.17,16.42,22.35-97.31,8.46-135.9,30.47-37.35,21.29,36.31-124.49,45.09-174.03,8.78-49.57,40.84,4.1,181.44-14.31,159.87-20.93,81.55,180.39,38.5,232-41.82,50.14-72.36-55.71-232.36-10.1-139.91,39.89-121.68,175.49,24.54,163.5,168.57-13.82,86.46,76.16,16.15,245.04-67.72,162.67-87.58,420.21-87.58,420.21l-21.73-7.01Z"/><path class="cls-31" d="m190.58,196.22c7.64,24.45,21.81,17.57-24.37,51.78-44.46,32.94-15.98-64.93,21.31-140.08,38.2-76.98,89.44-67.49,171.19-14.68,71.19,45.98,74.11,136.91,22.43,179.49-49.77,41-78.06-5.89-168.76,28.59-84.08,31.96-135.1,97.08-135.1,97.08,0,0,82.09-82.26,159.61-97.81,83.25-16.7,69.63,2.34,132.46-5.82,66.35-8.62,101.3-123.76,32.26-178.3-64.68-51.1-114.44-73.38-143.77-91.92-28.47-18-146.13,123.6-157.91,201.77-11.37,75.46,8.23,52.79,90.57,21.03,88.77-34.25,82.58-16.34,97.26-18.61,14.87-2.3-15.37-29.3-29.15-37.15-13.6-7.75-68.02,4.62-68.02,4.62Z"/><path class="cls-27" d="m281.67,1161.6s-74.98-221.88-36.14-317.48c39.65-97.58,51.14-4.59,164.92-78.41,124.16-80.56,117.72-198.49,58.72-287.95-55.64-84.38-221.1-81.83-298.93-29.17-73.1,49.46-39.23-16.88-39.23-16.88,0,0-33.97,39.08-6.12,51.38,28.67,12.65,65.84-41.97,102.88-13.76,38.49,29.32,10.27,87.89-47.36,212.6-55.73,120.61-69.37,433.85-69.37,433.85l170.63,45.83Z"/><path class="cls-10" d="m-31.32,1083.82C50.58,849.67,138.17,716.96-1.26,734.32c-122.78,15.29-104.36-67.9-64.65-177.01,40.63-111.65,116.83-214.4,123.73-218.64,6.94-4.27-31.25,116.2-70.81,196.49-38.52,78.19-22.7,29.39-13.94-13.34,8.77-42.8-63.32,94.99-58.71,155.22,4.67,61.15,115.88-28.91,200.33-33.71,91.7-5.2,46.53,207.29,14.34,334.02-31.86,125.42-39.33,135.69-39.33,135.69l-121.02-29.22Z"/><path class="cls-20" d="m391.67,767.41c0,3.39-2.75,6.14-6.14,6.14s-6.14-2.75-6.14-6.14,2.75-6.14,6.14-6.14,6.14,2.75,6.14,6.14Z"/><path class="cls-12" d="m338.08,778.79c0,1.7-1.37,3.07-3.07,3.07s-3.07-1.38-3.07-3.07,1.37-3.07,3.07-3.07,3.07,1.38,3.07,3.07Z"/><path class="cls-18" d="m60.81,779.68c0,1.2-.97,2.17-2.17,2.17s-2.17-.97-2.17-2.17.97-2.17,2.17-2.17,2.17.97,2.17,2.17Z"/><circle class="cls-30" cx="1906.25" cy="765.84" r="2.17"/><circle class="cls-25" cx="329.76" cy="867.84" r="2.17"/><path class="cls-29" d="m1860.8,713.72c0,1.7-1.38,3.07-3.07,3.07s-3.07-1.37-3.07-3.07,1.37-3.07,3.07-3.07,3.07,1.37,3.07,3.07Z"/><path class="cls-44" d="m1835.81,869.34c0,1.7-1.37,3.07-3.07,3.07s-3.07-1.37-3.07-3.07,1.37-3.07,3.07-3.07,3.07,1.37,3.07,3.07Z"/><circle class="cls-1" cx="171.05" cy="1004.56" r="3.07"/><circle class="cls-38" cx="255.36" cy="849.25" r="16.13" transform="translate(-304.26 161.32) rotate(-22.39)"/><path class="cls-37" d="m1875.63,839.03c0,8.91-7.22,16.13-16.13,16.13s-16.13-7.22-16.13-16.13,7.22-16.13,16.13-16.13,16.13,7.22,16.13,16.13Z"/><circle class="cls-16" cx="288.94" cy="700.95" r="27.24" transform="translate(-448.35 877.62) rotate(-81.07)"/><circle class="cls-45" cx="1740.96" cy="716.79" r="29.08" transform="translate(3.07 1440.98) rotate(-45)"/><circle class="cls-2" cx="331.93" cy="1001.73" r="16.13" transform="translate(-709.97 1169.31) rotate(-80.8)"/><circle class="cls-7" cx="302.23" cy="886.98" r="30.71"/><circle class="cls-32" cx="1764.04" cy="751.26" r="30.71" transform="translate(-150.48 647.19) rotate(-19.96)"/></g></g></g></g></g></svg>