<?xml version="1.0" encoding="UTF-8"?><svg xmlns="http://www.w3.org/2000/svg" xmlns:xlink="http://www.w3.org/1999/xlink" viewBox="0 0 108.18 182.24"><defs><style>.cls-1{isolation:isolate;}.cls-2{fill:url(#gelb_verlauf-2);}.cls-2,.cls-3,.cls-4,.cls-5{fill-rule:evenodd;}.cls-3{fill:#9a0059;opacity:.6;}.cls-3,.cls-4{mix-blend-mode:multiply;}.cls-4{fill:#f000f4;opacity:.24;}.cls-5{fill:url(#gelb_verlauf);}</style><radialGradient id="gelb_verlauf" cx="-4837.75" cy="41.98" fx="-4837.75" fy="41.98" r="54.2" gradientTransform="translate(-4789.53) rotate(-180) scale(1 -1)" gradientUnits="userSpaceOnUse"><stop offset="0" stop-color="#df5"/><stop offset=".19" stop-color="#e0fc4b"/><stop offset=".51" stop-color="#eaf632"/><stop offset=".9" stop-color="#faec0a"/><stop offset="1" stop-color="#ffea00"/></radialGradient><radialGradient id="gelb_verlauf-2" cx="-4819.73" cy="17.76" fx="-4819.73" fy="17.76" r="36.06" xlink:href="#gelb_verlauf"/></defs><g class="cls-1"><g id="Ebene_2"><g id="Ebene_1-2"><path class="cls-3" d="m91,65.96c22.83,10.52,32.92,113.69-35.24,116.25-43.23,1.62-45.57-77.47-41.44-97.37,4.13-19.9,48.74-31.76,76.69-18.89Z"/><path class="cls-5" d="m60.85,16.61c48.49,10.11,45.49,92.51-17.06,91.17C-18.76,106.43-6.97,2.46,60.85,16.61Z"/><path class="cls-4" d="m60.85,16.61c20.33,7.27,5.93,62.48-27.08,67.79C.76,89.7.17,46.67,6.65,35.47c6.48-11.2,43.43-22.71,54.2-18.86Z"/><path class="cls-2" d="m38.59.88c32.26,6.73,30.26,61.55-11.35,60.65C-14.37,60.63-6.52-8.53,38.59.88Z"/></g></g></g></svg>