<?xml version="1.0" encoding="UTF-8"?><svg xmlns="http://www.w3.org/2000/svg" xmlns:xlink="http://www.w3.org/1999/xlink" viewBox="0 0 108.18 182.24"><defs><style>.cls-1{isolation:isolate;}.cls-2{fill:url(#gelb_verlauf-2);}.cls-2,.cls-3,.cls-4,.cls-5{fill-rule:evenodd;}.cls-3{fill:#9a0059;opacity:.6;}.cls-3,.cls-4{mix-blend-mode:multiply;}.cls-4{fill:#f000f4;opacity:.24;}.cls-5{fill:url(#gelb_verlauf);}</style><radialGradient id="gelb_verlauf" cx="5037.97" cy="41.98" fx="5037.97" fy="41.98" r="54.2" gradientTransform="translate(-4978.01)" gradientUnits="userSpaceOnUse"><stop offset="0" stop-color="#df5"/><stop offset=".19" stop-color="#e0fc4b"/><stop offset=".51" stop-color="#eaf632"/><stop offset=".9" stop-color="#faec0a"/><stop offset="1" stop-color="#ffea00"/></radialGradient><radialGradient id="gelb_verlauf-2" cx="5056" cy="17.76" fx="5056" fy="17.76" r="36.06" xlink:href="#gelb_verlauf"/></defs><g class="cls-1"><g id="Ebene_2"><g id="Ebene_1-2"><path class="cls-3" d="m17.18,65.96c-22.83,10.52-32.92,113.69,35.24,116.25,43.23,1.62,45.57-77.47,41.44-97.37-4.13-19.9-48.74-31.76-76.69-18.89Z"/><path class="cls-5" d="m47.33,16.61C-1.15,26.72,1.85,109.12,64.39,107.78c62.55-1.35,50.76-105.31-17.06-91.17Z"/><path class="cls-4" d="m47.33,16.61c-20.33,7.27-5.93,62.48,27.08,67.79,33.01,5.3,33.6-37.72,27.11-48.92-6.48-11.2-43.43-22.71-54.2-18.86Z"/><path class="cls-2" d="m69.58.88c-32.26,6.73-30.26,61.55,11.35,60.65,41.61-.9,33.77-70.06-11.35-60.65Z"/></g></g></g></svg>