<?xml version="1.0" encoding="UTF-8"?><svg xmlns="http://www.w3.org/2000/svg" xmlns:xlink="http://www.w3.org/1999/xlink" viewBox="0 0 2499.4 1406.88"><defs><style>.cls-1{fill:url(#_Áĺçűě_ííűé_ăđŕäčĺíň_73-50);}.cls-1,.cls-2,.cls-3,.cls-4,.cls-5,.cls-6,.cls-7,.cls-8,.cls-9,.cls-10,.cls-11,.cls-12,.cls-13,.cls-14,.cls-15,.cls-16,.cls-17,.cls-18,.cls-19,.cls-20,.cls-21,.cls-22,.cls-23,.cls-24,.cls-25,.cls-26,.cls-27,.cls-28,.cls-29,.cls-30,.cls-31,.cls-32,.cls-33,.cls-34,.cls-35,.cls-36,.cls-37,.cls-38,.cls-39,.cls-40,.cls-41,.cls-42,.cls-43,.cls-44,.cls-45,.cls-46,.cls-47,.cls-48,.cls-49,.cls-50,.cls-51,.cls-52,.cls-53,.cls-54,.cls-55,.cls-56,.cls-57,.cls-58,.cls-59,.cls-60,.cls-61,.cls-62,.cls-63,.cls-64,.cls-65,.cls-66,.cls-67,.cls-68,.cls-69,.cls-70,.cls-71,.cls-72,.cls-73,.cls-74,.cls-75,.cls-76,.cls-77,.cls-78,.cls-79,.cls-80,.cls-81,.cls-82,.cls-83,.cls-84,.cls-85,.cls-86,.cls-87,.cls-88,.cls-89,.cls-90,.cls-91,.cls-92,.cls-93,.cls-94,.cls-95,.cls-96,.cls-97,.cls-98,.cls-99,.cls-100,.cls-101,.cls-102,.cls-103,.cls-104,.cls-105,.cls-106,.cls-107,.cls-108,.cls-109,.cls-110{mix-blend-mode:screen;}.cls-1,.cls-2,.cls-3,.cls-4,.cls-5,.cls-6,.cls-7,.cls-9,.cls-10,.cls-11,.cls-12,.cls-13,.cls-14,.cls-15,.cls-16,.cls-17,.cls-18,.cls-19,.cls-24,.cls-25,.cls-26,.cls-27,.cls-28,.cls-29,.cls-30,.cls-33,.cls-35,.cls-36,.cls-37,.cls-38,.cls-39,.cls-42,.cls-43,.cls-45,.cls-46,.cls-47,.cls-48,.cls-49,.cls-50,.cls-52,.cls-53,.cls-54,.cls-56,.cls-60,.cls-61,.cls-62,.cls-63,.cls-65,.cls-67,.cls-68,.cls-69,.cls-70,.cls-71,.cls-72,.cls-73,.cls-74,.cls-75,.cls-77,.cls-78,.cls-80,.cls-81,.cls-82,.cls-83,.cls-84,.cls-85,.cls-87,.cls-88,.cls-89,.cls-90,.cls-91,.cls-92,.cls-93,.cls-94,.cls-98,.cls-100,.cls-101,.cls-102,.cls-103,.cls-104,.cls-105,.cls-106,.cls-107,.cls-108,.cls-110{opacity:.2;}.cls-1,.cls-2,.cls-4,.cls-5,.cls-6,.cls-7,.cls-8,.cls-9,.cls-10,.cls-11,.cls-12,.cls-14,.cls-15,.cls-16,.cls-17,.cls-18,.cls-20,.cls-21,.cls-22,.cls-23,.cls-25,.cls-26,.cls-27,.cls-29,.cls-30,.cls-31,.cls-32,.cls-33,.cls-34,.cls-36,.cls-37,.cls-38,.cls-39,.cls-40,.cls-41,.cls-42,.cls-43,.cls-45,.cls-46,.cls-47,.cls-48,.cls-49,.cls-50,.cls-51,.cls-52,.cls-53,.cls-55,.cls-59,.cls-60,.cls-61,.cls-62,.cls-64,.cls-65,.cls-66,.cls-68,.cls-69,.cls-71,.cls-72,.cls-73,.cls-74,.cls-75,.cls-76,.cls-77,.cls-78,.cls-79,.cls-81,.cls-82,.cls-83,.cls-84,.cls-85,.cls-86,.cls-87,.cls-88,.cls-90,.cls-91,.cls-92,.cls-93,.cls-94,.cls-95,.cls-96,.cls-99,.cls-100,.cls-101,.cls-102,.cls-103,.cls-104,.cls-105,.cls-106,.cls-107,.cls-108,.cls-109,.cls-110{fill-rule:evenodd;}.cls-2{fill:url(#_Áĺçűě_ííűé_ăđŕäčĺíň_15-12);}.cls-3{fill:url(#_Áĺçűě_ííűé_ăđŕäčĺíň_176-4);}.cls-4{fill:url(#_Áĺçűě_ííűé_ăđŕäčĺíň_15-3);}.cls-5{fill:url(#_Áĺçűě_ííűé_ăđŕäčĺíň_73-33);}.cls-6{fill:url(#_Áĺçűě_ííűé_ăđŕäčĺíň_189);}.cls-7{fill:url(#_Áĺçűě_ííűé_ăđŕäčĺíň_73-45);}.cls-8{fill:url(#_Áĺçűě_ííűé_ăđŕäčĺíň_15-15);}.cls-8,.cls-34,.cls-41,.cls-66,.cls-76,.cls-79{opacity:.3;}.cls-9{fill:url(#_Áĺçűě_ííűé_ăđŕäčĺíň_73-13);}.cls-10{fill:url(#_Áĺçűě_ííűé_ăđŕäčĺíň_15-6);}.cls-11{fill:url(#_Áĺçűě_ííűé_ăđŕäčĺíň_73-27);}.cls-12{fill:url(#_Áĺçűě_ííűé_ăđŕäčĺíň_73-10);}.cls-13{fill:url(#_Áĺçűě_ííűé_ăđŕäčĺíň_184);}.cls-14{fill:url(#_Áĺçűě_ííűé_ăđŕäčĺíň_73-5);}.cls-15{fill:url(#_Áĺçűě_ííűé_ăđŕäčĺíň_73-42);}.cls-111,.cls-21,.cls-64{opacity:.5;}.cls-16{fill:url(#_Áĺçűě_ííűé_ăđŕäčĺíň_73-8);}.cls-17{fill:url(#_Áĺçűě_ííűé_ăđŕäčĺíň_73-26);}.cls-18{fill:url(#_Áĺçűě_ííűé_ăđŕäčĺíň_73-11);}.cls-19{fill:url(#_Áĺçűě_ííűé_ăđŕäčĺíň_191-2);}.cls-20{fill:url(#_Áĺçűě_ííűé_ăđŕäčĺíň_188-9);}.cls-21{fill:url(#_Áĺçűě_ííűé_ăđŕäčĺíň_176-2);}.cls-22{fill:url(#_Áĺçűě_ííűé_ăđŕäčĺíň_188-11);}.cls-23{fill:url(#_Áĺçűě_ííűé_ăđŕäčĺíň_188-18);}.cls-24{fill:url(#_Áĺçűě_ííűé_ăđŕäčĺíň_176-7);}.cls-25{fill:url(#_Áĺçűě_ííűé_ăđŕäčĺíň_73-23);}.cls-112{isolation:isolate;}.cls-26{fill:url(#_Áĺçűě_ííűé_ăđŕäčĺíň_15-4);}.cls-27{fill:url(#_Áĺçűě_ííűé_ăđŕäčĺíň_73-21);}.cls-28{fill:url(#_Áĺçűě_ííűé_ăđŕäčĺíň_184-3);}.cls-29{fill:url(#_Áĺçűě_ííűé_ăđŕäčĺíň_73-15);}.cls-30{fill:url(#_Áĺçűě_ííűé_ăđŕäčĺíň_73-31);}.cls-31{fill:url(#_Áĺçűě_ííűé_ăđŕäčĺíň_188-15);}.cls-32{fill:url(#_Áĺçűě_ííűé_ăđŕäčĺíň_188);}.cls-33{fill:url(#_Áĺçűě_ííűé_ăđŕäčĺíň_15-9);}.cls-34{fill:url(#_Áĺçűě_ííűé_ăđŕäčĺíň_176);}.cls-35{fill:url(#_Áĺçűě_ííűé_ăđŕäčĺíň_189-4);}.cls-36{fill:url(#_Áĺçűě_ííűé_ăđŕäčĺíň_73-38);}.cls-37{fill:url(#_Áĺçűě_ííűé_ăđŕäčĺíň_73-30);}.cls-38{fill:url(#_Áĺçűě_ííűé_ăđŕäčĺíň_73-41);}.cls-39{fill:url(#_Áĺçűě_ííűé_ăđŕäčĺíň_73-9);}.cls-40{fill:url(#_Áĺçűě_ííűé_ăđŕäčĺíň_188-17);}.cls-41{fill:url(#_Áĺçűě_ííűé_ăđŕäčĺíň_15-7);}.cls-42{fill:url(#_Áĺçűě_ííűé_ăđŕäčĺíň_73-16);}.cls-43{fill:url(#_Áĺçűě_ííűé_ăđŕäčĺíň_73-4);}.cls-44{fill:url(#_Áĺçűě_ííűé_ăđŕäčĺíň_188-3);}.cls-45{fill:url(#_Áĺçűě_ííűé_ăđŕäčĺíň_73-47);}.cls-46{fill:url(#_Áĺçűě_ííűé_ăđŕäčĺíň_73-52);}.cls-47{fill:url(#_Áĺçűě_ííűé_ăđŕäčĺíň_73-36);}.cls-48{fill:url(#_Áĺçűě_ííűé_ăđŕäčĺíň_73-7);}.cls-49{fill:url(#_Áĺçűě_ííűé_ăđŕäčĺíň_73-51);}.cls-50{fill:url(#_Áĺçűě_ííűé_ăđŕäčĺíň_73-25);}.cls-51{fill:url(#_Áĺçűě_ííűé_ăđŕäčĺíň_188-13);}.cls-52{fill:url(#_Áĺçűě_ííűé_ăđŕäčĺíň_73-19);}.cls-53{fill:url(#_Áĺçűě_ííűé_ăđŕäčĺíň_73-44);}.cls-54{fill:url(#_Áĺçűě_ííűé_ăđŕäčĺíň_189-5);}.cls-55{fill:url(#_Áĺçűě_ííűé_ăđŕäčĺíň_188-12);}.cls-56{fill:url(#_Áĺçűě_ííűé_ăđŕäčĺíň_184-4);}.cls-57{fill:url(#_Áĺçűě_ííűé_ăđŕäčĺíň_188-4);}.cls-58{fill:url(#_Áĺçűě_ííűé_ăđŕäčĺíň_188-2);}.cls-59{fill:url(#_Áĺçűě_ííűé_ăđŕäčĺíň_188-6);}.cls-60{fill:url(#_Áĺçűě_ííűé_ăđŕäčĺíň_15-11);}.cls-61{fill:url(#_Áĺçűě_ííűé_ăđŕäčĺíň_15-10);}.cls-62{fill:url(#_Áĺçűě_ííűé_ăđŕäčĺíň_73-46);}.cls-63{fill:url(#_Áĺçűě_ííűé_ăđŕäčĺíň_184-2);}.cls-64{fill:url(#_Áĺçűě_ííűé_ăđŕäčĺíň_176-6);}.cls-65{fill:url(#_Áĺçűě_ííűé_ăđŕäčĺíň_73-37);}.cls-66{fill:url(#_Áĺçűě_ííűé_ăđŕäčĺíň_15-5);}.cls-67{fill:url(#_Áĺçűě_ííűé_ăđŕäčĺíň_189-3);}.cls-68{fill:url(#_Áĺçűě_ííűé_ăđŕäčĺíň_15-14);}.cls-69{fill:url(#_Áĺçűě_ííűé_ăđŕäčĺíň_73-28);}.cls-70{fill:url(#_Áĺçűě_ííűé_ăđŕäčĺíň_189-6);}.cls-71{fill:url(#_Áĺçűě_ííűé_ăđŕäčĺíň_15-19);}.cls-72{fill:url(#_Áĺçűě_ííűé_ăđŕäčĺíň_15-18);}.cls-73{fill:url(#_Áĺçűě_ííűé_ăđŕäčĺíň_73-35);}.cls-74{fill:url(#_Áĺçűě_ííűé_ăđŕäčĺíň_15-20);}.cls-75{fill:url(#_Áĺçűě_ííűé_ăđŕäčĺíň_15-8);}.cls-76{fill:url(#_Áĺçűě_ííűé_ăđŕäčĺíň_15-17);}.cls-77{fill:url(#_Áĺçűě_ííűé_ăđŕäčĺíň_15);}.cls-78{fill:url(#_Áĺçűě_ííűé_ăđŕäčĺíň_73-17);}.cls-79{fill:url(#_Áĺçűě_ííűé_ăđŕäčĺíň_176-5);}.cls-80{fill:url(#_Áĺçűě_ííűé_ăđŕäčĺíň_189-2);}.cls-81{fill:url(#_Áĺçűě_ííűé_ăđŕäčĺíň_73-49);}.cls-82{fill:url(#_Áĺçűě_ííűé_ăđŕäčĺíň_73-48);}.cls-83{fill:url(#_Áĺçűě_ííűé_ăđŕäčĺíň_73-43);}.cls-84{fill:url(#_Áĺçűě_ííűé_ăđŕäčĺíň_73-2);}.cls-85{fill:url(#_Áĺçűě_ííűé_ăđŕäčĺíň_73-20);}.cls-86{fill:url(#_Áĺçűě_ííűé_ăđŕäčĺíň_188-16);}.cls-87{fill:url(#_Áĺçűě_ííűé_ăđŕäčĺíň_15-2);}.cls-88{fill:url(#_Áĺçűě_ííűé_ăđŕäčĺíň_15-13);}.cls-89{fill:url(#_Áĺçűě_ííűé_ăđŕäčĺíň_176-8);}.cls-90{fill:url(#_Áĺçűě_ííűé_ăđŕäčĺíň_176-3);}.cls-91{fill:url(#_Áĺçűě_ííűé_ăđŕäčĺíň_73-39);}.cls-92{fill:url(#_Áĺçűě_ííűé_ăđŕäčĺíň_73-14);}.cls-93{fill:url(#_Áĺçűě_ííűé_ăđŕäčĺíň_73-12);}.cls-94{fill:url(#_Áĺçűě_ííűé_ăđŕäčĺíň_15-16);}.cls-95{fill:url(#_Áĺçűě_ííűé_ăđŕäčĺíň_188-5);}.cls-96{fill:url(#_Áĺçűě_ííűé_ăđŕäčĺíň_188-10);}.cls-97{fill:url(#_Áĺçűě_ííűé_ăđŕäčĺíň_188-8);}.cls-98{fill:url(#_Áĺçűě_ííűé_ăđŕäčĺíň_191);}.cls-99{fill:url(#_Áĺçűě_ííűé_ăđŕäčĺíň_188-14);}.cls-100{fill:url(#_Áĺçűě_ííűé_ăđŕäčĺíň_73-29);}.cls-101{fill:url(#_Áĺçűě_ííűé_ăđŕäčĺíň_73-24);}.cls-102{fill:url(#_Áĺçűě_ííűé_ăđŕäčĺíň_73-18);}.cls-103{fill:url(#_Áĺçűě_ííűé_ăđŕäčĺíň_73-40);}.cls-104{fill:url(#_Áĺçűě_ííűé_ăđŕäčĺíň_73-34);}.cls-105{fill:url(#_Áĺçűě_ííűé_ăđŕäčĺíň_73);}.cls-106{fill:url(#_Áĺçűě_ííűé_ăđŕäčĺíň_73-22);}.cls-107{fill:url(#_Áĺçűě_ííűé_ăđŕäčĺíň_73-3);}.cls-108{fill:url(#_Áĺçűě_ííűé_ăđŕäčĺíň_73-32);}.cls-109{fill:url(#_Áĺçűě_ííűé_ăđŕäčĺíň_188-7);}.cls-110{fill:url(#_Áĺçűě_ííűé_ăđŕäčĺíň_73-6);}</style><linearGradient id="_Áĺçűě_ííűé_ăđŕäčĺíň_73" x1="7490.27" y1="10708.54" x2="7490.27" y2="10191.68" gradientTransform="translate(7112.37 15785.13) rotate(-163.42) scale(1.15 1.24) skewX(1.77)" gradientUnits="userSpaceOnUse"><stop offset="0" stop-color="#826051"/><stop offset=".14" stop-color="#7a5a4c"/><stop offset=".34" stop-color="#674c40"/><stop offset=".59" stop-color="#46342c"/><stop offset=".86" stop-color="#1a1310"/><stop offset="1" stop-color="#000"/></linearGradient><linearGradient id="_Áĺçűě_ííűé_ăđŕäčĺíň_15" x1="7394.97" y1="10475.08" x2="7576.34" y2="10475.08" gradientTransform="translate(7112.37 15785.13) rotate(-163.42) scale(1.15 1.24) skewX(1.77)" gradientUnits="userSpaceOnUse"><stop offset="0" stop-color="#000"/><stop offset=".14" stop-color="#1a1310"/><stop offset=".41" stop-color="#46342c"/><stop offset=".66" stop-color="#674c40"/><stop offset=".86" stop-color="#7a5a4c"/><stop offset="1" stop-color="#826051"/></linearGradient><linearGradient id="_Áĺçűě_ííűé_ăđŕäčĺíň_73-2" x1="7514.29" y1="10709.15" x2="7514.29" y2="10206.23" xlink:href="#_Áĺçűě_ííűé_ăđŕäčĺíň_73"/><linearGradient id="_Áĺçűě_ííűé_ăđŕäčĺíň_15-2" x1="7514.45" y1="10362.3" x2="7514.45" y2="10189.22" xlink:href="#_Áĺçűě_ííűé_ăđŕäčĺíň_15"/><linearGradient id="_Áĺçűě_ííűé_ăđŕäčĺíň_73-3" x1="7448.13" y1="10709.81" x2="7448.13" y2="10379.81" xlink:href="#_Áĺçűě_ííűé_ăđŕäčĺíň_73"/><linearGradient id="_Áĺçűě_ííűé_ăđŕäčĺíň_73-4" x1="7748.71" y1="10683.31" x2="7748.71" y2="10306.75" gradientTransform="translate(6995.23 15764.47) rotate(-163.42) scale(1.15 1.25)" xlink:href="#_Áĺçűě_ííűé_ăđŕäčĺíň_73"/><linearGradient id="_Áĺçűě_ííűé_ăđŕäčĺíň_73-5" x1="-7627.82" y1="4942.95" x2="-7627.82" y2="4272.26" gradientTransform="translate(2145.54 9553.57) rotate(58.67) scale(1 -1) skewX(1.77)" xlink:href="#_Áĺçűě_ííűé_ăđŕäčĺíň_73"/><linearGradient id="_Áĺçűě_ííűé_ăđŕäčĺíň_73-6" x1="-7728.24" y1="4643.52" x2="-7520.03" y2="4643.52" gradientTransform="translate(2145.54 9553.57) rotate(58.67) scale(1 -1) skewX(1.77)" xlink:href="#_Áĺçűě_ííűé_ăđŕäčĺíň_73"/><linearGradient id="_Áĺçűě_ííűé_ăđŕäčĺíň_73-7" x1="-7598.27" y1="4936.34" x2="-7598.27" y2="4297.04" gradientTransform="translate(2145.54 9553.57) rotate(58.67) scale(1 -1) skewX(1.77)" xlink:href="#_Áĺçűě_ííűé_ăđŕäčĺíň_73"/><linearGradient id="_Áĺçűě_ííűé_ăđŕäčĺíň_15-3" x1="-7625.98" y1="4503.63" x2="-7625.98" y2="4272.61" gradientTransform="translate(2145.54 9553.57) rotate(58.67) scale(1 -1) skewX(1.77)" xlink:href="#_Áĺçűě_ííűé_ăđŕäčĺíň_15"/><linearGradient id="_Áĺçűě_ííűé_ăđŕäčĺíň_73-8" x1="-7688.8" y1="4934.6" x2="-7688.8" y2="4509.47" gradientTransform="translate(2145.54 9553.57) rotate(58.67) scale(1 -1) skewX(1.77)" xlink:href="#_Áĺçűě_ííűé_ăđŕäčĺíň_73"/><linearGradient id="_Áĺçűě_ííűé_ăđŕäčĺíň_73-9" x1="-7514.21" y1="4941.35" x2="-7514.21" y2="4461.24" gradientTransform="translate(2189.2 9646.78) rotate(58.67) scale(1 -1)" xlink:href="#_Áĺçűě_ííűé_ăđŕäčĺíň_73"/><linearGradient id="_Áĺçűě_ííűé_ăđŕäčĺíň_73-10" x1="-7090.54" y1="-715.39" x2="-7090.54" y2="-1237.41" gradientTransform="translate(2960.49 7371.53) rotate(90) scale(1 -1)" xlink:href="#_Áĺçűě_ííűé_ăđŕäčĺíň_73"/><linearGradient id="_Áĺçűě_ííűé_ăđŕäčĺíň_15-4" x1="-7093.24" y1="-716.07" x2="-7093.24" y2="-1217.81" gradientTransform="translate(2960.49 7371.53) rotate(90) scale(1 -1)" xlink:href="#_Áĺçűě_ííűé_ăđŕäčĺíň_15"/><linearGradient id="_Áĺçűě_ííűé_ăđŕäčĺíň_73-11" x1="11486.4" y1="-717.7" x2="11486.4" y2="-1011.2" gradientTransform="translate(2960.49 11724.4) rotate(-90)" xlink:href="#_Áĺçűě_ííűé_ăđŕäčĺíň_73"/><linearGradient id="_Áĺçűě_ííűé_ăđŕäčĺíň_15-5" x1="11420.19" y1="-1036.63" x2="11420.19" y2="-1216.98" gradientTransform="translate(2960.49 11724.4) rotate(-90)" xlink:href="#_Áĺçűě_ííűé_ăđŕäčĺíň_15"/><linearGradient id="_Áĺçűě_ííűé_ăđŕäčĺíň_15-6" x1="11460.39" y1="-1046.4" x2="11460.39" y2="-1112.39" gradientTransform="translate(2960.49 11724.4) rotate(-90)" xlink:href="#_Áĺçűě_ííűé_ăđŕäčĺíň_15"/><linearGradient id="_Áĺçűě_ííűé_ăđŕäčĺíň_15-7" x1="11417.63" y1="-717.34" x2="11417.63" y2="-972.46" gradientTransform="translate(2960.49 11724.4) rotate(-90)" xlink:href="#_Áĺçűě_ííűé_ăđŕäčĺíň_15"/><linearGradient id="_Áĺçűě_ííűé_ăđŕäčĺíň_73-12" x1="-6894.74" y1="-730.95" x2="-6894.74" y2="-1431.28" gradientTransform="translate(2971.41 7244.49) rotate(90) scale(1 -1) skewX(1.76)" xlink:href="#_Áĺçűě_ííűé_ăđŕäčĺíň_73"/><linearGradient id="_Áĺçűě_ííűé_ăđŕäčĺíň_73-13" x1="-7002.19" y1="-1037.89" x2="-6788.21" y2="-1037.89" gradientTransform="translate(2971.41 7244.49) rotate(90) scale(1 -1) skewX(1.76)" xlink:href="#_Áĺçűě_ííűé_ăđŕäčĺíň_73"/><linearGradient id="_Áĺçűě_ííűé_ăđŕäčĺíň_73-14" x1="-6860.99" y1="-728.38" x2="-6860.99" y2="-1409.57" gradientTransform="translate(2971.41 7244.49) rotate(90) scale(1 -1) skewX(1.76)" xlink:href="#_Áĺçűě_ííűé_ăđŕäčĺíň_73"/><linearGradient id="_Áĺçűě_ííűé_ăđŕäčĺíň_15-8" x1="-6877.42" y1="-1195.36" x2="-6877.42" y2="-1433.56" gradientTransform="translate(2971.41 7244.49) rotate(90) scale(1 -1) skewX(1.76)" xlink:href="#_Áĺçűě_ííűé_ăđŕäčĺíň_15"/><linearGradient id="_Áĺçűě_ííűé_ăđŕäčĺíň_73-15" x1="-6952.43" y1="-730.95" x2="-6952.43" y2="-1176.93" gradientTransform="translate(2971.41 7244.49) rotate(90) scale(1 -1) skewX(1.76)" xlink:href="#_Áĺçűě_ííűé_ăđŕäčĺíň_73"/><linearGradient id="_Áĺçűě_ííűé_ăđŕäčĺíň_73-16" x1="-6972.69" y1="-713.52" x2="-6972.69" y2="-1223.44" gradientTransform="translate(2960.49 7347.37) rotate(90) scale(1 -1)" xlink:href="#_Áĺçűě_ííűé_ăđŕäčĺíň_73"/><linearGradient id="_Áĺçűě_ííűé_ăđŕäčĺíň_73-17" x1="10796.47" y1="-731.96" x2="10796.47" y2="-1284.78" gradientTransform="translate(2971.41 11827.28) rotate(-90) skewX(1.76)" xlink:href="#_Áĺçűě_ííűé_ăđŕäčĺíň_73"/><linearGradient id="_Áĺçűě_ííűé_ăđŕäčĺíň_73-18" x1="10725.76" y1="-974.25" x2="10865.67" y2="-974.25" gradientTransform="translate(2971.41 11827.28) rotate(-90) skewX(1.76)" xlink:href="#_Áĺçűě_ííűé_ăđŕäčĺíň_73"/><linearGradient id="_Áĺçűě_ííűé_ăđŕäčĺíň_73-19" x1="10818.81" y1="-729.93" x2="10818.81" y2="-1267.64" gradientTransform="translate(2971.41 11827.28) rotate(-90) skewX(1.76)" xlink:href="#_Áĺçűě_ííűé_ăđŕäčĺíň_73"/><linearGradient id="_Áĺçűě_ííűé_ăđŕäčĺíň_15-9" x1="10808.8" y1="-1098.55" x2="10808.8" y2="-1286.58" gradientTransform="translate(2971.41 11827.28) rotate(-90) skewX(1.76)" xlink:href="#_Áĺçűě_ííűé_ăđŕäčĺíň_15"/><linearGradient id="_Áĺçűě_ííűé_ăđŕäčĺíň_73-20" x1="10759.47" y1="-731.96" x2="10759.47" y2="-1084" gradientTransform="translate(2971.41 11827.28) rotate(-90) skewX(1.76)" xlink:href="#_Áĺçűě_ííűé_ăđŕäčĺíň_73"/><linearGradient id="_Áĺçűě_ííűé_ăđŕäčĺíň_73-21" x1="10700.28" y1="-715.39" x2="10700.28" y2="-1117.9" gradientTransform="translate(2960.49 11724.4) rotate(-90)" xlink:href="#_Áĺçűě_ííűé_ăđŕäčĺíň_73"/><linearGradient id="_Áĺçűě_ííűé_ăđŕäčĺíň_73-22" x1="-4443.87" y1="-3001.7" x2="-4443.87" y2="-3747.92" gradientTransform="translate(3949.43 6437.68) rotate(105.21) scale(1 -1) skewX(1.77)" xlink:href="#_Áĺçűě_ííűé_ăđŕäčĺíň_73"/><linearGradient id="_Áĺçűě_ííűé_ăđŕäčĺíň_73-23" x1="-4556.06" y1="-3340.84" x2="-4340.02" y2="-3340.84" gradientTransform="translate(3949.43 6437.68) rotate(105.21) scale(1 -1) skewX(1.77)" xlink:href="#_Áĺçűě_ííűé_ăđŕäčĺíň_73"/><linearGradient id="_Áĺçűě_ííűé_ăđŕäčĺíň_73-24" x1="-4414.43" y1="-3000.93" x2="-4414.43" y2="-3716.12" gradientTransform="translate(3949.43 6437.68) rotate(105.21) scale(1 -1) skewX(1.77)" xlink:href="#_Áĺçűě_ííűé_ăđŕäčĺíň_73"/><linearGradient id="_Áĺçűě_ííűé_ăđŕäčĺíň_15-10" x1="-4417.45" y1="-3459.68" x2="-4417.45" y2="-3726.15" gradientTransform="translate(3949.43 6437.68) rotate(105.21) scale(1 -1) skewX(1.77)" xlink:href="#_Áĺçűě_ííűé_ăđŕäčĺíň_15"/><linearGradient id="_Áĺçűě_ííűé_ăđŕäčĺíň_73-25" x1="-4503.63" y1="-2999.62" x2="-4503.63" y2="-3489.99" gradientTransform="translate(3949.43 6437.68) rotate(105.21) scale(1 -1) skewX(1.77)" xlink:href="#_Áĺçűě_ííűé_ăđŕäčĺíň_73"/><linearGradient id="_Áĺçűě_ííűé_ăđŕäčĺíň_73-26" x1="-4601.39" y1="-2982.13" x2="-4601.39" y2="-3472.9" gradientTransform="translate(3912.08 6533.89) rotate(105.21) scale(1 -1)" xlink:href="#_Áĺçűě_ííűé_ăđŕäčĺíň_73"/><radialGradient id="_Áĺçűě_ííűé_ăđŕäčĺíň_176" cx="10505.04" cy="-824.9" fx="10505.04" fy="-824.9" r="3.1" gradientTransform="translate(3119.35 12547.4) rotate(-90) scale(1.09 1.31)" gradientUnits="userSpaceOnUse"><stop offset=".89" stop-color="#ff7734"/><stop offset=".9" stop-color="#f77332"/><stop offset=".92" stop-color="#e46a2e"/><stop offset=".93" stop-color="#c35b27"/><stop offset=".95" stop-color="#96461e"/><stop offset=".97" stop-color="#5c2b12"/><stop offset=".99" stop-color="#170a04"/><stop offset="1" stop-color="#000"/></radialGradient><radialGradient id="_Áĺçűě_ííűé_ăđŕäčĺíň_176-2" cx="10479.55" cy="-819.16" fx="10479.55" fy="-819.16" r="1.55" xlink:href="#_Áĺçűě_ííűé_ăđŕäčĺíň_176"/><radialGradient id="_Áĺçűě_ííűé_ăđŕäčĺíň_188" cx="10340.12" cy="-818.71" fx="10340.12" fy="-818.71" r="1.09" gradientTransform="translate(3119.35 12547.4) rotate(-90) scale(1.09 1.31)" gradientUnits="userSpaceOnUse"><stop offset=".89" stop-color="#ffffa6"/><stop offset=".9" stop-color="#f7f7a1"/><stop offset=".92" stop-color="#e4e494"/><stop offset=".93" stop-color="#c3c37f"/><stop offset=".95" stop-color="#969662"/><stop offset=".97" stop-color="#5c5c3c"/><stop offset=".99" stop-color="#17170f"/><stop offset="1" stop-color="#000"/></radialGradient><radialGradient id="_Áĺçűě_ííűé_ăđŕäčĺíň_188-2" cx="11272.29" cy="-825.69" fx="11272.29" fy="-825.69" r="1.09" xlink:href="#_Áĺçűě_ííűé_ăđŕäčĺíň_188"/><radialGradient id="_Áĺçűě_ííűé_ăđŕäčĺíň_188-3" cx="10476.91" cy="-774.23" fx="10476.91" fy="-774.23" r="1.09" xlink:href="#_Áĺçűě_ííűé_ăđŕäčĺíň_188"/><radialGradient id="_Áĺçűě_ííűé_ăđŕäčĺíň_188-4" cx="11155.63" cy="-648.88" fx="11155.63" fy="-648.88" r="1.09" xlink:href="#_Áĺçűě_ííűé_ăđŕäčĺíň_188"/><radialGradient id="_Áĺçűě_ííűé_ăđŕäčĺíň_188-5" cx="11247.81" cy="-851.99" fx="11247.81" fy="-851.99" r="1.55" xlink:href="#_Áĺçűě_ííűé_ăđŕäčĺíň_188"/><radialGradient id="_Áĺçűě_ííűé_ăđŕäčĺíň_188-6" cx="11235.2" cy="-773.48" fx="11235.2" fy="-773.48" r="1.55" xlink:href="#_Áĺçűě_ííűé_ăđŕäčĺíň_188"/><radialGradient id="_Áĺçűě_ííűé_ăđŕäčĺíň_188-7" cx="10396.83" cy="-705.26" fx="10396.83" fy="-705.26" r="1.55" xlink:href="#_Áĺçűě_ííűé_ăđŕäčĺíň_188"/><radialGradient id="_Áĺçűě_ííűé_ăđŕäčĺíň_188-8" cx="11155.63" cy="-597.95" fx="11155.63" fy="-597.95" r="1.55" xlink:href="#_Áĺçűě_ííűé_ăđŕäčĺíň_188"/><radialGradient id="_Áĺçűě_ííűé_ăđŕäčĺíň_188-9" cx="10505.04" cy="-652.27" fx="10505.04" fy="-652.27" r="1.55" xlink:href="#_Áĺçűě_ííűé_ăđŕäčĺíň_188"/><radialGradient id="_Áĺçűě_ííűé_ăđŕäčĺíň_189" cx="10439.37" cy="-783.61" fx="10439.37" fy="-783.61" r="8.14" gradientTransform="translate(3119.35 12547.4) rotate(-90) scale(1.09 1.31)" gradientUnits="userSpaceOnUse"><stop offset=".77" stop-color="#ff7734"/><stop offset=".79" stop-color="#f77332"/><stop offset=".82" stop-color="#e46a2e"/><stop offset=".85" stop-color="#c35b27"/><stop offset=".89" stop-color="#96461e"/><stop offset=".94" stop-color="#5c2b12"/><stop offset=".99" stop-color="#170a04"/><stop offset="1" stop-color="#000"/></radialGradient><radialGradient id="_Áĺçűě_ííűé_ăđŕäčĺíň_189-2" cx="11248.7" cy="-788.77" fx="11248.7" fy="-788.77" r="8.14" xlink:href="#_Áĺçűě_ííűé_ăđŕäčĺíň_189"/><radialGradient id="_Áĺçűě_ííűé_ăđŕäčĺíň_176-3" cx="10456.31" cy="-858.43" fx="10456.31" fy="-858.43" r="13.75" xlink:href="#_Áĺçűě_ííűé_ăđŕäčĺíň_176"/><radialGradient id="_Áĺçűě_ííűé_ăđŕäčĺíň_191" cx="11188.89" cy="-850.44" fx="11188.89" fy="-850.44" r="14.67" gradientTransform="translate(3119.35 12547.4) rotate(-90) scale(1.09 1.31)" gradientUnits="userSpaceOnUse"><stop offset=".64" stop-color="#ff7734"/><stop offset=".67" stop-color="#f77332"/><stop offset=".72" stop-color="#e46a2e"/><stop offset=".77" stop-color="#c35b27"/><stop offset=".83" stop-color="#96461e"/><stop offset=".9" stop-color="#5c2b12"/><stop offset=".98" stop-color="#170a04"/><stop offset="1" stop-color="#000"/></radialGradient><radialGradient id="_Áĺçűě_ííűé_ăđŕäčĺíň_189-3" cx="11467.87" cy="-717.25" fx="11467.87" fy="-717.25" r="8.14" xlink:href="#_Áĺçűě_ííűé_ăđŕäčĺíň_189"/><radialGradient id="_Áĺçűě_ííűé_ăđŕäčĺíň_176-4" cx="10478" cy="-706.68" fx="10478" fy="-706.68" r="8.14" xlink:href="#_Áĺçűě_ííűé_ăđŕäčĺíň_176"/><radialGradient id="_Áĺçűě_ííűé_ăđŕäčĺíň_184" cx="10463.01" cy="-764.58" fx="10463.01" fy="-764.58" r="15.49" gradientTransform="translate(3119.35 12547.4) rotate(-90) scale(1.09 1.31)" gradientUnits="userSpaceOnUse"><stop offset=".73" stop-color="#8b1a34"/><stop offset=".76" stop-color="#831831"/><stop offset=".82" stop-color="#701429"/><stop offset=".88" stop-color="#4f0e1d"/><stop offset=".95" stop-color="#23060d"/><stop offset="1" stop-color="#000"/></radialGradient><radialGradient id="_Áĺçűě_ííűé_ăđŕäčĺíň_184-2" cx="11200.54" cy="-833.05" fx="11200.54" fy="-833.05" r="15.49" xlink:href="#_Áĺçűě_ííűé_ăđŕäčĺíň_184"/><linearGradient id="_Áĺçűě_ííűé_ăđŕäčĺíň_73-27" x1="-5067.55" y1="8085.44" x2="-5067.55" y2="7555.2" gradientTransform="translate(8471.68 -7082.74) rotate(16.58) scale(1.15 1.24) skewX(1.77)" xlink:href="#_Áĺçűě_ííűé_ăđŕäčĺíň_73"/><linearGradient id="_Áĺçűě_ííűé_ăđŕäčĺíň_15-11" x1="-5189.96" y1="7846.68" x2="-4963.08" y2="7846.68" gradientTransform="translate(8471.68 -7082.74) rotate(16.58) scale(1.15 1.24) skewX(1.77)" xlink:href="#_Áĺçűě_ííűé_ăđŕäčĺíň_15"/><linearGradient id="_Áĺçűě_ííűé_ăđŕäčĺíň_73-28" x1="-5044.1" y1="8084.74" x2="-5044.1" y2="7568.65" gradientTransform="translate(8471.68 -7082.74) rotate(16.58) scale(1.15 1.24) skewX(1.77)" xlink:href="#_Áĺçűě_ííűé_ăđŕäčĺíň_73"/><linearGradient id="_Áĺçűě_ííűé_ăđŕäčĺíň_15-12" x1="-5030.09" y1="7726.64" x2="-5030.09" y2="7551.94" gradientTransform="translate(8471.68 -7082.74) rotate(16.58) scale(1.15 1.24) skewX(1.77)" xlink:href="#_Áĺçűě_ííűé_ăđŕäčĺíň_15"/><linearGradient id="_Áĺçűě_ííűé_ăđŕäčĺíň_73-29" x1="-5119.04" y1="8088.08" x2="-5119.04" y2="7748.01" gradientTransform="translate(8471.68 -7082.74) rotate(16.58) scale(1.15 1.24) skewX(1.77)" xlink:href="#_Áĺçűě_ííűé_ăđŕäčĺíň_73"/><linearGradient id="_Áĺçűě_ííűé_ăđŕäčĺíň_73-30" x1="-4889.47" y1="8066.69" x2="-4889.47" y2="7678.44" gradientTransform="translate(8588.82 -7062.07) rotate(16.58) scale(1.15 1.25)" xlink:href="#_Áĺçűě_ííűé_ăđŕäčĺíň_73"/><linearGradient id="_Áĺçűě_ííűé_ăđŕäčĺíň_73-31" x1="5140.43" y1="12351.32" x2="5140.43" y2="11585.94" gradientTransform="translate(13438.51 -851.17) rotate(-121.33) scale(1 -1) skewX(1.77)" xlink:href="#_Áĺçűě_ííűé_ăđŕäčĺíň_73"/><linearGradient id="_Áĺçűě_ííűé_ăđŕäčĺíň_73-32" x1="5029.77" y1="12005.88" x2="5258.64" y2="12005.88" gradientTransform="translate(13438.51 -851.17) rotate(-121.33) scale(1 -1) skewX(1.77)" xlink:href="#_Áĺçűě_ííűé_ăđŕäčĺíň_73"/><linearGradient id="_Áĺçűě_ííűé_ăđŕäčĺíň_73-33" x1="5174.54" y1="12335.96" x2="5174.54" y2="11618.36" gradientTransform="translate(13438.51 -851.17) rotate(-121.33) scale(1 -1) skewX(1.77)" xlink:href="#_Áĺçűě_ííűé_ăđŕäčĺíň_73"/><linearGradient id="_Áĺçűě_ííűé_ăđŕäčĺíň_15-13" x1="5135.24" y1="11855.39" x2="5135.24" y2="11589.14" gradientTransform="translate(13438.51 -851.17) rotate(-121.33) scale(1 -1) skewX(1.77)" xlink:href="#_Áĺçűě_ííűé_ăđŕäčĺíň_15"/><linearGradient id="_Áĺçűě_ííűé_ăđŕäčĺíň_73-34" x1="5084.11" y1="12334.02" x2="5084.11" y2="11850.09" gradientTransform="translate(13438.51 -851.17) rotate(-121.33) scale(1 -1) skewX(1.77)" xlink:href="#_Áĺçűě_ííűé_ăđŕäčĺíň_73"/><linearGradient id="_Áĺçűě_ííűé_ăđŕäčĺíň_73-35" x1="5503.68" y1="12325.52" x2="5503.68" y2="11785.69" gradientTransform="translate(13394.85 -944.39) rotate(-121.33) scale(1 -1)" xlink:href="#_Áĺçűě_ííűé_ăđŕäčĺíň_73"/><linearGradient id="_Áĺçűě_ííűé_ăđŕäčĺíň_73-36" x1="204.98" y1="12323.53" x2="204.98" y2="11707.63" gradientTransform="translate(12623.56 1330.86) rotate(-90) scale(1 -1)" xlink:href="#_Áĺçűě_ííűé_ăđŕäčĺíň_73"/><linearGradient id="_Áĺçűě_ííűé_ăđŕäčĺíň_15-14" x1="202.27" y1="12322.72" x2="202.27" y2="11730.76" gradientTransform="translate(12623.56 1330.86) rotate(-90) scale(1 -1)" xlink:href="#_Áĺçűě_ííűé_ăđŕäčĺíň_15"/><linearGradient id="_Áĺçűě_ííűé_ăđŕäčĺíň_73-37" x1="4190.88" y1="12320.8" x2="4190.88" y2="11974.52" gradientTransform="translate(12623.56 -3022.01) rotate(90)" xlink:href="#_Áĺçűě_ííűé_ăđŕäčĺíň_73"/><linearGradient id="_Áĺçűě_ííűé_ăđŕäčĺíň_15-15" x1="4124.67" y1="11944.52" x2="4124.67" y2="11731.74" gradientTransform="translate(12623.56 -3022.01) rotate(90)" xlink:href="#_Áĺçűě_ííűé_ăđŕäčĺíň_15"/><linearGradient id="_Áĺçűě_ííűé_ăđŕäčĺíň_15-16" x1="4164.87" y1="11932.99" x2="4164.87" y2="11855.13" gradientTransform="translate(12623.56 -3022.01) rotate(90)" xlink:href="#_Áĺçűě_ííűé_ăđŕäčĺíň_15"/><linearGradient id="_Áĺçűě_ííűé_ăđŕäčĺíň_15-17" x1="4122.11" y1="12321.23" x2="4122.11" y2="12020.23" gradientTransform="translate(12623.56 -3022.01) rotate(90)" xlink:href="#_Áĺçűě_ííűé_ăđŕäčĺíň_15"/><linearGradient id="_Áĺçűě_ííűé_ăđŕäčĺíň_73-38" x1="-.41" y1="12350.73" x2="-.41" y2="11524.47" gradientTransform="translate(12612.64 1457.9) rotate(-90) scale(1 -1) skewX(1.76)" xlink:href="#_Áĺçűě_ííűé_ăđŕäčĺíň_73"/><linearGradient id="_Áĺçűě_ííűé_ăđŕäčĺíň_73-39" x1="-109.59" y1="11988.6" x2="106.7" y2="11988.6" gradientTransform="translate(12612.64 1457.9) rotate(-90) scale(1 -1) skewX(1.76)" xlink:href="#_Áĺçűě_ííűé_ăđŕäčĺíň_73"/><linearGradient id="_Áĺçűě_ííűé_ăđŕäčĺíň_73-40" x1="34.04" y1="12353.76" x2="34.04" y2="11550.09" gradientTransform="translate(12612.64 1457.9) rotate(-90) scale(1 -1) skewX(1.76)" xlink:href="#_Áĺçűě_ííűé_ăđŕäčĺíň_73"/><linearGradient id="_Áĺçűě_ííűé_ăđŕäčĺíň_15-18" x1="18.35" y1="11802.81" x2="18.35" y2="11521.78" gradientTransform="translate(12612.64 1457.9) rotate(-90) scale(1 -1) skewX(1.76)" xlink:href="#_Áĺçűě_ííűé_ăđŕäčĺíň_15"/><linearGradient id="_Áĺçűě_ííűé_ăđŕäčĺíň_73-41" x1="-57.83" y1="12350.73" x2="-57.83" y2="11824.55" gradientTransform="translate(12612.64 1457.9) rotate(-90) scale(1 -1) skewX(1.76)" xlink:href="#_Áĺçűě_ííűé_ăđŕäčĺíň_73"/><linearGradient id="_Áĺçűě_ííűé_ăđŕäčĺíň_73-42" x1="322.83" y1="12325.73" x2="322.83" y2="11724.12" gradientTransform="translate(12623.56 1355.02) rotate(-90) scale(1 -1)" xlink:href="#_Áĺçűě_ííűé_ăđŕäčĺíň_73"/><linearGradient id="_Áĺçűě_ííűé_ăđŕäčĺíň_73-43" x1="3099.4" y1="12349.55" x2="3099.4" y2="11697.31" gradientTransform="translate(12612.64 -3124.89) rotate(90) skewX(1.76)" xlink:href="#_Áĺçűě_ííűé_ăđŕäčĺíň_73"/><linearGradient id="_Áĺçűě_ííűé_ăđŕäčĺíň_73-44" x1="3027.33" y1="12063.69" x2="3169.07" y2="12063.69" gradientTransform="translate(12612.64 -3124.89) rotate(90) skewX(1.76)" xlink:href="#_Áĺçűě_ííűé_ăđŕäčĺíň_73"/><linearGradient id="_Áĺçűě_ííűé_ăđŕäčĺíň_73-45" x1="3122.31" y1="12351.94" x2="3122.31" y2="11717.54" gradientTransform="translate(12612.64 -3124.89) rotate(90) skewX(1.76)" xlink:href="#_Áĺçűě_ííűé_ăđŕäčĺíň_73"/><linearGradient id="_Áĺçűě_ííűé_ăđŕäčĺíň_15-19" x1="3112.87" y1="11917.03" x2="3112.87" y2="11695.19" gradientTransform="translate(12612.64 -3124.89) rotate(90) skewX(1.76)" xlink:href="#_Áĺçűě_ííűé_ăđŕäčĺíň_15"/><linearGradient id="_Áĺçűě_ííűé_ăđŕäčĺíň_73-46" x1="3062.61" y1="12349.55" x2="3062.61" y2="11934.19" gradientTransform="translate(12612.64 -3124.89) rotate(90) skewX(1.76)" xlink:href="#_Áĺçűě_ííűé_ăđŕäčĺíň_73"/><linearGradient id="_Áĺçűě_ííűé_ăđŕäčĺíň_73-47" x1="3404.76" y1="12323.53" x2="3404.76" y2="11848.63" gradientTransform="translate(12623.56 -3022.01) rotate(90)" xlink:href="#_Áĺçűě_ííűé_ăđŕäčĺíň_73"/><linearGradient id="_Áĺçűě_ííűé_ăđŕäčĺíň_73-48" x1="-1257.6" y1="11549.09" x2="-1257.6" y2="10672.97" gradientTransform="translate(11634.62 2264.71) rotate(-74.79) scale(1 -1) skewX(1.77)" xlink:href="#_Áĺçűě_ííűé_ăđŕäčĺíň_73"/><linearGradient id="_Áĺçűě_ííűé_ăđŕäčĺíň_73-49" x1="-1386.73" y1="11151.13" x2="-1147.06" y2="11151.13" gradientTransform="translate(11634.62 2264.71) rotate(-74.79) scale(1 -1) skewX(1.77)" xlink:href="#_Áĺçűě_ííűé_ăđŕäčĺíň_73"/><linearGradient id="_Áĺçűě_ííűé_ăđŕäčĺíň_73-50" x1="-1234.12" y1="11548.11" x2="-1234.12" y2="10711.76" gradientTransform="translate(11634.62 2264.71) rotate(-74.79) scale(1 -1) skewX(1.77)" xlink:href="#_Áĺçűě_ííűé_ăđŕäčĺíň_73"/><linearGradient id="_Áĺçűě_ííűé_ăđŕäčĺíň_15-20" x1="-1216" y1="11005.42" x2="-1216" y2="10695.65" gradientTransform="translate(11634.62 2264.71) rotate(-74.79) scale(1 -1) skewX(1.77)" xlink:href="#_Áĺçűě_ííűé_ăđŕäčĺíň_15"/><linearGradient id="_Áĺçűě_ííűé_ăđŕäčĺíň_73-51" x1="-1314.16" y1="11553.54" x2="-1314.16" y2="10977.25" gradientTransform="translate(11634.62 2264.71) rotate(-74.79) scale(1 -1) skewX(1.77)" xlink:href="#_Áĺçűě_ííűé_ăđŕäčĺíň_73"/><linearGradient id="_Áĺçűě_ííűé_ăđŕäčĺíň_73-52" x1="-973.67" y1="11517.07" x2="-973.67" y2="10937.23" gradientTransform="translate(11671.97 2168.5) rotate(-74.79) scale(1 -1)" xlink:href="#_Áĺçűě_ííűé_ăđŕäčĺíň_73"/><radialGradient id="_Áĺçűě_ííűé_ăđŕäčĺíň_176-5" cx="3586.18" cy="10841.33" fx="3586.18" fy="10841.33" r="3.1" gradientTransform="translate(17349.45 -3575.72) rotate(90) scale(1.09 1.55)" xlink:href="#_Áĺçűě_ííűé_ăđŕäčĺíň_176"/><radialGradient id="_Áĺçűě_ííűé_ăđŕäčĺíň_176-6" cx="3560.69" cy="10847.07" fx="3560.69" fy="10847.07" r="1.55" gradientTransform="translate(17349.45 -3575.72) rotate(90) scale(1.09 1.55)" xlink:href="#_Áĺçűě_ííűé_ăđŕäčĺíň_176"/><radialGradient id="_Áĺçűě_ííűé_ăđŕäčĺíň_188-10" cx="3421.26" cy="10847.52" fx="3421.26" fy="10847.52" r="1.09" gradientTransform="translate(17349.45 -3575.72) rotate(90) scale(1.09 1.55)" xlink:href="#_Áĺçűě_ííűé_ăđŕäčĺíň_188"/><radialGradient id="_Áĺçűě_ííűé_ăđŕäčĺíň_188-11" cx="4353.43" cy="10840.54" fx="4353.43" fy="10840.54" r="1.09" gradientTransform="translate(17349.45 -3575.72) rotate(90) scale(1.09 1.55)" xlink:href="#_Áĺçűě_ííűé_ăđŕäčĺíň_188"/><radialGradient id="_Áĺçűě_ííűé_ăđŕäčĺíň_188-12" cx="3558.05" cy="10892" fx="3558.05" fy="10892" r="1.09" gradientTransform="translate(17349.45 -3575.72) rotate(90) scale(1.09 1.55)" xlink:href="#_Áĺçűě_ííűé_ăđŕäčĺíň_188"/><radialGradient id="_Áĺçűě_ííűé_ăđŕäčĺíň_188-13" cx="4236.77" cy="11017.35" fx="4236.77" fy="11017.35" r="1.09" gradientTransform="translate(17349.45 -3575.72) rotate(90) scale(1.09 1.55)" xlink:href="#_Áĺçűě_ííűé_ăđŕäčĺíň_188"/><radialGradient id="_Áĺçűě_ííűé_ăđŕäčĺíň_188-14" cx="4328.95" cy="10814.24" fx="4328.95" fy="10814.24" r="1.55" gradientTransform="translate(17349.45 -3575.72) rotate(90) scale(1.09 1.55)" xlink:href="#_Áĺçűě_ííűé_ăđŕäčĺíň_188"/><radialGradient id="_Áĺçűě_ííűé_ăđŕäčĺíň_188-15" cx="4316.34" cy="10892.75" fx="4316.34" fy="10892.75" r="1.55" gradientTransform="translate(17349.45 -3575.72) rotate(90) scale(1.09 1.55)" xlink:href="#_Áĺçűě_ííűé_ăđŕäčĺíň_188"/><radialGradient id="_Áĺçűě_ííűé_ăđŕäčĺíň_188-16" cx="3477.97" cy="10960.98" fx="3477.97" fy="10960.98" r="1.55" gradientTransform="translate(17349.45 -3575.72) rotate(90) scale(1.09 1.55)" xlink:href="#_Áĺçűě_ííűé_ăđŕäčĺíň_188"/><radialGradient id="_Áĺçűě_ííűé_ăđŕäčĺíň_188-17" cx="4236.77" cy="11068.28" fx="4236.77" fy="11068.28" r="1.55" gradientTransform="translate(17349.45 -3575.72) rotate(90) scale(1.09 1.55)" xlink:href="#_Áĺçűě_ííűé_ăđŕäčĺíň_188"/><radialGradient id="_Áĺçűě_ííűé_ăđŕäčĺíň_188-18" cx="3586.18" cy="11013.97" fx="3586.18" fy="11013.97" r="1.55" gradientTransform="translate(17349.45 -3575.72) rotate(90) scale(1.09 1.55)" xlink:href="#_Áĺçűě_ííűé_ăđŕäčĺíň_188"/><radialGradient id="_Áĺçűě_ííűé_ăđŕäčĺíň_189-4" cx="3520.51" cy="10882.62" fx="3520.51" fy="10882.62" r="8.14" gradientTransform="translate(17349.45 -3575.72) rotate(90) scale(1.09 1.55)" xlink:href="#_Áĺçűě_ííűé_ăđŕäčĺíň_189"/><radialGradient id="_Áĺçűě_ííűé_ăđŕäčĺíň_189-5" cx="4329.84" cy="10877.46" fx="4329.84" fy="10877.46" r="8.14" gradientTransform="translate(17349.45 -3575.72) rotate(90) scale(1.09 1.55)" xlink:href="#_Áĺçűě_ííűé_ăđŕäčĺíň_189"/><radialGradient id="_Áĺçűě_ííűé_ăđŕäčĺíň_176-7" cx="3537.45" cy="10807.79" fx="3537.45" fy="10807.79" r="13.75" gradientTransform="translate(17349.45 -3575.72) rotate(90) scale(1.09 1.55)" xlink:href="#_Áĺçűě_ííűé_ăđŕäčĺíň_176"/><radialGradient id="_Áĺçűě_ííűé_ăđŕäčĺíň_191-2" cx="4270.03" cy="10815.79" fx="4270.03" fy="10815.79" r="14.67" gradientTransform="translate(17349.45 -3575.72) rotate(90) scale(1.09 1.55)" xlink:href="#_Áĺçűě_ííűé_ăđŕäčĺíň_191"/><radialGradient id="_Áĺçűě_ííűé_ăđŕäčĺíň_189-6" cx="4549.01" cy="10948.98" fx="4549.01" fy="10948.98" r="8.14" gradientTransform="translate(17349.45 -3575.72) rotate(90) scale(1.09 1.55)" xlink:href="#_Áĺçűě_ííűé_ăđŕäčĺíň_189"/><radialGradient id="_Áĺçűě_ííűé_ăđŕäčĺíň_176-8" cx="3559.14" cy="10959.55" fx="3559.14" fy="10959.55" r="8.14" gradientTransform="translate(17349.45 -3575.72) rotate(90) scale(1.09 1.55)" xlink:href="#_Áĺçűě_ííűé_ăđŕäčĺíň_176"/><radialGradient id="_Áĺçűě_ííűé_ăđŕäčĺíň_184-3" cx="3544.15" cy="10901.65" fx="3544.15" fy="10901.65" r="15.49" gradientTransform="translate(17349.45 -3575.72) rotate(90) scale(1.09 1.55)" xlink:href="#_Áĺçűě_ííűé_ăđŕäčĺíň_184"/><radialGradient id="_Áĺçűě_ííűé_ăđŕäčĺíň_184-4" cx="4281.68" cy="10833.18" fx="4281.68" fy="10833.18" r="15.49" gradientTransform="translate(17349.45 -3575.72) rotate(90) scale(1.09 1.55)" xlink:href="#_Áĺçűě_ííűé_ăđŕäčĺíň_184"/></defs><g class="cls-112"><g id="Ebene_2"><g id="Ebene_1-2"><path class="cls-105" d="m2383.73,469.79c-28.07,19.65-126.97,147.78-131.58,230.51-4.62,82.73-25.65,86.71-65.62,112.95-39.98,26.24-54.58-77.52-66.55,2.15-11.96,79.67,15.17,92.78,72.29,71.69,57.13-21.09,23.28,59.25,1.36,97.85-21.92,38.6-123.68,91.97-158.55,41.97-34.87-49.99-22.95-69.02,3.11-106.88,26.06-37.87,46.96,1.47,85.2-.45,38.24-1.92-27.96,29.89-41.43,58.28-13.47,28.39,85.62,3.31,100.9-40.98s-25.15-22.67-68.62-42.8c-43.48-20.13-54-84.19-29.88-140.27,24.12-56.08,52.36,13.34,93.76-35.01,41.4-48.36,81.95-279.64,81.95-279.64l123.67,30.63Z"/><path class="cls-77" d="m2279.77,444.04c28.1,17.4-16.34,256.93-68.36,317.62-52.03,60.68-48.8-1.09-64.8-18.22-16-17.13-34.09-12.57-59.05,22.56-24.96,35.13-11.44,98.28,23.38,121.46,34.81,23.18,29.57,14.6,69.81,18.38,40.24,3.78,8.2,50.32-30.74,82.75-38.94,32.42,16.43,13.68,48.93-44.61,32.5-58.29-19.36-31.64-67.87-56.43-48.51-24.8-17.77-106.5-1.12-123.12,16.64-16.62,25.13,36.34,49.7,29.23,44.03-12.74,65.52-88.04,108.8-197.52,43.28-109.48,84.85-123.51,90.48-127.53,5.63-4.02-99.15-24.56-99.15-24.56Z"/><path class="cls-84" d="m2340.8,457.4s-62.54,88.33-101.17,174.5c-38.63,86.17-64.2,53.72-113.74,4.88-49.54-48.84-88.36,144.81-89.16,215.67-.8,70.86,113.39,47.55,140.64,63.93s8.48,50.85-13.57,79.95c-22.05,29.1-65.44,5.6-91.98,6.26-26.54.66,1.07-38.96,14.38-52.58,13.31-13.62,7.73-11.88,10.29-.57,2.55,11.3,17.8-7.84,33.15-18.77,15.35-10.93-47.18-8.39-60.43-22.24-13.26-13.85-24.15,69.95-36.86,97.48-12.71,27.52,24.09-2.09,89.88,7.9,65.79,9.99,92.9-88.06,90.29-114.9-2.62-26.84-49.71,24.48-113.84-7.04-64.12-31.53-3.43-106.43,68.21-84.9,71.64,21.54,64.48-30.13,87.56-123.01,23.08-92.88,97.21-224.52,97.21-224.52l-10.87-2.04Z"/><path class="cls-87" d="m2069.19,947.17c12.67-13.04,17.83-8.81,4.96-29.26-12.87-20.45-32.07,35.3-37.9,77.78-5.83,42.48,25.45,36.79,84.58,8.86,47.77-22.57,77.04-67.21,67.5-90.09-9.54-22.88-37.88-.41-71.25-22.99-33.37-22.57-38.17-62.74-38.17-62.74,0,0,15.55,51.6,50.33,64.49,34.79,12.89,34.55,2.52,60.71,9.76,26.16,7.24,6.23,64.09-41.37,90.03-47.59,25.94-80.58,37.96-102.65,48.25-22.07,10.3-39.08-69.3-17.13-114.18,21.18-43.29,24.12-29.37,58.23-7.74,34.1,21.63,36.98,12.05,43.49,13.77,6.5,1.72-17.39,14.81-27.03,18.55-9.64,3.74-34.3-4.5-34.3-4.5Z"/><path class="cls-107" d="m2416.86,478s-94.31,88.42-108.44,141.94c-14.14,53.52,18.66,10.8,39.23,62.25,20.57,51.45-14.18,103.3-61.29,139.2-47.11,35.9-119.9,22.89-140.37-11.31-20.47-34.21-26.01,5.33-26.01,5.33,0,0-4.19-24.68,14.79-28.35,18.98-3.67,18.9,28.88,46.24,17.64,27.34-11.24,33.46-43.81,47.98-114.66,14.51-70.85,110.76-231.13,110.76-231.13l77.12,19.1Z"/><path class="cls-43" d="m2267.3,437.11c-42.4,143.14-46.12,228.43-109.18,194.79-63.05-33.63-84.53,18.56-103,89.01-18.47,70.44-11.82,136.93-9.35,139.87,2.47,2.94,25.11-68.89,32.3-119.43,7.19-50.54-2.12-20.06-13.22,5.73-11.1,25.79-1.32-64.85,24.8-98.96,26.13-34.12,54.02,36.58,95.4,52.22,41.38,15.64,90.39-98.74,117.64-168.63,27.25-69.89,27.5-76.89,27.5-76.89l-62.88-17.69Z"/><g class="cls-111"><path class="cls-14" d="m2409.22,535.47c-10.11,31.55-113.47,150.54-206.53,166.33-93.06,15.79-88.29,38-100.69,82.68-12.4,44.69,113.38,45.89,27.1,68.85-86.28,22.96-113.41-3.25-114.55-64.92-1.14-61.67-78.46-16.08-113.1,11.66-34.64,27.74-50.76,139.7,22.21,168.96,72.97,29.26,89.55,14.44,121.5-17.46,31.95-31.9-22.56-48.19-37.35-87.84-14.79-39.66-21.94,32.8-48.59,50.46-26.65,17.66-41.86-87.77,2.27-109.43,44.13-21.66,37.24,22.89,79.7,64.99,42.46,42.11,120.79,44.41,174.55,12.07,53.76-32.34-38.61-52.17-1.42-101.27,37.2-49.1,285.07-121.75,285.07-121.75l-90.18-123.33Z"/><path class="cls-110" d="m2485.03,639.15c-32.49-26.63-288.13,51.11-334.77,112.81-46.64,61.7,22.94,50.13,49.75,64.33,26.81,14.2,29.61,33.44.31,63.85-29.3,30.4-107.9,24.89-150.03-7.88-42.12-32.77-29.93-28.52-52.16-69.48-22.23-40.96-61.5-1.73-81.47,42.71,0,0,.08-32.47,29.54-56.36,51.83-42.04,44.98,15.72,95.04,62.4,50.07,46.67,140.22,15.83,151.93-3.54,11.71-19.36-62.83-32.78-65.58-59.04-4.92-47.07,72.1-79.25,178.73-138.45,106.63-59.2,104.28-103.9,106.4-110.23,2.12-6.33,72.3,98.88,72.3,98.88Z"/><path class="cls-48" d="m2442.55,578.05s-73.76,76.22-155.66,127.52c-81.9,51.29-33.22,73.31,44.95,117.84,78.17,44.53-127.21,110.36-208.33,120.64-81.12,10.28-105.06-110.48-136-136.37-30.95-25.89-62.23-1.96-85.89,24.65-23.66,26.6,22.65,68.18,33.68,95.61,11.03,27.43,44.31-6.3,54.06-21.83,9.74-15.53,10.22-9.55-3.91-10.68-14.13-1.12,1.11-19.38,6.85-36.66,5.74-17.27,30.62,47.49,52.43,59.3,21.81,11.81-69.69,34.22-95.68,50.98-26,16.76-8.31-25.1-49.03-91.56-40.72-66.45,59.95-107.47,91.97-108.35,32.02-.88-6.05,54.48,58.69,116.35,64.74,61.86,123.89-10.67,67.29-81.61-56.6-70.94,5.98-70.45,102.51-106.62,96.53-36.17,214.92-130.12,214.92-130.12l7.18,10.92Z"/><path class="cls-4" d="m2000.19,923.24c9.36-14.8,2.21-19.54,31.43-9.02,29.23,10.53-26.33,37.76-72.58,49.43-46.25,11.67-53.61-21.31-47.78-85.96,4.71-52.23,43.03-88.34,73.57-81.57s17.31,38.97,58.09,70.34c40.78,31.37,89.09,30.95,89.09,30.95,0,0-66.23-9.14-96.51-43.26-30.28-34.12-18.25-35.26-38.21-61.25-19.96-25.99-76.45,2.14-85.12,54.63-8.67,52.5-7.83,88.09-9.85,112.2-2.03,24.12,97.05,31.02,138.89,2.41,40.35-27.59,23.04-28.77-16.98-61.02-40.02-32.25-30.29-36.49-35.15-42.97-4.87-6.47-9.3,19.89-9.32,30.32-.02,10.43,20.42,34.74,20.42,34.74Z"/><path class="cls-16" d="m2385.06,502.43s-59.74,108.97-114.99,130.67c-55.24,21.7-20.72-17.79-89-32.11-68.29-14.32-112.46,28.39-132.79,81.72-20.33,53.33,26.97,126.59,75.39,143.12,48.43,16.53,5.43,27.51,5.43,27.51,0,0,30.24,1.03,26.03-19.02-4.22-20.05-41.6-15.63-40.84-45.29.77-29.67,35.5-40.32,110.5-64.73,75.01-24.41,216.5-144.96,216.5-144.96l-56.24-76.91Z"/><path class="cls-39" d="m2498.55,651.07c-145.72,62.78-242.12,78-175.43,138.48,66.69,60.48,16.23,89.57-56.55,118-72.78,28.43-152.17,30.45-156.65,28.3-4.48-2.15,68.04-35.06,122.95-49.21,54.91-14.15,24.01-.49-.71,14.39-24.72,14.88,75.14-7.29,102.75-38.76,27.61-31.47-66.07-50.78-102.43-91.33-36.36-40.54,73.35-106.3,141.59-143.7,68.24-37.4,76.18-38.59,76.18-38.59l48.29,62.43Z"/></g><path class="cls-12" d="m2245.1,431.73c-1.85-36.46-266.7-50-300.77-179.58-34.08-129.58-65.7,55.13-12.68,93.18,53.03,38.05-9.07,50.54-114.75,51.52-105.68.98-101.12-13.1-85.31-42.5,15.82-29.4,35.3-24.78,68.26-9.02,32.96,15.76-1.55,18.22-2.39,32.95-.84,14.73,55.48,23.77,92.09-3.03,36.61-26.81,10.55-74.12-77.01-91.42-87.57-17.3,2.65-69.54,108.8-123.83,106.14-54.29,78.79,11.32,164.47,27,85.69,15.68,157.44-56.75,157.44-56.75l1.85,301.49Z"/><path class="cls-26" d="m2242.75,396.45c-53.15-3.94-242.3-40.02-241.44-123.33.85-83.31-14.44-89.44-79.93-84.05-65.49,5.39-67.73,80.28-21.33,131.16,46.39,50.88,51.41,62.91-44.09,73.46-95.5,10.55-101.31-8.44-111.06-26.85-9.76-18.41,14.74-20.49,37.19-19.81,22.45.68,12.61,10.23,8.88,30.11-3.73,19.88,108.15,24.61,123.13-6.07,14.98-30.68-32-77.33-86.46-90.72-54.46-13.39-15.88-65.36,91.55-109.01,107.43-43.65,74.11,45.77,106.05,119.46,31.94,73.69,219.2,29.43,219.2,29.43l-1.67,76.21Z"/><path class="cls-18" d="m2242.79,332.96s-133.87,1.54-187.18-23.73c-53.31-25.27-29.67-63.31-25.96-110.75,3.71-47.43-53.81-51.65-75.57-50.75-21.76.9,36.63-8.38,53.03-3.06,16.4,5.32,23.73,28.37,53.54,40.64,29.8,12.26,4.47,17.69-19.41-2.79-23.88-20.48,1.69,5.77-9.35,42.77-21.31,71.43,15.5,84.03,84.98,92.46,69.48,8.43-3.81-25.06-40.08-50.63-36.27-25.57,37.57-1.18,100.16-25.57,62.59-24.39,65.85,91.41,65.85,91.41Z"/><path class="cls-66" d="m1878.81,210.61s-27.26,23.42-29.75,44.8c-2.49,21.38,58.25,56.62,68.41,90.65s-62.93,62.64-118.66,46.68c-55.73-15.96-32.25-21.59,2.32-38.81,34.58-17.21-5.83,6.36,17.45,10.39,23.28,4.02,32.03-15.39,42.31-29.33,10.28-13.93-8.64-7.31-52.37-21.16-43.73-13.85-58.36,30.46-63.63,41.88-5.27,11.43,3.71,35.17,42.37,39.85,38.66,4.68,100.87,4.36,130.21-23.93,29.33-28.29-51.7-83.4-51.17-111.71.53-28.31,12.51-49.32,12.51-49.32Z"/><path class="cls-10" d="m1914.09,336.05s-43.34-39.02-45.93-68.94c-2.59-29.92,5.03-61.62,31.89-75.13,0,0-35.48,17.02-49.36,49.64-13.88,32.62,32.34,62.67,43.03,74.47,10.7,11.8,20.38,19.96,20.38,19.96Z"/><path class="cls-41" d="m2242.75,396.45s-135.63-17.96-185.07-57.02c-49.44-39.06-53.13-51.2-54.51-81.32-1.38-30.12-4.66-46.02-15.14-58.4,0,0,14.68,23.74,12.96,49.35-1.72,25.61-10.22,49.4,23.34,80.12,33.56,30.72,218.83,84.63,218.83,84.63l-.4-17.37Z"/><g class="cls-111"><path class="cls-93" d="m2242.87,214.3c-28.34,22.57-190.96,79.49-280.32,52.72-89.36-26.78-99.15-5.75-137.66,27.06-38.51,32.81,68.19,88.27-19.86,70.54-88.04-17.73-94.85-51.85-57.3-105.02,37.55-53.18-56.98-47.69-103.89-38.98-46.91,8.71-130.63,97.37-86.57,153.94,44.06,56.57,67.47,51.09,114.69,37.66,47.22-13.43,10.83-50.93,22.97-91.2,12.14-40.27-39.23,18.52-73.02,22.08-33.8,3.56,19.07-93.09,70.29-92.5,51.22.59,17.52,35.66,27.49,90.01,9.97,54.34,75.45,90.2,141.57,85.84,66.12-4.36-.4-61.27,62.05-87.12,62.45-25.85,319.57,19.35,319.57,19.35v-144.37Z"/><path class="cls-9" d="m2242.87,335.67c-11.12-36.81-278.06-81.01-356.44-48.49-78.38,32.52-11.72,52.75,2.31,76.48,14.03,23.73,4.4,41.38-39.62,54.67-44.02,13.29-107.73-25.43-123.24-71.65-15.51-46.22-7.75-37.31-1.16-81.92,6.59-44.61-51.45-28.09-96.27,1.23,0,0,20.35-27.7,60.44-35.36,70.53-13.49,28.6,32.89,42.21,94.43,13.61,61.54,109.89,74.2,131.99,62.72,22.1-11.47-33.2-55.19-19.14-78.81,25.19-42.34,111.09-36.5,239.16-40.93,128.07-4.43,153.98-43.63,159.75-48.12,5.77-4.49,0,115.75,0,115.75Z"/><path class="cls-92" d="m2244.74,265.1s-110.62,33.19-212.62,41.57c-102,8.38-74.17,48.25-35.22,120.11,38.96,71.86-177.6,39.23-253.31,12.91-75.71-26.32-20.73-139.84-30.99-175.34-10.26-35.51-51.94-28.6-88.76-16.11-36.82,12.49-23.24,68.04-30.95,96.24-7.71,28.21,41.79,13.79,59.81,4.74,18.02-9.05,14.69-3.74,3.32-10.81-11.37-7.07,13.05-16.08,28.75-28.35,15.69-12.27-3.51,53.81,7.74,73.34,11.25,19.53-80.9-.93-113.58,2.14-32.68,3.07,8.58-25.04,15.31-99.42,6.72-74.39,118.34-65.86,146.24-52.76,27.9,13.1-39.2,43.92-22.54,124.78,16.66,80.86,112.49,44.5,108.45-40.6-4.04-85.09,49.12-57.59,154.17-46.73,105.05,10.87,264.86-18.15,264.86-18.15l-.69,12.44Z"/><path class="cls-75" d="m1651.25,368.55c17.24-8.59,14.09-15.74,32.48,5.9,18.39,21.64-46.07,20.86-92.87,10.82-46.8-10.04-32.48-41.41,12.88-94.1,36.65-42.58,91.94-56.84,113.8-37.84,21.86,19-9.56,40.78,5.69,85.22,15.24,44.44,56.77,64.99,56.77,64.99,0,0-50.87-36.46-55.42-78.71-4.55-42.25,6.44-38.02,5.62-68.85-.81-30.84-66.64-31.26-106.84,9.84-40.2,41.09-61.71,71.86-78.5,91.58-16.8,19.72,63.52,68.49,117.13,62.16,51.71-6.11,37.65-14.61,23.61-59.48-14.04-44.87-3.07-44.28-3.19-51.92-.11-7.64-20.37,12.97-26.9,21.87s-4.26,38.51-4.26,38.51Z"/><path class="cls-29" d="m2242.87,175.62s-119.1,67.23-179.85,61.87c-60.75-5.36-6.59-24.16-55.97-65.94-49.39-41.79-113.8-24.41-164.48,12.35-50.68,36.76-56.04,119.8-24.99,154.88,31.04,35.08-12.54,25.85-12.54,25.85,0,0,25.19,13.96,34.11-4.98,8.92-18.95-25.78-31.35-6.59-56.36,19.19-25.01,55.51-19.09,134.83-7.48,79.32,11.61,275.49-30.15,275.49-30.15v-90.03Z"/><path class="cls-42" d="m2246.97,351.7c-163.7-9.42-255.55-38.14-236.35,42.38,19.19,80.52-42.08,83.53-122.01,76.33-79.93-7.2-149.01-39.83-151.49-43.61-2.49-3.78,80.02-.51,135.77,11.16,55.75,11.67,20.82,9.97-9.59,11.99-30.41,2.02,68.74,26.29,111.99,11.35,43.25-14.94-24.72-71.97-30.46-122.34-5.74-50.37,129.06-59.07,210.72-61.49,81.66-2.42,89.18,0,89.18,0l2.26,74.23Z"/></g><path class="cls-78" d="m2241.87,1127.61c-22.37-14.56-150.74-51.29-221.28-34.01-70.54,17.28-78.27,3.71-108.67-17.46-30.4-21.17,53.82-56.95-15.67-45.51-69.5,11.44-74.87,33.45-45.23,67.76,29.64,34.31-44.98,30.77-82.01,25.15-37.03-5.62-103.11-62.82-68.33-99.32,34.78-36.5,53.26-32.96,90.54-24.3,37.28,8.66,8.55,32.86,18.13,58.84,9.58,25.98-30.96-11.95-57.64-14.24-26.68-2.29,15.05,60.06,55.48,59.68,40.43-.38,13.83-23.01,21.7-58.07,7.87-35.06,59.56-58.2,111.75-55.39,52.19,2.81-.31,39.53,48.98,56.21,49.29,16.68,252.26-12.49,252.26-12.49v93.15Z"/><path class="cls-102" d="m2241.87,1049.3c-8.78,23.75-219.49,52.27-281.37,31.29-61.87-20.98-9.25-34.04,1.83-49.35,11.07-15.31,3.47-26.7-31.27-35.28-34.75-8.58-85.04,16.41-97.28,46.23-12.24,29.82-6.12,24.07-.91,52.85,5.2,28.78-40.61,18.12-76-.8,0,0,16.06,17.87,47.71,22.82,55.68,8.7,22.58-21.22,33.32-60.93,10.75-39.7,86.75-47.87,104.19-40.47,17.45,7.4-26.21,35.61-15.11,50.85,19.89,27.32,87.69,23.55,188.79,26.41,101.09,2.86,121.55,28.15,126.1,31.05,4.55,2.9,0-74.68,0-74.68Z"/><path class="cls-52" d="m2243.35,1094.83s-87.32-21.42-167.84-26.82c-80.52-5.41-58.55-31.13-27.8-77.5,30.75-46.37-140.19-25.31-199.96-8.33-59.77,16.98-16.36,90.22-24.47,113.13-8.1,22.91-41,18.45-70.07,10.4-29.07-8.06-18.35-43.9-24.43-62.1-6.09-18.2,32.99-8.9,47.22-3.06,14.23,5.84,11.6,2.41,2.62,6.98-8.97,4.56,10.3,10.37,22.69,18.29,12.39,7.92-2.77-34.72,6.11-47.32,8.88-12.6-63.86.6-89.66-1.38-25.79-1.98,6.78,16.15,12.08,64.15,5.31,48,93.41,42.5,115.44,34.04,22.03-8.45-30.95-28.34-17.79-80.51,13.15-52.17,88.8-28.71,85.61,26.19-3.19,54.9,38.77,37.16,121.69,30.15,82.92-7.01,209.08,11.71,209.08,11.71l-.54-8.03Z"/><path class="cls-33" d="m1774.86,1028.08c13.61,5.54,11.13,10.16,25.64-3.81,14.52-13.96-36.37-13.46-73.31-6.98-36.94,6.48-25.64,26.72,10.17,60.72,28.93,27.47,72.57,36.68,89.83,24.42,17.26-12.26-7.54-26.31,4.49-54.99,12.03-28.67,44.81-41.93,44.81-41.93,0,0-40.16,23.53-43.75,50.79-3.59,27.26,5.08,24.53,4.44,44.43-.64,19.9-52.6,20.17-84.33-6.35-31.73-26.51-48.71-46.36-61.97-59.09-13.26-12.73,50.14-44.19,92.46-40.11,40.82,3.94,29.72,9.43,18.64,38.38-11.09,28.95-2.43,28.57-2.52,33.5-.09,4.93-16.08-8.37-21.24-14.11-5.16-5.74-3.36-24.85-3.36-24.85Z"/><path class="cls-85" d="m2241.87,1152.56s-94.01-43.38-141.97-39.92c-47.95,3.46-5.2,15.59-44.18,42.55-38.99,26.96-89.83,15.75-129.84-7.97-40.01-23.72-44.23-77.3-19.73-99.93,24.5-22.63-9.9-16.68-9.9-16.68,0,0,19.89-9.01,26.93,3.22,7.04,12.23-20.35,20.23-5.2,36.36,15.14,16.14,43.82,12.32,106.43,4.83,62.61-7.49,217.47,19.45,217.47,19.45v58.09Z"/><path class="cls-27" d="m2245.1,1038.95c-129.22,6.08-201.72,24.61-186.57-27.35,15.15-51.95-33.22-53.9-96.31-49.25-63.09,4.65-117.62,25.7-119.59,28.14-1.96,2.44,63.17.33,107.17-7.2,44.01-7.53,16.43-6.43-7.57-7.73-24-1.3,54.26-16.96,88.4-7.32,34.14,9.64-19.51,46.44-24.04,78.93-4.53,32.5,101.88,38.11,166.33,39.67,64.46,1.56,70.4,0,70.4,0l1.78-47.89Z"/><g class="cls-111"><path class="cls-106" d="m2283.34,1161.16c-36.94,16.16-217.14,32.46-307.29-17.07-95.92-52.7-106.31-31.96-146.46-6.91-38.25,23.86,71.48,101.35-16.36,64.83-91.73-38.13-103.93-74.5-70.68-122.6,36.25-52.44-73.09-72.9-126.16-75.57-52.71-2.65-119.5,78.4-55.18,148.46,58.23,63.43,80.24,63.83,124.56,62.53,44.91-1.32,2.59-45.15,8.6-82.61,6.41-39.99-38.18,9.18-73.12,4.39-34.94-4.79-.86-97.64,57.55-82.73,57.79,14.75,25.78,45.12,44.61,104.41,17.19,54.13,84.37,100.31,147.24,111.1,62.61,10.74-1.5-53.8,61.2-63.15,64.67-9.65,307.83,90.24,307.83,90.24l43.67-135.33Z"/><path class="cls-25" d="m2245.96,1276.99c-.4-35.33-266.6-145.42-351.29-131.32-81.29,13.53-11.94,49.58,2.21,75.04,13.59,24.47,4.11,37.6-37.98,39.2-41.54,1.58-106.86-46.63-128.23-94.07-23.11-51.31-13.4-39.88-12.96-86.77.48-50.65-63.34-47.02-107.61-24.72,0,0,16.43-27.24,61-25.21,79.09,3.61,38.37,46.58,62.14,116.34,21.41,62.81,117.24,96.18,138.52,91.06,21.59-5.19-35.02-59.19-21.41-79.23,25.7-37.84,117.37-9.43,252.08,18.48,132.64,27.48,171.45-5.53,178.99-8.72,7.59-3.22-35.47,109.93-35.47,109.93Z"/><path class="cls-101" d="m2268.67,1212.96s-120.05,4.93-224.34-11.67c-104.71-16.67-78.62,27.53-46.22,97.64,28.9,62.54-165.61-6.21-238.94-44.08-77.26-39.89-38.22-137.73-55-179.52-17.9-44.56-64.54-47.97-103.88-43.25-38.74,4.65-8.32,71.05-9.46,98.72-1.09,26.44,47.11,24.25,64.1,19.64,17.19-4.66,14.67-.13,1.37-10.1-13.48-10.11,10.75-13.29,25.3-22.19,14.82-9.06,5.61,53.68,20.2,74.97,14.11,20.6-82.51-20.03-115.35-24.87-32.85-4.85,2.72-22.53-9.48-100.09-13.87-88.19,119.56-44.98,153.77-21.24,33.23,23.07-36.93,39.92-6.69,128.18,26.44,77.18,116.31,67.12,108.37-13.53-9.16-92.99,50.48-47.69,162.41-8.91,107.81,37.36,278.51,48.31,278.51,48.31l-4.65,11.99Z"/><path class="cls-61" d="m1657.15,1169.16c16.2-4.21,11.64-12.03,34.32,13.44,21.83,24.53-43.03,8.81-92.84-11.76-51.02-21.07-44.73-49.34-9.73-94.44,30.47-39.27,90.74-40.88,118.96-12.37,27.18,27.45-3.9,43.06,18.95,93.1,21.18,46.38,64.34,74.53,64.34,74.53,0,0-54.52-45.28-64.82-88.05-11.07-45.92,1.55-38.41-3.86-73.07-5.71-36.6-82.02-55.88-118.17-17.8-33.87,35.68-48.63,63.13-60.92,79.31-11.93,15.7,81.92,80.61,133.73,87.11,50.02,6.27,34.99-4.54,13.94-49.96-22.7-48.97-10.83-45.55-12.33-53.65-1.52-8.2-19.42,8.48-24.62,16.08-5.13,7.5,3.06,37.52,3.06,37.52Z"/><path class="cls-50" d="m2296.97,1118.91s-147.05,41.36-210.41,19.94c-64.68-21.87-3.04-28.21-51.97-90.97-53.4-68.49-131.55-64.94-190.85-32.39-55.93,30.69-54.24,121.96-19.33,164.9,32.78,40.32-11.19,21.64-11.19,21.64,0,0,25.9,18.74,34.05,3.38,8.39-15.81-27.81-36.32-9.12-56.75,19.43-21.23,58.25-5.67,140.9,26.13,79.94,30.75,287.54,38.27,287.54,38.27l30.37-94.13Z"/><path class="cls-17" d="m2245.43,1291.56c-155.19-45.18-243.15-93.49-231.64-16.58,10.13,67.73-45,57.57-117.32,35.66-74-22.41-142.1-64.45-144.91-68.26-2.83-3.83,77.02,17.24,130.22,39.06,51.82,21.25,19.48,12.52-8.84,7.69-28.37-4.84,62.96,34.93,102.88,32.39,40.53-2.58-19.16-63.92-22.34-110.51-3.45-50.58,137.38-25.67,221.38-7.91,83.13,17.57,89.93,21.69,89.93,21.69l-19.37,66.76Z"/></g><path class="cls-34" d="m2035.72,1058.23c2.25,0,4.07,1.52,4.07,3.39s-1.82,3.39-4.07,3.39-4.07-1.52-4.07-3.39,1.82-3.39,4.07-3.39Z"/><path class="cls-21" d="m2043.26,1087.79c1.12,0,2.04.76,2.04,1.69s-.91,1.69-2.04,1.69-2.04-.76-2.04-1.69.91-1.69,2.04-1.69Z"/><path class="cls-32" d="m2043.85,1240.74c.79,0,1.44.54,1.44,1.2s-.64,1.2-1.44,1.2-1.44-.54-1.44-1.2.64-1.2,1.44-1.2Z"/><ellipse class="cls-58" cx="2034.67" cy="222.74" rx="1.44" ry="1.2"/><ellipse class="cls-44" cx="2102.28" cy="1092.38" rx="1.44" ry="1.2"/><ellipse class="cls-57" cx="2266.95" cy="350.29" rx="1.44" ry="1.2"/><path class="cls-95" d="m2000.13,247.81c1.12,0,2.04.76,2.04,1.69s-.91,1.69-2.04,1.69-2.04-.76-2.04-1.69.91-1.69,2.04-1.69Z"/><path class="cls-59" d="m2103.27,261.6c1.12,0,2.04.76,2.04,1.69s-.91,1.69-2.04,1.69-2.04-.76-2.04-1.69.91-1.69,2.04-1.69Z"/><path class="cls-109" d="m2192.89,1178.23c1.12,0,2.04.76,2.04,1.69s-.91,1.69-2.04,1.69-2.04-.76-2.04-1.69.91-1.69,2.04-1.69Z"/><ellipse class="cls-97" cx="2333.85" cy="350.29" rx="2.04" ry="1.69"/><path class="cls-20" d="m2262.5,1059.92c1.12,0,2.04.76,2.04,1.69s-.91,1.69-2.04,1.69-2.04-.76-2.04-1.69.91-1.69,2.04-1.69Z"/><path class="cls-6" d="m2089.96,1124.52c5.9,0,10.69,3.98,10.69,8.9s-4.79,8.9-10.69,8.9-10.69-3.98-10.69-8.9,4.79-8.9,10.69-8.9Z"/><ellipse class="cls-80" cx="2083.18" cy="248.53" rx="10.69" ry="8.9"/><path class="cls-90" d="m1991.66,1099.87c9.97,0,18.06,6.73,18.06,15.03s-8.08,15.03-18.06,15.03-18.06-6.73-18.06-15.03,8.08-15.03,18.06-15.03Z"/><ellipse class="cls-98" cx="2002.17" cy="313.92" rx="19.28" ry="16.04"/><ellipse class="cls-67" cx="2177.13" cy="8.9" rx="10.69" ry="8.9"/><ellipse class="cls-3" cx="2191.02" cy="1091.18" rx="10.69" ry="8.9"/><ellipse class="cls-13" cx="2114.96" cy="1107.57" rx="20.35" ry="16.94"/><ellipse class="cls-63" cx="2025.01" cy="301.19" rx="20.35" ry="16.94"/><path class="cls-11" d="m136.48,937.08c33.12-19.65,149.8-147.78,155.25-230.51,5.45-82.73,30.26-86.71,77.42-112.95,47.16-26.24,64.4,77.52,78.51-2.15,14.11-79.67-17.89-92.78-85.29-71.69-67.4,21.09-27.47-59.25-1.6-97.85,25.86-38.6,145.92-91.97,187.06-41.97,41.14,49.99,27.08,69.02-3.66,106.88-30.75,37.87-55.4-1.47-100.52.45-45.12,1.92,32.99-29.89,48.88-58.28,15.89-28.39-101.01-3.31-119.04,40.98-18.03,44.29,29.67,22.67,80.96,42.8,51.29,20.13,63.71,84.19,35.25,140.27-28.46,56.08-61.78-13.34-110.62,35.01-48.84,48.36-96.69,279.64-96.69,279.64l-145.9-30.63Z"/><path class="cls-60" d="m259.13,962.83c-33.15-17.4,19.28-256.93,80.66-317.62,61.38-60.68,57.57,1.09,76.45,18.22,18.88,17.13,40.22,12.57,69.66-22.56,29.45-35.13,13.49-98.28-27.58-121.46-41.07-23.18-34.89-14.6-82.37-18.38-47.48-3.78-9.67-50.32,36.27-82.75,45.94-32.42-19.39-13.68-57.72,44.61-38.34,58.29,22.84,31.64,80.07,56.43,57.24,24.8,20.96,106.5,1.33,123.12-19.63,16.62-29.65-36.34-58.63-29.23-51.95,12.74-77.3,88.04-128.36,197.52-51.07,109.48-100.11,123.51-106.74,127.53s116.97,24.56,116.97,24.56Z"/><path class="cls-69" d="m187.13,949.48s73.79-88.33,119.36-174.5c45.57-86.17,75.74-53.72,134.2-4.88,58.45,48.84,104.25-144.81,105.19-215.67.94-70.86-133.78-47.55-165.93-63.93-32.15-16.38-10.01-50.85,16.01-79.95,26.02-29.1,77.21-5.6,108.52-6.26,31.31-.66-1.26,38.96-16.97,52.58-15.7,13.62-9.12,11.88-12.14.57-3.01-11.3-21,7.84-39.11,18.77-18.11,10.93,55.66,8.39,71.3,22.24,15.64,13.85,28.49-69.95,43.48-97.48,14.99-27.52-28.42,2.09-106.05-7.9-77.62-9.99-109.61,88.06-106.52,114.9,3.09,26.84,58.65-24.48,134.31,7.04,75.66,31.53,4.05,106.43-80.48,84.9-84.53-21.54-76.07,30.13-103.3,123.01-27.23,92.88-114.69,224.52-114.69,224.52l12.82,2.04Z"/><path class="cls-2" d="m507.58,459.71c-14.95,13.04-21.03,8.81-5.85,29.26,15.18,20.45,37.84-35.3,44.72-77.78,6.88-42.48-30.03-36.79-99.78-8.86-56.36,22.57-90.89,67.21-79.64,90.09,11.25,22.88,44.69.41,84.06,22.99,39.37,22.57,45.03,62.74,45.03,62.74,0,0-18.34-51.6-59.38-64.49-41.04-12.89-40.76-2.52-71.63-9.76-30.87-7.24-7.35-64.09,48.81-90.03,56.15-25.94,95.07-37.96,121.11-48.25,26.04-10.3,46.11,69.3,20.21,114.18-24.98,43.29-28.46,29.37-68.7,7.74-40.23-21.63-43.63-12.05-51.31-13.77-7.67-1.72,20.52-14.81,31.89-18.55,11.37-3.74,40.47,4.5,40.47,4.5Z"/><path class="cls-100" d="m97.38,928.87s111.27-88.42,127.95-141.94c16.68-53.52-22.02-10.8-46.28-62.25-24.26-51.45,16.73-103.3,72.32-139.2,55.58-35.9,141.46-22.89,165.61,11.31,24.16,34.21,30.68-5.33,30.68-5.33,0,0,4.95,24.68-17.45,28.35-22.39,3.67-22.3-28.88-54.56-17.64-32.25,11.24-39.48,43.81-56.6,114.66-17.12,70.85-130.68,231.13-130.68,231.13l-90.98-19.1Z"/><path class="cls-37" d="m273.84,969.77c50.02-143.14,54.42-228.43,128.81-194.79,74.39,33.63,99.73-18.56,121.52-89.01,21.8-70.44,13.95-136.93,11.03-139.87-2.91-2.94-29.62,68.89-38.11,119.43-8.49,50.54,2.5,20.06,15.6-5.73,13.1-25.79,1.56,64.85-29.26,98.96-30.83,34.12-63.74-36.58-112.56-52.22-48.82-15.64-106.64,98.74-138.79,168.63-32.15,69.89-32.44,76.89-32.44,76.89l74.19,17.69Z"/><g class="cls-111"><path class="cls-30" d="m106.4,871.4c11.93-31.55,133.87-150.54,243.66-166.33,109.8-15.79,104.17-38,118.8-82.68,14.63-44.69-133.77-45.89-31.97-68.85,101.8-22.96,133.8,3.25,135.15,64.92,1.35,61.67,92.57,16.08,133.44-11.66,40.86-27.74,59.89-139.7-26.2-168.96-86.09-29.26-105.65-14.44-143.35,17.46-37.7,31.9,26.62,48.19,44.06,87.84,17.45,39.66,25.88-32.8,57.33-50.46,31.44-17.66,49.39,87.77-2.67,109.43-52.06,21.66-43.94-22.89-94.03-64.99-50.1-42.11-142.52-44.41-205.94-12.07-63.42,32.34,45.56,52.17,1.67,101.27C292.45,675.43,0,748.08,0,748.08l106.4,123.33Z"/><path class="cls-108" d="m16.96,767.73c38.33,26.63,339.94-51.11,394.97-112.81,55.03-61.7-27.07-50.13-58.7-64.33-31.63-14.2-34.93-33.44-.36-63.85,34.56-30.4,127.31-24.89,177.01,7.88,49.7,32.77,35.31,28.52,61.54,69.48,26.23,40.96,72.55,1.73,96.12-42.71,0,0-.09,32.47-34.85,56.36-61.15,42.04-53.06-15.72-112.14-62.4-59.07-46.67-165.44-15.83-179.25,3.54-13.82,19.36,74.13,32.78,77.37,59.04,5.81,47.07-85.07,79.25-210.87,138.45-125.8,59.2-123.03,103.9-125.54,110.23-2.5,6.33-85.3-98.88-85.3-98.88Z"/><path class="cls-5" d="m67.08,828.82s87.02-76.22,183.65-127.52c96.62-51.29,39.2-73.31-53.03-117.84-92.22-44.53,150.09-110.36,245.79-120.64,95.7-10.28,123.95,110.48,160.46,136.37,36.51,25.89,73.43,1.96,101.33-24.65,27.91-26.6-26.72-68.18-39.74-95.61-13.02-27.43-52.28,6.3-63.78,21.83-11.49,15.53-12.05,9.55,4.62,10.68,16.67,1.12-1.3,19.38-8.08,36.66-6.77,17.27-36.12-47.49-61.86-59.3-25.73-11.81,82.22-34.22,112.89-50.98,30.67-16.76,9.8,25.1,57.85,91.56,48.05,66.45-70.73,107.47-108.5,108.35-37.78.88,7.14-54.48-69.25-116.35-76.39-61.86-146.17,10.67-79.39,81.61,66.78,70.94-7.06,70.45-120.94,106.62-113.88,36.17-253.56,130.12-253.56,130.12l-8.47-10.92Z"/><path class="cls-88" d="m588.98,483.63c-11.04,14.8-2.6,19.54-37.09,9.02-34.48-10.53,31.06-37.76,85.63-49.43,54.57-11.67,63.25,21.31,56.37,85.96-5.56,52.23-50.76,88.34-86.8,81.57-36.04-6.77-20.42-38.97-68.54-70.34-48.12-31.37-105.11-30.95-105.11-30.95,0,0,78.14,9.14,113.86,43.26,35.72,34.12,21.53,35.26,45.08,61.25,23.54,25.99,90.19-2.14,100.42-54.63,10.23-52.5,9.23-88.09,11.63-112.2,2.39-24.12-114.5-31.02-163.86-2.41-47.61,27.59-27.18,28.77,20.04,61.02,47.22,32.25,35.73,36.49,41.47,42.97,5.74,6.47,10.97-19.89,10.99-30.32.02-10.43-24.09-34.74-24.09-34.74Z"/><path class="cls-104" d="m134.91,904.45s70.49-108.97,135.66-130.67c65.18-21.7,24.44,17.79,105.01,32.11,80.57,14.32,132.68-28.39,156.67-81.72,23.99-53.33-31.81-126.59-88.95-143.12-57.13-16.53-6.41-27.51-6.41-27.51,0,0-35.68-1.03-30.71,19.02s49.08,15.63,48.18,45.29c-.9,29.67-41.88,40.32-130.37,64.73-88.5,24.41-255.43,144.96-255.43,144.96l66.35,76.91Z"/><path class="cls-73" d="m1.01,755.81c171.92-62.78,285.65-78,206.97-138.48-78.68-60.48-19.14-89.57,66.72-118,85.86-28.43,179.53-30.45,184.82-28.3,5.29,2.15-80.27,35.06-145.06,49.21s-28.33.49.83-14.39c29.16-14.88-88.65,7.29-121.23,38.76-32.58,31.47,77.95,50.78,120.85,91.33,42.9,40.54-86.54,106.3-167.05,143.7-80.51,37.4-89.88,38.59-89.88,38.59L1.01,755.81Z"/></g><path class="cls-47" d="m300.03,975.14c2.18,36.46,314.65,50,354.86,179.58,40.21,129.58,77.52-55.13,14.95-93.18-62.56-38.05,10.7-50.54,135.38-51.52,124.68-.98,119.31,13.1,100.65,42.5-18.66,29.4-41.65,24.78-80.53,9.02-38.88-15.76,1.83-18.22,2.82-32.95.99-14.73-65.45-23.77-108.65,3.03-43.2,26.81-12.45,74.12,90.86,91.42,103.31,17.3-3.13,69.54-128.36,123.83-125.23,54.29-92.95-11.32-194.05-27-101.1-15.68-185.75,56.75-185.75,56.75l-2.18-301.49Z"/><path class="cls-68" d="m302.8,1010.42c62.71,3.94,285.87,40.02,284.86,123.33-1.01,83.31,17.04,89.44,94.31,84.05,77.27-5.39,79.91-80.28,25.17-131.16-54.74-50.88-60.66-62.91,52.02-73.46,112.68-10.55,119.52,8.44,131.03,26.85,11.51,18.41-17.4,20.49-43.88,19.81-26.48-.68-14.88-10.23-10.47-30.11,4.4-19.88-127.6-24.61-145.28,6.07-17.67,30.68,37.75,77.33,102.01,90.72,64.25,13.39,18.74,65.36-108.01,109.01-126.75,43.65-87.43-45.77-125.12-119.46-37.68-73.69-258.62-29.43-258.62-29.43l1.97-76.21Z"/><path class="cls-65" d="m302.76,1073.91s157.94-1.54,220.84,23.73c62.9,25.27,35,63.31,30.62,110.74-4.38,47.43,63.49,51.65,89.16,50.75,25.67-.9-43.21,8.38-62.56,3.06-19.35-5.32-28-28.37-63.17-40.64-35.16-12.26-5.28-17.69,22.9,2.79,28.18,20.48-1.99-5.77,11.03-42.77,25.15-71.43-18.29-84.03-100.26-92.46-81.97-8.43,4.5,25.06,47.29,50.63,42.79,25.57-44.32,1.18-118.17,25.57-73.85,24.39-77.69-91.41-77.69-91.41Z"/><path class="cls-8" d="m732.19,1196.27s32.16-23.42,35.1-44.8c2.94-21.38-68.73-56.62-80.71-90.65-11.98-34.03,74.24-62.64,139.99-46.68,65.75,15.96,38.05,21.59-2.74,38.81-40.8,17.21,6.88-6.36-20.59-10.39-27.47-4.02-37.79,15.39-49.92,29.33-12.13,13.93,10.2,7.31,61.79,21.16,51.6,13.85,68.86-30.46,75.07-41.88,6.22-11.43-4.38-35.17-49.99-39.85-45.61-4.68-119.01-4.36-153.62,23.93-34.61,28.29,61,83.4,60.37,111.71-.63,28.31-14.76,49.32-14.76,49.32Z"/><path class="cls-94" d="m690.57,1070.83s51.14,39.02,54.19,68.94c3.06,29.92-5.94,61.62-37.62,75.13,0,0,41.86-17.02,58.24-49.64,16.38-32.62-38.15-62.67-50.77-74.47-12.62-11.8-24.04-19.96-24.04-19.96Z"/><path class="cls-76" d="m302.8,1010.42s160.02,17.96,218.35,57.02c58.33,39.06,62.69,51.2,64.31,81.32,1.62,30.12,5.5,46.02,17.86,58.4,0,0-17.32-23.75-15.29-49.35,2.03-25.61,12.06-49.4-27.54-80.12-39.59-30.72-258.18-84.63-258.18-84.63l.47,17.37Z"/><g class="cls-111"><path class="cls-36" d="m302.66,1192.57c33.44-22.57,225.3-79.49,330.73-52.72,105.43,26.78,116.98,5.75,162.42-27.06,45.43-32.81-80.45-88.27,23.43-70.54,103.88,17.73,111.9,51.85,67.6,105.02-44.3,53.18,67.23,47.69,122.57,38.98,55.35-8.71,154.11-97.37,102.13-153.94-51.98-56.57-79.61-51.09-135.32-37.66-55.71,13.43-12.78,50.93-27.1,91.2-14.32,40.27,46.28-18.52,86.15-22.08,39.87-3.56-22.49,93.09-82.93,92.5-60.43-.59-20.67-35.66-32.43-90.01-11.76-54.34-89.01-90.2-167.02-85.84-78.01,4.36.47,61.27-73.21,87.12-73.68,25.85-377.03-19.35-377.03-19.35v144.37Z"/><path class="cls-91" d="m302.66,1071.21c13.12,36.81,328.06,81.01,420.54,48.49,92.48-32.52,13.82-52.75-2.73-76.48-16.55-23.73-5.19-41.38,46.74-54.67,51.93-13.29,127.1,25.43,145.4,71.65,18.3,46.22,9.14,37.31,1.36,81.92-7.78,44.61,60.7,28.09,113.59-1.23,0,0-24.01,27.7-71.31,35.36-83.22,13.49-33.74-32.89-49.8-94.43-16.06-61.54-129.66-74.2-155.73-62.72-26.08,11.47,39.17,55.19,22.59,78.81-29.73,42.34-131.07,36.5-282.16,40.93-151.09,4.43-181.67,43.63-188.48,48.12-6.8,4.49,0-115.75,0-115.75Z"/><path class="cls-103" d="m300.45,1141.78s130.51-33.19,250.85-41.57c120.34-8.38,87.51-48.25,41.55-120.11-45.96-71.86,209.54-39.23,298.86-12.91,89.33,26.32,24.46,139.84,36.57,175.34,12.11,35.51,61.28,28.6,104.73,16.11,43.45-12.49,27.42-68.04,36.52-96.24,9.1-28.21-49.31-13.79-70.57-4.74-21.26,9.05-17.34,3.74-3.92,10.81,13.41,7.07-15.4,16.08-33.91,28.35-18.52,12.27,4.14-53.81-9.14-73.34-13.28-19.53,95.45.93,134.01-2.14,38.55-3.07-10.13,25.04-18.06,99.42-7.93,74.39-139.62,65.86-172.54,52.76-32.92-13.1,46.25-43.92,26.59-124.78-19.66-80.86-132.72-44.5-127.96,40.6,4.77,85.09-57.95,57.59-181.89,46.73-123.94-10.87-312.49,18.15-312.49,18.15l.81-12.44Z"/><path class="cls-72" d="m1000.67,1038.32c-20.34,8.59-16.63,15.74-38.32-5.9-21.7-21.64,54.36-20.86,109.57-10.82,55.22,10.04,38.32,41.41-15.2,94.1-43.25,42.58-108.47,56.84-134.26,37.84-25.79-19,11.27-40.78-6.71-85.22-17.99-44.44-66.98-64.99-66.98-64.99,0,0,60.02,36.46,65.39,78.71,5.37,42.25-7.59,38.02-6.63,68.85.96,30.84,78.62,31.26,126.05-9.84,47.43-41.09,72.8-71.86,92.62-91.58,19.82-19.72-74.95-68.49-138.2-62.16-61.01,6.11-44.43,14.61-27.86,59.48,16.57,44.87,3.63,44.28,3.76,51.92.14,7.64,24.03-12.97,31.74-21.87,7.71-8.9,5.02-38.51,5.02-38.51Z"/><path class="cls-38" d="m302.66,1231.26s140.52-67.23,212.19-61.87c71.67,5.36,7.77,24.16,66.04,65.94,58.27,41.79,134.27,24.41,194.06-12.35,59.79-36.76,66.11-119.8,29.49-154.88-36.62-35.08,14.8-25.85,14.8-25.85,0,0-29.72-13.96-40.25,4.98-10.52,18.95,30.41,31.35,7.78,56.36-22.64,25.01-65.49,19.09-159.07,7.48-93.58-11.61-325.03,30.15-325.03,30.15v90.03Z"/><path class="cls-15" d="m297.83,1055.17c193.13,9.42,301.5,38.14,278.86-42.38-22.64-80.52,49.65-83.53,143.95-76.33,94.3,7.2,175.8,39.83,178.73,43.61,2.93,3.78-94.41.51-160.18-11.16-65.77-11.67-24.56-9.97,11.32-11.99,35.88-2.02-81.1-26.29-132.12-11.35-51.02,14.94,29.16,71.97,35.93,122.34,6.77,50.37-152.27,59.07-248.61,61.49-96.34,2.42-105.22,0-105.22,0l-2.66-74.23Z"/></g><path class="cls-83" d="m303.84,279.27c26.4,14.56,177.84,51.29,261.07,34.01,83.22-17.28,92.35-3.71,128.21,17.46,35.86,21.17-63.5,56.95,18.49,45.51,82-11.44,88.33-33.45,53.36-67.76-34.97-34.31,53.07-30.77,96.76-25.15,43.69,5.62,121.66,62.82,80.62,99.32-41.03,36.5-62.84,32.96-106.82,24.3-43.98-8.66-10.08-32.86-21.39-58.84-11.31-25.98,36.53,11.95,68.01,14.24,31.48,2.29-17.76-60.06-65.46-59.68-47.71.38-16.31,23.01-25.6,58.07-9.28,35.06-70.27,58.2-131.84,55.39-61.58-2.81.37-39.53-57.79-56.21-58.16-16.68-297.62,12.49-297.62,12.49v-93.15Z"/><path class="cls-53" d="m303.84,357.58c10.36-23.75,258.96-52.27,331.96-31.29,73,20.98,10.91,34.04-2.15,49.35-13.07,15.31-4.1,26.7,36.9,35.28,40.99,8.58,100.33-16.41,114.77-46.23,14.44-29.82,7.22-24.07,1.08-52.85-6.14-28.78,47.92-18.12,89.66.8,0,0-18.95-17.87-56.29-22.82-65.69-8.7-26.63,21.22-39.31,60.93-12.68,39.7-102.35,47.87-122.93,40.47-20.58-7.4,30.92-35.61,17.83-50.85-23.46-27.32-103.46-23.55-222.73-26.41-119.27-2.86-143.41-28.15-148.78-31.05-5.37-2.9,0,74.68,0,74.68Z"/><path class="cls-7" d="m302.1,312.04s103.02,21.42,198.02,26.82c94.99,5.41,69.08,31.13,32.8,77.5-36.28,46.37,165.41,25.31,235.92,8.33,70.51-16.98,19.31-90.22,28.86-113.13,9.56-22.91,48.37-18.45,82.67-10.4,34.3,8.06,21.64,43.9,28.82,62.1,7.18,18.2-38.92,8.9-55.71,3.06-16.79-5.84-13.68-2.41-3.1-6.98,10.59-4.56-12.16-10.37-26.77-18.29-14.62-7.92,3.27,34.72-7.21,47.32-10.48,12.6,75.35-.6,105.78,1.38,30.43,1.98-8-16.15-14.26-64.15-6.26-48-110.21-42.5-136.2-34.04-25.99,8.45,36.51,28.34,20.99,80.51-15.52,52.17-104.77,28.71-101.01-26.19,3.76-54.9-45.74-37.16-143.58-30.15-97.84,7.01-246.68-11.71-246.68-11.71l.64,8.03Z"/><path class="cls-71" d="m854.84,378.8c-16.05-5.54-13.13-10.16-30.25,3.81-17.13,13.96,42.91,13.46,86.5,6.98,43.59-6.48,30.25-26.72-12-60.72-34.14-27.47-85.62-36.68-105.98-24.42-20.36,12.26,8.9,26.31-5.3,54.99-14.2,28.68-52.87,41.93-52.87,41.93,0,0,47.38-23.53,51.62-50.79,4.24-27.26-5.99-24.53-5.24-44.43.76-19.9,62.06-20.17,99.5,6.35,37.44,26.51,57.47,46.36,73.11,59.09,15.64,12.73-59.16,44.19-109.09,40.11-48.16-3.94-35.07-9.43-21.99-38.38,13.08-28.95,2.86-28.57,2.97-33.5.11-4.93,18.97,8.37,25.05,14.11,6.08,5.74,3.97,24.85,3.97,24.85Z"/><path class="cls-62" d="m303.84,254.31s110.92,43.38,167.5,39.92c56.58-3.46,6.13-15.59,52.13-42.55,46-26.96,105.99-15.75,153.19,7.97,47.2,23.72,52.19,77.3,23.28,99.93-28.91,22.63,11.68,16.68,11.68,16.68,0,0-23.46,9.01-31.77-3.22-8.31-12.23,24.01-20.23,6.14-36.36-17.87-16.14-51.7-12.32-125.57-4.83-73.87,7.49-256.57-19.45-256.57-19.45v-58.09Z"/><path class="cls-45" d="m300.03,367.92c152.45-6.08,238-24.61,220.12,27.35-17.87,51.95,39.19,53.9,113.63,49.25,74.44-4.65,138.77-25.7,141.09-28.14,2.31-2.44-74.52-.33-126.44,7.2-51.92,7.53-19.39,6.43,8.93,7.73,28.32,1.3-64.02,16.96-104.3,7.32s23.02-46.44,28.36-78.93c5.34-32.5-120.2-38.11-196.25-39.67-76.05-1.56-83.06,0-83.06,0l-2.1,47.89Z"/><g class="cls-111"><path class="cls-82" d="m254.92,245.71c43.58-16.16,256.19-32.46,362.55,17.07,113.17,52.7,125.43,31.96,172.8,6.91,45.12-23.86-84.33-101.35,19.31-64.83,108.23,38.13,122.62,74.5,83.39,122.6-42.77,52.44,86.23,72.9,148.85,75.57,62.19,2.65,140.99-78.4,65.1-148.46-68.7-63.43-94.67-63.83-146.96-62.53-52.98,1.32-3.06,45.15-10.14,82.61-7.57,39.99,45.04-9.19,86.26-4.39,41.22,4.79,1.01,97.64-67.9,82.73-68.18-14.75-30.41-45.12-52.63-104.42-20.28-54.13-99.55-100.31-173.72-111.1-73.87-10.74,1.77,53.8-72.2,63.15-76.3,9.65-363.18-90.24-363.18-90.24l-51.52,135.33Z"/><path class="cls-81" d="m299.01,129.89c.47,35.33,314.55,145.42,414.47,131.32,95.9-13.53,14.08-49.58-2.61-75.04-16.03-24.46-4.85-37.6,44.8-39.2,49.01-1.58,126.08,46.63,151.28,94.07,27.26,51.31,15.81,39.88,15.29,86.77-.57,50.65,74.73,47.02,126.96,24.72,0,0-19.39,27.24-71.97,25.21-93.31-3.61-45.27-46.58-73.32-116.34-25.26-62.81-138.33-96.18-163.43-91.06-25.47,5.19,41.32,59.19,25.26,79.23-30.32,37.84-138.47,9.43-297.4-18.48-156.49-27.48-202.28,5.53-211.17,8.72-8.96,3.22,41.85-109.93,41.85-109.93Z"/><path class="cls-1" d="m272.23,193.92s141.63-4.93,264.68,11.67c123.54,16.67,92.76-27.53,54.54-97.63-34.1-62.54,195.39,6.21,281.91,44.08,91.15,39.89,45.09,137.73,64.89,179.52,21.12,44.56,76.14,47.97,122.56,43.25,45.71-4.65,9.82-71.05,11.16-98.72,1.29-26.44-55.58-24.25-75.62-19.64-20.28,4.66-17.31.13-1.62,10.1,15.9,10.11-12.68,13.29-29.85,22.18-17.48,9.06-6.62-53.68-23.83-74.97-16.65-20.6,97.35,20.03,136.09,24.87,38.76,4.85-3.2,22.53,11.19,100.09,16.37,88.19-141.06,44.98-181.42,21.24-39.21-23.07,43.56-39.92,7.9-128.18-31.19-77.18-137.22-67.12-127.85,13.53,10.8,92.99-59.55,47.69-191.61,8.91-127.2-37.36-328.59-48.31-328.59-48.31l5.48-11.99Z"/><path class="cls-74" d="m993.71,237.72c-19.12,4.21-13.74,12.03-40.49-13.44-25.76-24.53,50.77-8.81,109.54,11.76,60.2,21.07,52.77,49.34,11.48,94.44-35.95,39.27-107.06,40.88-140.35,12.37-32.06-27.45,4.61-43.06-22.36-93.1-24.99-46.38-75.91-74.53-75.91-74.53,0,0,64.32,45.28,76.48,88.05,13.06,45.92-1.83,38.41,4.55,73.07,6.74,36.6,96.77,55.88,139.42,17.8,39.96-35.68,57.38-63.13,71.88-79.31,14.07-15.7-96.65-80.61-157.77-87.11-59.01-6.27-41.28,4.54-16.44,49.96,26.78,48.97,12.78,45.55,14.55,53.65,1.8,8.2,22.91-8.48,29.05-16.08,6.06-7.5-3.61-37.52-3.61-37.52Z"/><path class="cls-49" d="m238.83,287.97s173.5-41.36,248.25-19.94c76.31,21.87,3.59,28.21,61.31,90.97,63,68.49,155.21,64.94,225.17,32.39,65.98-30.69,63.99-121.96,22.81-164.9-38.68-40.32,13.2-21.64,13.2-21.64,0,0-30.56-18.74-40.17-3.38-9.89,15.81,32.82,36.32,10.76,56.75-22.93,21.23-68.72,5.67-166.24-26.13-94.31-30.75-339.25-38.27-339.25-38.27l-35.83,94.13Z"/><path class="cls-46" d="m299.65,115.32c183.1,45.18,286.87,93.49,273.3,16.58-11.96-67.73,53.1-57.57,138.42-35.66,87.3,22.41,167.65,64.45,170.97,68.26,3.34,3.83-90.86-17.24-153.64-39.06-61.14-21.25-22.98-12.52,10.43-7.69,33.47,4.84-74.28-34.93-121.38-32.39-47.82,2.58,22.61,63.92,26.36,110.51,4.07,50.58-162.09,25.67-261.19,7.91-98.08-17.57-106.1-21.69-106.1-21.69l22.85-66.76Z"/></g><path class="cls-79" d="m547.07,348.65c-2.65,0-4.8-1.52-4.8-3.39s2.15-3.39,4.8-3.39,4.8,1.52,4.8,3.39-2.15,3.39-4.8,3.39Z"/><path class="cls-64" d="m538.17,319.08c-1.33,0-2.4-.76-2.4-1.69s1.08-1.69,2.4-1.69,2.4.76,2.4,1.69-1.08,1.69-2.4,1.69Z"/><path class="cls-96" d="m537.48,166.14c-.94,0-1.7-.54-1.7-1.2s.76-1.2,1.7-1.2,1.7.54,1.7,1.2-.76,1.2-1.7,1.2Z"/><path class="cls-22" d="m548.3,1185.33c-.94,0-1.7-.54-1.7-1.2s.76-1.2,1.7-1.2,1.7.54,1.7,1.2-.76,1.2-1.7,1.2Z"/><path class="cls-55" d="m468.54,315.7c-.94,0-1.7-.54-1.7-1.2s.76-1.2,1.7-1.2,1.7.54,1.7,1.2-.76,1.2-1.7,1.2Z"/><path class="cls-51" d="m274.26,1057.78c-.94,0-1.7-.54-1.7-1.2s.76-1.2,1.7-1.2,1.7.54,1.7,1.2-.76,1.2-1.7,1.2Z"/><path class="cls-99" d="m589.05,1159.07c-1.33,0-2.4-.76-2.4-1.69s1.08-1.69,2.4-1.69,2.4.76,2.4,1.69-1.08,1.69-2.4,1.69Z"/><path class="cls-31" d="m467.37,1145.28c-1.33,0-2.4-.76-2.4-1.69s1.08-1.69,2.4-1.69,2.4.76,2.4,1.69-1.08,1.69-2.4,1.69Z"/><path class="cls-86" d="m361.63,228.64c-1.33,0-2.4-.76-2.4-1.69s1.08-1.69,2.4-1.69,2.4.76,2.4,1.69-1.08,1.69-2.4,1.69Z"/><path class="cls-40" d="m195.32,1058.28c-1.33,0-2.4-.76-2.4-1.69s1.08-1.69,2.4-1.69,2.4.76,2.4,1.69-1.08,1.69-2.4,1.69Z"/><path class="cls-23" d="m279.51,346.96c-1.33,0-2.4-.76-2.4-1.69s1.08-1.69,2.4-1.69,2.4.76,2.4,1.69-1.08,1.69-2.4,1.69Z"/><ellipse class="cls-35" cx="483.07" cy="273.46" rx="12.61" ry="8.9"/><ellipse class="cls-54" cx="491.07" cy="1158.35" rx="12.61" ry="8.9"/><ellipse class="cls-24" cx="599.04" cy="291.98" rx="21.3" ry="15.03"/><ellipse class="cls-19" cx="586.65" cy="1092.95" rx="22.74" ry="16.04"/><ellipse class="cls-70" cx="380.22" cy="1397.98" rx="12.61" ry="8.9"/><ellipse class="cls-89" cx="363.84" cy="315.7" rx="12.61" ry="8.9"/><ellipse class="cls-28" cx="453.57" cy="299.31" rx="24.01" ry="16.94"/><ellipse class="cls-56" cx="559.7" cy="1105.69" rx="24.01" ry="16.94"/></g></g></g></svg>