<?xml version="1.0" encoding="UTF-8"?><svg xmlns="http://www.w3.org/2000/svg" xmlns:xlink="http://www.w3.org/1999/xlink" viewBox="0 0 1280 720"><defs><style>.cls-1{fill:url(#_Áĺçűě_ííűé_ăđŕäčĺíň_49-27);}.cls-1,.cls-2,.cls-3,.cls-4,.cls-5,.cls-6,.cls-7,.cls-8,.cls-9,.cls-10,.cls-11,.cls-12,.cls-13,.cls-14,.cls-15,.cls-16,.cls-17,.cls-18,.cls-19,.cls-20,.cls-21,.cls-22,.cls-23,.cls-24,.cls-25,.cls-26,.cls-27,.cls-28,.cls-29,.cls-30,.cls-31,.cls-32,.cls-33,.cls-34,.cls-35,.cls-36,.cls-37,.cls-38,.cls-39,.cls-40,.cls-41,.cls-42,.cls-43,.cls-44,.cls-45,.cls-46,.cls-47,.cls-48,.cls-49,.cls-50,.cls-51,.cls-52,.cls-53,.cls-54,.cls-55,.cls-56,.cls-57,.cls-58,.cls-59,.cls-60,.cls-61,.cls-62,.cls-63,.cls-64,.cls-65,.cls-66,.cls-67,.cls-68,.cls-69,.cls-70,.cls-71,.cls-72,.cls-73,.cls-74,.cls-75,.cls-76,.cls-77,.cls-78,.cls-79,.cls-80,.cls-81,.cls-82,.cls-83,.cls-84,.cls-85,.cls-86,.cls-87,.cls-88,.cls-89,.cls-90,.cls-91,.cls-92,.cls-93,.cls-94,.cls-95,.cls-96,.cls-97,.cls-98,.cls-99,.cls-100,.cls-101,.cls-102,.cls-103,.cls-104,.cls-105,.cls-106,.cls-107,.cls-108,.cls-109,.cls-110,.cls-111,.cls-112,.cls-113,.cls-114,.cls-115,.cls-116{fill-rule:evenodd;}.cls-117,.cls-47,.cls-118,.cls-52,.cls-79,.cls-95,.cls-119,.cls-120{mix-blend-mode:soft-light;}.cls-117,.cls-47,.cls-79{fill:#ab7774;}.cls-2{fill:url(#_Áĺçűě_ííűé_ăđŕäčĺíň_49-15);}.cls-3{fill:url(#_Áĺçűě_ííűé_ăđŕäčĺíň_29-21);}.cls-4{fill:url(#_Áĺçűě_ííűé_ăđŕäčĺíň_49-35);}.cls-5{fill:url(#_Áĺçűě_ííűé_ăđŕäčĺíň_33-3);}.cls-6{fill:url(#_Áĺçűě_ííűé_ăđŕäčĺíň_49-34);}.cls-121,.cls-28,.cls-48,.cls-122{fill:#890066;}.cls-7{fill:url(#_Áĺçűě_ííűé_ăđŕäčĺíň_49-12);}.cls-8{fill:url(#_Áĺçűě_ííűé_ăđŕäčĺíň_49-11);}.cls-9{fill:url(#_Áĺçűě_ííűé_ăđŕäčĺíň_29-16);}.cls-10{fill:url(#_Áĺçűě_ííűé_ăđŕäčĺíň_49-44);}.cls-11{fill:url(#_Áĺçűě_ííűé_ăđŕäčĺíň_49-13);}.cls-12{fill:url(#_Áĺçűě_ííűé_ăđŕäčĺíň_29-15);}.cls-13{fill:url(#_Áĺçűě_ííűé_ăđŕäčĺíň_49-40);}.cls-14{fill:url(#_Áĺçűě_ííűé_ăđŕäčĺíň_30-6);}.cls-15{fill:url(#_Áĺçűě_ííűé_ăđŕäčĺíň_33);}.cls-16{fill:url(#_Áĺçűě_ííűé_ăđŕäčĺíň_29-25);}.cls-123{opacity:.2;}.cls-123,.cls-28,.cls-122,.cls-124{mix-blend-mode:multiply;}.cls-17{fill:url(#_Áĺçűě_ííűé_ăđŕäčĺíň_29-34);}.cls-18{fill:url(#_Áĺçűě_ííűé_ăđŕäčĺíň_49-55);}.cls-19{fill:url(#_Áĺçűě_ííűé_ăđŕäčĺíň_42-4);}.cls-20{fill:url(#_Áĺçűě_ííűé_ăđŕäčĺíň_29-19);}.cls-21{fill:url(#_Áĺçűě_ííűé_ăđŕäčĺíň_29-2);}.cls-22{fill:url(#_Áĺçűě_ííűé_ăđŕäčĺíň_29-39);}.cls-125{isolation:isolate;}.cls-23{fill:url(#_Áĺçűě_ííűé_ăđŕäčĺíň_49-19);}.cls-24{fill:url(#_Áĺçűě_ííűé_ăđŕäčĺíň_49-10);}.cls-25{fill:url(#_Áĺçűě_ííűé_ăđŕäčĺíň_49-6);}.cls-26{fill:url(#_Áĺçűě_ííűé_ăđŕäčĺíň_29-13);}.cls-27{fill:url(#_Áĺçűě_ííűé_ăđŕäčĺíň_29-5);}.cls-28,.cls-118,.cls-52,.cls-122,.cls-124,.cls-79,.cls-95,.cls-119{opacity:.5;}.cls-29{fill:url(#_Áĺçűě_ííűé_ăđŕäčĺíň_49-49);}.cls-30{fill:url(#_Áĺçűě_ííűé_ăđŕäčĺíň_29-9);}.cls-31{fill:url(#_Áĺçűě_ííűé_ăđŕäčĺíň_49-39);}.cls-32{fill:url(#_Áĺçűě_ííűé_ăđŕäčĺíň_29-14);}.cls-33{fill:url(#_Áĺçűě_ííűé_ăđŕäčĺíň_33-2);}.cls-34{fill:url(#_Áĺçűě_ííűé_ăđŕäčĺíň_49-29);}.cls-35{fill:url(#_Áĺçűě_ííűé_ăđŕäčĺíň_29-27);}.cls-36{fill:url(#_Áĺçűě_ííűé_ăđŕäčĺíň_29-24);}.cls-37{fill:url(#_Áĺçűě_ííűé_ăđŕäčĺíň_29-10);}.cls-38{fill:url(#_Áĺçűě_ííűé_ăđŕäčĺíň_42);}.cls-39{fill:url(#_Áĺçűě_ííűé_ăđŕäčĺíň_49-47);}.cls-40{fill:url(#_Áĺçűě_ííűé_ăđŕäčĺíň_29);}.cls-41{fill:url(#_Áĺçűě_ííűé_ăđŕäčĺíň_29-3);}.cls-42{fill:url(#_Áĺçűě_ííűé_ăđŕäčĺíň_49-26);}.cls-43{fill:url(#_Áĺçűě_ííűé_ăđŕäčĺíň_30);}.cls-126{clip-path:url(#clippath-1);}.cls-44{fill:url(#_Áĺçűě_ííűé_ăđŕäčĺíň_49-31);}.cls-45{fill:url(#_Áĺçűě_ííűé_ăđŕäčĺíň_29-20);}.cls-46{fill:url(#_Áĺçűě_ííűé_ăđŕäčĺíň_29-26);}.cls-118,.cls-95{fill:#ffb188;}.cls-49{fill:url(#_Áĺçűě_ííűé_ăđŕäčĺíň_49-54);}.cls-50{fill:url(#_Áĺçűě_ííűé_ăđŕäčĺíň_49-50);}.cls-127{fill:url(#radial-gradient);}.cls-51{fill:url(#_Áĺçűě_ííűé_ăđŕäčĺíň_49-8);}.cls-52,.cls-119,.cls-120{fill:#ff9056;}.cls-53{fill:url(#_Áĺçűě_ííűé_ăđŕäčĺíň_29-11);}.cls-54{fill:url(#_Áĺçűě_ííűé_ăđŕäčĺíň_49);}.cls-55{fill:url(#_Áĺçűě_ííűé_ăđŕäčĺíň_30-4);}.cls-56{fill:url(#_Áĺçűě_ííűé_ăđŕäčĺíň_49-28);}.cls-57{fill:url(#_Áĺçűě_ííűé_ăđŕäčĺíň_49-37);}.cls-58{fill:url(#_Áĺçűě_ííűé_ăđŕäčĺíň_29-37);}.cls-59{fill:url(#_Áĺçűě_ííűé_ăđŕäčĺíň_49-3);}.cls-60{fill:url(#_Áĺçűě_ííűé_ăđŕäčĺíň_29-7);}.cls-61{fill:url(#_Áĺçűě_ííűé_ăđŕäčĺíň_49-52);}.cls-62{fill:url(#_Áĺçűě_ííűé_ăđŕäčĺíň_49-20);}.cls-63{fill:url(#_Áĺçűě_ííűé_ăđŕäčĺíň_49-17);}.cls-64{fill:url(#_Áĺçűě_ííűé_ăđŕäčĺíň_30-5);}.cls-65{fill:url(#_Áĺçűě_ííűé_ăđŕäčĺíň_29-8);}.cls-66{fill:url(#_Áĺçűě_ííűé_ăđŕäčĺíň_42-2);}.cls-67{fill:url(#_Áĺçűě_ííűé_ăđŕäčĺíň_49-23);}.cls-68{fill:url(#_Áĺçűě_ííűé_ăđŕäčĺíň_49-46);}.cls-69{fill:url(#_Áĺçűě_ííűé_ăđŕäčĺíň_49-53);}.cls-70{fill:url(#_Áĺçűě_ííűé_ăđŕäčĺíň_29-22);}.cls-71{fill:url(#_Áĺçűě_ííűé_ăđŕäčĺíň_49-43);}.cls-72{fill:url(#_Áĺçűě_ííűé_ăđŕäčĺíň_49-9);}.cls-73{fill:url(#_Áĺçűě_ííűé_ăđŕäčĺíň_29-12);}.cls-74{fill:url(#_Áĺçűě_ííűé_ăđŕäčĺíň_30-2);}.cls-75{fill:url(#_Áĺçűě_ííűé_ăđŕäčĺíň_29-18);}.cls-128{fill:#ffde70;}.cls-76{fill:url(#_Áĺçűě_ííűé_ăđŕäčĺíň_49-22);}.cls-129{fill:url(#_Áĺçűě_ííűé_ăđŕäčĺíň_43);}.cls-77{fill:url(#_Áĺçűě_ííűé_ăđŕäčĺíň_29-31);}.cls-130{clip-path:url(#clippath);}.cls-78{fill:url(#_Áĺçűě_ííűé_ăđŕäčĺíň_29-41);}.cls-131{clip-rule:evenodd;}.cls-131,.cls-132{fill:none;}.cls-80{fill:url(#_Áĺçűě_ííűé_ăđŕäčĺíň_49-18);}.cls-81{fill:url(#_Áĺçűě_ííűé_ăđŕäčĺíň_49-51);}.cls-82{fill:url(#_Áĺçűě_ííűé_ăđŕäčĺíň_49-24);}.cls-83{fill:url(#_Áĺçűě_ííűé_ăđŕäčĺíň_29-28);}.cls-84{fill:url(#_Áĺçűě_ííűé_ăđŕäčĺíň_29-38);}.cls-85{fill:url(#_Áĺçűě_ííűé_ăđŕäčĺíň_49-48);}.cls-86{fill:url(#_Áĺçűě_ííűé_ăđŕäčĺíň_49-42);}.cls-87{fill:url(#_Áĺçűě_ííűé_ăđŕäčĺíň_49-33);}.cls-88{fill:url(#_Áĺçűě_ííűé_ăđŕäčĺíň_49-5);}.cls-89{fill:url(#_Áĺçűě_ííűé_ăđŕäčĺíň_29-33);}.cls-90{fill:url(#_Áĺçűě_ííűé_ăđŕäčĺíň_29-4);}.cls-91{fill:url(#_Áĺçűě_ííűé_ăđŕäčĺíň_49-32);}.cls-92{fill:url(#_Áĺçűě_ííűé_ăđŕäčĺíň_49-30);}.cls-93{fill:url(#_Áĺçűě_ííűé_ăđŕäčĺíň_49-45);}.cls-94{fill:url(#_Áĺçűě_ííűé_ăđŕäčĺíň_29-40);}.cls-96{fill:url(#_Áĺçűě_ííűé_ăđŕäčĺíň_33-4);}.cls-97{fill:url(#_Áĺçűě_ííűé_ăđŕäčĺíň_49-7);}.cls-98{fill:url(#_Áĺçűě_ííűé_ăđŕäčĺíň_49-38);}.cls-99{fill:url(#_Áĺçűě_ííűé_ăđŕäčĺíň_29-17);}.cls-100{fill:url(#_Áĺçűě_ííűé_ăđŕäčĺíň_29-36);}.cls-101{fill:url(#_Áĺçűě_ííűé_ăđŕäčĺíň_42-3);}.cls-102{fill:url(#_Áĺçűě_ííűé_ăđŕäčĺíň_29-35);}.cls-103{fill:url(#_Áĺçűě_ííűé_ăđŕäčĺíň_29-23);}.cls-104{fill:url(#_Áĺçűě_ííűé_ăđŕäčĺíň_49-36);}.cls-105{fill:url(#_Áĺçűě_ííűé_ăđŕäčĺíň_49-21);}.cls-106{fill:url(#_Áĺçűě_ííűé_ăđŕäčĺíň_49-16);}.cls-107{fill:url(#_Áĺçűě_ííűé_ăđŕäčĺíň_49-14);}.cls-108{fill:url(#_Áĺçűě_ííűé_ăđŕäčĺíň_29-30);}.cls-109{fill:url(#_Áĺçűě_ííűé_ăđŕäčĺíň_49-41);}.cls-110{fill:url(#_Áĺçűě_ííűé_ăđŕäčĺíň_49-4);}.cls-111{fill:url(#_Áĺçűě_ííűé_ăđŕäčĺíň_30-3);}.cls-112{fill:url(#_Áĺçűě_ííűé_ăđŕäčĺíň_29-32);}.cls-113{fill:url(#_Áĺçűě_ííűé_ăđŕäčĺíň_49-2);}.cls-114{fill:url(#_Áĺçűě_ííűé_ăđŕäčĺíň_29-6);}.cls-115{fill:url(#_Áĺçűě_ííűé_ăđŕäčĺíň_49-25);}.cls-116{fill:url(#_Áĺçűě_ííűé_ăđŕäčĺíň_29-29);}</style><clipPath id="clippath"><path class="cls-131" d="m1240,720H40c-13.35,0-25.18-6.54-32.44-16.6-4.75-6.58-7.56-14.66-7.56-23.4V40C0,27.08,6.12,15.59,15.63,8.28,22.37,3.09,30.83,0,40,0h1200c12.21,0,23.15,5.47,30.49,14.1,5.93,6.98,9.51,16.02,9.51,25.9v640c0,9.35-3.21,17.96-8.59,24.77-7.33,9.28-18.67,15.23-31.41,15.23Z"/></clipPath><radialGradient id="radial-gradient" cx="816.84" cy="673.74" fx="816.84" fy="673.74" r="958.01" gradientUnits="userSpaceOnUse"><stop offset="0" stop-color="#312425"/><stop offset=".44" stop-color="#271b1c"/><stop offset=".75" stop-color="#1d1314"/></radialGradient><clipPath id="clippath-1"><rect class="cls-132" x="640" y=".35" width="640" height="719.65"/></clipPath><radialGradient id="_Áĺçűě_ííűé_ăđŕäčĺíň_43" cx="611.06" cy="613.74" fx="611.06" fy="613.74" r="626.12" gradientTransform="translate(62.21) scale(1.11 1)" gradientUnits="userSpaceOnUse"><stop offset="0" stop-color="#8e2927"/><stop offset="1" stop-color="#5f101d"/></radialGradient><radialGradient id="_Áĺçűě_ííűé_ăđŕäčĺíň_49" cx="424.74" cy="771.88" fx="424.74" fy="771.88" r="561.04" gradientUnits="userSpaceOnUse"><stop offset="0" stop-color="#c44327"/><stop offset="1" stop-color="#77131d"/></radialGradient><radialGradient id="_Áĺçűě_ííűé_ăđŕäčĺíň_49-2" cx="424.74" cy="771.88" fx="424.74" fy="771.88" r="561.04" xlink:href="#_Áĺçűě_ííűé_ăđŕäčĺíň_49"/><radialGradient id="_Áĺçűě_ííűé_ăđŕäčĺíň_49-3" cx="424.74" cy="771.88" fx="424.74" fy="771.88" r="561.04" xlink:href="#_Áĺçűě_ííűé_ăđŕäčĺíň_49"/><radialGradient id="_Áĺçűě_ííűé_ăđŕäčĺíň_49-4" cy="771.88" fy="771.88" r="561.04" xlink:href="#_Áĺçűě_ííűé_ăđŕäčĺíň_49"/><radialGradient id="_Áĺçűě_ííűé_ăđŕäčĺíň_49-5" cx="424.74" cy="771.88" fx="424.74" fy="771.88" r="561.04" xlink:href="#_Áĺçűě_ííűé_ăđŕäčĺíň_49"/><radialGradient id="_Áĺçűě_ííűé_ăđŕäčĺíň_49-6" cx="424.74" cy="771.88" fx="424.74" fy="771.88" r="561.04" xlink:href="#_Áĺçűě_ííűé_ăđŕäčĺíň_49"/><radialGradient id="_Áĺçűě_ííűé_ăđŕäčĺíň_49-7" cy="771.88" fy="771.88" r="561.04" xlink:href="#_Áĺçűě_ííűé_ăđŕäčĺíň_49"/><radialGradient id="_Áĺçűě_ííűé_ăđŕäčĺíň_49-8" cx="424.74" cy="771.88" fx="424.74" fy="771.88" r="561.04" xlink:href="#_Áĺçűě_ííűé_ăđŕäčĺíň_49"/><radialGradient id="_Áĺçűě_ííűé_ăđŕäčĺíň_49-9" cx="424.74" cy="771.88" fx="424.74" fy="771.88" r="561.04" xlink:href="#_Áĺçűě_ííűé_ăđŕäčĺíň_49"/><radialGradient id="_Áĺçűě_ííűé_ăđŕäčĺíň_49-10" cx="424.74" cy="771.88" fx="424.74" fy="771.88" r="561.04" xlink:href="#_Áĺçűě_ííűé_ăđŕäčĺíň_49"/><radialGradient id="_Áĺçűě_ííűé_ăđŕäčĺíň_29" cx="457.01" cy="783.98" fx="457.01" fy="783.98" r="481.32" gradientUnits="userSpaceOnUse"><stop offset="0" stop-color="#6a1327"/><stop offset="1" stop-color="#3e0a1d"/></radialGradient><radialGradient id="_Áĺçűě_ííűé_ăđŕäčĺíň_42" cx="426.73" cy="516.62" fx="426.73" fy="516.62" r="649.97" gradientUnits="userSpaceOnUse"><stop offset="0" stop-color="#6a1327"/><stop offset="1" stop-color="#2e0a1d"/></radialGradient><radialGradient id="_Áĺçűě_ííűé_ăđŕäčĺíň_33" cx="426.73" cy="516.62" fx="426.73" fy="516.62" r="649.98" gradientUnits="userSpaceOnUse"><stop offset="0" stop-color="#6a1327"/><stop offset="1" stop-color="#340a1d"/></radialGradient><radialGradient id="_Áĺçűě_ííűé_ăđŕäčĺíň_29-2" cy="783.98" fy="783.98" r="481.33" xlink:href="#_Áĺçűě_ííűé_ăđŕäčĺíň_29"/><radialGradient id="_Áĺçűě_ííűé_ăđŕäčĺíň_29-3" cx="457.01" cy="783.98" fx="457.01" fy="783.98" r="481.32" xlink:href="#_Áĺçűě_ííűé_ăđŕäčĺíň_29"/><radialGradient id="_Áĺçűě_ííűé_ăđŕäčĺíň_29-4" cx="457.01" cy="783.98" fx="457.01" fy="783.98" r="481.32" xlink:href="#_Áĺçűě_ííűé_ăđŕäčĺíň_29"/><radialGradient id="_Áĺçűě_ííűé_ăđŕäčĺíň_30" cx="426.73" cy="511.47" fx="426.73" fy="511.47" r="649.97" gradientUnits="userSpaceOnUse"><stop offset="0" stop-color="#6a1327"/><stop offset="1" stop-color="#50121d"/></radialGradient><radialGradient id="_Áĺçűě_ííűé_ăđŕäčĺíň_29-5" cx="457.01" cy="783.98" fx="457.01" fy="783.98" r="481.32" xlink:href="#_Áĺçűě_ííűé_ăđŕäčĺíň_29"/><radialGradient id="_Áĺçűě_ííűé_ăđŕäčĺíň_29-6" cx="457.01" cy="783.98" fx="457.01" fy="783.98" r="481.32" xlink:href="#_Áĺçűě_ííűé_ăđŕäčĺíň_29"/><radialGradient id="_Áĺçűě_ííűé_ăđŕäčĺíň_29-7" cx="457.01" cy="783.98" fx="457.01" fy="783.98" r="481.33" xlink:href="#_Áĺçűě_ííűé_ăđŕäčĺíň_29"/><radialGradient id="_Áĺçűě_ííűé_ăđŕäčĺíň_49-11" cx="1298.17" cy="771.88" fx="1298.17" fy="771.88" r="561.04" xlink:href="#_Áĺçűě_ííűé_ăđŕäčĺíň_49"/><radialGradient id="_Áĺçűě_ííűé_ăđŕäčĺíň_49-12" cx="1298.17" cy="771.88" fx="1298.17" fy="771.88" r="561.04" xlink:href="#_Áĺçűě_ííűé_ăđŕäčĺíň_49"/><radialGradient id="_Áĺçűě_ííűé_ăđŕäčĺíň_49-13" cx="1298.17" cy="771.88" fx="1298.17" fy="771.88" r="561.04" xlink:href="#_Áĺçűě_ííűé_ăđŕäčĺíň_49"/><radialGradient id="_Áĺçűě_ííűé_ăđŕäčĺíň_49-14" cx="1298.17" cy="771.88" fx="1298.17" fy="771.88" r="561.04" xlink:href="#_Áĺçűě_ííűé_ăđŕäčĺíň_49"/><radialGradient id="_Áĺçűě_ííűé_ăđŕäčĺíň_49-15" cx="1298.17" cy="771.88" fx="1298.17" fy="771.88" r="561.04" xlink:href="#_Áĺçűě_ííűé_ăđŕäčĺíň_49"/><radialGradient id="_Áĺçűě_ííűé_ăđŕäčĺíň_49-16" cx="1298.17" cy="771.88" fx="1298.17" fy="771.88" r="561.04" xlink:href="#_Áĺçűě_ííűé_ăđŕäčĺíň_49"/><radialGradient id="_Áĺçűě_ííűé_ăđŕäčĺíň_49-17" cx="1298.17" cy="771.88" fx="1298.17" fy="771.88" r="561.04" xlink:href="#_Áĺçűě_ííűé_ăđŕäčĺíň_49"/><radialGradient id="_Áĺçűě_ííűé_ăđŕäčĺíň_49-18" cx="1298.17" cy="771.88" fx="1298.17" fy="771.88" r="561.04" xlink:href="#_Áĺçűě_ííűé_ăđŕäčĺíň_49"/><radialGradient id="_Áĺçűě_ííűé_ăđŕäčĺíň_49-19" cx="1298.17" cy="771.88" fx="1298.17" fy="771.88" r="561.04" xlink:href="#_Áĺçűě_ííűé_ăđŕäčĺíň_49"/><radialGradient id="_Áĺçűě_ííűé_ăđŕäčĺíň_49-20" cx="1298.17" cy="771.88" fx="1298.17" fy="771.88" r="561.04" xlink:href="#_Áĺçűě_ííűé_ăđŕäčĺíň_49"/><radialGradient id="_Áĺçűě_ííűé_ăđŕäčĺíň_49-21" cx="1298.17" cy="771.88" fx="1298.17" fy="771.88" r="561.04" xlink:href="#_Áĺçűě_ííűé_ăđŕäčĺíň_49"/><radialGradient id="_Áĺçűě_ííűé_ăđŕäčĺíň_49-22" cx="1298.17" cy="771.88" fx="1298.17" fy="771.88" r="561.04" xlink:href="#_Áĺçűě_ííűé_ăđŕäčĺíň_49"/><radialGradient id="_Áĺçűě_ííűé_ăđŕäčĺíň_49-23" cx="1298.17" cy="771.88" fx="1298.17" fy="771.88" r="561.04" xlink:href="#_Áĺçűě_ííűé_ăđŕäčĺíň_49"/><radialGradient id="_Áĺçűě_ííűé_ăđŕäčĺíň_49-24" cx="1298.17" cy="771.88" fx="1298.17" fy="771.88" r="561.05" xlink:href="#_Áĺçűě_ííűé_ăđŕäčĺíň_49"/><radialGradient id="_Áĺçűě_ííűé_ăđŕäčĺíň_49-25" cx="1298.17" cy="771.88" fx="1298.17" fy="771.88" r="561.05" xlink:href="#_Áĺçűě_ííűé_ăđŕäčĺíň_49"/><radialGradient id="_Áĺçűě_ííűé_ăđŕäčĺíň_29-8" cx="1330.45" cy="783.98" fx="1330.45" fy="783.98" r="481.33" xlink:href="#_Áĺçűě_ííűé_ăđŕäčĺíň_29"/><radialGradient id="_Áĺçűě_ííűé_ăđŕäčĺíň_29-9" cx="1330.45" cy="783.98" fx="1330.45" fy="783.98" r="481.32" xlink:href="#_Áĺçűě_ííűé_ăđŕäčĺíň_29"/><radialGradient id="_Áĺçűě_ííűé_ăđŕäčĺíň_29-10" cx="1330.45" cy="783.98" fx="1330.45" fy="783.98" r="481.32" xlink:href="#_Áĺçűě_ííűé_ăđŕäčĺíň_29"/><radialGradient id="_Áĺçűě_ííűé_ăđŕäčĺíň_30-2" cx="1300.16" cy="516.62" fx="1300.16" fy="516.62" r="649.98" xlink:href="#_Áĺçűě_ííűé_ăđŕäčĺíň_30"/><radialGradient id="_Áĺçűě_ííűé_ăđŕäčĺíň_29-11" cx="1330.45" cy="783.98" fx="1330.45" fy="783.98" r="481.32" xlink:href="#_Áĺçűě_ííűé_ăđŕäčĺíň_29"/><radialGradient id="_Áĺçűě_ííűé_ăđŕäčĺíň_29-12" cx="1330.45" cy="783.98" fx="1330.45" fy="783.98" r="481.32" xlink:href="#_Áĺçűě_ííűé_ăđŕäčĺíň_29"/><radialGradient id="_Áĺçűě_ííűé_ăđŕäčĺíň_30-3" cx="1300.16" cy="516.62" fx="1300.16" fy="516.62" r="649.98" xlink:href="#_Áĺçűě_ííűé_ăđŕäčĺíň_30"/><radialGradient id="_Áĺçűě_ííűé_ăđŕäčĺíň_29-13" cx="1330.45" cy="783.98" fx="1330.45" fy="783.98" r="481.33" xlink:href="#_Áĺçűě_ííűé_ăđŕäčĺíň_29"/><radialGradient id="_Áĺçűě_ííűé_ăđŕäčĺíň_29-14" cx="1330.45" cy="783.98" fx="1330.45" fy="783.98" r="481.32" xlink:href="#_Áĺçűě_ííűé_ăđŕäčĺíň_29"/><radialGradient id="_Áĺçűě_ííűé_ăđŕäčĺíň_29-15" cx="1330.45" cy="783.98" fx="1330.45" fy="783.98" r="481.32" xlink:href="#_Áĺçűě_ííűé_ăđŕäčĺíň_29"/><radialGradient id="_Áĺçűě_ííűé_ăđŕäčĺíň_42-2" cx="1300.16" cy="511.47" fx="1300.16" fy="511.47" r="649.97" xlink:href="#_Áĺçűě_ííűé_ăđŕäčĺíň_42"/><radialGradient id="_Áĺçűě_ííűé_ăđŕäčĺíň_33-2" cx="1300.16" cy="511.47" fx="1300.16" fy="511.47" r="649.98" xlink:href="#_Áĺçűě_ííűé_ăđŕäčĺíň_33"/><radialGradient id="_Áĺçűě_ííűé_ăđŕäčĺíň_29-16" cx="1330.45" cy="783.98" fx="1330.45" fy="783.98" r="481.32" xlink:href="#_Áĺçűě_ííűé_ăđŕäčĺíň_29"/><radialGradient id="_Áĺçűě_ííűé_ăđŕäčĺíň_29-17" cx="1330.45" cy="783.98" fx="1330.45" fy="783.98" r="481.32" xlink:href="#_Áĺçűě_ííűé_ăđŕäčĺíň_29"/><radialGradient id="_Áĺçűě_ííűé_ăđŕäčĺíň_29-18" cx="1330.45" cy="783.98" fx="1330.45" fy="783.98" r="481.32" xlink:href="#_Áĺçűě_ííűé_ăđŕäčĺíň_29"/><radialGradient id="_Áĺçűě_ííűé_ăđŕäčĺíň_49-26" cy="340.69" fy="340.69" r="561.04" xlink:href="#_Áĺçűě_ííűé_ăđŕäčĺíň_49"/><radialGradient id="_Áĺçűě_ííűé_ăđŕäčĺíň_49-27" cx="424.74" cy="340.69" fx="424.74" fy="340.69" r="561.04" xlink:href="#_Áĺçűě_ííűé_ăđŕäčĺíň_49"/><radialGradient id="_Áĺçűě_ííűé_ăđŕäčĺíň_49-28" cx="424.74" cy="340.69" fx="424.74" fy="340.69" r="561.04" xlink:href="#_Áĺçűě_ííűé_ăđŕäčĺíň_49"/><radialGradient id="_Áĺçűě_ííűé_ăđŕäčĺíň_49-29" cy="340.69" fy="340.69" r="561.04" xlink:href="#_Áĺçűě_ííűé_ăđŕäčĺíň_49"/><radialGradient id="_Áĺçűě_ííűé_ăđŕäčĺíň_49-30" cx="424.74" cy="340.69" fx="424.74" fy="340.69" r="561.04" xlink:href="#_Áĺçűě_ííűé_ăđŕäčĺíň_49"/><radialGradient id="_Áĺçűě_ííűé_ăđŕäčĺíň_49-31" cx="424.74" cy="340.69" fx="424.74" fy="340.69" r="561.04" xlink:href="#_Áĺçűě_ííűé_ăđŕäčĺíň_49"/><radialGradient id="_Áĺçűě_ííűé_ăđŕäčĺíň_49-32" cy="340.69" fy="340.69" r="561.04" xlink:href="#_Áĺçűě_ííűé_ăđŕäčĺíň_49"/><radialGradient id="_Áĺçűě_ííűé_ăđŕäčĺíň_49-33" cx="424.74" cy="340.69" fx="424.74" fy="340.69" r="561.04" xlink:href="#_Áĺçűě_ííűé_ăđŕäčĺíň_49"/><radialGradient id="_Áĺçűě_ííűé_ăđŕäčĺíň_49-34" cx="424.74" cy="340.69" fx="424.74" fy="340.69" r="561.04" xlink:href="#_Áĺçűě_ííűé_ăđŕäčĺíň_49"/><radialGradient id="_Áĺçűě_ííűé_ăđŕäčĺíň_49-35" cx="424.74" cy="340.69" fx="424.74" fy="340.69" r="561.04" xlink:href="#_Áĺçűě_ííűé_ăđŕäčĺíň_49"/><radialGradient id="_Áĺçűě_ííűé_ăđŕäčĺíň_49-36" cx="424.74" cy="340.69" fx="424.74" fy="340.69" r="561.04" xlink:href="#_Áĺçűě_ííűé_ăđŕäčĺíň_49"/><radialGradient id="_Áĺçűě_ííűé_ăđŕäčĺíň_49-37" cx="424.74" cy="340.69" fx="424.74" fy="340.69" r="561.04" xlink:href="#_Áĺçűě_ííűé_ăđŕäčĺíň_49"/><radialGradient id="_Áĺçűě_ííűé_ăđŕäčĺíň_29-19" cy="352.8" fy="352.8" r="481.32" xlink:href="#_Áĺçűě_ííűé_ăđŕäčĺíň_29"/><radialGradient id="_Áĺçűě_ííűé_ăđŕäčĺíň_42-3" cy="85.44" fy="85.44" r="649.97" xlink:href="#_Áĺçűě_ííűé_ăđŕäčĺíň_42"/><radialGradient id="_Áĺçűě_ííűé_ăđŕäčĺíň_33-3" cy="85.44" fy="85.44" r="649.98" xlink:href="#_Áĺçűě_ííűé_ăđŕäčĺíň_33"/><radialGradient id="_Áĺçűě_ííűé_ăđŕäčĺíň_29-20" cy="352.8" fy="352.8" r="481.33" xlink:href="#_Áĺçűě_ííűé_ăđŕäčĺíň_29"/><radialGradient id="_Áĺçűě_ííűé_ăđŕäčĺíň_29-21" cx="457.01" cy="352.8" fx="457.01" fy="352.8" r="481.32" xlink:href="#_Áĺçűě_ííűé_ăđŕäčĺíň_29"/><radialGradient id="_Áĺçűě_ííűé_ăđŕäčĺíň_29-22" cx="457.01" cy="352.8" fx="457.01" fy="352.8" r="481.32" xlink:href="#_Áĺçűě_ííűé_ăđŕäčĺíň_29"/><radialGradient id="_Áĺçűě_ííűé_ăđŕäčĺíň_30-4" cy="80.29" fy="80.29" r="649.97" xlink:href="#_Áĺçűě_ííűé_ăđŕäčĺíň_30"/><radialGradient id="_Áĺçűě_ííűé_ăđŕäčĺíň_29-23" cx="457.01" cy="352.8" fx="457.01" fy="352.8" r="481.32" xlink:href="#_Áĺçűě_ííűé_ăđŕäčĺíň_29"/><radialGradient id="_Áĺçűě_ííűé_ăđŕäčĺíň_29-24" cx="457.01" cy="352.8" fx="457.01" fy="352.8" r="481.32" xlink:href="#_Áĺçűě_ííűé_ăđŕäčĺíň_29"/><radialGradient id="_Áĺçűě_ííűé_ăđŕäčĺíň_29-25" cx="457.01" cy="352.8" fx="457.01" fy="352.8" r="481.32" xlink:href="#_Áĺçűě_ííűé_ăđŕäčĺíň_29"/><radialGradient id="_Áĺçűě_ííűé_ăđŕäčĺíň_29-26" cx="457.01" cy="352.8" fx="457.01" fy="352.8" r="481.33" xlink:href="#_Áĺçűě_ííűé_ăđŕäčĺíň_29"/><radialGradient id="_Áĺçűě_ííűé_ăđŕäčĺíň_29-27" cx="457.01" cy="352.8" fx="457.01" fy="352.8" r="481.32" xlink:href="#_Áĺçűě_ííűé_ăđŕäčĺíň_29"/><radialGradient id="_Áĺçűě_ííűé_ăđŕäčĺíň_49-38" cx="1298.17" cy="340.69" fx="1298.17" fy="340.69" r="561.04" xlink:href="#_Áĺçűě_ííűé_ăđŕäčĺíň_49"/><radialGradient id="_Áĺçűě_ííűé_ăđŕäčĺíň_49-39" cx="1298.17" cy="340.69" fx="1298.17" fy="340.69" r="561.04" xlink:href="#_Áĺçűě_ííűé_ăđŕäčĺíň_49"/><radialGradient id="_Áĺçűě_ííűé_ăđŕäčĺíň_49-40" cx="1298.17" cy="340.69" fx="1298.17" fy="340.69" r="561.05" xlink:href="#_Áĺçűě_ííűé_ăđŕäčĺíň_49"/><radialGradient id="_Áĺçűě_ííűé_ăđŕäčĺíň_49-41" cx="1298.17" cy="340.69" fx="1298.17" fy="340.69" r="561.04" xlink:href="#_Áĺçűě_ííűé_ăđŕäčĺíň_49"/><radialGradient id="_Áĺçűě_ííűé_ăđŕäčĺíň_49-42" cx="1298.17" cy="340.69" fx="1298.17" fy="340.69" r="561.04" xlink:href="#_Áĺçűě_ííűé_ăđŕäčĺíň_49"/><radialGradient id="_Áĺçűě_ííűé_ăđŕäčĺíň_49-43" cx="1298.17" cy="340.69" fx="1298.17" fy="340.69" r="561.04" xlink:href="#_Áĺçűě_ííűé_ăđŕäčĺíň_49"/><radialGradient id="_Áĺçűě_ííűé_ăđŕäčĺíň_49-44" cx="1298.17" cy="340.69" fx="1298.17" fy="340.69" r="561.04" xlink:href="#_Áĺçűě_ííűé_ăđŕäčĺíň_49"/><radialGradient id="_Áĺçűě_ííűé_ăđŕäčĺíň_49-45" cx="1298.17" cy="340.69" fx="1298.17" fy="340.69" r="561.04" xlink:href="#_Áĺçűě_ííűé_ăđŕäčĺíň_49"/><radialGradient id="_Áĺçűě_ííűé_ăđŕäčĺíň_49-46" cx="1298.17" cy="340.69" fx="1298.17" fy="340.69" r="561.04" xlink:href="#_Áĺçűě_ííűé_ăđŕäčĺíň_49"/><radialGradient id="_Áĺçűě_ííűé_ăđŕäčĺíň_49-47" cx="1298.17" cy="340.69" fx="1298.17" fy="340.69" r="561.04" xlink:href="#_Áĺçűě_ííűé_ăđŕäčĺíň_49"/><radialGradient id="_Áĺçűě_ííűé_ăđŕäčĺíň_49-48" cx="1298.17" cy="340.69" fx="1298.17" fy="340.69" r="561.04" xlink:href="#_Áĺçűě_ííűé_ăđŕäčĺíň_49"/><radialGradient id="_Áĺçűě_ííűé_ăđŕäčĺíň_49-49" cx="1298.17" cy="340.69" fx="1298.17" fy="340.69" r="561.04" xlink:href="#_Áĺçűě_ííűé_ăđŕäčĺíň_49"/><radialGradient id="_Áĺçűě_ííűé_ăđŕäčĺíň_49-50" cx="1298.17" cy="340.69" fx="1298.17" fy="340.69" r="561.04" xlink:href="#_Áĺçűě_ííűé_ăđŕäčĺíň_49"/><radialGradient id="_Áĺçűě_ííűé_ăđŕäčĺíň_49-51" cx="1298.17" cy="340.69" fx="1298.17" fy="340.69" r="561.04" xlink:href="#_Áĺçűě_ííűé_ăđŕäčĺíň_49"/><radialGradient id="_Áĺçűě_ííűé_ăđŕäčĺíň_49-52" cx="1298.17" cy="340.69" fx="1298.17" fy="340.69" r="561.04" xlink:href="#_Áĺçűě_ííűé_ăđŕäčĺíň_49"/><radialGradient id="_Áĺçűě_ííűé_ăđŕäčĺíň_49-53" cx="1298.17" cy="340.69" fx="1298.17" fy="340.69" r="561.04" xlink:href="#_Áĺçűě_ííűé_ăđŕäčĺíň_49"/><radialGradient id="_Áĺçűě_ííűé_ăđŕäčĺíň_49-54" cx="1298.17" cy="340.69" fx="1298.17" fy="340.69" r="561.05" xlink:href="#_Áĺçűě_ííűé_ăđŕäčĺíň_49"/><radialGradient id="_Áĺçűě_ííűé_ăđŕäčĺíň_49-55" cx="1298.17" cy="340.69" fx="1298.17" fy="340.69" r="561.04" xlink:href="#_Áĺçűě_ííűé_ăđŕäčĺíň_49"/><radialGradient id="_Áĺçűě_ííűé_ăđŕäčĺíň_29-28" cx="1330.45" cy="352.8" fx="1330.45" fy="352.8" r="481.33" xlink:href="#_Áĺçűě_ííűé_ăđŕäčĺíň_29"/><radialGradient id="_Áĺçűě_ííűé_ăđŕäčĺíň_29-29" cx="1330.45" cy="352.8" fx="1330.45" fy="352.8" r="481.32" xlink:href="#_Áĺçűě_ííűé_ăđŕäčĺíň_29"/><radialGradient id="_Áĺçűě_ííűé_ăđŕäčĺíň_29-30" cx="1330.45" cy="352.8" fx="1330.45" fy="352.8" r="481.32" xlink:href="#_Áĺçűě_ííűé_ăđŕäčĺíň_29"/><radialGradient id="_Áĺçűě_ííűé_ăđŕäčĺíň_30-5" cx="1300.16" cy="85.44" fx="1300.16" fy="85.44" r="649.98" xlink:href="#_Áĺçűě_ííűé_ăđŕäčĺíň_30"/><radialGradient id="_Áĺçűě_ííűé_ăđŕäčĺíň_29-31" cx="1330.45" cy="352.8" fx="1330.45" fy="352.8" r="481.32" xlink:href="#_Áĺçűě_ííűé_ăđŕäčĺíň_29"/><radialGradient id="_Áĺçűě_ííűé_ăđŕäčĺíň_29-32" cx="1330.45" cy="352.8" fx="1330.45" fy="352.8" r="481.32" xlink:href="#_Áĺçűě_ííűé_ăđŕäčĺíň_29"/><radialGradient id="_Áĺçűě_ííűé_ăđŕäčĺíň_30-6" cx="1300.16" cy="85.44" fx="1300.16" fy="85.44" r="649.98" xlink:href="#_Áĺçűě_ííűé_ăđŕäčĺíň_30"/><radialGradient id="_Áĺçűě_ííűé_ăđŕäčĺíň_29-33" cx="1330.45" cy="352.8" fx="1330.45" fy="352.8" r="481.32" xlink:href="#_Áĺçűě_ííűé_ăđŕäčĺíň_29"/><radialGradient id="_Áĺçűě_ííűé_ăđŕäčĺíň_29-34" cx="1330.45" cy="352.8" fx="1330.45" fy="352.8" r="481.32" xlink:href="#_Áĺçűě_ííűé_ăđŕäčĺíň_29"/><radialGradient id="_Áĺçűě_ííűé_ăđŕäčĺíň_29-35" cx="1330.45" cy="352.8" fx="1330.45" fy="352.8" r="481.32" xlink:href="#_Áĺçűě_ííűé_ăđŕäčĺíň_29"/><radialGradient id="_Áĺçűě_ííűé_ăđŕäčĺíň_42-4" cx="1300.16" cy="80.29" fx="1300.16" fy="80.29" r="649.97" xlink:href="#_Áĺçűě_ííűé_ăđŕäčĺíň_42"/><radialGradient id="_Áĺçűě_ííűé_ăđŕäčĺíň_33-4" cx="1300.16" cy="80.29" fx="1300.16" fy="80.29" r="649.98" xlink:href="#_Áĺçűě_ííűé_ăđŕäčĺíň_33"/><radialGradient id="_Áĺçűě_ííűé_ăđŕäčĺíň_29-36" cx="1330.45" cy="352.8" fx="1330.45" fy="352.8" r="481.32" xlink:href="#_Áĺçűě_ííűé_ăđŕäčĺíň_29"/><radialGradient id="_Áĺçűě_ííűé_ăđŕäčĺíň_29-37" cx="1330.45" cy="352.8" fx="1330.45" fy="352.8" r="481.33" xlink:href="#_Áĺçűě_ííűé_ăđŕäčĺíň_29"/><radialGradient id="_Áĺçűě_ííűé_ăđŕäčĺíň_29-38" cx="1330.45" cy="352.8" fx="1330.45" fy="352.8" r="481.32" xlink:href="#_Áĺçűě_ííűé_ăđŕäčĺíň_29"/><radialGradient id="_Áĺçűě_ííűé_ăđŕäčĺíň_29-39" cx="1330.45" cy="352.8" fx="1330.45" fy="352.8" r="481.32" xlink:href="#_Áĺçűě_ííűé_ăđŕäčĺíň_29"/><radialGradient id="_Áĺçűě_ííűé_ăđŕäčĺíň_29-40" cx="1330.45" cy="352.8" fx="1330.45" fy="352.8" r="481.33" xlink:href="#_Áĺçűě_ííűé_ăđŕäčĺíň_29"/><radialGradient id="_Áĺçűě_ííűé_ăđŕäčĺíň_29-41" cx="1330.45" cy="352.8" fx="1330.45" fy="352.8" r="481.32" xlink:href="#_Áĺçűě_ííűé_ăđŕäčĺíň_29"/></defs><g class="cls-125"><g id="Ebene_2"><g id="Ebene_1-2"><g class="cls-130"><rect class="cls-127" y=".35" width="1280" height="719.65"/><g class="cls-126"><rect class="cls-129" x="625.54" width="689.36" height="720"/><path class="cls-54" d="m687.77,420.42c-2.86-4.49-32.42-7.25-62.23-7.82v63.25c27.59.29,54.57-.88,59.19-3.49,8.13-4.6,9.11-42.4,3.04-51.94Z"/><path class="cls-113" d="m706.54,418.03c-2.94,3.94-5.07,48.36,0,52.05,9.49,6.9,113.47,7.65,122.96,2.28,8.13-4.6,9.11-42.4,3.04-51.94-5.75-9.04-119.54-11.04-126-2.39Z"/><path class="cls-59" d="m640.07,487.43c-2.94,3.94-5.07,48.36,0,52.05,9.49,6.9,113.47,7.65,122.96,2.28,8.13-4.6,9.11-42.4,3.04-51.94-5.75-9.04-119.54-11.04-126-2.39Z"/><path class="cls-110" d="m687.77,562.74c-2.86-4.49-32.42-7.25-62.23-7.82v63.25c27.59.29,54.57-.88,59.19-3.49,8.13-4.6,9.11-42.4,3.04-51.94Z"/><path class="cls-88" d="m706.54,560.36c-2.94,3.94-5.07,48.36,0,52.05,9.49,6.9,113.47,7.65,122.96,2.28,8.13-4.6,9.11-42.4,3.04-51.94-5.75-9.04-119.54-11.04-126-2.39Z"/><path class="cls-25" d="m640.07,629.75c-2.94,3.94-5.07,48.36,0,52.05,9.49,6.9,113.47,7.65,122.96,2.28,8.13-4.6,9.11-42.4,3.04-51.94-5.75-9.04-119.54-11.04-126-2.39Z"/><path class="cls-97" d="m687.77,707.07c-2.86-4.49-32.42-7.25-62.23-7.82v63.25c27.59.29,54.57-.88,59.19-3.49,8.13-4.6,9.11-42.4,3.04-51.94Z"/><path class="cls-51" d="m706.54,704.68c-2.94,3.94-5.07,48.36,0,52.05,9.49,6.9,113.47,7.65,122.96,2.28,8.13-4.6,9.11-42.4,3.04-51.94-5.75-9.04-119.54-11.04-126-2.39Z"/><path class="cls-72" d="m784.5,487.43c-2.94,3.94-5.07,48.36,0,52.05,9.49,6.9,113.47,7.65,122.96,2.28,8.13-4.6,9.11-42.4,3.04-51.94-5.75-9.04-119.54-11.04-126-2.39Z"/><path class="cls-24" d="m784.5,629.75c-2.94,3.94-5.07,48.36,0,52.05,9.49,6.9,113.47,7.65,122.96,2.28,8.13-4.6,9.11-42.4,3.04-51.94-5.75-9.04-119.54-11.04-126-2.39Z"/><path class="cls-40" d="m687.77,422.94c-2.86-4.49-32.42-7.25-62.23-7.82v63.25c27.59.29,54.57-.88,59.19-3.49,8.13-4.6,9.11-42.4,3.04-51.94Z"/><path class="cls-38" d="m706.54,420.55c-2.94,3.94-5.07,48.36,0,52.05,9.49,6.9,113.47,7.65,122.96,2.28,8.13-4.6,9.11-42.4,3.04-51.94-5.75-9.04-119.54-11.04-126-2.39Z"/><path class="cls-15" d="m640.07,489.95c-2.94,3.94-5.07,48.36,0,52.05,9.49,6.9,113.47,7.65,122.96,2.28,8.13-4.6,9.11-42.4,3.04-51.94-5.75-9.04-119.54-11.04-126-2.39Z"/><path class="cls-21" d="m687.77,565.26c-2.86-4.49-32.42-7.25-62.23-7.82v63.25c27.59.29,54.57-.88,59.19-3.49,8.13-4.6,9.11-42.4,3.04-51.94Z"/><path class="cls-41" d="m706.54,562.88c-2.94,3.94-5.07,48.36,0,52.05,9.49,6.9,113.47,7.65,122.96,2.28,8.13-4.6,9.11-42.4,3.04-51.94-5.75-9.04-119.54-11.04-126-2.39Z"/><path class="cls-90" d="m640.07,632.27c-2.94,3.94-5.07,48.36,0,52.05,9.49,6.9,113.47,7.65,122.96,2.28,8.13-4.6,9.11-42.4,3.04-51.94-5.75-9.04-119.54-11.04-126-2.39Z"/><path class="cls-43" d="m687.77,709.59c-2.86-4.49-32.42-7.25-62.23-7.82v63.25c27.59.29,54.57-.88,59.19-3.49,8.13-4.6,9.11-42.4,3.04-51.94Z"/><path class="cls-27" d="m706.54,707.2c-2.94,3.94-5.07,48.36,0,52.05,9.49,6.9,113.47,7.65,122.96,2.28,8.13-4.6,9.11-42.4,3.04-51.94-5.75-9.04-119.54-11.04-126-2.39Z"/><path class="cls-114" d="m784.5,489.95c-2.94,3.94-5.07,48.36,0,52.05,9.49,6.9,113.47,7.65,122.96,2.28,8.13-4.6,9.11-42.4,3.04-51.94-5.75-9.04-119.54-11.04-126-2.39Z"/><path class="cls-60" d="m784.5,632.27c-2.94,3.94-5.07,48.36,0,52.05,9.49,6.9,113.47,7.65,122.96,2.28,8.13-4.6,9.11-42.4,3.04-51.94-5.75-9.04-119.54-11.04-126-2.39Z"/><path class="cls-28" d="m785.01,542c6.29-1.19,38.88,1.54,61.53,2,30.7.63,59.32-2.72,61.43.27,3.68,5.2-92.16,13.34-122.96-2.28Z"/><path class="cls-28" d="m641.96,542c6.29-1.19,38.88,1.54,61.53,2,30.7.63,59.32-2.72,61.43.27,3.68,5.2-92.16,13.34-122.96-2.28Z"/><path class="cls-122" d="m684.68,618.49c-2.06-2.92-29.33.19-59.14-.24v7.05c31.69-.02,61.22-3.88,59.14-6.81Z"/><path class="cls-28" d="m781.44,685.73c6.29-1.19,38.88,1.54,61.53,2,30.7.63,59.32-2.72,61.43.27,3.68,5.2-92.16,13.34-122.96-2.28Z"/><path class="cls-28" d="m709.28,616.22c6.29-1.19,38.88,1.54,61.53,2,30.7.63,59.32-2.72,61.43.27,3.68,5.2-92.16,13.34-122.96-2.28Z"/><path class="cls-122" d="m684.68,475.41c-2.06-2.92-29.33.19-59.14-.24v7.05c31.69-.02,61.22-3.88,59.14-6.81Z"/><path class="cls-28" d="m708.44,473.13c6.29-1.19,38.88,1.54,61.53,2,30.7.63,59.32-2.72,61.43.27,3.68,5.2-92.16,13.34-122.96-2.28Z"/><path class="cls-28" d="m639.59,684.5c6.29-1.19,38.88,1.54,61.53,2,30.7.63,59.32-2.72,61.43.27,3.68,5.2-92.16,13.34-122.96-2.28Z"/><path class="cls-118" d="m776.72,633.71c-3.36-3.36-1.79,45.28-11.65,53.9-9.86,8.63-117.82,3.36-125.47,1.29-7.65-2.07-8.55-47.12-10.57-48.69-1.33-1.03-1.1,17.94-3.49,33.66v22c16.4,3.27,57.46,5.14,61.76,7.54,5.6,3.14,8.29,21.37,9.86,23.57,1.57,2.2,6.28-25.57,13-26.7s68.16-2.34,71.29-2.52c3.12-.18-1.36-60.69-4.72-64.05Z"/><path class="cls-119" d="m644.94,551.09c-5.81-.46-12.37-.86-19.4-1.2v3.63c37.49.39,63.29,2.07,66.14,5.22,3.35,3.7,5.66,15.46,6.52,19.16.86,3.7,3.55-20.03,8.26-21.95,4.71-1.92,68.92-1.1,70.26-2.52,1.34-1.42-84.05,1.43-131.78-2.35Z"/><g class="cls-123"><path class="cls-48" d="m770.32,458.72c-20.43-16.14,3.87-39.59,40.13-39.07,36.26.52,21.61,32.6-2.2,41.66-23.82,9.05-37.93-2.59-37.93-2.59Z"/><path class="cls-48" d="m718.01,491.42c-33.07,17.53,2.69,42.51,39,21.44s-26.45-28.1-39-21.44Z"/><path class="cls-48" d="m735.68,441.74c-15.12,11.17,13.05,27.34,29.74,25.55,16.69-1.79-17-34.96-29.74-25.55Z"/><path class="cls-121" d="m677.44,564.01c-3.59-1.59-29.49-4.34-51.9-4.81v44.83c23.83-4.82,51.95-20.31,53.92-25.74,2.91-8.01-.72-13.71-2.02-14.29Z"/><path class="cls-48" d="m716.21,564.23c-7.91,1.48-4.03,18.68,6.28,33.88,10.31,15.2,59.67,9.82,75.1-6.32,15.44-16.14-70.63-29.59-81.38-27.57Z"/><path class="cls-48" d="m718.9,603.45c-18.35-15.19-27.24-5.82-10.46,4.69s12.95-2.63,10.46-4.69Z"/></g><g class="cls-124"><path class="cls-48" d="m710.81,518.24c-2.91-.75-10.73,7.83-5.86,14.31,4.88,6.48,12.69-12.55,5.86-14.31Z"/><path class="cls-48" d="m680.3,637.43c-15.07,1.44-14.64,28.14.98,36.03,15.61,7.89,5.86-36.69-.98-36.03Z"/><path class="cls-48" d="m677.45,590.29c-7.42-4.15-5.77,13.2-1.54,15.96s7.63-12.55,1.54-15.96Z"/><path class="cls-48" d="m802.73,490.85c-7.42-4.15-5.77,13.2-1.54,15.96s7.63-12.55,1.54-15.96Z"/><path class="cls-48" d="m725.01,704.81c-12.77,2.38-13.4,13.32-4.29,18.17,9.11,4.85,14.02-19.98,4.29-18.17Z"/></g><path class="cls-117" d="m625.54,546.73v7.93c12.7.74,26,1.05,35.18.54,21.45-1.19-.09-8.18-35.18-8.47Z"/><path class="cls-52" d="m789.1,550.33c-9.02,1.91,14.35,6.04,24.34,4.95,9.99-1.09-5.56-8.92-24.34-4.95Z"/><path class="cls-52" d="m752.31,692.82c-9.02,1.91,14.35,6.04,24.34,4.95,9.99-1.09-5.56-8.92-24.34-4.95Z"/><path class="cls-47" d="m741.89,406.18c-24.71,2.67,39.34,8.45,66.71,6.93,27.37-1.52-15.25-12.48-66.71-6.93Z"/><path class="cls-117" d="m625.54,690.47v4.83c10.9,2.01,30.14,3.59,40.96,2.71,17.81-1.46-8.02-11.58-40.96-7.54Z"/><path class="cls-8" d="m854.5,415.86c-9.01,7.16-9.76,45.54,0,52.05,9.76,6.51,113.47,7.65,122.96,2.28,8.13-4.6,9.11-42.4,3.04-51.94-5.75-9.04-117.54-9.11-126-2.39Z"/><path class="cls-7" d="m998.93,418.03c-2.94,3.94-5.07,48.36,0,52.05,9.49,6.9,113.47,7.65,122.96,2.28,8.13-4.6,9.11-42.4,3.04-51.94-5.75-9.04-119.54-11.04-126-2.39Z"/><path class="cls-11" d="m1143.71,418.03c-2.94,3.94-5.07,48.36,0,52.05,9.49,6.9,113.47,7.65,122.96,2.28,8.13-4.6,9.11-42.4,3.04-51.94-5.75-9.04-119.54-11.04-126-2.39Z"/><path class="cls-107" d="m932.44,487.43c-2.94,3.94-5.07,48.36,0,52.05,9.49,6.9,113.47,7.65,122.96,2.28,8.13-4.6,9.11-42.4,3.04-51.94-5.75-9.04-119.54-11.04-126-2.39Z"/><path class="cls-2" d="m1077.23,487.43c-2.94,3.94-5.07,48.36,0,52.05,9.49,6.9,113.47,7.65,122.96,2.28,8.13-4.6,9.11-42.4,3.04-51.94-5.75-9.04-119.54-11.04-126-2.39Z"/><path class="cls-106" d="m854.5,558.19c-9.01,7.16-9.76,45.54,0,52.05,9.76,6.51,113.47,7.65,122.96,2.28,8.13-4.6,9.11-42.4,3.04-51.94-5.75-9.04-117.54-9.11-126-2.39Z"/><path class="cls-63" d="m998.93,560.36c-2.94,3.94-5.07,48.36,0,52.05,9.49,6.9,113.47,7.65,122.96,2.28,8.13-4.6,9.11-42.4,3.04-51.94-5.75-9.04-119.54-11.04-126-2.39Z"/><path class="cls-80" d="m1143.71,560.36c-2.94,3.94-5.07,48.36,0,52.05,9.49,6.9,113.47,7.65,122.96,2.28,8.13-4.6,9.11-42.4,3.04-51.94-5.75-9.04-119.54-11.04-126-2.39Z"/><path class="cls-23" d="m932.44,629.75c-2.94,3.94-5.07,48.36,0,52.05,9.49,6.9,113.47,7.65,122.96,2.28,8.13-4.6,9.11-42.4,3.04-51.94-5.75-9.04-119.54-11.04-126-2.39Z"/><path class="cls-62" d="m1077.23,629.75c-2.94,3.94-5.07,48.36,0,52.05,9.49,6.9,113.47,7.65,122.96,2.28,8.13-4.6,9.11-42.4,3.04-51.94-5.75-9.04-119.54-11.04-126-2.39Z"/><path class="cls-105" d="m854.5,702.52c-9.01,7.16-9.76,45.54,0,52.05,9.76,6.51,113.47,7.65,122.96,2.28,8.13-4.6,9.11-42.4,3.04-51.94-5.75-9.04-117.54-9.11-126-2.39Z"/><path class="cls-76" d="m998.93,704.68c-2.94,3.94-5.07,48.36,0,52.05,9.49,6.9,113.47,7.65,122.96,2.28,8.13-4.6,9.11-42.4,3.04-51.94-5.75-9.04-119.54-11.04-126-2.39Z"/><path class="cls-67" d="m1143.71,704.68c-2.94,3.94-5.07,48.36,0,52.05,9.49,6.9,113.47,7.65,122.96,2.28,8.13-4.6,9.11-42.4,3.04-51.94-5.75-9.04-119.54-11.04-126-2.39Z"/><path class="cls-82" d="m1314.9,480.43c-35.45-2.2-86.98-.74-92.62,3.74-9.01,7.16-9.76,45.54,0,52.05,6.74,4.49,58.24,6.42,92.62,5.43v-61.22Z"/><path class="cls-115" d="m1314.9,622.76c-35.45-2.2-86.98-.74-92.62,3.74-9.01,7.16-9.76,45.54,0,52.05,6.74,4.49,58.24,6.42,92.62,5.43v-61.22Z"/><path class="cls-65" d="m854.5,418.38c-9.01,7.16-9.76,45.54,0,52.05,9.76,6.51,113.47,7.65,122.96,2.28,8.13-4.6,9.11-42.4,3.04-51.94-5.75-9.04-117.54-9.11-126-2.39Z"/><path class="cls-30" d="m998.93,420.55c-2.94,3.94-5.07,48.36,0,52.05,9.49,6.9,113.47,7.65,122.96,2.28,8.13-4.6,9.11-42.4,3.04-51.94-5.75-9.04-119.54-11.04-126-2.39Z"/><path class="cls-37" d="m1143.71,420.55c-2.94,3.94-5.07,48.36,0,52.05,9.49,6.9,113.47,7.65,122.96,2.28,8.13-4.6,9.11-42.4,3.04-51.94-5.75-9.04-119.54-11.04-126-2.39Z"/><path class="cls-74" d="m932.44,489.95c-2.94,3.94-5.07,48.36,0,52.05,9.49,6.9,113.47,7.65,122.96,2.28,8.13-4.6,9.11-42.4,3.04-51.94-5.75-9.04-119.54-11.04-126-2.39Z"/><path class="cls-53" d="m1077.23,489.95c-2.94,3.94-5.07,48.36,0,52.05,9.49,6.9,113.47,7.65,122.96,2.28,8.13-4.6,9.11-42.4,3.04-51.94-5.75-9.04-119.54-11.04-126-2.39Z"/><path class="cls-73" d="m854.5,560.71c-9.01,7.16-9.76,45.54,0,52.05,9.76,6.51,113.47,7.65,122.96,2.28,8.13-4.6,9.11-42.4,3.04-51.94-5.75-9.04-117.54-9.11-126-2.39Z"/><path class="cls-111" d="m998.93,562.88c-2.94,3.94-5.07,48.36,0,52.05,9.49,6.9,113.47,7.65,122.96,2.28,8.13-4.6,9.11-42.4,3.04-51.94-5.75-9.04-119.54-11.04-126-2.39Z"/><path class="cls-26" d="m1143.71,562.88c-2.94,3.94-5.07,48.36,0,52.05,9.49,6.9,113.47,7.65,122.96,2.28,8.13-4.6,9.11-42.4,3.04-51.94-5.75-9.04-119.54-11.04-126-2.39Z"/><path class="cls-32" d="m932.44,632.27c-2.94,3.94-5.07,48.36,0,52.05,9.49,6.9,113.47,7.65,122.96,2.28,8.13-4.6,9.11-42.4,3.04-51.94-5.75-9.04-119.54-11.04-126-2.39Z"/><path class="cls-12" d="m1077.23,632.27c-2.94,3.94-5.07,48.36,0,52.05,9.49,6.9,113.47,7.65,122.96,2.28,8.13-4.6,9.11-42.4,3.04-51.94-5.75-9.04-119.54-11.04-126-2.39Z"/><path class="cls-66" d="m854.5,705.03c-9.01,7.16-9.76,45.54,0,52.05,9.76,6.51,113.47,7.65,122.96,2.28,8.13-4.6,9.11-42.4,3.04-51.94-5.75-9.04-117.54-9.11-126-2.39Z"/><path class="cls-33" d="m998.93,707.2c-2.94,3.94-5.07,48.36,0,52.05,9.49,6.9,113.47,7.65,122.96,2.28,8.13-4.6,9.11-42.4,3.04-51.94-5.75-9.04-119.54-11.04-126-2.39Z"/><path class="cls-9" d="m1143.71,707.2c-2.94,3.94-5.07,48.36,0,52.05,9.49,6.9,113.47,7.65,122.96,2.28,8.13-4.6,9.11-42.4,3.04-51.94-5.75-9.04-119.54-11.04-126-2.39Z"/><path class="cls-99" d="m1314.9,482.95c-35.45-2.2-86.98-.74-92.62,3.74-9.01,7.16-9.76,45.54,0,52.05,6.74,4.49,58.24,6.42,92.62,5.43v-61.22Z"/><path class="cls-75" d="m1314.9,625.28c-35.45-2.2-86.98-.74-92.62,3.74-9.01,7.16-9.76,45.54,0,52.05,6.74,4.49,58.24,6.42,92.62,5.43v-61.22Z"/><path class="cls-28" d="m1077.23,542c6.29-1.19,38.88,1.54,61.53,2,30.7.63,59.32-2.72,61.43.27,3.68,5.2-92.16,13.34-122.96-2.28Z"/><path class="cls-122" d="m1314.9,540.33c-9.37.32-20.14.61-31.18.38-22.65-.47-55.24-3.19-61.53-2,19.02,9.64,62.84,10.23,92.71,8.04v-6.42Z"/><path class="cls-28" d="m932.78,542c6.29-1.19,38.88,1.54,61.53,2,30.7.63,59.32-2.72,61.43.27,3.68,5.2-92.16,13.34-122.96-2.28Z"/><path class="cls-28" d="m996.99,473.13c6.29-1.19,38.88,1.54,61.53,2,30.7.63,59.32-2.72,61.43.27,3.68,5.2-92.16,13.34-122.96-2.28Z"/><path class="cls-28" d="m1143.57,471.72c6.29-1.19,38.88,1.54,61.53,2,30.7.63,59.32-2.72,61.43.27,3.68,5.2-92.16,13.34-122.96-2.28Z"/><path class="cls-28" d="m852.54,473.13c6.29-1.19,38.88,1.54,61.53,2,30.7.63,59.32-2.72,61.43.27,3.68,5.2-92.16,13.34-122.96-2.28Z"/><path class="cls-28" d="m999.27,612.92c6.29-1.19,38.88,1.54,61.53,2,30.7.63,59.32-2.72,61.43.27,3.68,5.2-92.16,13.34-122.96-2.28Z"/><path class="cls-122" d="m1314.9,682.52c-10.24.37-22.53.79-35.18.53-22.65-.47-55.24-3.19-61.53-2,19.89,10.08,66.89,10.26,96.72,7.72v-6.25Z"/><path class="cls-28" d="m1077.23,684.5c6.29-1.19,38.88,1.54,61.53,2,30.7.63,59.32-2.72,61.43.27,3.68,5.2-92.16,13.34-122.96-2.28Z"/><path class="cls-28" d="m930.84,684.5c6.29-1.19,38.88,1.54,61.53,2,30.7.63,59.32-2.72,61.43.27,3.68,5.2-92.16,13.34-122.96-2.28Z"/><path class="cls-28" d="m1143.74,613.82c6.29-1.19,38.88,1.54,61.53,2,30.7.63,59.32-2.72,61.43.27,3.68,5.2-92.16,13.34-122.96-2.28Z"/><path class="cls-28" d="m854.82,612.92c6.29-1.19,38.88,1.54,61.53,2,30.7.63,59.32-2.72,61.43.27,3.68,5.2-92.16,13.34-122.96-2.28Z"/><path class="cls-95" d="m892.63,550.11s79.75,3.62,85.26,5.84,9.77,9.62,11.56,10.52c1.79.9,16.58-12.4,22.86-13.04,6.28-.63-66.56-3.71-77.32-9.01-10.76-5.3-5.39-28.51-8.96-35.55-9.67-19.07-8.07,28-13.22,32.83-5.15,4.83-31.38,5.37-37.88,6.11-6.5.74,17.71,2.31,17.71,2.31Z"/><path class="cls-95" d="m963.67,624.21c-4.88-.69,22.15-9.37,28.7-9.33,6.55.04,64.31,11.85,64.31,11.85,0,0-82.48-1.03-93.01-2.52Z"/><path class="cls-52" d="m1002.89,700.28s42.58-11.1,58.72-11.38c16.14-.28,86.06,10.24,86.06,10.24,0,0-9.19,4.72-10.76,11.22-1.57,6.5-12.33-8.02-32.72-10.73-20.39-2.72-80.68-2.03-101.3.66Z"/><path class="cls-52" d="m1124.14,477.53s75.98,8.26,79.56,10.72,6.05,14.12,6.28,17.03c.22,2.91,6.95-18.23,10.98-20.88s24.65-4.98,24.65-4.98c0,0-52,1.03-75.53,0-23.53-1.03-45.94-1.89-45.94-1.89Z"/><path class="cls-52" d="m983.4,616.5c-14.82,8.53,14.12,8.41,30.7,8.69,16.58.28-19.5-15.14-30.7-8.69Z"/><path class="cls-52" d="m1057.5,690.66c-22.54,3.56-2.02,6.8,22.36,7.63,24.37.83-2.86-10.71-22.36-7.63Z"/><path class="cls-52" d="m1171.92,549.89c-15.95,3.14,51.51,4.74,76.84,6.07s-25.77-8.39-32.5-17.54c-6.72-9.15-2.32,1.82-16.51,6.87-14.19,5.05-27.83,4.6-27.83,4.6Z"/><g class="cls-123"><path class="cls-48" d="m1018.39,602.11c-20.43-16.14,3.87-39.59,40.13-39.07,36.26.52,21.61,32.6-2.2,41.66-23.82,9.05-37.93-2.59-37.93-2.59Z"/><path class="cls-48" d="m995.06,537.43c-20.43-16.14,3.87-39.59,40.13-39.07,36.26.52,21.61,32.6-2.2,41.66-23.82,9.05-37.93-2.59-37.93-2.59Z"/><path class="cls-48" d="m963.09,646.48c-26.15,32.01,15.08,42.57,36.18,11.95,21.1-30.62-25.65-24.84-36.18-11.95Z"/><path class="cls-48" d="m1013.46,714.62c-19.15,12.18-30.01,58.35,48.9,32.72,78.91-25.63-38.33-39.45-48.9-32.72Z"/><path class="cls-121" d="m1237.6,632.5c-19.15,12.18-30.01,58.35,48.9,32.72,78.91-25.63-38.33-39.45-48.9-32.72Z"/><path class="cls-48" d="m1110.47,643.42c-33.07,17.53,2.69,42.51,39,21.44,36.31-21.07-26.45-28.1-39-21.44Z"/><path class="cls-48" d="m1150.81,717.31c15.12-14.2,30.93-15.48,20.62-4.38-10.31,11.1-23.19,6.8-20.62,4.38Z"/><path class="cls-48" d="m1018.39,453.74c-7.43,7.17,8.71,7.17,12.3,7.62,3.59.45-12.3-7.62-12.3-7.62Z"/><path class="cls-48" d="m1025.75,430.43c-9.41,3.14,6.72,18.83,13.9,23.31,7.17,4.48-4.48-26.45-13.9-23.31Z"/><path class="cls-48" d="m954.67,500.36c-15.12,11.17,13.05,27.34,29.74,25.55,16.69-1.79-17-34.96-29.74-25.55Z"/><path class="cls-48" d="m954.67,444.19c-8.25,8.21-2.43,9.38,2.95,2.52,5.38-6.86-2.95-2.52-2.95-2.52Z"/><path class="cls-48" d="m882.32,582.38c-10.58,24.34,16.15,7.56,26.67-9.41,10.52-16.97-22.19-.9-26.67,9.41Z"/><path class="cls-121" d="m1314.9,501.23c-.69-1.6-1.54-2.6-2.04-2.82-5.39-2.38-61.01-7.4-79.7-3.36-18.69,4.03-18.96,26,0,40.79,18.96,14.79,78.82-15.13,81.72-23.14,0-.02.01-.05.02-.07v-11.39Z"/></g><g class="cls-124"><path class="cls-48" d="m953.4,643.8c-1.13-3.65-16.48,20.07-10.84,30.43,5.64,10.36,13.25-22.67,10.84-30.43Z"/><path class="cls-48" d="m906.31,589.04c-2.91-.75-10.73,7.83-5.86,14.31,4.88,6.48,12.69-12.55,5.86-14.31Z"/><path class="cls-48" d="m908.5,445.94c-2.91-.75-10.74,7.83-5.86,14.31,4.88,6.48,12.69-12.55,5.86-14.31Z"/><path class="cls-48" d="m871.93,656.95c-6.33.35-3.44,5.3,0,8.24,3.44,2.94,2.1-8.35,0-8.24Z"/></g><path class="cls-47" d="m908.99,690.13c-31.49,8.69,10.35,8.71,33.3,7.63,22.95-1.08-22.24-10.68-33.3-7.63Z"/><path class="cls-47" d="m889.7,620.81c-13,.7,6.99,5.42,39.69,5.92,32.7.5-15.24-7.24-39.69-5.92Z"/><path class="cls-120" d="m1314.9,695.37c-17.73-2.79-56.56-5.04-99.66-1.85-36.05,2.67,57.4,8.45,97.34,6.93.82-.03,1.59-.07,2.32-.11v-4.97Z"/><path class="cls-47" d="m1001.95,409.99c-16.65,2.6,26.97,3.01,45.47.94,18.5-2.07-10.79-6.35-45.47-.94Z"/><path class="cls-47" d="m847.38,550.43c-16.65,2.6,26.97,3.01,45.47.94,18.5-2.07-10.79-6.35-45.47-.94Z"/><path class="cls-42" d="m687.77-10.77c-2.86-4.49-32.42-7.25-62.23-7.82v63.25c27.59.29,54.57-.88,59.19-3.49,8.13-4.6,9.11-42.4,3.04-51.94Z"/><path class="cls-1" d="m706.54-13.15c-2.94,3.94-5.07,48.36,0,52.05,9.49,6.9,113.47,7.65,122.96,2.28,8.13-4.6,9.11-42.4,3.04-51.94-5.75-9.04-119.54-11.04-126-2.39Z"/><path class="cls-56" d="m640.07,56.24c-2.94,3.94-5.07,48.36,0,52.05,9.49,6.9,113.47,7.65,122.96,2.28,8.13-4.6,9.11-42.4,3.04-51.94-5.75-9.04-119.54-11.04-126-2.39Z"/><path class="cls-34" d="m687.77,131.56c-2.86-4.49-32.42-7.25-62.23-7.82v63.25c27.59.29,54.57-.88,59.19-3.49,8.13-4.6,9.11-42.4,3.04-51.94Z"/><path class="cls-92" d="m706.54,129.17c-2.94,3.94-5.07,48.36,0,52.05,9.49,6.9,113.47,7.65,122.96,2.28,8.13-4.6,9.11-42.4,3.04-51.94-5.75-9.04-119.54-11.04-126-2.39Z"/><path class="cls-44" d="m640.07,198.57c-2.94,3.94-5.07,48.36,0,52.05,9.49,6.9,113.47,7.65,122.96,2.28,8.13-4.6,9.11-42.4,3.04-51.94-5.75-9.04-119.54-11.04-126-2.39Z"/><path class="cls-91" d="m687.77,275.89c-2.86-4.49-32.42-7.25-62.23-7.82v63.25c27.59.29,54.57-.88,59.19-3.49,8.13-4.6,9.11-42.4,3.04-51.94Z"/><path class="cls-87" d="m706.54,273.5c-2.94,3.94-5.07,48.36,0,52.05,9.49,6.9,113.47,7.65,122.96,2.28,8.13-4.6,9.11-42.4,3.04-51.94-5.75-9.04-119.54-11.04-126-2.39Z"/><path class="cls-6" d="m640.07,348.05c-2.94,3.94-5.07,48.36,0,52.05,9.49,6.9,113.47,7.65,122.96,2.28,8.13-4.6,9.11-42.4,3.04-51.94-5.75-9.04-119.54-11.04-126-2.39Z"/><path class="cls-4" d="m784.5,56.24c-2.94,3.94-5.07,48.36,0,52.05,9.49,6.9,113.47,7.65,122.96,2.28,8.13-4.6,9.11-42.4,3.04-51.94-5.75-9.04-119.54-11.04-126-2.39Z"/><path class="cls-104" d="m784.5,198.57c-2.94,3.94-5.07,48.36,0,52.05,9.49,6.9,113.47,7.65,122.96,2.28,8.13-4.6,9.11-42.4,3.04-51.94-5.75-9.04-119.54-11.04-126-2.39Z"/><path class="cls-57" d="m784.5,348.05c-2.94,3.94-5.07,48.36,0,52.05,9.49,6.9,113.47,7.65,122.96,2.28,8.13-4.6,9.11-42.4,3.04-51.94-5.75-9.04-119.54-11.04-126-2.39Z"/><path class="cls-20" d="m687.77-8.25c-2.86-4.49-32.42-7.25-62.23-7.82v63.25c27.59.29,54.57-.88,59.19-3.49,8.13-4.6,9.11-42.4,3.04-51.94Z"/><path class="cls-101" d="m706.54-10.63c-2.94,3.94-5.07,48.36,0,52.05,9.49,6.9,113.47,7.65,122.96,2.28,8.13-4.6,9.11-42.4,3.04-51.94-5.75-9.04-119.54-11.04-126-2.39Z"/><path class="cls-5" d="m640.07,58.76c-2.94,3.94-5.07,48.36,0,52.05,9.49,6.9,113.47,7.65,122.96,2.28,8.13-4.6,9.11-42.4,3.04-51.94-5.75-9.04-119.54-11.04-126-2.39Z"/><path class="cls-45" d="m687.77,134.08c-2.86-4.49-32.42-7.25-62.23-7.82v63.25c27.59.29,54.57-.88,59.19-3.49,8.13-4.6,9.11-42.4,3.04-51.94Z"/><path class="cls-3" d="m706.54,131.69c-2.94,3.94-5.07,48.36,0,52.05,9.49,6.9,113.47,7.65,122.96,2.28,8.13-4.6,9.11-42.4,3.04-51.94-5.75-9.04-119.54-11.04-126-2.39Z"/><path class="cls-70" d="m640.07,201.09c-2.94,3.94-5.07,48.36,0,52.05,9.49,6.9,113.47,7.65,122.96,2.28,8.13-4.6,9.11-42.4,3.04-51.94-5.75-9.04-119.54-11.04-126-2.39Z"/><path class="cls-55" d="m687.77,278.4c-2.86-4.49-32.42-7.25-62.23-7.82v63.25c27.59.29,54.57-.88,59.19-3.49,8.13-4.6,9.11-42.4,3.04-51.94Z"/><path class="cls-103" d="m706.54,276.02c-2.94,3.94-5.07,48.36,0,52.05,9.49,6.9,113.47,7.65,122.96,2.28,8.13-4.6,9.11-42.4,3.04-51.94-5.75-9.04-119.54-11.04-126-2.39Z"/><path class="cls-36" d="m640.07,350.57c-2.94,3.94-5.07,48.36,0,52.05,9.49,6.9,113.47,7.65,122.96,2.28,8.13-4.6,9.11-42.4,3.04-51.94-5.75-9.04-119.54-11.04-126-2.39Z"/><path class="cls-16" d="m784.5,58.76c-2.94,3.94-5.07,48.36,0,52.05,9.49,6.9,113.47,7.65,122.96,2.28,8.13-4.6,9.11-42.4,3.04-51.94-5.75-9.04-119.54-11.04-126-2.39Z"/><path class="cls-46" d="m784.5,201.09c-2.94,3.94-5.07,48.36,0,52.05,9.49,6.9,113.47,7.65,122.96,2.28,8.13-4.6,9.11-42.4,3.04-51.94-5.75-9.04-119.54-11.04-126-2.39Z"/><path class="cls-35" d="m784.5,350.57c-2.94,3.94-5.07,48.36,0,52.05,9.49,6.9,113.47,7.65,122.96,2.28,8.13-4.6,9.11-42.4,3.04-51.94-5.75-9.04-119.54-11.04-126-2.39Z"/><path class="cls-28" d="m785.01,110.81c6.29-1.19,38.88,1.54,61.53,2,30.7.63,59.32-2.72,61.43.27,3.68,5.2-92.16,13.34-122.96-2.28Z"/><path class="cls-28" d="m641.96,110.81c6.29-1.19,38.88,1.54,61.53,2,30.7.63,59.32-2.72,61.43.27,3.68,5.2-92.16,13.34-122.96-2.28Z"/><path class="cls-122" d="m684.68,187.31c-2.06-2.92-29.33.19-59.14-.24v7.05c31.69-.02,61.22-3.88,59.14-6.81Z"/><path class="cls-28" d="m781.44,254.55c6.29-1.19,38.88,1.54,61.53,2,30.7.63,59.32-2.72,61.43.27,3.68,5.2-92.16,13.34-122.96-2.28Z"/><path class="cls-28" d="m709.28,185.03c6.29-1.19,38.88,1.54,61.53,2,30.7.63,59.32-2.72,61.43.27,3.68,5.2-92.16,13.34-122.96-2.28Z"/><path class="cls-122" d="m684.68,44.22c-2.06-2.92-29.33.19-59.14-.24v7.05c31.69-.02,61.22-3.88,59.14-6.81Z"/><path class="cls-28" d="m708.44,41.95c6.29-1.19,38.88,1.54,61.53,2,30.7.63,59.32-2.72,61.43.27,3.68,5.2-92.16,13.34-122.96-2.28Z"/><path class="cls-122" d="m684.68,331.76c-2.06-2.92-29.33.19-59.14-.24v7.05c31.69-.02,61.22-3.88,59.14-6.81Z"/><path class="cls-28" d="m639.59,253.32c6.29-1.19,38.88,1.54,61.53,2,30.7.63,59.32-2.72,61.43.27,3.68,5.2-92.16,13.34-122.96-2.28Z"/><path class="cls-28" d="m708.44,329.48c6.29-1.19,38.88,1.54,61.53,2,30.7.63,59.32-2.72,61.43.27,3.68,5.2-92.16,13.34-122.96-2.28Z"/><path class="cls-28" d="m640.33,401.51c6.29-1.19,38.88,1.54,61.53,2,30.7.63,59.32-2.72,61.43.27,3.68,5.2-92.16,13.34-122.96-2.28Z"/><path class="cls-28" d="m787.05,402.97c6.29-1.19,38.88,1.54,61.53,2,30.7.63,59.32-2.72,61.43.27,3.68,5.2-92.16,13.34-122.96-2.28Z"/><path class="cls-118" d="m776.72,202.52c-3.36-3.36-1.79,45.28-11.65,53.9-9.86,8.63-117.82,3.36-125.47,1.29-7.65-2.07-8.55-47.12-10.57-48.69-1.33-1.03-1.1,17.94-3.49,33.66v22c16.4,3.27,57.46,5.14,61.76,7.54,5.6,3.14,8.29,21.37,9.86,23.57,1.57,2.2,6.28-25.57,13-26.7,6.72-1.13,68.16-2.34,71.29-2.52,3.12-.18-1.36-60.69-4.72-64.05Z"/><path class="cls-119" d="m644.94,119.9c-5.81-.46-12.37-.86-19.4-1.2v3.63c37.49.39,63.29,2.07,66.14,5.22,3.35,3.7,5.66,15.46,6.52,19.16.86,3.7,3.55-20.03,8.26-21.95,4.71-1.92,68.92-1.1,70.26-2.52,1.34-1.42-84.05,1.43-131.78-2.35Z"/><g class="cls-123"><path class="cls-48" d="m770.32,27.53c-20.43-16.14,3.87-39.59,40.13-39.07,36.26.52,21.61,32.6-2.2,41.66-23.82,9.05-37.93-2.59-37.93-2.59Z"/><path class="cls-121" d="m625.54,289.19v41.78c9.68.51,23.22-1.56,41.67-7.55,70-22.73-14.35-36.17-41.67-34.23Z"/><path class="cls-48" d="m718.01,60.24c-33.07,17.53,2.69,42.51,39,21.44,36.31-21.07-26.45-28.1-39-21.44Z"/><path class="cls-48" d="m702.59,351.32c-33.07,17.53,2.69,42.51,39,21.44,36.31-21.07-26.45-28.1-39-21.44Z"/><path class="cls-48" d="m735.68,10.55c-15.12,11.17,13.05,27.34,29.74,25.55,16.69-1.79-17-34.96-29.74-25.55Z"/><path class="cls-48" d="m650.68,352.85c-15.12,11.17,13.05,27.34,29.74,25.55,16.69-1.79-17-34.96-29.74-25.55Z"/><path class="cls-121" d="m677.44,132.82c-3.59-1.59-29.49-4.34-51.9-4.81v44.83c23.83-4.82,51.95-20.31,53.92-25.74,2.91-8.01-.72-13.71-2.02-14.29Z"/><path class="cls-48" d="m716.21,133.05c-7.91,1.48-4.03,18.68,6.28,33.88,10.31,15.2,59.67,9.82,75.1-6.32,15.44-16.14-70.63-29.59-81.38-27.57Z"/><path class="cls-48" d="m718.9,172.27c-18.35-15.19-27.24-5.82-10.46,4.69s12.95-2.63,10.46-4.69Z"/></g><g class="cls-124"><path class="cls-48" d="m710.81,87.06c-2.91-.75-10.73,7.83-5.86,14.31,4.88,6.48,12.69-12.55,5.86-14.31Z"/><path class="cls-48" d="m680.3,206.25c-15.07,1.44-14.64,28.14.98,36.03,15.61,7.89,5.86-36.69-.98-36.03Z"/><path class="cls-48" d="m677.45,159.1c-7.42-4.15-5.77,13.2-1.54,15.96s7.63-12.55,1.54-15.96Z"/><path class="cls-48" d="m802.73,59.67c-7.42-4.15-5.77,13.2-1.54,15.96s7.63-12.55,1.54-15.96Z"/><path class="cls-48" d="m725.01,273.63c-12.77,2.38-13.4,13.32-4.29,18.17,9.11,4.85,14.02-19.98,4.29-18.17Z"/><path class="cls-48" d="m699.02,322.86c-6.33.35-3.44,5.3,0,8.24,3.44,2.94,2.1-8.35,0-8.24Z"/></g><path class="cls-117" d="m625.54,115.55v7.93c12.7.74,26,1.05,35.18.54,21.45-1.19-.09-8.18-35.18-8.47Z"/><path class="cls-52" d="m789.1,119.14c-9.02,1.91,14.35,6.04,24.34,4.95,9.99-1.09-5.56-8.92-24.34-4.95Z"/><path class="cls-52" d="m752.31,261.63c-9.02,1.91,14.35,6.04,24.34,4.95,9.99-1.09-5.56-8.92-24.34-4.95Z"/><path class="cls-117" d="m625.54,259.29v4.83c10.9,2.01,30.14,3.59,40.96,2.71,17.81-1.46-8.02-11.58-40.96-7.54Z"/><path class="cls-52" d="m671.61,336.18c-16.78,2.67,26.72,8.45,45.31,6.93,18.59-1.52-10.36-12.48-45.31-6.93Z"/><path class="cls-98" d="m854.5-15.32c-9.01,7.16-9.76,45.54,0,52.05s113.47,7.65,122.96,2.28c8.13-4.6,9.11-42.4,3.04-51.94-5.75-9.04-117.54-9.11-126-2.39Z"/><path class="cls-31" d="m998.93-13.15c-2.94,3.94-5.07,48.36,0,52.05,9.49,6.9,113.47,7.65,122.96,2.28,8.13-4.6,9.11-42.4,3.04-51.94-5.75-9.04-119.54-11.04-126-2.39Z"/><path class="cls-13" d="m1143.71-13.15c-2.94,3.94-5.07,48.36,0,52.05,9.49,6.9,113.47,7.65,122.96,2.28,8.13-4.6,9.11-42.4,3.04-51.94-5.75-9.04-119.54-11.04-126-2.39Z"/><path class="cls-109" d="m932.44,56.24c-2.94,3.94-5.07,48.36,0,52.05,9.49,6.9,113.47,7.65,122.96,2.28,8.13-4.6,9.11-42.4,3.04-51.94-5.75-9.04-119.54-11.04-126-2.39Z"/><path class="cls-86" d="m1077.23,56.24c-2.94,3.94-5.07,48.36,0,52.05,9.49,6.9,113.47,7.65,122.96,2.28,8.13-4.6,9.11-42.4,3.04-51.94-5.75-9.04-119.54-11.04-126-2.39Z"/><path class="cls-71" d="m854.5,127c-9.01,7.16-9.76,45.54,0,52.05s113.47,7.65,122.96,2.28c8.13-4.6,9.11-42.4,3.04-51.94-5.75-9.04-117.54-9.11-126-2.39Z"/><path class="cls-10" d="m998.93,129.17c-2.94,3.94-5.07,48.36,0,52.05,9.49,6.9,113.47,7.65,122.96,2.28,8.13-4.6,9.11-42.4,3.04-51.94-5.75-9.04-119.54-11.04-126-2.39Z"/><path class="cls-93" d="m1143.71,129.17c-2.94,3.94-5.07,48.36,0,52.05,9.49,6.9,113.47,7.65,122.96,2.28,8.13-4.6,9.11-42.4,3.04-51.94-5.75-9.04-119.54-11.04-126-2.39Z"/><path class="cls-68" d="m932.44,198.57c-2.94,3.94-5.07,48.36,0,52.05,9.49,6.9,113.47,7.65,122.96,2.28,8.13-4.6,9.11-42.4,3.04-51.94-5.75-9.04-119.54-11.04-126-2.39Z"/><path class="cls-39" d="m1077.23,198.57c-2.94,3.94-5.07,48.36,0,52.05,9.49,6.9,113.47,7.65,122.96,2.28,8.13-4.6,9.11-42.4,3.04-51.94-5.75-9.04-119.54-11.04-126-2.39Z"/><path class="cls-85" d="m854.5,271.33c-9.01,7.16-9.76,45.54,0,52.05,9.76,6.51,113.47,7.65,122.96,2.28,8.13-4.6,9.11-42.4,3.04-51.94-5.75-9.04-117.54-9.11-126-2.39Z"/><path class="cls-29" d="m998.93,273.5c-2.94,3.94-5.07,48.36,0,52.05,9.49,6.9,113.47,7.65,122.96,2.28,8.13-4.6,9.11-42.4,3.04-51.94-5.75-9.04-119.54-11.04-126-2.39Z"/><path class="cls-50" d="m1143.71,273.5c-2.94,3.94-5.07,48.36,0,52.05,9.49,6.9,113.47,7.65,122.96,2.28,8.13-4.6,9.11-42.4,3.04-51.94-5.75-9.04-119.54-11.04-126-2.39Z"/><path class="cls-81" d="m932.44,348.05c-2.94,3.94-5.07,48.36,0,52.05,9.49,6.9,113.47,7.65,122.96,2.28,8.13-4.6,9.11-42.4,3.04-51.94-5.75-9.04-119.54-11.04-126-2.39Z"/><path class="cls-61" d="m1077.23,348.05c-2.94,3.94-5.07,48.36,0,52.05,9.49,6.9,113.47,7.65,122.96,2.28,8.13-4.6,9.11-42.4,3.04-51.94-5.75-9.04-119.54-11.04-126-2.39Z"/><path class="cls-69" d="m1314.9,49.25c-35.45-2.2-86.98-.74-92.62,3.74-9.01,7.16-9.76,45.54,0,52.05,6.74,4.49,58.24,6.42,92.62,5.43v-61.22Z"/><path class="cls-49" d="m1314.9,191.57c-35.45-2.2-86.98-.74-92.62,3.74-9.01,7.16-9.76,45.54,0,52.05,6.74,4.49,58.24,6.42,92.62,5.43v-61.22Z"/><path class="cls-18" d="m1314.9,341.05c-35.45-2.2-86.98-.74-92.62,3.74-9.01,7.16-9.76,45.54,0,52.05,6.74,4.49,58.24,6.42,92.62,5.43v-61.22Z"/><path class="cls-83" d="m854.5-12.8c-9.01,7.16-9.76,45.54,0,52.05,9.76,6.51,113.47,7.65,122.96,2.28,8.13-4.6,9.11-42.4,3.04-51.94-5.75-9.04-117.54-9.11-126-2.39Z"/><path class="cls-116" d="m998.93-10.63c-2.94,3.94-5.07,48.36,0,52.05,9.49,6.9,113.47,7.65,122.96,2.28,8.13-4.6,9.11-42.4,3.04-51.94-5.75-9.04-119.54-11.04-126-2.39Z"/><path class="cls-108" d="m1143.71-10.63c-2.94,3.94-5.07,48.36,0,52.05,9.49,6.9,113.47,7.65,122.96,2.28,8.13-4.6,9.11-42.4,3.04-51.94-5.75-9.04-119.54-11.04-126-2.39Z"/><path class="cls-64" d="m932.44,58.76c-2.94,3.94-5.07,48.36,0,52.05,9.49,6.9,113.47,7.65,122.96,2.28,8.13-4.6,9.11-42.4,3.04-51.94-5.75-9.04-119.54-11.04-126-2.39Z"/><path class="cls-77" d="m1077.23,58.76c-2.94,3.94-5.07,48.36,0,52.05,9.49,6.9,113.47,7.65,122.96,2.28,8.13-4.6,9.11-42.4,3.04-51.94-5.75-9.04-119.54-11.04-126-2.39Z"/><path class="cls-112" d="m854.5,129.52c-9.01,7.16-9.76,45.54,0,52.05,9.76,6.51,113.47,7.65,122.96,2.28,8.13-4.6,9.11-42.4,3.04-51.94-5.75-9.04-117.54-9.11-126-2.39Z"/><path class="cls-14" d="m998.93,131.69c-2.94,3.94-5.07,48.36,0,52.05,9.49,6.9,113.47,7.65,122.96,2.28,8.13-4.6,9.11-42.4,3.04-51.94-5.75-9.04-119.54-11.04-126-2.39Z"/><path class="cls-89" d="m1143.71,131.69c-2.94,3.94-5.07,48.36,0,52.05,9.49,6.9,113.47,7.65,122.96,2.28,8.13-4.6,9.11-42.4,3.04-51.94-5.75-9.04-119.54-11.04-126-2.39Z"/><path class="cls-17" d="m932.44,201.09c-2.94,3.94-5.07,48.36,0,52.05,9.49,6.9,113.47,7.65,122.96,2.28,8.13-4.6,9.11-42.4,3.04-51.94-5.75-9.04-119.54-11.04-126-2.39Z"/><path class="cls-102" d="m1077.23,201.09c-2.94,3.94-5.07,48.36,0,52.05,9.49,6.9,113.47,7.65,122.96,2.28,8.13-4.6,9.11-42.4,3.04-51.94-5.75-9.04-119.54-11.04-126-2.39Z"/><path class="cls-19" d="m854.5,273.85c-9.01,7.16-9.76,45.54,0,52.05,9.76,6.51,113.47,7.65,122.96,2.28,8.13-4.6,9.11-42.4,3.04-51.94-5.75-9.04-117.54-9.11-126-2.39Z"/><path class="cls-96" d="m998.93,276.02c-2.94,3.94-5.07,48.36,0,52.05,9.49,6.9,113.47,7.65,122.96,2.28,8.13-4.6,9.11-42.4,3.04-51.94-5.75-9.04-119.54-11.04-126-2.39Z"/><path class="cls-100" d="m1143.71,276.02c-2.94,3.94-5.07,48.36,0,52.05,9.49,6.9,113.47,7.65,122.96,2.28,8.13-4.6,9.11-42.4,3.04-51.94-5.75-9.04-119.54-11.04-126-2.39Z"/><path class="cls-58" d="m932.44,350.57c-2.94,3.94-5.07,48.36,0,52.05,9.49,6.9,113.47,7.65,122.96,2.28,8.13-4.6,9.11-42.4,3.04-51.94-5.75-9.04-119.54-11.04-126-2.39Z"/><path class="cls-84" d="m1077.23,350.57c-2.94,3.94-5.07,48.36,0,52.05,9.49,6.9,113.47,7.65,122.96,2.28,8.13-4.6,9.11-42.4,3.04-51.94-5.75-9.04-119.54-11.04-126-2.39Z"/><path class="cls-22" d="m1314.9,51.77c-35.45-2.2-86.98-.74-92.62,3.74-9.01,7.16-9.76,45.54,0,52.05,6.74,4.49,58.24,6.42,92.62,5.43v-61.22Z"/><path class="cls-94" d="m1314.9,194.09c-35.45-2.2-86.98-.74-92.62,3.74-9.01,7.16-9.76,45.54,0,52.05,6.74,4.49,58.24,6.42,92.62,5.43v-61.22Z"/><path class="cls-78" d="m1314.9,343.57c-35.45-2.2-86.98-.74-92.62,3.74-9.01,7.16-9.76,45.54,0,52.05,6.74,4.49,58.24,6.42,92.62,5.43v-61.22Z"/><path class="cls-28" d="m1077.23,110.81c6.29-1.19,38.88,1.54,61.53,2,30.7.63,59.32-2.72,61.43.27,3.68,5.2-92.16,13.34-122.96-2.28Z"/><path class="cls-122" d="m1314.9,109.15c-9.37.32-20.14.61-31.18.38-22.65-.47-55.24-3.19-61.53-2,19.02,9.64,62.84,10.23,92.71,8.04v-6.42Z"/><path class="cls-28" d="m932.78,110.81c6.29-1.19,38.88,1.54,61.53,2,30.7.63,59.32-2.72,61.43.27,3.68,5.2-92.16,13.34-122.96-2.28Z"/><path class="cls-28" d="m996.99,41.95c6.29-1.19,38.88,1.54,61.53,2,30.7.63,59.32-2.72,61.43.27,3.68,5.2-92.16,13.34-122.96-2.28Z"/><path class="cls-28" d="m1143.57,40.53c6.29-1.19,38.88,1.54,61.53,2,30.7.63,59.32-2.72,61.43.27,3.68,5.2-92.16,13.34-122.96-2.28Z"/><path class="cls-28" d="m852.54,41.95c6.29-1.19,38.88,1.54,61.53,2,30.7.63,59.32-2.72,61.43.27,3.68,5.2-92.16,13.34-122.96-2.28Z"/><path class="cls-28" d="m999.27,181.74c6.29-1.19,38.88,1.54,61.53,2,30.7.63,59.32-2.72,61.43.27,3.68,5.2-92.16,13.34-122.96-2.28Z"/><path class="cls-122" d="m1314.9,251.33c-10.24.37-22.53.79-35.18.53-22.65-.47-55.24-3.19-61.53-2,19.89,10.08,66.89,10.26,96.72,7.72v-6.25Z"/><path class="cls-28" d="m1077.23,253.32c6.29-1.19,38.88,1.54,61.53,2,30.7.63,59.32-2.72,61.43.27,3.68,5.2-92.16,13.34-122.96-2.28Z"/><path class="cls-28" d="m1143.57,329.48c6.29-1.19,38.88,1.54,61.53,2,30.7.63,59.32-2.72,61.43.27,3.68,5.2-92.16,13.34-122.96-2.28Z"/><path class="cls-122" d="m1314.9,401.34c-9.37.32-20.14.61-31.18.38-22.65-.47-55.24-3.19-61.53-2,19.02,9.64,62.84,10.23,92.71,8.04v-6.42Z"/><path class="cls-28" d="m1077.23,402.07c6.29-1.19,38.88,1.54,61.53,2,30.7.63,59.32-2.72,61.43.27,3.68,5.2-92.16,13.34-122.96-2.28Z"/><path class="cls-28" d="m931.44,402.07c6.29-1.19,38.88,1.54,61.53,2,30.7.63,59.32-2.72,61.43.27,3.68,5.2-92.16,13.34-122.96-2.28Z"/><path class="cls-28" d="m930.84,253.32c6.29-1.19,38.88,1.54,61.53,2,30.7.63,59.32-2.72,61.43.27,3.68,5.2-92.16,13.34-122.96-2.28Z"/><path class="cls-28" d="m854.4,326.96c6.29-1.19,38.88,1.54,61.53,2,30.7.63,59.32-2.72,61.43.27,3.68,5.2-92.16,13.34-122.96-2.28Z"/><path class="cls-28" d="m995.87,326.96c6.29-1.19,38.88,1.54,61.53,2,30.7.63,59.32-2.72,61.43.27,3.68,5.2-92.16,13.34-122.96-2.28Z"/><path class="cls-28" d="m1143.74,182.63c6.29-1.19,38.88,1.54,61.53,2,30.7.63,59.32-2.72,61.43.27,3.68,5.2-92.16,13.34-122.96-2.28Z"/><path class="cls-28" d="m854.82,181.74c6.29-1.19,38.88,1.54,61.53,2,30.7.63,59.32-2.72,61.43.27,3.68,5.2-92.16,13.34-122.96-2.28Z"/><path class="cls-95" d="m892.63,118.93s79.75,3.62,85.26,5.84c5.51,2.23,9.77,9.62,11.56,10.52s16.58-12.4,22.86-13.04c6.28-.63-66.56-3.71-77.32-9.01-10.76-5.3-5.39-28.51-8.96-35.55-9.67-19.07-8.07,28-13.22,32.83-5.15,4.83-31.38,5.37-37.88,6.11-6.5.74,17.71,2.31,17.71,2.31Z"/><path class="cls-95" d="m963.67,193.03c-4.88-.69,22.15-9.37,28.7-9.33,6.55.04,64.31,11.85,64.31,11.85,0,0-82.48-1.03-93.01-2.52Z"/><path class="cls-52" d="m1002.89,269.1s42.58-11.1,58.72-11.38c16.14-.28,86.06,10.24,86.06,10.24,0,0-9.19,4.72-10.76,11.22-1.57,6.5-12.33-8.02-32.72-10.73-20.39-2.72-80.68-2.02-101.3.66Z"/><path class="cls-52" d="m871.34,333.88c-3.59.88,37.65,7.3,43.03,11.15,5.38,3.85,4.71,21.11,5.83,24.25,1.12,3.14-2.17-14.43,12.25-21.22,14.42-6.79,70.67-2.95,80.09-5.54,9.41-2.59-54.79-4.53-92.34-6.45-37.55-1.92-48.86-2.18-48.86-2.18Z"/><path class="cls-52" d="m1054.51,338.57c-16.8,1.1,36.77,3.63,67.09,3.99,30.33.36,1.22-8.47-67.09-3.99Z"/><path class="cls-119" d="m1314.9,333.93c-22.23-.03-38.87-.06-38.87-.06-2.42.6,18.53,2.31,38.87,4.19v-4.13Z"/><path class="cls-52" d="m1124.14,46.35s75.98,8.26,79.56,10.72c3.59,2.47,6.05,14.12,6.28,17.03.22,2.91,6.95-18.23,10.98-20.88s24.65-4.98,24.65-4.98c0,0-52,1.03-75.53,0-23.53-1.03-45.94-1.89-45.94-1.89Z"/><path class="cls-52" d="m983.4,185.32c-14.82,8.53,14.12,8.41,30.7,8.69,16.58.28-19.5-15.14-30.7-8.69Z"/><path class="cls-52" d="m1057.5,259.47c-22.54,3.56-2.02,6.8,22.36,7.63s-2.86-10.71-22.36-7.63Z"/><path class="cls-52" d="m1171.92,118.7c-15.95,3.14,51.51,4.74,76.84,6.07,25.33,1.33-25.77-8.39-32.5-17.54-6.72-9.15-2.32,1.82-16.51,6.87-14.19,5.05-27.83,4.6-27.83,4.6Z"/><g class="cls-123"><path class="cls-48" d="m1018.39,170.92c-20.43-16.14,3.87-39.59,40.13-39.07,36.26.52,21.61,32.6-2.2,41.66-23.82,9.05-37.93-2.59-37.93-2.59Z"/><path class="cls-48" d="m995.06,106.25c-20.43-16.14,3.87-39.59,40.13-39.07,36.26.52,21.61,32.6-2.2,41.66-23.82,9.05-37.93-2.59-37.93-2.59Z"/><path class="cls-48" d="m989.57,387.81c-20.43-16.14,3.87-39.59,40.13-39.07s21.61,32.6-2.2,41.66c-23.82,9.05-37.93-2.59-37.93-2.59Z"/><path class="cls-48" d="m963.09,215.3c-26.15,32.01,15.08,42.57,36.18,11.95,21.1-30.62-25.65-24.84-36.18-11.95Z"/><path class="cls-48" d="m1013.46,283.43c-19.15,12.18-30.01,58.35,48.9,32.72,78.91-25.63-38.33-39.45-48.9-32.72Z"/><path class="cls-121" d="m1236.55,350.31c-19.15,12.18-30.01,58.35,48.9,32.72,78.91-25.63-38.33-39.45-48.9-32.72Z"/><path class="cls-121" d="m1237.6,201.31c-19.15,12.18-30.01,58.35,48.9,32.72,78.91-25.63-38.33-39.45-48.9-32.72Z"/><path class="cls-48" d="m1110.47,212.23c-33.07,17.53,2.69,42.51,39,21.44s-26.45-28.1-39-21.44Z"/><path class="cls-48" d="m1088.1,352.87c-33.07,17.53,2.69,42.51,39,21.44,36.31-21.07-26.45-28.1-39-21.44Z"/><path class="cls-48" d="m1150.81,286.12c15.12-14.2,30.93-15.48,20.62-4.38-10.31,11.1-23.19,6.8-20.62,4.38Z"/><path class="cls-48" d="m1018.39,22.56c-7.43,7.17,8.71,7.17,12.3,7.62,3.59.45-12.3-7.62-12.3-7.62Z"/><path class="cls-48" d="m1025.75-.75c-9.41,3.14,6.72,18.83,13.9,23.31,7.17,4.48-4.48-26.45-13.9-23.31Z"/><path class="cls-48" d="m954.67,69.17c-15.12,11.17,13.05,27.34,29.74,25.55,16.69-1.79-17-34.96-29.74-25.55Z"/><path class="cls-48" d="m954.67,13c-8.25,8.21-2.43,9.38,2.95,2.52,5.38-6.86-2.95-2.52-2.95-2.52Z"/><path class="cls-48" d="m882.32,151.2c-10.58,24.34,16.15,7.56,26.67-9.41,10.52-16.97-22.19-.9-26.67,9.41Z"/><path class="cls-121" d="m1314.9,70.05c-.69-1.6-1.54-2.6-2.04-2.82-5.39-2.38-61.01-7.4-79.7-3.36-18.69,4.03-18.96,26,0,40.79,18.96,14.79,78.82-15.13,81.72-23.14,0-.02.01-.05.02-.07v-11.39Z"/></g><g class="cls-124"><path class="cls-48" d="m953.4,212.61c-1.13-3.65-16.48,20.07-10.84,30.43,5.64,10.36,13.25-22.67,10.84-30.43Z"/><path class="cls-48" d="m906.31,157.86c-2.91-.75-10.73,7.83-5.86,14.31,4.88,6.48,12.69-12.55,5.86-14.31Z"/><path class="cls-48" d="m908.5,14.75c-2.91-.75-10.74,7.83-5.86,14.31,4.88,6.48,12.69-12.55,5.86-14.31Z"/><path class="cls-48" d="m871.93,225.77c-6.33.35-3.44,5.3,0,8.24,3.44,2.94,2.1-8.35,0-8.24Z"/><path class="cls-48" d="m945.33,362.23c-12.93,7.32-8.27,38.73,0,30.61,8.27-8.12,9.08-35.75,0-30.61Z"/></g><path class="cls-47" d="m908.99,258.95c-31.49,8.69,10.35,8.71,33.3,7.63,22.95-1.08-22.24-10.68-33.3-7.63Z"/><path class="cls-47" d="m889.7,189.62c-13,.7,6.99,5.42,39.69,5.92,32.7.5-15.24-7.24-39.69-5.92Z"/><path class="cls-120" d="m1314.9,264.18c-17.73-2.79-56.56-5.04-99.66-1.85-36.05,2.67,57.4,8.45,97.34,6.93.82-.03,1.59-.07,2.32-.11v-4.97Z"/><path class="cls-79" d="m910.47,340.5c-9.01,1.91,14.35,6.04,24.34,4.95,9.99-1.09-5.56-8.92-24.34-4.95Z"/><path class="cls-47" d="m847.38,119.25c-16.65,2.6,26.97,3.01,45.47.94,18.5-2.07-10.79-6.35-45.47-.94Z"/></g><path class="cls-128" d="m88.27,67.02h-26.29c-.72,0-1.3-.58-1.3-1.3h0c0-.72.58-1.3,1.3-1.3h26.29c.72,0,1.3.58,1.3,1.3h0c0,.72-.58,1.3-1.3,1.3Z"/><path class="cls-128" d="m88.27,75.41h-26.29c-.72,0-1.3-.58-1.3-1.3h0c0-.72.58-1.3,1.3-1.3h26.29c.72,0,1.3.58,1.3,1.3h0c0,.72-.58,1.3-1.3,1.3Z"/><path class="cls-128" d="m61.98,81.2h26.29c.72,0,1.3.58,1.3,1.3h0c0,.72-.58,1.3-1.3,1.3h-26.29c-.72,0-1.3-.58-1.3-1.3h0c0-.72.58-1.3,1.3-1.3Z"/></g></g></g></g></svg>