<?xml version="1.0" encoding="UTF-8"?><svg id="Ebene_2" xmlns="http://www.w3.org/2000/svg" xmlns:xlink="http://www.w3.org/1999/xlink" viewBox="0 0 1464.62 991.44"><defs><style>.cls-1{clip-path:url(#clippath-1);}.cls-2{fill:url(#radial-gradient);}.cls-3{fill:#ffde70;}.cls-4{clip-path:url(#clippath);}.cls-5{clip-rule:evenodd;}.cls-5,.cls-6{fill:none;}</style><clipPath id="clippath"><rect class="cls-6" width="1464.62" height="991.44"/></clipPath><clipPath id="clippath-1"><path class="cls-5" d="m1332.31,864.28H132.31c-13.35,0-25.18-6.54-32.44-16.6-4.75-6.58-7.56-14.66-7.56-23.4V184.28c0-12.92,6.12-24.41,15.63-31.72,6.75-5.19,15.2-8.28,24.37-8.28h1200c12.21,0,23.15,5.47,30.49,14.1,5.93,6.98,9.51,16.02,9.51,25.9v640c0,9.35-3.21,17.96-8.59,24.77-7.33,9.28-18.67,15.23-31.41,15.23Z"/></clipPath><radialGradient id="radial-gradient" cx="909.15" cy="818.02" fx="909.15" fy="818.02" r="958.01" gradientUnits="userSpaceOnUse"><stop offset="0" stop-color="#312425"/><stop offset=".44" stop-color="#271b1c"/><stop offset=".75" stop-color="#1d1314"/></radialGradient></defs><g id="Ebene_1-2"><g class="cls-4"><g class="cls-1"><rect class="cls-2" x="92.31" y="144.63" width="1280" height="719.65"/><path class="cls-3" d="m180.58,211.3h-26.29c-.72,0-1.3-.58-1.3-1.3h0c0-.72.58-1.3,1.3-1.3h26.29c.72,0,1.3.58,1.3,1.3h0c0,.72-.58,1.3-1.3,1.3Z"/><path class="cls-3" d="m180.58,219.69h-26.29c-.72,0-1.3-.58-1.3-1.3h0c0-.72.58-1.3,1.3-1.3h26.29c.72,0,1.3.58,1.3,1.3h0c0,.72-.58,1.3-1.3,1.3Z"/><path class="cls-3" d="m154.29,225.48h26.29c.72,0,1.3.58,1.3,1.3h0c0,.72-.58,1.3-1.3,1.3h-26.29c-.72,0-1.3-.58-1.3-1.3h0c0-.72.58-1.3,1.3-1.3Z"/></g></g></g></svg>