<?xml version="1.0" encoding="UTF-8"?><svg id="Ebene_2" xmlns="http://www.w3.org/2000/svg" viewBox="0 0 196.17 40.63"><defs><style>.cls-1{letter-spacing:0em;}.cls-2{letter-spacing:0em;}.cls-3{letter-spacing:0em;}.cls-4{fill:#8f4e3b;}.cls-5{letter-spacing:-.02em;}.cls-6,.cls-7{fill:#ffde70;}.cls-8{letter-spacing:0em;}.cls-7{font-family:Montserrat-ExtraLight, Montserrat;font-size:16px;font-weight:200;}</style></defs><g id="Ebene_1-2"><rect class="cls-4" x=".5" y=".5" width="195.17" height="39.63"/><path class="cls-6" d="m196.17,40.63H0V0h196.17v40.63ZM1,39.63h194.17V1H1v38.63Z"/><text class="cls-7" transform="translate(32.78 24.58)"><tspan x="0" y="0">N</tspan><tspan class="cls-1" x="13.04" y="0">ä</tspan><tspan class="cls-8" x="22.3" y="0">c</tspan><tspan x="30.94" y="0">hs</tspan><tspan class="cls-5" x="49.18" y="0">t</tspan><tspan x="55.14" y="0">e </tspan><tspan class="cls-3" x="68.64" y="0">Fr</tspan><tspan class="cls-1" x="84.61" y="0">a</tspan><tspan class="cls-2" x="93.87" y="0">ge</tspan></text><path class="cls-6" d="m157.64,25.32c-.13,0-.26-.05-.35-.15-.2-.2-.2-.51,0-.71l4.65-4.65-4.65-4.65c-.2-.2-.2-.51,0-.71.2-.2.51-.2.71,0l5,5c.2.2.2.51,0,.71l-5,5c-.1.1-.23.15-.35.15Z"/></g></svg>