<?xml version="1.0" encoding="UTF-8"?><svg id="Ebene_2" xmlns="http://www.w3.org/2000/svg" xmlns:xlink="http://www.w3.org/1999/xlink" viewBox="0 0 1280 720"><defs><style>.cls-1{fill:url(#radial-gradient);}.cls-2{fill:#ffde70;}.cls-3{fill:none;fill-rule:evenodd;}</style><radialGradient id="radial-gradient" cx="816.84" cy="673.74" fx="816.84" fy="673.74" r="958.01" gradientUnits="userSpaceOnUse"><stop offset="0" stop-color="#312425"/><stop offset=".44" stop-color="#271b1c"/><stop offset=".75" stop-color="#1d1314"/></radialGradient></defs><g id="Ebene_1-2"><rect class="cls-1" y=".35" width="1280" height="719.65"/><path class="cls-2" d="m88.27,67.02h-26.29c-.72,0-1.3-.58-1.3-1.3h0c0-.72.58-1.3,1.3-1.3h26.29c.72,0,1.3.58,1.3,1.3h0c0,.72-.58,1.3-1.3,1.3Z"/><path class="cls-2" d="m88.27,75.41h-26.29c-.72,0-1.3-.58-1.3-1.3h0c0-.72.58-1.3,1.3-1.3h26.29c.72,0,1.3.58,1.3,1.3h0c0,.72-.58,1.3-1.3,1.3Z"/><path class="cls-2" d="m61.98,81.2h26.29c.72,0,1.3.58,1.3,1.3h0c0,.72-.58,1.3-1.3,1.3h-26.29c-.72,0-1.3-.58-1.3-1.3h0c0-.72.58-1.3,1.3-1.3Z"/><path class="cls-3" d="m1240,720H40c-13.35,0-25.18-6.54-32.44-16.6-4.75-6.58-7.56-14.66-7.56-23.4V40C0,27.08,6.12,15.59,15.63,8.28,22.37,3.09,30.83,0,40,0h1200c12.21,0,23.15,5.47,30.49,14.1,5.93,6.98,9.51,16.02,9.51,25.9v640c0,9.35-3.21,17.96-8.59,24.77-7.33,9.28-18.67,15.23-31.41,15.23Z"/></g></svg>