<?xml version="1.0" encoding="UTF-8"?><svg id="Ebene_2" xmlns="http://www.w3.org/2000/svg" viewBox="0 0 710.83 147.23"><defs><style>.cls-1{fill:#8f4e3b;}.cls-2,.cls-3{fill:#ffde70;}.cls-4{letter-spacing:.02em;}.cls-3{font-family:Montserrat-Light, Montserrat;font-size:60px;font-weight:300;}.cls-5{letter-spacing:.01em;}.cls-6{letter-spacing:0em;}.cls-7{letter-spacing:.02em;}</style></defs><g id="Ebene_1-2"><rect class="cls-1" x="1.81" y="1.81" width="707.2" height="143.61"/><path class="cls-2" d="m710.83,147.23H0V0h710.83v147.23ZM3.62,143.61h703.58V3.62H3.62v139.99Z"/><text class="cls-3" transform="translate(46.59 99.78)"><tspan class="cls-7" x="0" y="0">EIN</tspan><tspan class="cls-5" x="110.28" y="0">S</tspan><tspan class="cls-7" x="147.42" y="0">TEL</tspan><tspan class="cls-6" x="260.04" y="0">L</tspan><tspan class="cls-4" x="295.5" y="0">UNGEN</tspan></text><path class="cls-2" d="m636.82,101.37c-.54,0-1.08-.21-1.5-.62-.83-.83-.83-2.17,0-2.99l19.67-19.67-19.67-19.67c-.83-.83-.83-2.16,0-2.99.83-.83,2.16-.83,2.99,0l21.16,21.16c.83.83.83,2.16,0,2.99l-21.16,21.16c-.41.41-.95.62-1.5.62Z"/></g></svg>