<?xml version="1.0" encoding="UTF-8"?><svg id="Ebene_2" xmlns="http://www.w3.org/2000/svg" viewBox="0 0 440.69 91.28"><defs><style>.cls-1{font-family:Montserrat-Light, Montserrat;font-size:50px;font-weight:300;}.cls-1,.cls-2{fill:#ffde70;}.cls-3{letter-spacing:.01em;}.cls-4{fill:#8f4e3b;}</style></defs><g id="Ebene_1-2"><rect class="cls-4" x="1.12" y="1.12" width="438.44" height="89.03"/><path class="cls-2" d="m440.69,91.28H0V0h440.69v91.28ZM2.25,89.03h436.19V2.25H2.25v86.79Z"/><text class="cls-1" transform="translate(139.86 62.68)"><tspan x="0" y="0">Sta</tspan><tspan class="cls-3" x="79.5" y="0">r</tspan><tspan x="99.95" y="0">t</tspan></text><path class="cls-2" d="m283.21,62.85c-.34,0-.67-.13-.93-.38-.51-.51-.51-1.34,0-1.85l12.19-12.19-12.19-12.19c-.51-.51-.51-1.34,0-1.85.51-.51,1.34-.51,1.85,0l13.12,13.12c.51.51.51,1.34,0,1.85l-13.12,13.12c-.26.26-.59.38-.93.38Z"/></g></svg>