<?xml version="1.0" encoding="UTF-8" standalone="no"?>
<!-- Created with Inkscape (http://www.inkscape.org/) -->

<svg
   width="200"
   height="200"
   viewBox="0 0 52.916667 52.916666"
   version="1.1"
   id="svg23922"
   sodipodi:docname="Attribut_with_text.svg"
   inkscape:version="1.2.1 (9c6d41e410, 2022-07-14)"
   xmlns:inkscape="http://www.inkscape.org/namespaces/inkscape"
   xmlns:sodipodi="http://sodipodi.sourceforge.net/DTD/sodipodi-0.dtd"
   xmlns="http://www.w3.org/2000/svg"
   xmlns:svg="http://www.w3.org/2000/svg">
  <sodipodi:namedview
     id="namedview23924"
     pagecolor="#ffffff"
     bordercolor="#000000"
     borderopacity="0.25"
     inkscape:showpageshadow="2"
     inkscape:pageopacity="0.0"
     inkscape:pagecheckerboard="0"
     inkscape:deskcolor="#d1d1d1"
     inkscape:document-units="mm"
     showgrid="false"
     inkscape:zoom="1.9224607"
     inkscape:cx="119.89842"
     inkscape:cy="139.66475"
     inkscape:window-width="1350"
     inkscape:window-height="2321"
     inkscape:window-x="3191"
     inkscape:window-y="-9"
     inkscape:window-maximized="1"
     inkscape:current-layer="layer1" />
  <defs
     id="defs23919" />
  <g
     inkscape:label="Layer 1"
     inkscape:groupmode="layer"
     id="layer1"
     transform="translate(-78.96429,-47.300447)">
    <ellipse
       style="fill:#aafffa;fill-opacity:1;stroke:#000000;stroke-width:0.20014;stroke-dasharray:none;paint-order:fill markers stroke"
       id="path20077"
       cx="105.42262"
       cy="-74.31881"
       rx="26.358263"
       ry="15.632846"
       transform="scale(1,-1)" />
    <g
       aria-label="Attribute"
       id="text22086"
       style="font-size:12.7px;font-family:'Sitka Subheading';-inkscape-font-specification:'Sitka Subheading';stroke:#000000;stroke-width:0.245;paint-order:fill markers stroke">
      <path
         d="m 80.02657,76.895982 0.547511,-0.214489 q 0.1016,-0.03951 0.180622,-0.129822 0.08467,-0.09031 0.124178,-0.191911 l 2.274711,-5.870222 0.671689,-1.332089 h 0.491067 l 2.822222,7.219244 q 0.03951,0.09596 0.112889,0.191911 0.07902,0.09031 0.180622,0.124178 l 0.5588,0.2032 v 0.366889 h -2.906889 v -0.366889 l 0.959556,-0.276578 -0.857956,-2.212622 h -2.8956 l -0.807155,2.1844 0.959555,0.3048 v 0.366889 H 80.02657 Z m 4.921956,-3.1496 -0.931334,-2.331156 -0.242711,-0.762 h -0.06209 l -1.179689,3.093156 z"
         id="path29935" />
      <path
         d="m 89.029455,71.996604 h -0.942622 v -0.434622 q 0.231422,-0.04516 0.417689,-0.08467 0.191911,-0.03951 0.327378,-0.124177 0.135467,-0.09031 0.214489,-0.248356 0.08467,-0.158044 0.1016,-0.434622 l 0.04516,-0.784578 0.903111,-0.174978 v 1.710267 h 2.071512 l -0.08467,0.575733 h -1.986845 v 3.917245 q 0,0.186266 0.118534,0.316088 0.118533,0.129823 0.287866,0.214489 0.174978,0.08467 0.361245,0.124178 0.186267,0.03387 0.327378,0.03387 0.09596,0 0.214489,-0.01693 0.124177,-0.02258 0.237066,-0.04516 0.112889,-0.02822 0.208845,-0.06209 0.1016,-0.03387 0.1524,-0.05644 h 0.146755 v 0.400755 q -0.07902,0.0508 -0.242711,0.141111 -0.158044,0.09031 -0.372533,0.180622 -0.208845,0.09031 -0.462845,0.1524 -0.248355,0.06773 -0.502355,0.06773 -0.316089,0 -0.598311,-0.07902 -0.276578,-0.07902 -0.485423,-0.225778 -0.208844,-0.146756 -0.333022,-0.361245 -0.124178,-0.220133 -0.124178,-0.502355 z"
         id="path29937" />
      <path
         d="m 93.465983,71.996604 h -0.942622 v -0.434622 q 0.231422,-0.04516 0.417688,-0.08467 0.191911,-0.03951 0.327378,-0.124177 0.135467,-0.09031 0.214489,-0.248356 0.08467,-0.158044 0.1016,-0.434622 l 0.04516,-0.784578 0.903111,-0.174978 v 1.710267 h 2.071511 l -0.08467,0.575733 h -1.986844 v 3.917245 q 0,0.186266 0.118533,0.316088 0.118533,0.129823 0.287867,0.214489 0.174977,0.08467 0.361244,0.124178 0.186267,0.03387 0.327378,0.03387 0.09596,0 0.214489,-0.01693 0.124178,-0.02258 0.237066,-0.04516 0.112889,-0.02822 0.208845,-0.06209 0.1016,-0.03387 0.1524,-0.05644 h 0.146755 v 0.400755 q -0.07902,0.0508 -0.242711,0.141111 -0.158044,0.09031 -0.372533,0.180622 -0.208844,0.09031 -0.462844,0.1524 -0.248356,0.06773 -0.502356,0.06773 -0.316089,0 -0.598311,-0.07902 -0.276578,-0.07902 -0.485422,-0.225778 -0.208845,-0.146756 -0.333023,-0.361245 -0.124177,-0.220133 -0.124177,-0.502355 z"
         id="path29939" />
      <path
         d="m 97.180019,76.907271 0.671689,-0.197556 q 0.1016,-0.02822 0.163689,-0.09596 0.06773,-0.07338 0.06773,-0.191911 v -3.849511 q 0,-0.146756 -0.08467,-0.237067 -0.07902,-0.09031 -0.2032,-0.135467 L 97.157441,71.94016 v -0.316089 l 1.913467,-0.333022 v 1.286933 h 0.03951 q 0.214489,-0.316089 0.417689,-0.564444 0.208844,-0.248356 0.428978,-0.417689 0.220134,-0.174978 0.451554,-0.265289 0.23142,-0.09031 0.49671,-0.09031 0.14111,0 0.27094,0.01693 0.13546,0.01129 0.254,0.04516 0.11853,0.02822 0.22577,0.08467 0.11289,0.0508 0.22014,0.124178 v 1.377244 h -0.54751 l -0.16934,-0.445911 q -0.0282,-0.06773 -0.096,-0.118533 -0.0677,-0.0508 -0.15805,-0.08467 -0.0847,-0.03951 -0.18626,-0.05644 -0.1016,-0.02258 -0.19192,-0.02258 -0.22577,0 -0.42333,0.07338 -0.19191,0.07338 -0.361243,0.197555 -0.163689,0.118534 -0.310445,0.276578 -0.146755,0.158045 -0.282222,0.333022 v 3.381023 q 0,0.118533 0.06209,0.191911 0.06773,0.07338 0.169333,0.09596 l 0.824088,0.197556 v 0.3556 h -3.025421 z"
         id="path29941" />
      <path
         d="m 104.07188,70.122649 q -0.15805,0 -0.29916,-0.0508 -0.13546,-0.05644 -0.24271,-0.146756 -0.1016,-0.09031 -0.16369,-0.220133 -0.0621,-0.135467 -0.0621,-0.299156 0,-0.163689 0.0621,-0.299155 0.0621,-0.135467 0.16369,-0.225778 0.10725,-0.09596 0.24271,-0.146756 0.14111,-0.0508 0.29916,-0.0508 0.16933,0 0.31609,0.0508 0.14675,0.04516 0.24835,0.135467 0.10725,0.09031 0.16369,0.220133 0.0621,0.124178 0.0621,0.287867 0,0.169333 -0.0621,0.3048 -0.0564,0.135467 -0.16369,0.237067 -0.10724,0.09596 -0.254,0.1524 -0.14675,0.0508 -0.31044,0.0508 z m -1.46756,6.784622 0.77894,-0.197556 q 0.10724,-0.02822 0.17497,-0.09596 0.0677,-0.07338 0.0677,-0.191911 v -3.8608 q 0,-0.129823 -0.0734,-0.208845 -0.0734,-0.08467 -0.21449,-0.129822 l -0.71684,-0.248356 v -0.316088 l 2.06586,-0.333023 v 5.096934 q 0,0.118533 0.0677,0.191911 0.0734,0.07338 0.16933,0.09596 l 0.75071,0.197556 v 0.3556 h -3.07058 z"
         id="path29943" />
      <path
         d="m 107.02956,69.750115 q 0,-0.129822 -0.079,-0.208844 -0.0734,-0.07902 -0.2032,-0.129822 l -0.64911,-0.276578 v -0.316089 l 1.99249,-0.214489 v 3.347156 0.3048 q 0.23706,-0.349956 0.508,-0.553156 0.27093,-0.2032 0.52493,-0.3048 0.25965,-0.1016 0.47978,-0.129822 0.22578,-0.02822 0.37818,-0.02822 0.54751,0 0.97649,0.214489 0.42897,0.214488 0.72248,0.598311 0.29916,0.378177 0.4572,0.903111 0.15805,0.524933 0.15805,1.140178 0,0.688622 -0.19191,1.292577 -0.19191,0.598311 -0.56445,1.049867 -0.37253,0.451555 -0.9144,0.7112 -0.53622,0.259644 -1.23049,0.259644 -0.29351,0 -0.59831,-0.02822 -0.3048,-0.02822 -0.60395,-0.09031 -0.29916,-0.06209 -0.59267,-0.158044 -0.29351,-0.1016 -0.57009,-0.248356 z m 1.06116,6.615289 q 0.096,0.1016 0.254,0.197556 0.16369,0.09031 0.33866,0.163689 0.18063,0.06773 0.34996,0.107244 0.17498,0.03951 0.29916,0.03951 0.47413,0 0.81844,-0.191911 0.34996,-0.197556 0.57573,-0.524933 0.22578,-0.333023 0.33303,-0.762 0.11288,-0.434623 0.11288,-0.9144 0,-0.530578 -0.1016,-0.982134 -0.1016,-0.451555 -0.32173,-0.784577 -0.21449,-0.333023 -0.55315,-0.519289 -0.33867,-0.191911 -0.80716,-0.191911 -0.14111,0 -0.31609,0.03387 -0.16933,0.02822 -0.34431,0.1016 -0.17498,0.07338 -0.34431,0.197556 -0.16369,0.118533 -0.29351,0.299155 z"
         id="path29945" />
      <path
         d="m 113.89884,72.527182 q 0,-0.129822 -0.0734,-0.208844 -0.0677,-0.07902 -0.2032,-0.129823 l -0.61524,-0.248355 v -0.316089 l 1.95862,-0.333022 v 3.635022 q 0,0.389466 0.0395,0.699911 0.0452,0.310444 0.17498,0.524933 0.13547,0.214489 0.38382,0.327378 0.24836,0.112889 0.65476,0.112889 0.18062,0 0.37253,-0.02822 0.19756,-0.02822 0.38382,-0.09031 0.18627,-0.06773 0.3556,-0.174978 0.16934,-0.112889 0.29916,-0.282222 v -3.488267 q 0,-0.129822 -0.0734,-0.197556 -0.0677,-0.06773 -0.20884,-0.118533 l -0.61525,-0.248355 v -0.316089 l 1.96427,-0.3556 v 4.842933 q 0,0.129822 0.0677,0.208844 0.0734,0.07338 0.21449,0.124178 l 0.6096,0.237067 v 0.316089 l -1.82315,0.3556 h -0.0621 v -0.993423 h -0.0395 q -0.24272,0.327378 -0.47978,0.524934 -0.23707,0.191911 -0.47978,0.299155 -0.23707,0.107245 -0.47413,0.141111 -0.23707,0.03387 -0.47978,0.03387 -0.38382,0 -0.72813,-0.118533 -0.33867,-0.112889 -0.58703,-0.3556 -0.24835,-0.242711 -0.39511,-0.620889 -0.14111,-0.383822 -0.14111,-0.920045 z"
         id="path29947" />
      <path
         d="m 121.03906,71.996604 h -0.94263 v -0.434622 q 0.23143,-0.04516 0.41769,-0.08467 0.19191,-0.03951 0.32738,-0.124177 0.13547,-0.09031 0.21449,-0.248356 0.0847,-0.158044 0.1016,-0.434622 l 0.0452,-0.784578 0.90312,-0.174978 v 1.710267 h 2.07151 l -0.0847,0.575733 h -1.98684 v 3.917245 q 0,0.186266 0.11853,0.316088 0.11853,0.129823 0.28787,0.214489 0.17497,0.08467 0.36124,0.124178 0.18627,0.03387 0.32738,0.03387 0.096,0 0.21449,-0.01693 0.12417,-0.02258 0.23706,-0.04516 0.11289,-0.02822 0.20885,-0.06209 0.1016,-0.03387 0.1524,-0.05644 h 0.14675 v 0.400755 q -0.079,0.0508 -0.24271,0.141111 -0.15804,0.09031 -0.37253,0.180622 -0.20885,0.09031 -0.46285,0.1524 -0.24835,0.06773 -0.50235,0.06773 -0.31609,0 -0.59831,-0.07902 -0.27658,-0.07902 -0.48542,-0.225778 -0.20885,-0.146756 -0.33303,-0.361245 -0.12417,-0.220133 -0.12417,-0.502355 z"
         id="path29949" />
      <path
         d="m 129.94034,75.891271 v 0.564444 q -0.19756,0.169334 -0.4572,0.338667 -0.25965,0.169333 -0.57009,0.3048 -0.31045,0.129822 -0.6604,0.214489 -0.34431,0.08467 -0.7112,0.08467 -0.59267,0 -1.10067,-0.197555 -0.50235,-0.197556 -0.87489,-0.581378 -0.36689,-0.389467 -0.57573,-0.953911 -0.20884,-0.564444 -0.20884,-1.303867 0,-0.643466 0.19755,-1.207911 0.2032,-0.570089 0.56445,-0.993422 0.36688,-0.423333 0.88053,-0.671689 0.51929,-0.248355 1.14582,-0.248355 0.57009,0 1.01036,0.191911 0.44591,0.191911 0.75071,0.513644 0.3048,0.316089 0.46284,0.739422 0.15805,0.417689 0.15805,0.869245 0,0.05644 -0.006,0.129822 0,0.06773 -0.006,0.146756 0,0.07338 -0.0113,0.146755 -0.0113,0.06773 -0.0226,0.124178 h -4.0132 q 0.006,1.236133 0.52493,1.8796 0.52494,0.637822 1.51272,0.637822 0.32173,0 0.60395,-0.07338 0.28787,-0.07902 0.52493,-0.186266 0.24272,-0.112889 0.42898,-0.237067 0.19191,-0.124178 0.32738,-0.231422 z m -1.12325,-2.302933 q 0,-0.395112 -0.0677,-0.728134 -0.0677,-0.333022 -0.22578,-0.575733 -0.15804,-0.242711 -0.4064,-0.378178 -0.24835,-0.135467 -0.6096,-0.135467 -0.32738,0 -0.59831,0.124178 -0.27093,0.124178 -0.47978,0.361245 -0.2032,0.231422 -0.33302,0.570089 -0.12982,0.338666 -0.16933,0.762 z"
         id="path29951" />
    </g>
  </g>
</svg>
