<?xml version="1.0" encoding="UTF-8" standalone="no"?>
<!-- Created with Inkscape (http://www.inkscape.org/) -->

<svg
   width="52.916782mm"
   height="53.042194mm"
   viewBox="0 0 52.916782 53.042194"
   version="1.1"
   id="svg35041"
   inkscape:version="1.2.1 (9c6d41e410, 2022-07-14)"
   sodipodi:docname="Entity_with_text.svg"
   xmlns:inkscape="http://www.inkscape.org/namespaces/inkscape"
   xmlns:sodipodi="http://sodipodi.sourceforge.net/DTD/sodipodi-0.dtd"
   xmlns="http://www.w3.org/2000/svg"
   xmlns:svg="http://www.w3.org/2000/svg">
  <sodipodi:namedview
     id="namedview35043"
     pagecolor="#ffffff"
     bordercolor="#000000"
     borderopacity="0.25"
     inkscape:showpageshadow="2"
     inkscape:pageopacity="0.0"
     inkscape:pagecheckerboard="0"
     inkscape:deskcolor="#d1d1d1"
     inkscape:document-units="mm"
     showgrid="false"
     inkscape:zoom="1.359385"
     inkscape:cx="46.7123"
     inkscape:cy="-56.275448"
     inkscape:window-width="1350"
     inkscape:window-height="2321"
     inkscape:window-x="3191"
     inkscape:window-y="-9"
     inkscape:window-maximized="1"
     inkscape:current-layer="layer1" />
  <defs
     id="defs35038" />
  <g
     inkscape:label="Layer 1"
     inkscape:groupmode="layer"
     id="layer1"
     transform="translate(-101.81038,-138.63182)">
    <rect
       style="fill:#000d2e;fill-opacity:1;stroke:none;stroke-width:0.171694;stroke-dasharray:none;stroke-dashoffset:0;stroke-opacity:1;paint-order:fill markers stroke"
       id="rect294"
       width="52.916668"
       height="39.811775"
       x="101.81049"
       y="145.24631" />
    <g
       aria-label="Entity"
       transform="scale(0.99789912,1.0021053)"
       id="text4163"
       style="font-weight:300;font-stretch:condensed;font-size:12.7679px;font-family:'Univers LT Std';-inkscape-font-specification:'Univers LT Std Light Condensed';fill:#ffffff;stroke-width:0.20107;paint-order:fill markers stroke">
      <path
         d="m 110.39905,167.439 0.81715,-0.23266 q 0.10214,-0.0284 0.16456,-0.10215 0.0681,-0.0794 0.0681,-0.20428 v -6.21939 q 0,-0.11917 -0.0681,-0.19294 -0.0681,-0.0738 -0.16456,-0.10214 l -0.81715,-0.23833 v -0.36318 h 6.10022 v 1.95207 h -0.55044 l -0.28373,-1.14627 q -0.0227,-0.0965 -0.0851,-0.15322 -0.0567,-0.0567 -0.15321,-0.0567 h -2.84299 v 2.9508 h 1.75914 q 0.11349,0 0.16456,-0.0511 0.0511,-0.0511 0.0794,-0.14754 l 0.244,-0.90794 h 0.45397 v 2.82028 h -0.45397 l -0.244,-0.90226 q -0.0284,-0.10214 -0.0794,-0.15321 -0.0511,-0.0567 -0.16456,-0.0567 h -1.75914 v 3.27426 h 3.29696 q 0.0908,0 0.15321,-0.0511 0.0624,-0.0567 0.0851,-0.15888 l 0.27806,-1.28814 h 0.54476 v 2.09961 h -6.54284 z"
         style="font-weight:normal;font-stretch:normal;font-family:'Sitka Subheading';-inkscape-font-specification:'Sitka Subheading'"
         id="path38105" />
      <path
         d="m 117.90659,167.45034 0.6696,-0.19861 q 0.10215,-0.0284 0.16457,-0.0965 0.0681,-0.0738 0.0681,-0.19293 v -3.91549 q 0,-0.13052 -0.0738,-0.20996 -0.0681,-0.0795 -0.20996,-0.13052 l -0.61286,-0.24968 v -0.31778 l 1.88965,-0.3348 v 0.94766 h 0.0454 q 0.24401,-0.31778 0.48234,-0.51639 0.24401,-0.19861 0.48235,-0.30076 0.23833,-0.10782 0.47666,-0.14186 0.24401,-0.0397 0.48235,-0.0397 0.38587,0 0.73202,0.11917 0.34616,0.11349 0.60151,0.3575 0.25536,0.24401 0.4029,0.62989 0.14754,0.38587 0.14754,0.91928 v 3.15509 q 0,0.14187 0.0681,0.21564 0.0681,0.0738 0.17024,0.10214 l 0.59016,0.19861 v 0.35751 h -2.7295 v -0.35751 l 0.59584,-0.19861 q 0.10214,-0.034 0.17024,-0.10214 0.0681,-0.0738 0.0681,-0.21564 v -2.71247 q 0,-0.39722 -0.0511,-0.70365 -0.0454,-0.3121 -0.18726,-0.52774 -0.13619,-0.22131 -0.39155,-0.3348 -0.24968,-0.11349 -0.65826,-0.11349 -0.17591,0 -0.37452,0.0284 -0.19294,0.0284 -0.38588,0.0965 -0.18726,0.0681 -0.3575,0.18159 -0.17024,0.11349 -0.30075,0.27805 v 3.83605 q 0,0.11916 0.0681,0.19293 0.0738,0.0681 0.17024,0.0965 l 0.53342,0.19861 v 0.35751 h -2.74652 z"
         style="font-weight:normal;font-stretch:normal;font-family:'Sitka Subheading';-inkscape-font-specification:'Sitka Subheading'"
         id="path38107" />
      <path
         d="m 125.94754,162.51342 h -0.94767 v -0.43694 q 0.23266,-0.0454 0.41993,-0.0851 0.19293,-0.0397 0.32912,-0.12484 0.1362,-0.0908 0.21564,-0.24969 0.0851,-0.15889 0.10214,-0.43694 l 0.0454,-0.78878 0.90794,-0.17591 v 1.71941 h 2.08259 l -0.0851,0.57881 h -1.99747 v 3.93819 q 0,0.18726 0.11917,0.31778 0.11916,0.13052 0.2894,0.21564 0.17592,0.0851 0.36318,0.12484 0.18726,0.0341 0.32913,0.0341 0.0965,0 0.21563,-0.017 0.12484,-0.0227 0.23834,-0.0454 0.11349,-0.0284 0.20996,-0.0624 0.10214,-0.034 0.15321,-0.0567 h 0.14754 v 0.4029 q -0.0794,0.0511 -0.24401,0.14186 -0.15889,0.0908 -0.37452,0.18159 -0.20996,0.0908 -0.46532,0.15321 -0.24968,0.0681 -0.50504,0.0681 -0.31778,0 -0.60151,-0.0794 -0.27806,-0.0794 -0.48802,-0.22698 -0.20996,-0.14754 -0.3348,-0.36318 -0.12484,-0.22131 -0.12484,-0.50504 z"
         style="font-weight:normal;font-stretch:normal;font-family:'Sitka Subheading';-inkscape-font-specification:'Sitka Subheading'"
         id="path38109" />
      <path
         d="m 131.11711,160.62945 q -0.15889,0 -0.30075,-0.0511 -0.13619,-0.0568 -0.24401,-0.14754 -0.10215,-0.0908 -0.16457,-0.22131 -0.0624,-0.13619 -0.0624,-0.30076 0,-0.16456 0.0624,-0.30075 0.0624,-0.13619 0.16457,-0.22699 0.10782,-0.0965 0.24401,-0.14754 0.14186,-0.0511 0.30075,-0.0511 0.17024,0 0.31778,0.0511 0.14754,0.0454 0.24968,0.13619 0.10782,0.0908 0.16457,0.22131 0.0624,0.12484 0.0624,0.28941 0,0.17024 -0.0624,0.30643 -0.0567,0.13619 -0.16457,0.23833 -0.10781,0.0965 -0.25535,0.15322 -0.14754,0.0511 -0.31211,0.0511 z m -1.4754,6.82089 0.7831,-0.19861 q 0.10781,-0.0284 0.17591,-0.0965 0.0681,-0.0738 0.0681,-0.19293 v -3.88144 q 0,-0.13052 -0.0738,-0.20997 -0.0738,-0.0851 -0.21564,-0.13051 l -0.72068,-0.24969 v -0.31777 l 2.07691,-0.33481 v 5.12419 q 0,0.11916 0.0681,0.19293 0.0738,0.0738 0.17024,0.0965 l 0.75472,0.19861 v 0.35751 h -3.08699 z"
         style="font-weight:normal;font-stretch:normal;font-family:'Sitka Subheading';-inkscape-font-specification:'Sitka Subheading'"
         id="path38111" />
      <path
         d="m 134.16438,162.51342 h -0.94766 v -0.43694 q 0.23266,-0.0454 0.41992,-0.0851 0.19294,-0.0397 0.32913,-0.12484 0.13619,-0.0908 0.21563,-0.24969 0.0851,-0.15889 0.10215,-0.43694 l 0.0454,-0.78878 0.90794,-0.17591 v 1.71941 h 2.08259 l -0.0851,0.57881 h -1.99747 v 3.93819 q 0,0.18726 0.11917,0.31778 0.11917,0.13052 0.28941,0.21564 0.17591,0.0851 0.36317,0.12484 0.18726,0.0341 0.32913,0.0341 0.0965,0 0.21563,-0.017 0.12485,-0.0227 0.23834,-0.0454 0.11349,-0.0284 0.20996,-0.0624 0.10214,-0.034 0.15321,-0.0567 h 0.14755 v 0.4029 q -0.0794,0.0511 -0.24401,0.14186 -0.15889,0.0908 -0.37453,0.18159 -0.20996,0.0908 -0.46532,0.15321 -0.24968,0.0681 -0.50504,0.0681 -0.31778,0 -0.60151,-0.0794 -0.27806,-0.0794 -0.48802,-0.22698 -0.20996,-0.14754 -0.3348,-0.36318 -0.12484,-0.22131 -0.12484,-0.50504 z"
         style="font-weight:normal;font-stretch:normal;font-family:'Sitka Subheading';-inkscape-font-specification:'Sitka Subheading'"
         id="path38113" />
      <path
         d="m 138.00608,169.31162 h 0.22699 q 0.0794,0.0511 0.20428,0.0965 0.12485,0.0511 0.25536,0.0908 0.13619,0.0397 0.25536,0.0624 0.12484,0.0284 0.19294,0.0284 0.20996,0 0.35182,-0.034 0.14754,-0.0341 0.27806,-0.13052 0.12484,-0.0908 0.22699,-0.22698 0.10214,-0.13619 0.19861,-0.34048 0.10214,-0.19861 0.20996,-0.48234 0.11349,-0.27806 0.25536,-0.65258 l -0.39723,-0.71501 -1.8556,-4.29568 q -0.0511,-0.1135 -0.13052,-0.17024 -0.0738,-0.0567 -0.19861,-0.0965 l -0.42559,-0.17592 v -0.35182 h 2.64437 v 0.35182 l -0.83417,0.24401 1.37326,3.17779 0.27806,0.70933 h 0.0624 l 1.39028,-3.76795 -0.7831,-0.36318 v -0.35182 h 2.17906 v 0.35182 l -0.46532,0.27806 q -0.11349,0.0511 -0.20429,0.10782 -0.0851,0.0567 -0.12484,0.16456 l -2.24148,5.99808 q -0.20428,0.55044 -0.43694,0.89091 -0.23266,0.34048 -0.49369,0.52774 -0.26104,0.19294 -0.54477,0.26104 -0.28373,0.0681 -0.58448,0.0681 -0.10782,0 -0.24401,-0.017 -0.13052,-0.017 -0.26104,-0.0454 -0.13051,-0.0227 -0.24968,-0.0567 -0.11917,-0.0341 -0.19294,-0.0681 z"
         style="font-weight:normal;font-stretch:normal;font-family:'Sitka Subheading';-inkscape-font-specification:'Sitka Subheading'"
         id="path38115" />
    </g>
    <rect
       style="fill:#ffffff;fill-opacity:0;stroke:none;stroke-width:0.185398;stroke-dasharray:none;stroke-dashoffset:0;stroke-opacity:1;paint-order:fill markers stroke"
       id="rect4941"
       width="52.916668"
       height="6.6145835"
       x="101.81038"
       y="185.05943" />
    <rect
       style="fill:#ffffff;fill-opacity:0;stroke:none;stroke-width:0.185398;stroke-dasharray:none;stroke-dashoffset:0;stroke-opacity:1;paint-order:fill markers stroke"
       id="rect4941-0"
       width="52.916668"
       height="6.6145835"
       x="101.81038"
       y="138.63182" />
  </g>
</svg>
