<?xml version="1.0" encoding="UTF-8" standalone="no"?>
<!-- Created with Inkscape (http://www.inkscape.org/) -->

<svg
   width="52.916687mm"
   height="52.916283mm"
   viewBox="0 0 52.916687 52.916283"
   version="1.1"
   id="svg30489"
   xmlns="http://www.w3.org/2000/svg"
   xmlns:svg="http://www.w3.org/2000/svg">
  <defs
     id="defs30486" />
  <g
     id="layer1"
     transform="translate(-84.744625,-95.204511)">
    <rect
       style="fill:#ffde70;fill-opacity:1;stroke:#000000;stroke-width:0.245;stroke-dasharray:none;paint-order:fill markers stroke"
       id="rect1004"
       width="37.174404"
       height="37.174408"
       x="146.13832"
       y="-12.806395"
       transform="matrix(0.70013766,0.71400788,-0.71401322,0.70013221,0,0)" />
    <g
       aria-label="Relation"
       id="text3240"
       style="font-size:11.9944px;font-family:'Sitka Subheading';-inkscape-font-specification:'Sitka Subheading';stroke:#000000;stroke-width:0.141429;paint-order:fill markers stroke">
      <path
         d="m 90.301113,124.41314 0.767642,-0.21857 q 0.09596,-0.0267 0.154594,-0.096 0.06397,-0.0746 0.06397,-0.19191 v -5.84261 q 0,-0.11194 -0.06397,-0.18125 -0.06397,-0.0693 -0.154594,-0.096 l -0.767642,-0.2239 v -0.34117 h 2.974611 q 0.56507,0 0.991537,0.08 0.426468,0.0746 0.730326,0.21324 0.309189,0.13327 0.50643,0.31452 0.202572,0.18124 0.319851,0.39448 0.117278,0.2079 0.159925,0.43713 0.04798,0.22922 0.04798,0.45312 0,0.46378 -0.165256,0.82628 -0.159926,0.35717 -0.410475,0.61838 -0.25055,0.25588 -0.549077,0.4158 -0.298528,0.15993 -0.570401,0.22923 l 1.983074,2.62278 q 0.03198,0.048 0.09063,0.11194 0.05864,0.0586 0.122609,0.11728 0.06397,0.0533 0.133271,0.096 0.0693,0.0426 0.133271,0.0586 l 0.740988,0.20257 v 0.3465 h -1.231425 q -0.261212,0 -0.421137,-0.032 -0.154595,-0.0373 -0.271873,-0.11728 -0.111948,-0.08 -0.207903,-0.2079 -0.09596,-0.12794 -0.234557,-0.31985 l -1.871127,-2.59079 -0.94889,-0.18658 v 2.60145 q 0,0.12261 0.05864,0.19191 0.05864,0.064 0.154595,0.096 l 0.82095,0.21857 v 0.3465 h -3.086559 z m 2.052375,-3.59832 q 0.05864,0.016 0.170587,0.0267 0.117279,0.0107 0.245219,0.0213 0.133271,0.005 0.25588,0.0107 0.12261,0.005 0.202573,0.005 0.426467,0 0.740987,-0.12794 0.31452,-0.12794 0.517092,-0.34118 0.207903,-0.21856 0.309189,-0.49576 0.106617,-0.28254 0.106617,-0.5864 0,-0.41047 -0.117279,-0.70367 -0.117278,-0.29319 -0.341174,-0.47977 -0.223895,-0.19191 -0.559739,-0.28254 -0.330512,-0.0906 -0.76231,-0.0906 h -0.767642 z"
         id="path32084" />
      <path
         d="m 102.59938,123.46425 v 0.53308 q -0.18658,0.15993 -0.4318,0.31985 -0.24522,0.15993 -0.53842,0.28787 -0.29319,0.12261 -0.6237,0.20257 -0.32519,0.08 -0.67169,0.08 -0.559739,0 -1.039515,-0.18658 -0.474445,-0.18658 -0.826281,-0.54907 -0.346505,-0.36783 -0.543746,-0.90092 -0.197241,-0.53308 -0.197241,-1.23142 0,-0.60772 0.186579,-1.1408 0.191911,-0.53842 0.533085,-0.93823 0.346505,-0.39981 0.831612,-0.63437 0.490437,-0.23456 1.082157,-0.23456 0.53842,0 0.95423,0.18125 0.42113,0.18125 0.709,0.48511 0.28786,0.29853 0.43713,0.69834 0.14926,0.39448 0.14926,0.82095 0,0.0533 -0.005,0.12261 0,0.064 -0.005,0.1386 0,0.0693 -0.0107,0.1386 -0.0107,0.064 -0.0213,0.11728 h -3.790227 q 0.0053,1.16746 0.495769,1.77517 0.495768,0.60239 1.428668,0.60239 0.30386,0 0.5704,-0.0693 0.27187,-0.0746 0.49577,-0.17592 0.22922,-0.10662 0.40514,-0.2239 0.18125,-0.11728 0.30919,-0.21856 z m -1.06084,-2.17499 q 0,-0.37316 -0.064,-0.68768 -0.064,-0.31451 -0.21323,-0.54374 -0.14927,-0.22923 -0.38382,-0.35717 -0.23456,-0.12794 -0.57574,-0.12794 -0.309184,0 -0.565065,0.11728 -0.25588,0.11728 -0.453122,0.34117 -0.19191,0.21857 -0.314519,0.53842 -0.12261,0.31985 -0.159926,0.71966 z"
         id="path32086" />
      <path
         d="m 103.36168,124.4238 0.71967,-0.18658 q 0.10128,-0.0266 0.15992,-0.0906 0.064,-0.0693 0.064,-0.18125 v -6.30106 q 0,-0.12261 -0.0693,-0.19724 -0.0693,-0.08 -0.19724,-0.12261 l -0.70367,-0.26121 v -0.29853 l 1.97774,-0.20257 v 7.38322 q 0,0.11195 0.064,0.18125 0.0693,0.0693 0.15993,0.0906 l 0.68234,0.18658 v 0.33584 h -2.85733 z"
         id="path32088" />
      <path
         d="m 110.44638,123.93336 q -0.20791,0.30386 -0.45845,0.49044 -0.24522,0.18125 -0.5011,0.28254 -0.25055,0.10128 -0.49577,0.13327 -0.23989,0.032 -0.43713,0.032 -0.3625,0 -0.65036,-0.12794 -0.28254,-0.12794 -0.48511,-0.33584 -0.19724,-0.20791 -0.30386,-0.48511 -0.10662,-0.2772 -0.10662,-0.57573 0,-0.35184 0.12261,-0.62904 0.12261,-0.2772 0.33051,-0.48511 0.20791,-0.2079 0.47978,-0.35183 0.27187,-0.14927 0.55974,-0.23989 0.2932,-0.096 0.58639,-0.1386 0.29853,-0.0426 0.55441,-0.0426 0.0533,0 0.16526,0.0107 0.11194,0.0107 0.23455,0.0213 0.12261,0.0107 0.22923,0.0213 0.11195,0.0107 0.17059,0.016 v -0.8476 q 0,-0.28787 -0.0693,-0.47978 -0.064,-0.19191 -0.18658,-0.30386 -0.12261,-0.11728 -0.30386,-0.16525 -0.17592,-0.048 -0.40515,-0.048 -0.26654,0 -0.53308,0.096 -0.26121,0.0906 -0.5011,0.2239 -0.23989,0.13327 -0.44246,0.2772 -0.20257,0.14394 -0.3465,0.24522 h -0.17592 l -0.0853,-0.97554 q 0.20791,-0.0853 0.42647,-0.17059 0.21857,-0.0853 0.46912,-0.15459 0.25055,-0.0693 0.53308,-0.11195 0.28254,-0.0426 0.61305,-0.0426 0.36783,0 0.73032,0.0853 0.3625,0.08 0.64504,0.28253 0.28786,0.20257 0.46378,0.54908 0.17592,0.3465 0.17592,0.87426 l -0.016,2.89998 q 0,0.0959 0.0373,0.17058 0.0373,0.0746 0.10129,0.12794 0.064,0.0533 0.15459,0.0853 0.0906,0.0266 0.19191,0.0266 0.0427,0 0.10129,-0.0107 0.064,-0.016 0.13327,-0.032 0.0746,-0.0213 0.14393,-0.048 0.0693,-0.0267 0.12794,-0.0533 h 0.0746 v 0.38382 q -0.08,0.0586 -0.2079,0.1386 -0.12261,0.0746 -0.27187,0.14926 -0.14927,0.0693 -0.30386,0.11728 -0.1546,0.0533 -0.28787,0.0533 -0.23455,0 -0.41047,-0.0533 -0.17592,-0.0533 -0.2932,-0.16525 -0.11728,-0.11195 -0.17592,-0.28787 -0.0586,-0.18125 -0.0586,-0.4318 z m -0.005,-1.9884 q -0.53309,0 -0.97022,0.0586 -0.43713,0.0533 -0.74631,0.19191 -0.30386,0.13327 -0.47445,0.36783 -0.17059,0.23455 -0.17059,0.58639 0,0.29319 0.0906,0.49044 0.096,0.19191 0.23455,0.30919 0.14394,0.11727 0.31986,0.17058 0.18124,0.048 0.3465,0.048 0.16526,0 0.35717,-0.032 0.19191,-0.0373 0.37849,-0.10661 0.18658,-0.0746 0.3465,-0.18658 0.16526,-0.11195 0.27721,-0.27187 z"
         id="path32090" />
      <path
         d="m 113.60757,119.78597 h -0.89025 v -0.41048 q 0.21856,-0.0426 0.39448,-0.08 0.18125,-0.0373 0.30919,-0.11728 0.12794,-0.0853 0.20257,-0.23456 0.08,-0.14926 0.096,-0.41047 l 0.0426,-0.74099 0.85294,-0.16526 v 1.61525 h 1.95642 l -0.08,0.54375 h -1.87645 v 3.6996 q 0,0.17592 0.11194,0.29853 0.11195,0.12261 0.27188,0.20257 0.16525,0.08 0.34117,0.11728 0.17592,0.032 0.30919,0.032 0.0906,0 0.20257,-0.016 0.11728,-0.0213 0.2239,-0.0426 0.10661,-0.0267 0.19724,-0.0586 0.096,-0.032 0.14393,-0.0533 h 0.1386 v 0.37849 q -0.0746,0.048 -0.22922,0.13327 -0.14927,0.0853 -0.35184,0.17059 -0.19724,0.0853 -0.43713,0.14393 -0.23455,0.064 -0.47444,0.064 -0.29853,0 -0.56507,-0.0746 -0.26121,-0.0746 -0.45845,-0.21324 -0.19725,-0.1386 -0.31452,-0.34117 -0.11728,-0.2079 -0.11728,-0.47445 z"
         id="path32092" />
      <path
         d="m 118.46396,118.01613 q -0.14926,0 -0.28253,-0.048 -0.12794,-0.0533 -0.22923,-0.1386 -0.096,-0.0853 -0.15459,-0.20791 -0.0586,-0.12794 -0.0586,-0.28253 0,-0.1546 0.0586,-0.28254 0.0586,-0.12794 0.15459,-0.21323 0.10129,-0.0906 0.22923,-0.1386 0.13327,-0.048 0.28253,-0.048 0.15993,0 0.29853,0.048 0.1386,0.0426 0.23456,0.12794 0.10128,0.0853 0.15459,0.2079 0.0586,0.11728 0.0586,0.27187 0,0.15993 -0.0586,0.28787 -0.0533,0.12794 -0.15459,0.22389 -0.10129,0.0906 -0.23989,0.14394 -0.1386,0.048 -0.2932,0.048 z m -1.38602,6.40767 0.73566,-0.18658 q 0.10128,-0.0266 0.16525,-0.0906 0.064,-0.0693 0.064,-0.18125 v -3.6463 q 0,-0.12261 -0.0693,-0.19724 -0.0693,-0.08 -0.20257,-0.12261 l -0.67702,-0.23456 v -0.29852 l 1.95109,-0.31452 v 4.81375 q 0,0.11195 0.064,0.18125 0.0693,0.0693 0.15993,0.0906 l 0.709,0.18658 v 0.33584 h -2.89998 z"
         id="path32094" />
      <path
         d="m 123.34701,124.89825 q -0.59705,0 -1.08749,-0.20258 -0.49044,-0.20257 -0.84228,-0.57573 -0.3465,-0.37849 -0.53841,-0.9169 -0.18658,-0.53842 -0.18658,-1.20477 0,-0.61838 0.18658,-1.15147 0.19191,-0.53308 0.53841,-0.92756 0.35184,-0.39449 0.85294,-0.61838 0.5011,-0.22923 1.13014,-0.22923 0.68235,0 1.17812,0.23989 0.50109,0.23989 0.82628,0.6397 0.33051,0.39982 0.49043,0.92757 0.15993,0.52242 0.15993,1.09815 0,0.60772 -0.18658,1.1408 -0.18658,0.53309 -0.53842,0.9329 -0.3465,0.39448 -0.8476,0.62371 -0.5011,0.2239 -1.13547,0.2239 z m 0.08,-0.5011 q 0.44779,0 0.74099,-0.21857 0.29853,-0.21856 0.46911,-0.55441 0.17592,-0.34117 0.24522,-0.74631 0.0693,-0.41048 0.0693,-0.78897 0,-0.46378 -0.0906,-0.91157 -0.0853,-0.45313 -0.28253,-0.81029 -0.19191,-0.35717 -0.5011,-0.57573 -0.30919,-0.21857 -0.75165,-0.21857 -0.29853,0 -0.52776,0.10129 -0.22389,0.10128 -0.39448,0.27187 -0.17059,0.17059 -0.28786,0.39981 -0.11195,0.2239 -0.18658,0.47978 -0.0693,0.25588 -0.10129,0.52242 -0.0267,0.26655 -0.0267,0.5171 0,0.28253 0.032,0.58106 0.032,0.29319 0.10662,0.57573 0.08,0.2772 0.20257,0.52775 0.12261,0.25055 0.30386,0.43713 0.18125,0.18658 0.42113,0.29853 0.24522,0.11195 0.55974,0.11195 z"
         id="path32096" />
      <path
         d="m 126.90802,124.4238 0.62904,-0.18658 q 0.096,-0.0266 0.15459,-0.0906 0.064,-0.0693 0.064,-0.18125 v -3.67828 q 0,-0.12261 -0.0693,-0.19725 -0.064,-0.0746 -0.19724,-0.12261 l -0.57573,-0.23455 v -0.29853 l 1.77517,-0.31452 v 0.89025 h 0.0426 q 0.22922,-0.29853 0.45312,-0.48511 0.22922,-0.18658 0.45312,-0.28253 0.22389,-0.10129 0.44779,-0.13327 0.22923,-0.0373 0.45312,-0.0373 0.3625,0 0.68768,0.11195 0.32518,0.10662 0.56507,0.33584 0.23989,0.22923 0.37849,0.59173 0.1386,0.36249 0.1386,0.86359 v 2.96395 q 0,0.13327 0.064,0.20258 0.064,0.0693 0.15993,0.0959 l 0.55441,0.18658 v 0.33584 h -2.56414 v -0.33584 l 0.55974,-0.18658 q 0.096,-0.032 0.15992,-0.0959 0.064,-0.0693 0.064,-0.20258 v -2.54814 q 0,-0.37316 -0.048,-0.66102 -0.0427,-0.2932 -0.17592,-0.49577 -0.12794,-0.20791 -0.36783,-0.31452 -0.23456,-0.10662 -0.61838,-0.10662 -0.16525,0 -0.35183,0.0267 -0.18125,0.0267 -0.3625,0.0906 -0.17592,0.064 -0.33584,0.17059 -0.15993,0.10661 -0.28254,0.26121 v 3.60365 q 0,0.11195 0.064,0.18125 0.0693,0.064 0.15993,0.0906 l 0.5011,0.18658 v 0.33584 h -2.58013 z"
         id="path32098" />
    </g>
  </g>
</svg>
