<?xml version="1.0" encoding="UTF-8"?><svg xmlns="http://www.w3.org/2000/svg" xmlns:xlink="http://www.w3.org/1999/xlink" viewBox="0 0 108.18 182.24"><defs><style>.cls-1{isolation:isolate;}.cls-2{fill:#9a0059;mix-blend-mode:multiply;opacity:.6;}.cls-2,.cls-3,.cls-4{fill-rule:evenodd;}.cls-3{fill:url(#_Áĺçűě_ííűé_ăđŕäčĺíň_147);}.cls-4{fill:url(#_Áĺçűě_ííűé_ăđŕäčĺíň_151);}</style><radialGradient id="_Áĺçűě_ííűé_ăđŕäčĺíň_151" cx="-4825.52" cy="41.98" fx="-4825.52" fy="41.98" r="54.2" gradientTransform="translate(-4777.3) rotate(-180) scale(1 -1)" gradientUnits="userSpaceOnUse"><stop offset="0" stop-color="#b31527"/><stop offset="1" stop-color="#d10a1d"/></radialGradient><radialGradient id="_Áĺçűě_ííűé_ăđŕäčĺíň_147" cx="-4807.49" cy="17.76" fx="-4807.49" fy="17.76" r="36.06" gradientTransform="translate(-4777.3) rotate(-180) scale(1 -1)" gradientUnits="userSpaceOnUse"><stop offset="0" stop-color="#fe2927"/><stop offset="1" stop-color="#d10a1d"/></radialGradient></defs><g class="cls-1"><g id="Ebene_2"><g id="Ebene_1-2"><path class="cls-2" d="m91,65.96c22.83,10.52,32.92,113.69-35.24,116.25-43.23,1.62-45.57-77.47-41.44-97.37,4.13-19.9,48.74-31.76,76.69-18.89Z"/><path class="cls-4" d="m60.85,16.61c48.49,10.11,45.49,92.51-17.06,91.17C-18.76,106.43-6.97,2.46,60.85,16.61Z"/><path class="cls-2" d="m60.85,16.61c20.33,7.27,5.93,62.48-27.08,67.79C.76,89.7.17,46.67,6.65,35.47c6.48-11.2,43.43-22.71,54.2-18.86Z"/><path class="cls-3" d="m38.59.88c32.26,6.73,30.26,61.55-11.35,60.65C-14.37,60.63-6.52-8.53,38.59.88Z"/></g></g></g></svg>