<?xml version="1.0" encoding="UTF-8"?><svg xmlns="http://www.w3.org/2000/svg" xmlns:xlink="http://www.w3.org/1999/xlink" viewBox="0 0 117.88 211.56"><defs><style>.cls-1{fill:#ffcc6a;}.cls-1,.cls-2,.cls-3,.cls-4,.cls-5,.cls-6,.cls-7,.cls-8,.cls-9,.cls-10,.cls-11,.cls-12,.cls-13,.cls-14{fill-rule:evenodd;}.cls-1,.cls-3,.cls-10,.cls-13{mix-blend-mode:soft-light;opacity:.5;}.cls-2{opacity:.3;}.cls-2,.cls-15,.cls-6,.cls-14{mix-blend-mode:multiply;}.cls-2,.cls-6,.cls-7,.cls-14{fill:#9a0059;}.cls-3{fill:#fff;}.cls-15,.cls-14{opacity:.2;}.cls-16{isolation:isolate;}.cls-17{fill:#ffde70;font-family:Algerian, Algerian;font-size:62.4px;}.cls-4{fill:#d12e59;}.cls-5{fill:#ffa75c;}.cls-6{opacity:.6;}.cls-8{fill:#7c0718;}.cls-9{fill:url(#_Áĺçűě_ííűé_ăđŕäčĺíň_39);}.cls-10{fill:#ffd88b;}.cls-11{fill:url(#_Áĺçűě_ííűé_ăđŕäčĺíň_18);}.cls-12{fill:#9d1522;}.cls-13{fill:#ffffce;}</style><linearGradient id="_Áĺçűě_ííűé_ăđŕäčĺíň_18" x1="920.32" y1="-1449.87" x2="923.26" y2="-1571.38" gradientTransform="translate(1569.26 -816.46) rotate(90) scale(1 -1)" gradientUnits="userSpaceOnUse"><stop offset=".01" stop-color="#c65748"/><stop offset=".07" stop-color="#ca5b45"/><stop offset=".36" stop-color="#dc6d3e"/><stop offset=".66" stop-color="#e77839"/><stop offset="1" stop-color="#eb7c38"/></linearGradient><linearGradient id="_Áĺçűě_ííűé_ăđŕäčĺíň_39" x1="920.73" y1="-1455.57" x2="923.36" y2="-1564.66" gradientTransform="translate(1569.26 -816.46) rotate(90) scale(1 -1)" gradientUnits="userSpaceOnUse"><stop offset=".01" stop-color="#9f3348"/><stop offset=".45" stop-color="#b03d36"/><stop offset="1" stop-color="#c24924"/></linearGradient></defs><g class="cls-16"><g id="Ebene_2"><g id="Ebene_1-2"><path class="cls-11" d="m116.77,6.23C113.97,1.9,8.64-1.82,6.74.96,3.75,5.31-2.25,201.89.88,209.96c1,2.59,113.64,2.05,115.83-1.73,1.53-2.64,1.57-199.66.06-202Z"/><path class="cls-12" d="m5.38,204.68s38.55,4.54,106.87-.71c0,0,4.15-117.81.27-196.11,0,0-61.51-4.48-101.86-1.33,0,0-7.92,119.8-5.28,198.14Z"/><path class="cls-9" d="m74.23,203.57s.01,0,.02,0c10.82-.37,22.99-1.01,36.5-2.05,0,0,4.07-115.34.33-191.43,0,0-10.02-.78-24.55-1.45-19.88-.91-51.86-1.62-74.53.16,0,0-7.66,117.39-5.06,193.41,0,0,25.09,2.79,67.29,1.36Z"/><path class="cls-6" d="m10.66,6.54l3.67,2.09s-11.73,122.51-4.96,193.84l-3.99,2.21S2.33,111.5,10.66,6.54Z"/><path class="cls-5" d="m110.46,10.04l2.07-2.18s4.14,127.25-.27,196.11l-1.5-2.45s4.55-103.48-.3-191.48Z"/><path class="cls-2" d="m116.77,6.91s-3.29,40.77-3.37,93.72c-.07,54.71,3.31,107.6,3.31,107.6,0,0,1.17-88.31,1.17-108.65,0-54.1-1.11-92.67-1.11-92.67Z"/><path class="cls-3" d="m6.22,3.02s2.23,2.98,2.65,11.28c.42,8.34-4.34,73.54-4.06,114.33.29,41.82.61,71.36-.2,75.35-.81,4-3.73,5.99-3.73,5.99,0,0-1.81-42.91.66-115C3.91,25.91,6.22,3.02,6.22,3.02Z"/><path class="cls-3" d="m112.41,10.3s-1.88,12.76-.67,37.38c1.23,25,2,82.88,2,82.88,0,0,1.95-46.38-1.34-120.26Z"/><path class="cls-6" d="m74.25,203.57c10.82-.37,22.99-1.01,36.5-2.05,0,0,3.42-115.4-.3-191.48,0,0-9.39-.73-23.92-1.4h0s21.34,2.24,22.45,3.63c1.11,1.38,3.21,48.82,3.21,84.75,0,49.23-2.45,99.42-3.81,102.11-1.05,2.08-23.93,3.56-34.13,4.44Z"/><path class="cls-8" d="m10.66,6.54L6.74.96s3.65,3.65,5.27,7.84l-1.34-2.26Z"/><path class="cls-8" d="m5.38,204.68l-4.5,5.28s1.67-.58,4.5-5.28Z"/><path class="cls-8" d="m112.25,203.98l4.46,4.26s-.86-2.13-4.46-4.26Z"/><path class="cls-8" d="m116.77,6.23l-4.25,1.64s1.04.03,4.25-1.64Z"/><path class="cls-8" d="m112.52,7.87l-2.07,2.18s1.03-.36,2.07-2.18Z"/><path class="cls-8" d="m110.75,201.52l1.5,2.45s-1.18-.84-1.5-2.45Z"/><path class="cls-10" d="m5.38,204.68s59.49,14.43,106.87-.71c0,0-50.74,5.23-106.87.71Z"/><path class="cls-10" d="m10.66,6.54s63.69-11.2,101.86,1.33c0,0-56.91-4.85-101.86-1.33Z"/><g class="cls-15"><path class="cls-4" d="m98.96,10.3c2.69,2.98-39.21,11.49-63.62,40.4-24.41,28.91,1.62,94.58,28.09,108.25,26.46,13.67,33.23-46.54,20.74-71.9-12.49-25.36-24.71-17.54-34.27,4.26-9.56,21.8,8.9,33.2,17.26,35.99,8.36,2.79,8.36-10.82,5.48-19.89-2.88-9.07-9.8-2.27-13.26,4.01-3.46,6.28,8.79,4.89,10.24,9.07,1.44,4.19-24.07,1.23-20.61-21.37,3.46-22.6,16.68-25.74,26.24-18.24,9.56,7.5,20.18,42.93,5.48,68.93-14.7,26-44.26-20.94-46.71-56.37C31.54,58.03,107.51,14.5,108.98,12.27c1.47-2.23-10.02-1.97-10.02-1.97Z"/><path class="cls-4" d="m78.27,7.7S43.22,29.06,26.21,50.35c-21.19,26.53-8.37,82.31,22.78,111.51,20.18,18.92,54.92,39.66,54.92,39.66,0,0-20.06,3.47-36.55,2.46-16.5-1.01-52.44-74.22-53.02-123.96C13.75,30.28,50.43,9.17,55.18,7.7c4.76-1.47,23.09,0,23.09,0Z"/><path class="cls-4" d="m7.41,95.38s20.43,86.06,50.71,108.6l-19.08-.12S13.32,157.33,7.41,105.32v-9.95Z"/><path class="cls-4" d="m6.41,127.14s11.87,57.15,23.55,76.44l-1.54-.07s-11.33-33.27-22.01-73.87v-2.5Z"/></g><path class="cls-14" d="m72.43,26.76s-36.96,13.85-43.43,38.08c-8.98,33.61,9.3,65.14,9.3,65.14,0,0-16.01-26.3-11.51-60.66,4.04-30.89,45.65-42.55,45.65-42.55Z"/><path class="cls-14" d="m62.35,73.2s-13.85,13.51-13.66,28.92c.19,15.41,11.6,21.91,11.6,21.91,0,0-12.44-6.16-13.07-20.57-.64-14.65,12.97-27.72,15.13-30.26Z"/><path class="cls-14" d="m55.18,7.7s-21.8,17.21-29.2,29.07c-7.4,11.87-10.63,27.66-10.63,27.66,0,0,1.75-13.96,10.16-28.37,8.41-14.41,29.67-28.37,29.67-28.37Z"/><path class="cls-14" d="m8.89,114.75s10.96,55.82,30.15,89.1c0,0-23.46-47.61-30.15-89.1Z"/><path class="cls-14" d="m6.41,129.64s11.92,55.7,22.01,73.87c0,0-12.83-36.64-22.01-73.87Z"/><path class="cls-1" d="m81.65,82.4s8.23,8.67,9,34.96c.77,26.29-10.72,39.81-10.72,39.81,0,0,10.38-14.97,10.28-39.41-.1-24.43-8.56-35.37-8.56-35.37Z"/><path class="cls-1" d="m70.73,103.97s3.15.77,4.11,10.95c.96,10.18-4.11,12.49-4.11,12.49,0,0,3.56-1.73,3.52-10.63-.04-8.9-3.52-12.81-3.52-12.81Z"/><path class="cls-1" d="m61.37,51.34s-25.98,21.06-26.77,38.05c-.79,16.99,5.95,32.23,5.95,32.23,0,0-7.84-16.2-6.55-32.87,1.3-16.67,27.38-37.41,27.38-37.41Z"/><path class="cls-1" d="m28.92,47.19s-13.24,11.88-13.01,34.57c.24,22.69,13.62,49.35,13.62,49.35,0,0-14.6-27.54-14.4-51.19.2-23.65,13.79-32.74,13.79-32.74Z"/><path class="cls-1" d="m9.58,102.41s17.3,70.47,48.53,101.56c0,0-32.52-37.62-48.53-101.56Z"/><path class="cls-14" d="m8.24,205.06s-2.05-.2-2.41,0c-.63.35-1.26,4.48-4.95,4.9,0,0,3.04.85,7.76.64,4.72-.22,8.47-2.28,8.61-3.28.14-1-9.01-2.26-9.01-2.26Z"/><path class="cls-14" d="m6.74.96s4.46,2.16,4.75,5.43c0,0,15.01-.36,15.1-3.37C26.69,0,6.74.96,6.74.96Z"/><path class="cls-13" d="m1.05,110.43c.19-4.45,3.09,15.09,3.79,36s-1.83,34.77-3.15,34.78c-1.32,0-2.24-32.62-.64-70.77Z"/><g class="cls-15"><path class="cls-7" d="m99.54,147.61s-2.04.23-2.52,3.88c-.48,3.64,2.48.59,3.25-1.23.78-1.82-.12-2.87-.73-2.64Z"/><path class="cls-7" d="m89.45,145.67c.65-1.18,1.41-.35.73.47-.68.82-1.21.41-.73-.47Z"/><path class="cls-7" d="m38.25,160.79c.65-1.18,1.41-.35.73.47-.68.82-1.21.41-.73-.47Z"/><path class="cls-7" d="m100.57,101.22c2.67-11.39,4.54-3.7,4.74,8.98.2,12.68-5.75-4.68-4.74-8.98Z"/><path class="cls-7" d="m97.02,92.88c2.23-1.79,2.07.33.84,1.96-1.23,1.63-2.01-1.02-.84-1.96Z"/><path class="cls-7" d="m33.03,155.73c.03-3.24,1.39-1.88,1.81.26.42,2.14-1.83,1.44-1.81-.26Z"/><path class="cls-7" d="m67.97,53.86c5.73-3.54,5.35,9.2-.27,10.58-5.62,1.38-4.31-7.75.27-10.58Z"/><path class="cls-7" d="m34.56,57.11c2.46-1.52,2.3,3.95-.12,4.54-2.41.59-1.85-3.33.12-4.54Z"/><path class="cls-7" d="m61.45,58.35c1.71-1.72,2.4,1.48.89,2.89-1.51,1.41-2.6-1.17-.89-2.89Z"/><path class="cls-7" d="m15.35,43.45c3.09-1.41,1.66,1.94-.52,4.93s-.71-4.37.52-4.93Z"/></g><text class="cls-17" transform="translate(80.71 168.94) rotate(-90)"><tspan x="0" y="0">TIPP</tspan></text></g></g></g></svg>