<?xml version="1.0" encoding="UTF-8"?><svg id="Ebene_2" xmlns="http://www.w3.org/2000/svg" viewBox="0 0 710.83 147.23"><defs><style>.cls-1{letter-spacing:0em;}.cls-2{letter-spacing:.01em;}.cls-3{fill:#8f4e3b;}.cls-4{letter-spacing:0em;}.cls-5,.cls-6{fill:#ffde70;}.cls-7{letter-spacing:.02em;}.cls-6{font-family:Montserrat-Light, Montserrat;font-size:60px;font-weight:300;}.cls-8{letter-spacing:.02em;}</style></defs><g id="Ebene_1-2"><rect class="cls-3" x="1.81" y="1.81" width="707.2" height="143.61"/><path class="cls-5" d="m710.83,147.23H0V0h710.83v147.23ZM3.62,143.61h703.58V3.62H3.62v139.99Z"/><path class="cls-5" d="m645.82,101.37c-.54,0-1.08-.21-1.5-.62-.83-.83-.83-2.17,0-2.99l19.67-19.67-19.67-19.67c-.83-.83-.83-2.16,0-2.99.83-.83,2.16-.83,2.99,0l21.16,21.16c.83.83.83,2.16,0,2.99l-21.16,21.16c-.41.41-.95.62-1.5.62Z"/><text class="cls-6" transform="translate(37.23 100.61)"><tspan class="cls-1" x="0" y="0">W</tspan><tspan class="cls-7" x="66.18" y="0">ISSEN </tspan><tspan class="cls-4" x="268.56" y="0">TU</tspan><tspan class="cls-2" x="350.64" y="0">T</tspan><tspan class="cls-8" x="385.02" y="0">ORIAL</tspan></text></g></svg>