<?xml version="1.0" encoding="UTF-8"?><svg xmlns="http://www.w3.org/2000/svg" xmlns:xlink="http://www.w3.org/1999/xlink" viewBox="0 0 447.38 856.99"><defs><style>.cls-1,.cls-2,.cls-3,.cls-4,.cls-5,.cls-6,.cls-7,.cls-8,.cls-9,.cls-10,.cls-11,.cls-12,.cls-13,.cls-14,.cls-15,.cls-16,.cls-17,.cls-18,.cls-19,.cls-20,.cls-21,.cls-22,.cls-23,.cls-24,.cls-25,.cls-26,.cls-27{fill-rule:evenodd;}.cls-1,.cls-28{fill:#fc9892;}.cls-29,.cls-23{fill:#fff;}.cls-30{fill:#572d71;}.cls-30,.cls-6,.cls-7,.cls-11,.cls-13,.cls-16,.cls-31,.cls-18,.cls-32,.cls-33,.cls-19,.cls-21,.cls-22,.cls-25{mix-blend-mode:multiply;}.cls-30,.cls-33,.cls-19{opacity:.6;}.cls-2{fill:#ffded6;}.cls-34{fill:url(#_Áĺçűě_ííűé_ăđŕäčĺíň_53-2);}.cls-35{fill:#d2676c;}.cls-3{fill:#a64a4c;}.cls-36{fill:url(#_Áĺçűě_ííűé_ăđŕäčĺíň_146);}.cls-4{fill:#fe986d;}.cls-37{fill:url(#_Áĺçűě_ííűé_ăđŕäčĺíň_108);}.cls-38{isolation:isolate;}.cls-39{fill:#70383f;}.cls-5{fill:url(#_Áĺçűě_ííűé_ăđŕäčĺíň_36);}.cls-6{fill:#901d5c;}.cls-6,.cls-7,.cls-13,.cls-16,.cls-31{opacity:.4;}.cls-7{fill:#680463;}.cls-8{fill:#987f92;}.cls-40,.cls-23{mix-blend-mode:soft-light;}.cls-9{fill:url(#_Áĺçűě_ííűé_ăđŕäčĺíň_2);}.cls-10{fill:url(#_Áĺçűě_ííűé_ăđŕäčĺíň_157-2);}.cls-11{fill:url(#_Áĺçűě_ííűé_ăđŕäčĺíň_133-4);}.cls-11,.cls-18,.cls-32,.cls-21,.cls-22{opacity:.58;}.cls-12{fill:#d6525c;}.cls-41{fill:#c95e4c;}.cls-13,.cls-31{fill:#6f1d77;}.cls-42{fill:url(#_Áĺçűě_ííűé_ăđŕäčĺíň_26-2);}.cls-14{fill:#9f395c;}.cls-15{fill:url(#_Áĺçűě_ííűé_ăđŕäčĺíň_157);}.cls-43{fill:url(#_Áĺçűě_ííűé_ăđŕäčĺíň_53);}.cls-44{fill:url(#_Áĺçűě_ííűé_ăđŕäčĺíň_26);}.cls-45,.cls-26{fill:#ffc169;}.cls-16{fill:#900477;}.cls-46{fill:#522430;}.cls-17{fill:url(#_Áĺçűě_ííűé_ăđŕäčĺíň_2-2);}.cls-47{fill:#a62e4c;}.cls-18{fill:url(#_Áĺçűě_ííűé_ăđŕäčĺíň_133-5);}.cls-32{fill:url(#_Áĺçűě_ííűé_ăđŕäčĺíň_133);}.cls-33{fill:#8b549a;}.cls-19{fill:#8b359a;}.cls-20{fill:url(#_Áĺçűě_ííűé_ăđŕäčĺíň_31);}.cls-21{fill:url(#_Áĺçűě_ííűé_ăđŕäčĺíň_133-2);}.cls-22{fill:url(#_Áĺçűě_ííűé_ăđŕäčĺíň_139);}.cls-24{fill:#77223b;}.cls-25{fill:url(#_Áĺçűě_ííűé_ăđŕäčĺíň_133-3);opacity:.3;}.cls-48{fill:url(#_Áĺçűě_ííűé_ăđŕäčĺíň_146-2);}.cls-27{fill:url(#_Áĺçűě_ííűé_ăđŕäčĺíň_19);}</style><linearGradient id="_Áĺçűě_ííűé_ăđŕäčĺíň_36" x1="317" y1="50.49" x2="317" y2="12.34" gradientUnits="userSpaceOnUse"><stop offset=".03" stop-color="#9f1633"/><stop offset="1" stop-color="#b31e2a"/></linearGradient><linearGradient id="_Áĺçűě_ííűé_ăđŕäčĺíň_53" x1="205.73" y1="581.81" x2="205.73" y2="83.07" gradientUnits="userSpaceOnUse"><stop offset="0" stop-color="#4f1b21"/><stop offset=".99" stop-color="#59272f"/></linearGradient><linearGradient id="_Áĺçűě_ííűé_ăđŕäčĺíň_19" x1="58.8" y1="838.42" x2="58.8" y2="479.4" gradientUnits="userSpaceOnUse"><stop offset="0" stop-color="#362a42"/><stop offset=".98" stop-color="#563d5c"/></linearGradient><linearGradient id="_Áĺçűě_ííűé_ăđŕäčĺíň_26" x1="138.87" y1="357.08" x2="185.83" y2="90.76" gradientUnits="userSpaceOnUse"><stop offset=".02" stop-color="#ffae78"/><stop offset="1" stop-color="#ff7763"/></linearGradient><linearGradient id="_Áĺçűě_ííűé_ăđŕäčĺíň_53-2" x1="244.59" y1="225.95" x2="244.59" y2="182.83" xlink:href="#_Áĺçűě_ííűé_ăđŕäčĺíň_53"/><linearGradient id="_Áĺçűě_ííűé_ăđŕäčĺíň_157" x1="208.15" y1="1262.04" x2="208.15" y2="350.14" gradientUnits="userSpaceOnUse"><stop offset="0" stop-color="#362a42"/><stop offset=".98" stop-color="#5c456d"/></linearGradient><linearGradient id="_Áĺçűě_ííűé_ăđŕäčĺíň_157-2" x1="378.1" y1="1055.49" x2="378.1" y2="467.72" xlink:href="#_Áĺçűě_ííűé_ăđŕäčĺíň_157"/><linearGradient id="_Áĺçűě_ííűé_ăđŕäčĺíň_146" x1="96.77" y1="254.14" x2="96.77" y2="198.16" gradientUnits="userSpaceOnUse"><stop offset="0" stop-color="#ffeadb"/><stop offset=".99" stop-color="#d3c2e5"/></linearGradient><linearGradient id="_Áĺçűě_ííűé_ăđŕäčĺíň_146-2" x1="180.57" y1="241.23" x2="180.57" y2="184.76" xlink:href="#_Áĺçűě_ííűé_ăđŕäčĺíň_146"/><linearGradient id="_Áĺçűě_ííűé_ăđŕäčĺíň_133" x1="-8138.17" y1="2334.78" x2="-8092.91" y2="2334.78" gradientTransform="translate(-8178.67 1856.08) rotate(153.11) scale(1 -1)" gradientUnits="userSpaceOnUse"><stop offset="0" stop-color="#ffeadb"/><stop offset=".99" stop-color="#c245ba"/></linearGradient><linearGradient id="_Áĺçűě_ííűé_ăđŕäčĺíň_133-2" x1="-7811.92" y1="1494.07" x2="-7803.17" y2="1494.07" gradientTransform="translate(-7758.33 1200.99) rotate(162.42) scale(1 -1)" xlink:href="#_Áĺçűě_ííűé_ăđŕäčĺíň_133"/><linearGradient id="_Áĺçűě_ííűé_ăđŕäčĺíň_133-3" x1="-7800.37" y1="1490.5" x2="-7765.88" y2="1490.5" gradientTransform="translate(-7758.33 1200.99) rotate(162.42) scale(1 -1)" xlink:href="#_Áĺçűě_ííűé_ăđŕäčĺíň_133"/><linearGradient id="_Áĺçűě_ííűé_ăđŕäčĺíň_133-4" x1="164.86" y1="347.8" x2="164.86" y2="76.63" gradientTransform="matrix(1,0,0,1,0,0)" xlink:href="#_Áĺçűě_ííűé_ăđŕäčĺíň_133"/><linearGradient id="_Áĺçűě_ííűé_ăđŕäčĺíň_108" x1="191.43" y1="576.88" x2="191.43" y2="43.6" gradientUnits="userSpaceOnUse"><stop offset="0" stop-color="#813321"/><stop offset=".99" stop-color="#7f3d2f"/></linearGradient><linearGradient id="_Áĺçűě_ííűé_ăđŕäčĺíň_26-2" x1="268.5" y1="268.26" x2="281.78" y2="192.94" xlink:href="#_Áĺçűě_ííűé_ăđŕäčĺíň_26"/><linearGradient id="_Áĺçűě_ííűé_ăđŕäčĺíň_31" x1="218.12" y1="204.41" x2="218.12" y2="1.98" gradientUnits="userSpaceOnUse"><stop offset=".03" stop-color="#9f1633"/><stop offset="1" stop-color="#d11e2a"/></linearGradient><linearGradient id="_Áĺçűě_ííűé_ăđŕäčĺíň_133-5" x1="276.78" y1="253.66" x2="276.78" y2="204.18" gradientTransform="matrix(1,0,0,1,0,0)" xlink:href="#_Áĺçűě_ííűé_ăđŕäčĺíň_133"/><linearGradient id="_Áĺçűě_ííűé_ăđŕäčĺíň_139" x1="265.68" y1="234.34" x2="265.68" y2="212.99" gradientUnits="userSpaceOnUse"><stop offset="0" stop-color="#c245ba"/><stop offset="1" stop-color="#ffeadb"/></linearGradient><linearGradient id="_Áĺçűě_ííűé_ăđŕäčĺíň_2" x1="207.92" y1="708.05" x2="207.92" y2="352.14" gradientUnits="userSpaceOnUse"><stop offset="0" stop-color="#5b4365"/><stop offset=".98" stop-color="#70517c"/></linearGradient><linearGradient id="_Áĺçűě_ííűé_ăđŕäčĺíň_2-2" x1="117.9" y1="680.37" x2="117.9" y2="399.19" xlink:href="#_Áĺçűě_ííűé_ăđŕäčĺíň_2"/></defs><g class="cls-38"><g id="Ebene_2"><g id="Ebene_1-2"><path class="cls-45" d="m46.71,543.46c-.06.16-.1.32-.13.47-.48,2.08-.99,4.17-1.5,6.29-.16.54-.29,1.11-.41,1.64-.35,1.33-.67,2.65-.99,3.98-.13.41-.22.82-.29,1.2-1.11,4.48-2.26,8.94-3.47,13.36-1.18,4.42-2.39,8.78-3.63,13.04-.99,3.41-1.97,6.76-2.99,9.98-.32,1.04-.64,2.05-.96,3.06-.32,1.01-.64,2.02-.99,3-.32.98-.64,1.99-.99,2.94-.32.98-.64,1.93-.99,2.84-.32.95-.64,1.9-.99,2.81-.32.92-.64,1.8-.99,2.68-.48,1.33-.99,2.59-1.5,3.85v.03c-.48,1.26-.99,2.46-1.5,3.63-.64,1.55-1.27,3-1.94,4.36,0,.06-.03.09-.06.13-.64,1.42-1.31,2.75-2.01,3.98-.35.63-19.96,41.53-20.41,42.04,0,0,7.17,110.39,13.65,153.2h223.4V10.63c-1.25-.8-2.51-1.59-3.82-2.36-.02-.01-.04-.02-.05-.03h0c-.07-.06-.08-.01-.08,0h0c-.09-.09-.09-.09-.09-.09-9.63-5.62-21.42-9.83-41.34-7.49-32.65,3.84-83.22,22.18-103.43,40.44-.02,0-.04.02-.04.02-.59.56-1.13,1.07-1.67,1.6-.96.95-1.82,1.9-2.59,2.84-.86,1.02-1.63,2.05-2.26,3.04-.29.44-.54.92-.76,1.36-.29.54-.54,1.07-.76,1.61-.16.38-.32.76-.45,1.11-.16.44-.32.88-.45,1.36,0,.03-.03.06-.03.09-.1.41-.19.82-.29,1.2-.04.21-.07.41-.1.62-.02.09-.03.18-.04.27-.02.15-.05.29-.07.44-.13.79-.19,1.55-.19,2.34,0,.16.02.32.02.49,0,.23.02.47.03.7,0,.09,0,.18.01.27,0,.28.03.55.06.82.02.17.04.35.07.52,0,.11,0,.23.03.34.03.28.1.6.16.88,0,.02.01.04.02.06.03.14.07.28.1.42.02.13.04.25.08.37.06.35.16.69.25,1.01.13.47.29.92.45,1.36.01.04.03.08.05.12.05.13.1.26.15.39.1.27.2.54.31.81.13.35.29.69.45,1.04.03.09.06.19.13.25.22.41.41.82.64,1.23.25.51.54,1.01.86,1.52.29.44.57.85.83,1.26.19.25.35.54.57.79.03.04.07.09.1.13.43.59.87,1.17,1.32,1.73.09.12.18.24.27.35.29.35.57.69.89,1.04,2.8,3.28,5.86,5.91,8.12,7.58h.03s0,0,0,0c1.94,1.49,3.25,2.31,3.25,2.31l7.15-3.36h0c-.93.44-1.9.91-2.91,1.39-3.02,1.4-6.23,2.9-9.15,4.31-8.68,4.21-40.02,16.85-44.45,28.37,0,0,0,.01,0,.02-.01,0-.02,0-.02.02h0s0,0,0,0c0,0,0,0,0,0h-.03v.12c-4.37,12.38,14.05,167.51-1.09,241.33-9.81,47.75-20.76,111.13-26.9,153.36,0-.01.02-.04.02-.05-2.98,20.45-4.83,35.96-4.89,42.38-.02.88,0,1.61.06,2.13,0,.06.03.16.03.22v.06c.03.35.1.73.19,1.04,0,.06.03.16.03.22.06.19.1.38.16.57,0,.02.02.05.02.07.15.53.33,1.04.54,1.54.07.18.15.37.23.54.04.1.09.19.14.29.07.15.14.31.22.46.13.28.29.54.41.79.48.82,1.05,1.58,1.66,2.34.22.28.48.57.73.85.25.28.51.57.8.85.25.25.54.51.8.76.29.25.57.51.83.73.57.51,1.15.98,1.75,1.39.89.66,1.78,1.3,2.67,1.8,4.39,2.78,8.41,4.14,8.41,4.14l.03-.06s0,0,0,0l8.02-23.5s-16.99-18.63-15.2-39.88c.14-1.67.46-3.61.9-5.73.09-.42.18-.83.28-1.26.04-.22.09-.46.14-.69.31-1.35.67-2.77,1.07-4.25.07-.26.14-.51.22-.77.22-.82.45-1.64.7-2.5.21-.81.46-1.66.73-2.5.4-1.35.83-2.73,1.27-4.15.16-.5.31-.99.48-1.49.38-1.2.76-2.46,1.21-3.76.7-2.18,1.43-4.42,2.2-6.73.22-.68.46-1.38.69-2.07.97-2.93,1.98-5.94,3.01-9.03.14-.41.27-.81.41-1.22.36-1.08.73-2.19,1.09-3.3.78-2.36,1.56-4.75,2.35-7.18v.05c-.01.57-.03,1.13-.04,1.69-.97,27.47-.41,56.08,4.77,69.92.15.4.34.8.54,1.2.03.07.05.13.08.21-.83,3.66-1.66,7.39-2.52,11.18-.32,1.26-.61,2.53-.89,3.79Z"/><path class="cls-5" d="m297.94,40.3s6.65-27.03,14.62-27.91c7.98-.89,22.6,10.63,23.48,19.5.89,8.86-25.7,18.61-25.7,18.61l-12.41-10.19Z"/><path class="cls-43" d="m53.8,392.23s-11.52,105.32,0,136.34c11.52,31.02,172.39,66.46,211.59,48.3,39.19-18.17,97.39-123.62,97.39-123.62,0,0-35.88-150.72-70.52-255.7-34.64-104.97-124.37-123.41-168.01-111.17-43.64,12.24-63.36,23.63-63.95,62.62-.59,38.99,4.14,182.22-6.5,243.23Z"/><path class="cls-47" d="m245.21,286.65s0,60.55,3.54,77.69c0,0-25.7,22.15-40.17,26.88-14.47,4.73-21.86-8.57-21.86-8.57,0,0,6.15-19.36,5.58-43.21l52.9-52.79Z"/><path class="cls-27" d="m70.65,826.98l15.31-76.31,18.08-90.09c-.69-8.01,4.54-16.22,5.9-25.5v-.03c.5-3.19.92-6.44,1.23-9.78h.03c.32-2.97.57-5.96.76-9.02v-.03c1.01-13.95,1.07-28.62.6-42.88-.13-4.1-.32-8.14-.51-12.15-1.29-24.23-3.88-46.23-5.74-60.11v-.03c-.09-.57-.16-1.1-.22-1.64-1.2-8.55-2.05-13.63-2.05-13.63l-34.14-5.52-5.05-.85s-4.1,22.47-10.38,50.61c-.82,3.63-1.67,7.35-2.56,11.14-.32,1.26-.6,2.52-.88,3.79-.06.16-.09.32-.13.47-.47,2.08-.98,4.17-1.48,6.28-.16.54-.28,1.1-.41,1.64-.35,1.33-.66,2.65-.98,3.98-.13.41-.22.82-.28,1.2-1.1,4.48-2.24,8.93-3.44,13.35-1.17,4.42-2.37,8.77-3.6,13.03-.98,3.41-1.96,6.75-2.97,9.97-.32,1.04-.63,2.05-.95,3.06-.32,1.01-.63,2.02-.98,3-.32.98-.63,1.99-.98,2.93-.32.98-.63,1.92-.98,2.84-.32.95-.63,1.89-.98,2.81-.32.92-.63,1.8-.98,2.68-.47,1.33-.98,2.59-1.48,3.85v.03c-.47,1.26-.98,2.46-1.48,3.63-.63,1.55-1.26,3-1.93,4.35,0,.06-.03.09-.06.13-.63,1.42-1.29,2.75-1.99,3.98-.35.63-.66,1.23-1.01,1.83-.28.57-.63,1.14-.98,1.67-.5.82-4.83,10.19-9.15,19.47-.5,1.04-.98,2.11-1.45,3.16-3.79,8.08-7.19,15.37-7.64,15.87,0,0,7.56,117.25,14.12,156.84h51.78Z"/><path class="cls-44" d="m255.59,264.46v.09c-.28,1.78-.56,3.18-.94,4.4-5.05,17.4-36.95,54.25-64.17,71.65-4.3,2.81-8.51,5.15-12.53,7.2-2.53,1.22-4.96,2.24-7.3,3.27-17.68,7.2-31.24,7.11-37.32,4.68-8.23-3.27-57.06-38.63-59.21-64.35-1.78-21.05,5.89-31.71,9.54-41.06.84-2.06,1.5-4.12,1.78-6.17,1.4-11.22-12.63-66.04-11.23-88.67.75-13.38,11.88-33.77,24.51-49.01,8.7-10.48,18.15-18.43,25.54-20.11,8.04-1.78,18.05-1.96,28.81-.93,10.85,1.12,22.45,3.46,33.86,6.73l48.08,68.66s11.97,37.23,12.07,61.08c.19,23.95,8.51,42.56,8.51,42.56Z"/><path class="cls-34" d="m229.59,182.83s15.89,28.97,16.19,43.12c0,0,4.92-17.64,13.81-21.56,0,0-23.42-15.52-30-21.56Z"/><path class="cls-2" d="m262.89,387.37s-10.66,46.21-26.94,88.77c-2.06,5.33-4.21,10.57-6.36,15.62-19.83,46.12-101.77,163.97-101.77,163.97,0,0-8.04-80.16-4.02-123.19,4.02-42.93,21.7-115.61,21.7-115.61,0,0,1.22-.94,3.18-2.43,9.35-7.2,36.48-28.34,38.07-33.21,1.87-5.99,4.68-24.04,4.68-24.04,0,0,21.23,8.14,54.63-24.79,0,0,1.5,27.78,2.71,31.9,1.22,4.12,14.12,23.01,14.12,23.01Z"/><path class="cls-15" d="m75.53,731.5c-.51,14.89-21.6,54.56-41.76,95.49h237.51c-13.09-29.53-25.69-57.41-28.51-70.23v-.19c-.56-2.06-.65-3.74-.56-4.96,1.59-14.03,47.98-86.71,66.6-114.96,2.62-4.12,4.77-7.2,6.08-9.17,10.57-15.34,67.63-159.76,67.63-159.76-4.68-10.66-77.64-42.56-90.55-60.71-12.81-18.24-34.52-55.09-34.52-55.09l-10.29-1.78s.84,10.1,1.59,14.22c.75,4.12,14.12,23.01,14.12,23.01,0,0-20.02,57.06-37.13,100.18-17.21,43.12-97.93,168.18-97.93,168.18-14.03-81.1,14.03-226.36,17.58-232.35,3.55-5.89,38.35-35.45,40.13-38.91,1.78-3.55,2.34-7.76,2.34-7.76l-41.63,22.45s-41.72,61.83-56.78,65.85c-15.06,3.93-24.6,14.41-24.6,14.41,0,0,9.35,74.83,6.64,85.49-2.34,9.26-18.33,42.56-22.08,67.63-.56,3.84-.84,7.48-.75,10.76.65,25.25,27.69,61.17,26.85,88.21Z"/><path class="cls-10" d="m350.81,805.48c1.5,7.72,2.74,14.97,3.7,21.5h92.87c-2.8-9.95-6.84-20.26-11.45-33.47l-.09-.09v-.19c-6.83-19.83-14.87-46.11-21.7-87.18-1.59-9.54-3.09-20.2-4.4-31.62-9.35-77.45-14.87-188.48-27.22-206.72,0,0-38.54,17.87-51.82,46.21-1.12,2.53-2.34,5.52-3.46,8.89-.09.19-.19.37-.19.65-3.46,11.13-6.55,26.28-9.17,41.91v.19c-5.71,34.42-9.07,71.09-9.07,71.09,0,0,29,101.49,41.91,167.9.09.37.09.75.09.94Z"/><path class="cls-35" d="m158.69,236.97s2,5.6,5.99,7.37c3.99,1.77,29.03-5.1,41.05-18.39l-47.03,11.02Z"/><path class="cls-39" d="m121.81,171.07s7.28,9.79,12.92,10.19c5.63.4,30.2-25.8,37.9-25,7.7.8,18.81,3.85,18.81,3.85,0,0-11.37-8.6-22.24-11.45-10.86-2.85-47.39,22.41-47.39,22.41Z"/><path class="cls-39" d="m74.86,171.18s6.12-.32,13.8,2.05c7.68,2.36,16.84,19.19,16.84,19.19,0,0-12.55-34.11-31.31-36.91,0,0-.58,5.68.68,15.68Z"/><path class="cls-36" d="m93.09,253.72c1.68,2.24,12.85-4.73,15.65-12.55,2.81-7.83-11.29-40.54-18.97-42.9-7.68-2.36-7.47,41.13,3.32,55.46Z"/><path class="cls-48" d="m161.03,185.92c-11.88,3.24-6.2,50.88,0,54.42,6.2,3.54,37.22-4.1,44.7-14.4,6.92-9.53-14.13-48.37-44.7-40.02Z"/><path class="cls-35" d="m155.46,189.74s4.42-7.66,10.2-8.32c5.78-.66,28.83,5.31,39.24,30.13,0,0-13.13-17.69-49.43-21.8Z"/><path class="cls-35" d="m107.79,230.52s-1.54-21.02-18.01-34.06c0,0-2.6.86-5.33,9.51,0,0,15.83,5.58,23.34,24.55Z"/><path class="cls-46" d="m154.16,204.39s-5.35-11.89-4.33-13.44c1.01-1.55,33.58-6.43,55.07,20.6,0,0-21.27-19.72-49.85-15.29l-.89,8.13Z"/><path class="cls-46" d="m107.79,230.52s-7.84-15.86-23.21-18.98v2.88s-8.33-9.44-7.88-10.04c.44-.6,19.8.73,31.09,26.13Z"/><path class="cls-46" d="m155.04,196.26s-4.03,20.3,4.3,41.94c0,0,9.4,3.47,16.9-5.17,11.67-13.44-1.49-36.58-1.49-36.58,0,0-8.11-3.74-19.71-.2Z"/><path class="cls-46" d="m84.58,211.55s-1.47,27.27,7.66,40.92c0,0,5.57-.93,6.52-11.88,1.08-12.43-5.94-25.91-5.94-25.91,0,0-4.81-2.93-8.24-3.13Z"/><circle class="cls-29" cx="181.06" cy="212.99" r="3.22"/><circle class="cls-29" cx="98.87" cy="233.75" r="3.22"/><path class="cls-35" d="m90.63,249.73s2.05,6.68,4.15,7.57c2.1.89,11.74-10.51,13-14.06,0,0-8.27,10.91-12.89,10.91-2.66,0-4.26-4.41-4.26-4.41Z"/><path class="cls-32" d="m104.75,254.62s-11.17,13.1-12.34,16.42c-1.16,3.33,13.37,14.96,20.49,14.52,7.12-.44,11.45-6.1,14.2-7.2,2.75-1.11,5.11-.43,5.97-.72.86-.29,10.04-8.69,4.64-15.93,0,0,1.25,5.12-1.95,7.52-3.2,2.39-14.51-1.15-24.9.98-10.39,2.13-15.71,4.25-17.08,2.55-1.37-1.7,10.96-18.13,10.96-18.13Z"/><path class="cls-3" d="m133.08,277.63s-6.21.22-11.56,4.66c0,0,7.02-8.31,11.56-4.66Z"/><path class="cls-21" d="m135.56,258.63s5.75,11.22-1.37,18.13c0,0,12.06-7.38,1.37-18.13Z"/><path class="cls-25" d="m129.1,270.01s-7.65.1-18.03,3.12c-10.37,3.02-15.91,1.33-17.28-.38,0,0,4.88,1.01,15.1-2.13,10.21-3.13,20.21-.61,20.21-.61Z"/><path class="cls-23" d="m124.45,265.31c1.86-1.36-3.15-3.29-6.71-1.75-3.56,1.53-4.44,2.56-4.22,3.26.22.7,8.37.36,10.93-1.5Z"/><path class="cls-12" d="m113.45,309.08s3.33,2.66,4.08,4.03c.75,1.37,9.56,17.52,14.4,15.13,13.03-6.43,39.48-27.04,39.48-27.04-.17-.92-38.92,3.23-57.96,7.88Z"/><path class="cls-14" d="m110.91,308.44s-3.23-8.59,5.23-10.23c14.51-2.81,30.6.88,45.63,3.02,0,0-14.6,3.38-29.22,6.31-14.61,2.93-21.65.9-21.65.9Z"/><path class="cls-24" d="m108.11,308.16c3.66,1.18,5.4,1.79,8.7,2.99,0,0,9.63-1.1,23.37-4.52,11.44-2.85,23.75-5.8,35.97-5.39-4.8-.63-7.13-.71-11.58-.46,0,0-7.85.11-21.98,3.9-16.12,4.32-27.48,4.26-27.48,4.26-2.73-.35-4.13-.51-7-.78Z"/><path class="cls-11" d="m255.59,264.46v.09c-.28,1.78-.56,3.18-.94,4.4-5.05,17.4-36.95,54.25-64.17,71.65-4.3,2.81-8.51,5.15-12.53,7.2,21.61-12.82,55.19-54.63,54.44-72.59-.94-20.2-20.39-41.44-20.39-41.44-11.32,10.66-44.99,24.04-56.59,13-11.5-11.04-5.72-71.07-33.6-75.71,20.94-9.3,58.95-20.64,58.95-20.64,0,0-32.55-36.39-59.21-34.33-26.66,1.96-37.04,35.17-37.04,35.17,10.66,10.57,20.95,41.16,20.95,41.16,0,0,7.3,43.12,3.65,50.79-3.65,7.67-13.19,18.05-16.74,16.37-3.55-1.59-8.7-9.26-8.7-9.26.84-2.06,1.5-4.12,1.78-6.17,1.4-11.22-12.63-66.04-11.23-88.67.75-13.38,11.88-33.77,24.51-49.01l54.35-21.05,22.92-8.79,10.94,15.53,48.08,68.66s11.97,37.23,12.07,61.08c.19,23.95,8.51,42.56,8.51,42.56Z"/><path class="cls-37" d="m362.79,453.22c-26-9.45-41.34-20.67-41.34-20.67l-4.12-23.57v-.19c0-.19-.09-.47-.09-.84l-20.02-114.77,7.95,129.92s-10.94-11.22-16.28-21.23c-2.06-4.02-4.86-34.14-7.95-69.41v-.19l-2.06-23.38-.75-8.89c-3.93-44.34-8.04-86.99-11.69-90.45-1.68-1.59-4.02-3.27-6.83-5.14l-.09-.09-.09-.09c-9.73-6.36-25.26-15.34-41.72-32.74-21.23-22.64-56.68-70.06-67.91-73.62-11.23-3.55-31.06,2.06-31.06,2.06,0,0-38.91,15.43-44.9,40.78-2.99,12.72-4.77,63.51-5.99,116.55v.09c-1.31,52.57-2.06,107.38-3.09,129.46-2.06,44.24-30.49,105.42-32.27,126.74-1.78,21.23,15.06,39.85,15.06,39.85l-7.95,23.48s-18.15-6.17-19.46-18.61c-1.4-12.44,16.37-123.66,31.43-197.65,15.06-73.99-3.37-229.73,1.12-241.24,4.4-11.5,35.45-24.13,44.06-28.34,2.9-1.4,6.08-2.9,9.07-4.3,6.17-2.99,11.41-5.43,11.41-5.43,6.83-7.3,19.36-15.43,33.77-22.26,20.2-9.73,44.24-16.74,61.83-15.25,30.12,2.71,78.48,56.78,83.72,72.12,1.31,3.65,2.52,7.86,3.83,13.38,4.12,16.37,9.45,44.34,21.51,104.76l.09.28c.75,3.74,1.5,7.58,2.34,11.5,18.33,90.45,38.44,207.38,38.44,207.38Z"/><path class="cls-7" d="m317.23,407.95l-20.02-114.77s-6.36-20.3-11.88-18.43c-5.24,1.78-4.49,53.97-4.4,57.53l-2.06-23.38-.75-8.89-2.71-32.27,9.92-55.56s-2.53-18.9-19.64-30.77c-17.12-11.97-69.78-48.45-69.78-48.45,14.03,21.79,60.61,68.47,63.51,71.28-9.73-6.36-25.26-15.34-41.72-32.74-21.23-22.64-56.68-70.06-67.91-73.62-11.23-3.55-31.06,2.06-31.06,2.06,0,0-38.91,15.43-44.9,40.78-2.99,12.72-4.77,63.51-5.99,116.55-.65-4.58-18.89-133.29-8.14-141.9,10.94-8.89,65.57-26.28,64.54-29-.94-2.43-15.81,0-18.43.37,6.17-2.99,11.41-5.43,11.41-5.43,6.83-7.3,19.36-15.43,33.77-22.26l149.38,70.25,4.77,2.24,16.74,102.52.09.28s-15.62,15.53-16.84,28.62c-1.22,12.53,10.76,132.26,12.07,144.99Z"/><path class="cls-42" d="m251.19,211.33s15.82-18.67,24.74-18.9c11.82-.31,24.3,7.9,28.06,21.86,3.77,13.96-1.85,39.14-16.25,49.99-14.4,10.86-36.55-1.99-36.55-1.99,0,0-12.19-29.69,0-50.95Z"/><path class="cls-20" d="m353.62,184.76c.19,3.46-.28,6.08-1.59,7.67-7.58,8.98-36.01,11.97-36.01,11.97,0,0-7.48-13.94-10.85-16.09-3.46-2.24-23.2-3.09-47.7-21.7-24.51-18.61-76.05-74.46-99.06-83.53-23.1-9.07-41.16-1.78-41.16-1.78l-15.62,7.39s-28.34-17.87-15.9-38.16c1.5-2.43,3.65-4.96,6.45-7.48C112.2,24.81,162.33,6.48,194.7,2.64c19.74-2.34,31.43,1.87,40.97,7.48l.09.09s0-.09.09,0c8.23,4.86,14.87,10.66,23.76,14.12,8.7,3.46,18.99,5.8,28.62,7.95,11.5,2.62,22.08,5.05,27.78,8.89,10.57,7.11,12.07,35.45,17.96,66.04,4.96,25.35,19.18,60.89,19.64,77.54Z"/><path class="cls-18" d="m252.3,226.15s18.84-20.15,32.2-21.86c13.36-1.71,17.43,16.78,16.69,26.23-.74,9.46-9.16,23.04-9.16,23.04,0,0,4.73-13.45,3.69-23.04-1.03-9.6-6.65-17.42-10.34-18.31-3.69-.89-9.93,4-9.93,4,0,0,1.51,6.87,6.24,12.66,4.73,5.79.82,18.34-4.91,22.18-5.73,3.84-8.68,2.22-9.27,2.51-.59.3,6.65-11.47,2.95-18.29-3.69-6.82-13.35-2.24-14.87-2.98-1.52-.74-3.29-6.15-3.29-6.15Z"/><path class="cls-22" d="m255.59,232.3c2.2.53,9.41-2.81,13.25,0,3.84,2.81,8.83,3.02,10.04-1.28,1.22-4.3-4.13-17.98-9.01-18.03-4.87-.04-17.58,13.16-17.58,13.16,0,0,.83,5.56,3.29,6.15Z"/><path class="cls-41" d="m133.34,355.75s49.84-6.26,96.25-49.53c0,0-48.39,59.04-96.25,49.53Z"/><path class="cls-16" d="m353.62,184.76c.19,3.46-.28,6.08-1.59,7.67-7.58,8.98-36.01,11.97-36.01,11.97,0,0-7.48-13.94-10.85-16.09-3.46-2.24-23.2-3.09-47.7-21.7-24.51-18.61-76.05-74.46-99.06-83.53-23.1-9.07-41.16-1.78-41.16-1.78l-15.62,7.39s-28.34-17.87-15.9-38.16c1.5-2.43,3.65-4.96,6.45-7.48,15.71-5.8,37.32-12.16,47.8-7.76,17.4,7.39,76.61,94.47,102.24,111.31,25.72,16.84,64.54,11.04,78.76,17.96,14.22,7.02,32.64,20.2,32.64,20.2Z"/><path class="cls-16" d="m195.9,110.84s-41.97-73-59.25-76.5c-17.28-3.49-40.54,7.3-40.54,7.3,0,0,27.69-5.18,42.46,8.85,14.77,14.03,17.76,29.91,57.33,60.35Z"/><path class="cls-16" d="m305.17,58.02c-.37,2.24-5.89,7.11-28.34-4.4-21.79-11.13-39.94-41.44-41.06-43.4,0,0,0-.09.09,0,8.23,4.86,14.87,10.66,23.76,14.12,8.7,3.46,18.99,5.8,28.62,7.95-4.02,3.93,17.21,23.48,16.93,25.72Z"/><polygon class="cls-16" points="362.79 453.22 316.45 276.77 349.15 376.35 362.79 453.22"/><path class="cls-6" d="m262.89,387.37s-10.66,46.21-26.94,88.77l-31.71,53.88c15.62-27.87,13.47-53.32,13.47-53.32-29.46,22.92-58.46,34.8-61.92,36.2,27.31-14.22,78.76-64.07,78.76-64.07l14.22-56.59-7.11-4.12s-33.67,18.15-48.83,15.53c-15.15-2.71-15.53-4.49-15.53-4.49l-31.9,24.23,3.27-8.89c9.35-7.2,36.48-28.34,38.07-33.21,1.87-5.99,4.68-24.04,4.68-24.04,0,0,21.23,8.14,54.63-24.79,0,0,1.5,27.78,2.71,31.9,1.22,4.12,14.12,23.01,14.12,23.01Z"/><path class="cls-6" d="m127.79,655.73s11.67-186.83,17.57-232.32c0,0-36.63,153.45-17.57,232.32Z"/><path class="cls-33" d="m117.9,670s-5.24,84.94-8.3,156.99h4.84c1.86-61.78,4.39-145.83,6.05-150.65,2.21-6.42,7.31-20.6,7.31-20.6,0,0-6.13-52-2.62-92.46l-9.06,35.83,6.56,62.83-4.77,8.06Z"/><path class="cls-13" d="m295.72,431.09s-38.9,8.57-40.13,10.34c-1.23,1.77,7.04,76.06,4.98,88.54-2.07,12.48-124.29,119.99-126.73,127.98-2.44,7.98-8.85,14.77-8.85,14.77,0,0,62.33-49.33,107.22-83.89,44.9-34.56,42.83-42.24,38.7-62.92-4.13-20.68-7.09-61.74-2.36-67.94,4.73-6.2,27.17-26.88,27.17-26.88Z"/><path class="cls-13" d="m308.82,636.65c-18.61,28.25-65.01,100.93-66.6,114.96-.09,1.22,0,2.9.56,4.96l-17.68-35.73-2.9,22.45-61.92-5.24,22.92,55.47s-56.68-83.25-60.52-85.49c-3.83-2.25-30.31.47-33.11,2.24-2.81,1.78-14.03,21.23-14.03,21.23.84-27.03-26.19-62.95-26.85-88.21-.09-3.27.19-6.92.75-10.76,19.36,13.28,52.19,11.23,52.19,11.23-10.01-36.95-12.07-109.25-12.07-109.25l14.5,47.33,20.95,90.92h24.79s108.97-3.27,121.97-22.64c13-19.46,25.16-59.21,25.16-59.21l28.34-60.89c-8.04,25.91-16.46,106.63-16.46,106.63Z"/><path class="cls-9" d="m258.47,446.61c-2.15,5.71,21.33,78.01,12.91,90.83-7.86,11.97-114.21,101.21-134.98,121.97-1.5,1.5-2.53,2.62-3.09,3.37-8.14,11.13-14.4,45.27-14.4,45.27,0,0,0-31.9,3.74-38.16,3.83-6.17,46.39-77.08,77.45-132.45,31.15-55.37,65.57-145.17,65.57-145.17l-8.14-40.13c2.62,3.83,47.33,71.18,38.16,78.95-9.45,8.04-34.98,9.73-37.23,15.53Z"/><path class="cls-17" d="m146.26,399.19s-12.41,53.17-17.43,80.2c-5.02,27.03-11.82,100.28-12.7,115.64-.89,15.36,8.7,71.33,8.7,71.33l-4.53,14.01s-31.05-133.48-30.75-145.89c.29-12.41,28.95-52.87,29.39-59.08.44-6.2-19.36-17.27-18.5-18.1.87-.83,40.21-46.29,45.82-58.11Z"/><path class="cls-19" d="m308.82,636.65l9.56-73.37-24.11,35.83s-12.47,34.02-22.49,51.01c-10.02,16.99-29.56,101.49-29.56,101.49,0,0,15.6-42.03,66.6-114.96Z"/><path class="cls-13" d="m128.83,672.72s-6.11,43.72-6.16,66.46c-.05,22.74,3.08,39.58,3.08,39.58,0,0,11.91-42.54,8.09-66.76-3.83-24.22-5.01-39.29-5.01-39.29Z"/><path class="cls-31" d="m380.23,826.98c5.92-40.24,13.54-75.38,15.67-75.38,3.37,0,37.79,39.29,39.94,41.81v-.19c-6.83-19.83-14.87-46.11-21.7-87.18-1.59-9.54-3.09-20.2-4.4-31.62,0,14.69-.65,26.28-2.62,27.5-5.89,3.46-83.9-75.02-85.12-92.7-1.22-17.77,8.7-95.32,8.7-95.32-1.03,1.59-2.25,4.68-3.46,8.89-.09.19-.19.37-.19.65-11.13,35.64-18.24,113.18-18.24,113.18,0,0,36.53,127.74,45.71,190.33h25.7Z"/><path class="cls-13" d="m350.72,804.55c-12.91-66.41-41.91-167.9-41.91-167.9,0,0,3.37-36.67,9.07-71.09v-.19l.47-2.06s-.56,41.34,5.33,51.26c5.61,9.26,24.98,172.67,27.03,189.98Z"/><path class="cls-13" d="m271.38,537.44c-7.86,11.97-114.21,101.21-134.98,121.97,32.46-42.47,134.98-121.97,134.98-121.97Z"/><path class="cls-8" d="m134.27,727.81c0,4.83-2.08,8.75-4.64,8.75s-4.64-3.92-4.64-8.75,2.08-8.75,4.64-8.75,4.64,3.92,4.64,8.75Z"/><path class="cls-30" d="m51.04,544.93c-.06.16-.09.32-.13.47-.47,2.08-.98,4.17-1.48,6.28-.16.54-.28,1.1-.41,1.64-.35,1.33-.66,2.65-.98,3.98-.13.41-.22.82-.28,1.2-1.1,4.48-2.24,8.93-3.44,13.35-1.17,4.42-2.37,8.77-3.6,13.03-.98,3.41-1.96,6.75-2.97,9.97-.32,1.04-.63,2.05-.95,3.06-.32,1.01-.63,2.02-.98,3-.32.98-.63,1.99-.98,2.93-.32.98-.63,1.92-.98,2.84-.32.95-.63,1.89-.98,2.81-.32.92-.63,1.8-.98,2.68-.47,1.33-.98,2.59-1.48,3.85v.03c-.47,1.26-.98,2.46-1.48,3.63-.63,1.55-1.26,3-1.93,4.35,0,.06-.03.09-.06.13-.63,1.42-1.29,2.75-1.99,3.98-.32.63-19.78,41.49-20.23,42,0,0,7.56,117.25,14.12,156.84h12.95c8.56-33.08,21.47-75.95,21.64-76.09v-.03c.09-.13.22-.25.35-.38l.5-.5c.19-.19.35-.38.51-.57.09-.09.19-.22.28-.35.28-.25.54-.54.79-.85.35-.38.69-.76,1.01-1.14.03-.03.06-.06.09-.09v-.03c.32-.38.66-.79.98-1.2.41-.5.85-1.04,1.29-1.58.47-.54.88-1.07,1.33-1.64.44-.57.92-1.17,1.36-1.77.6-.82,1.23-1.67,1.89-2.52,1.99-2.59,3.98-5.46,6.06-8.58,1.58-2.37,3.22-4.92,4.86-7.57.32,1.96.57,3.91.66,5.81.03.28.03.57.03.82,0,.47.03.95.03,1.42s0,.92-.03,1.39c0,0,.03.03.06.09.54.92,5.87,9.91,10.44,19.06,2.15,4.26,4.13,8.55,5.36,12.05,0,0,.03,0,.03.03.38,1.04.69,2.05.92,2.93.13.44.22.88.28,1.26.06.41.09.79.13,1.14.06.88,0,2.43-.22,4.54-.09.91-.25,1.96-.38,3.09,0,.03,0,.06-.03.13-.09.73-.22,1.55-.35,2.37-.19,1.1-.38,2.3-.6,3.6-.09.63-.19,1.26-.32,1.92-.13.63-.22,1.26-.35,1.89-.32,1.7-.63,3.47-1.01,5.33-.22,1.17-.47,2.37-.73,3.6-.25,1.33-.54,2.68-.85,4.07-.25,1.2-.5,2.43-.79,3.66-.22.98-.44,1.96-.66,2.97-.22,1.01-.44,2.05-.69,3.06-.57,2.46-1.17,5.02-1.8,7.64-.38,1.55-.79,3.09-1.17,4.7-.06.19-.09.41-.16.6-.49,1.87-.98,3.79-1.49,5.73h190.11c-13.1-29.51-25.69-57.35-28.49-70.16v-.19c-.03-.13-.06-.22-.06-.32v-.03c-.19-.73-.28-1.36-.35-1.96-.03-.06-.03-.09-.03-.16-.13-1.01-.16-1.86-.09-2.52l.03-.03s0-.06.03-.13l.03-.03v-.09h.03c.03-.13.13-.35.22-.57.09-.25.19-.5.32-.82.06-.19.13-.35.22-.54.16-.35.32-.76.5-1.2.32-.76.66-1.61,1.1-2.56.22-.54.47-1.07.73-1.67.57-1.29,1.23-2.75,1.99-4.35.22-.5.44-.98.69-1.51.13-.32.28-.63.47-.98.28-.6.57-1.23.88-1.86.54-1.2,1.17-2.43,1.83-3.75.38-.79.79-1.61,1.2-2.46.09-.22.22-.44.35-.66.5-1.07,1.07-2.21,1.7-3.38.82-1.64,1.74-3.38,2.68-5.21.06-.09.13-.22.19-.35.03-.03.03-.06.06-.09.03-.09.09-.16.13-.25.22-.41.44-.88.69-1.33.03-.03.06-.09.09-.13.06-.19.19-.35.28-.54.03-.06.06-.09.09-.16.47-.82.98-1.7,1.51-2.56.76-1.36,1.58-2.75,2.43-4.17.79-1.39,1.64-2.84,2.52-4.29.82-1.42,1.67-2.84,2.52-4.26,2.21-3.66,4.48-7.38,6.75-11.11.92-1.48,1.83-2.97,2.75-4.45.92-1.48,1.83-2.97,2.75-4.45.54-.82,1.04-1.64,1.55-2.46.85-1.39,1.74-2.75,2.56-4.1,1.45-2.33,2.9-4.61,4.32-6.85,1.14-1.8,2.24-3.53,3.34-5.27.54-.88,1.1-1.74,1.64-2.59,2.05-3.22,4.04-6.31,5.93-9.25.16-.22.28-.44.44-.66.69-1.07,1.36-2.15,2.02-3.16.76-1.17,1.48-2.27,2.18-3.34.35-.54.69-1.07,1.04-1.61.5-.73.98-1.45,1.45-2.18.41-.63.79-1.23,1.2-1.83.38-.6.76-1.17,1.14-1.74,0,0,.03.03.03.06.03.09.09.35.19.66.03.13.06.25.09.41.06.13.09.28.16.47,0,.03.03.09.03.16.13.47.28,1.04.47,1.67.03.03.03.09.06.16.03.06.03.13.03.22.03.06.03.16.06.25.03.13.09.25.13.38.03.19.09.38.16.57.03.06.06.16.09.25,0,.03,0,.09.03.13.03.06.03.13.06.22.09.38.22.82.35,1.26.09.32.19.66.28,1.04.35,1.17.69,2.46,1.1,3.88.13.41.25.85.35,1.29.13.38.25.79.35,1.2.06.22.13.41.16.63.13.35.22.69.28,1.04.28.95.54,1.92.82,2.93.19.63.38,1.29.54,1.96.03.06.06.09.06.16.09.32.19.63.25.98.13.38.22.82.35,1.23.22.76.44,1.51.63,2.3.06.25.13.5.19.76.16.54.32,1.07.47,1.64.06.16.09.35.16.54.19.63.35,1.26.51,1.92.03.09.06.19.09.28.19.76.41,1.51.6,2.27.09.28.19.6.25.88.13.5.25.98.38,1.48.03.09.06.19.09.28.25.88.5,1.77.73,2.68.13.41.25.85.35,1.26v.03c.13.51.28.98.38,1.48.06.09.06.22.09.32.06.16.09.32.13.5.22.66.38,1.33.57,2.02.69,2.59,1.42,5.27,2.15,8.01.35,1.36.73,2.78,1.1,4.2.25.95.5,1.93.76,2.9.06.28.16.54.22.82.03.19.09.38.16.6.03.16.06.32.13.47.06.32.13.63.22.95.06.25.13.54.22.79.09.35.19.69.28,1.01.13.6.28,1.17.44,1.77.06.19.09.35.13.54.03.09.06.22.09.32.03.09.06.19.09.32.09.32.19.66.25.98.41,1.45.82,2.87,1.17,4.35.28,1.2.57,2.37.88,3.57.25,1.07.54,2.15.82,3.22.03.22.09.44.16.66.03.03.03.06.03.09t.03.06c.35,1.36.69,2.71,1.04,4.07.32,1.39.66,2.75,1.04,4.13,1.04,4.13,2.08,8.3,3.12,12.5.09.47.22.92.32,1.36,0,.03,0,.09.03.13.03.19.06.38.13.57,0,.06.03.13.06.19.16.66.32,1.29.47,1.96.44,1.8.88,3.63,1.33,5.46.32,1.26.6,2.52.92,3.76.28,1.14.57,2.3.82,3.47.35,1.42.66,2.81,1.01,4.2.35,1.39.66,2.81.98,4.2.32,1.39.63,2.81.98,4.2.09.38.19.76.25,1.1,1.29,5.65,2.52,11.23,3.69,16.69.41,1.83.79,3.63,1.17,5.4.35,1.74.73,3.47,1.07,5.18.73,3.57,1.42,7.07,2.08,10.44v.35c.38,1.92.76,3.82,1.1,5.71.13.69.25,1.42.41,2.11.03.32.09.63.16.95.16.85.32,1.67.44,2.52.03.22.06.41.09.63.09.5.19,1.01.28,1.51v.03c.13.82.28,1.61.38,2.4.03.19.06.35.09.54.09.41.16.85.25,1.26v.09c.09.66.19,1.33.28,1.96.03.28.09.6.13.88.05.28.08.56.12.84h92.8c-.98-3.49-2.09-7.03-3.33-10.71-.63-1.8-1.26-3.66-1.92-5.55-.09-.22-.16-.44-.22-.66-.63-1.67-1.23-3.41-1.86-5.17v-.03c-.66-1.77-1.33-3.57-1.99-5.46s-1.36-3.85-2.05-5.84l-.09-.06v-.19c-.44-1.26-.88-2.56-1.29-3.88-.44-1.29-.88-2.62-1.33-3.94-.35-1.01-.66-2.05-1.01-3.09-.13-.35-.22-.69-.32-1.04-.95-2.81-1.86-5.74-2.75-8.8-.47-1.55-.95-3.16-1.39-4.76-.47-1.61-.92-3.25-1.39-4.95-.47-1.67-.95-3.41-1.39-5.21-.25-.88-.47-1.77-.69-2.68-3.53-13.6-7.01-29.6-10.19-48.81-.79-4.8-1.55-9.84-2.27-15.15-.73-5.3-1.42-10.79-2.08-16.47v-.06c-8.01-65.76-13.16-155.53-22.06-192.45-.16-.6-.32-1.2-.44-1.77-.32-1.17-.6-2.24-.91-3.28-.03,0-.03-.03,0-.06-.44-1.42-.88-2.75-1.33-3.94-.22-.6-.44-1.17-.66-1.7-.25-.5-.47-1.01-.69-1.48v-.03c-.38-.73-.76-1.39-1.14-1.96-.03,0-.03-.03-.03-.03-.09-.22-.22-.41-.35-.63-.13-.22-.32-.44-.47-.69-.19-.22-.41-.47-.63-.73-.25-.25-.5-.5-.76-.76-.25-.22-.5-.44-.76-.73-.03,0-.09-.03-.13-.09-.32-.25-.66-.54-1.01-.82-3.09-2.52-7.7-5.52-13.16-8.8-.5-.32-1.04-.63-1.58-.95-.28-.19-.57-.35-.88-.54t-.03-.06v-.06c0-.06,0-.13-.03-.19,0-.06-.03-.13-.03-.22-.03-.16-.06-.32-.09-.5,0-.09-.03-.22-.06-.35,0-.13-.03-.25-.06-.38,0-.13-.03-.25-.06-.41l-.28-1.61c-.03-.13-.03-.22-.06-.35-.06-.38-.13-.79-.22-1.2-.03-.32-.09-.63-.16-.98-.41-2.4-.95-5.43-1.58-9.02-.22-1.29-.47-2.65-.73-4.1v-.03c-.28-1.55-.57-3.16-.85-4.86-.03-.03-.03-.06-.03-.09-.44-2.49-.88-5.14-1.39-7.95-.19-1.01-.38-2.02-.54-3.03-.35-1.99-.73-4.01-1.07-6.12-.54-3-1.1-6.12-1.67-9.34l-.09-.57c-.22-1.14-.44-2.3-.63-3.47-.22-1.17-.44-2.37-.63-3.57-.38-2.08-.76-4.2-1.17-6.34-.44-2.43-.88-4.89-1.33-7.38-.28-1.48-.54-2.93-.79-4.45-.03-.03-.03-.09-.03-.13-.66-3.57-1.33-7.23-1.99-10.92-.5-2.65-1.01-5.36-1.48-8.05-1.39-7.57-2.81-15.34-4.26-23.22-.19-.92-.38-1.86-.54-2.78-.5-2.68-1.01-5.4-1.51-8.11-1.26-6.66-2.52-13.38-3.79-20.1-.28-1.48-.57-3-.85-4.48-.6-3-1.17-5.96-1.7-8.93-.47-2.34-.91-4.67-1.36-7.01-.73-3.6-1.42-7.19-2.11-10.76-.06-.19-.09-.38-.13-.57-1.7-8.61-3.41-17.13-5.08-25.43-.44-1.96-.85-3.91-1.2-5.84-.28-1.26-.54-2.49-.76-3.72-.06-.25-.09-.5-.13-.76-.09-.38-.16-.76-.22-1.14l-.03-.06-.06-.28-4.23-25.72-.63-3.85-.03-.22v-.06c.41-.06,1.01-.13,1.67-.16.03-.03.09-.03.13-.03.22-.03.5-.06.76-.09.03-.03.09-.03.13-.03.57-.09,1.2-.19,1.86-.28,1.33-.22,2.84-.47,4.48-.76,1.61-.32,3.34-.66,5.14-1.07,1.01-.25,2.05-.5,3.06-.76.03,0,.06-.03.09-.03.98-.25,1.99-.54,2.97-.82,0-.03.03-.03.06-.03.98-.28,1.96-.6,2.93-.95.13-.06.22-.09.35-.13,1.01-.38,2.02-.76,2.97-1.17.32-.13.63-.25.95-.41.92-.38,1.77-.79,2.56-1.26.44-.25.85-.47,1.26-.76.35-.22.66-.44.98-.66.35-.22.69-.51,1.01-.76.32-.25.6-.5.88-.79.28-.22.54-.47.76-.76.28-.38.57-.76.73-1.23.13-.22.22-.44.28-.69.09-.28.19-.6.25-.92.03-.22.09-.44.13-.66.06-.35.13-.73.16-1.1,0-.22.03-.47.03-.73.06-.73.03-1.55,0-2.4-.03-.6-.06-1.23-.13-1.86,0-.41-.03-.82-.09-1.26-.06-.66-.16-1.36-.25-2.05-.16-1.14-.35-2.3-.6-3.53-.03-.13-.03-.25-.06-.38-3.6-18.43-14.39-47.08-18.55-68.41-.73-3.85-1.39-7.67-1.99-11.39-.16-.91-.32-1.83-.44-2.75-.32-1.86-.63-3.69-.88-5.46-.16-.92-.32-1.8-.44-2.68-.06-.38-.13-.73-.19-1.1-.32-2.05-.66-4.1-.98-6.09-.19-1.04-.35-2.05-.5-3.03-.22-1.2-.41-2.37-.63-3.53-.5-2.65-.98-5.21-1.51-7.64-1.61-7.23-3.44-13.22-6.03-17.42.03,0,.06-.03.09-.06.5-.25,1.04-.5,1.58-.82.38-.19.79-.41,1.2-.63.41-.19.82-.41,1.23-.66h.03c.38-.22.79-.44,1.17-.69.79-.44,1.55-.92,2.3-1.42.19-.09.38-.22.57-.35.54-.35,1.1-.73,1.61-1.14.35-.25.69-.54,1.01-.79,1.67-1.33,3.06-2.71,3.91-4.13.13-.19.25-.38.35-.57.13-.28.25-.54.35-.82.09-.25.19-.5.22-.76t.03-.06c.06-.32.09-.63.09-.95,0-.13-.03-.28-.03-.44-.03-.25-.06-.54-.13-.82-.03-.13-.06-.25-.09-.38-.06-.38-.16-.73-.28-1.1-.22-.63-.47-1.29-.82-1.92-.09-.25-.25-.5-.38-.76-.16-.28-.32-.57-.5-.85-.32-.57-.69-1.1-1.1-1.64,0,0,0-.03-.03-.03-.19-.25-.41-.54-.63-.82-.66-.82-1.39-1.64-2.15-2.4-.25-.28-.54-.54-.79-.79-.54-.54-1.07-1.01-1.64-1.48-.54-.47-1.1-.92-1.67-1.33,0-.03-.03-.03-.06-.03-.32-.22-.6-.44-.92-.66-.28-.19-.6-.41-.88-.6-.25-.19-.5-.35-.79-.51-.95-.6-1.92-1.14-2.87-1.58-.32-.16-.6-.28-.92-.41-.28-.13-.54-.22-.79-.32-.28-.13-.6-.22-.88-.32-.28-.09-.6-.19-.88-.28-.03,0-.06,0-.09-.03-1.51-.38-2.93-.54-4.2-.38-.35.03-.69.13-1.07.25-.16.06-.35.16-.5.25-.35.19-.69.41-1.04.66-.16.16-.32.32-.5.44-.16.16-.32.32-.51.5-.16.16-.32.35-.47.54-.16.16-.28.32-.44.5-.13.19-.28.38-.41.57-.22.28-.44.6-.66.95-.35.5-.66,1.04-.98,1.61-.16.25-.28.51-.41.76-.28.47-.54.98-.79,1.51-.69,1.39-1.36,2.9-1.96,4.39-.35.85-.69,1.7-1.01,2.59-.32.85-.6,1.67-.88,2.49-.28.82-.57,1.64-.79,2.4-.25.73-.44,1.39-.63,2.02-2.24-.5-4.54-1.07-6.97-1.61-.76-.19-1.55-.38-2.37-.54-.06,0-.09-.03-.16-.03-.57-.16-1.17-.25-1.77-.38-1.2-.25-2.4-.54-3.6-.85-1.23-.25-2.46-.54-3.69-.85-1.23-.28-2.46-.57-3.66-.88-1.23-.28-2.46-.6-3.66-.95-1.23-.28-2.43-.63-3.63-.98-2.4-.69-4.73-1.42-7.01-2.24-1.14-.38-2.27-.79-3.34-1.23-2.21-.85-4.29-1.86-6.28-3-1.01-.54-2.02-1.1-3-1.7-2.9-1.77-5.68-3.72-8.55-5.65-1.92-1.26-3.85-2.56-5.93-3.79h-.13c2.27,6.72,1.96,23.76.28,42.66-1.29,14.67-3.38,30.45-5.68,43.45v.03c-.76,4.13-1.51,7.92-2.27,11.36-2.43,10.85-4.92,17.7-6.91,16.6-2.97-1.7-14.33-16.72-27.93-34.02-4.73-6-9.72-12.27-14.77-18.33l-.03-.03c-5.3-6.44-10.63-12.62-15.68-18.05-8.77-9.37-16.69-16.44-22.21-18.33h-.03c-.22-.06-.38-.13-.57-.19-.38-.13-.76-.22-1.14-.28h-.06c-3.25-.88-6.75-1.2-10.29-1.17h-.16c-5.55.06-11.23.98-16.35,2.24-.22.06-.44.09-.66.16-.28.06-.57.13-.82.22-9.4,2.43-16.76,5.84-18.11,6.47-.06.03-.09.03-.13.03-.03.03-.06.03-.06.03-.69.66-1.33,1.26-1.96,1.89-.03,0-.03.03-.03.03-.6.63-1.17,1.23-1.7,1.86t-.03.03c-1.07,1.23-1.99,2.46-2.75,3.66-.28.44-.54.92-.76,1.36-.28.54-.54,1.07-.76,1.61-.16.38-.32.76-.44,1.1-.16.44-.32.88-.44,1.36,0,.03-.03.06-.03.09-.09.41-.19.82-.28,1.2-.09.44-.16.88-.22,1.33-.13.79-.19,1.55-.19,2.33,0,.47.03.98.06,1.45,0,.44.06.85.13,1.29,0,.13,0,.25.03.38.03.28.09.6.16.88,0,.09.03.16.06.25.03.19.06.41.13.6.06.35.16.69.25,1.01.13.47.28.92.44,1.36.16.44.32.88.5,1.33.13.35.28.69.44,1.04.03.09.06.19.13.25.22.41.41.82.63,1.23.25.51.54,1.01.85,1.51.28.44.57.85.82,1.26.19.25.35.54.57.79.54.76,1.1,1.48,1.67,2.21.28.35.57.69.88,1.04,2.78,3.28,5.81,5.9,8.05,7.57h.03c3.28-.35,6.91-.79,10.29-1.04h.03c8.27-.63,15.68-.73,15.52.95t-.03.06v.03c-.03.22-.28.54-.76.88-.13.09-.22.19-.38.28-1.99,1.55-6.59,3.94-12.53,6.75-.03,0-.03.03-.06.03l-.03.03c-10.73,5.11-25.75,11.61-37.8,16.72h-.03c-5.55,2.34-10.48,4.42-14.04,5.87-3.38,1.42-5.52,2.3-5.87,2.43t-.03.03h-.03v.16c.06.32.19,1.2.41,2.52.09.44.16.92.22,1.45.22,1.42.47,3.22.76,5.33.09.76.22,1.55.32,2.37.63,4.61,1.39,10.44,2.21,17.29.03.13.06.25.06.41.03.09.03.16.03.25v.13c1.17,9.62,2.49,21.17,3.76,34.05v.19c.54,5.33,1.07,10.92,1.61,16.66.22,2.4.41,4.83.63,7.26.28,3.6.6,7.26.85,10.98.03.06.03.16.03.25.28,4.04.57,8.17.85,12.34v.16c.19,2.65.35,5.4.5,8.11.06,1.17.13,2.3.19,3.47.28,4.86.54,9.75.73,14.67.09,2.05.19,4.1.25,6.15.16,3.82.25,7.67.38,11.49.06,2.43.09,4.83.16,7.26,0,.66.03,1.33.03,1.99.06,2.81.09,5.65.13,8.46v2.4c0,1.7,0,3.38-.03,5.05v5.71c0,2.18-.03,4.35-.06,6.5,0,1.04-.03,2.08-.06,3.12,0,1.96-.06,3.88-.13,5.81,0,.47-.03.95-.06,1.42-.03.95-.06,1.86-.09,2.78-.06,1.74-.13,3.5-.22,5.27-.09,1.74-.19,3.5-.28,5.24-.22,3.53-.47,7.01-.79,10.51-.28,3.19-.6,6.37-.92,9.56-2.4,22.21-6.34,43.8-10.79,63.58-.44,2.05-.92,4.1-1.39,6.09-.47,2.02-.98,3.98-1.45,5.96-.32,1.29-.63,2.59-.95,3.85-.16.69-.32,1.36-.5,2.02-.44,1.7-.85,3.38-1.29,5.05-1.55,5.9-3.12,11.55-4.67,16.88-.5,1.74-.98,3.41-1.48,5.05-.06.28-.13.54-.22.79-.92,3.03-1.8,5.93-2.65,8.71-3.53,11.36-6.75,20.76-9.21,27.55-.35.98-.69,1.89-1.01,2.78-.35.98-.69,1.89-1.01,2.75-1.42,3.79-2.3,6.09-2.52,6.66v.09c-.44,3-.85,5.9-1.26,8.68-.03.32-.06.63-.13.98-.13,1.01-.28,2.02-.41,3-.09.66-.16,1.33-.25,1.96-.09.63-.16,1.26-.25,1.89-.41,3.31-.79,6.37-1.14,9.18-.16,1.36-.28,2.65-.44,3.88-.28,2.84-.54,5.33-.69,7.48-.09,1.29-.19,2.43-.22,3.44-.09,1.7-.09,3,0,3.82,0,.06.03.16.03.22v.06c.03.35.09.73.19,1.04,0,.06.03.16.03.22.06.19.09.38.16.57,0,.06.03.13.06.19.06.28.16.6.28.88.22.63.47,1.23.79,1.83.13.28.28.54.41.79.47.82,1.04,1.58,1.64,2.33.22.28.47.57.73.85.25.28.5.57.79.85.25.25.54.5.79.76.28.25.57.5.82.73.57.51,1.14.98,1.74,1.39.88.66,1.77,1.29,2.65,1.8,4.35,2.78,8.33,4.13,8.33,4.13l.03-.06,7.89-23.48s-16.79-18.55-15.02-39.85c.16-1.99.57-4.32,1.2-6.97.16-.88.38-1.83.63-2.78.22-.95.5-1.92.79-2.93.22-.82.44-1.64.69-2.49.22-.85.47-1.74.76-2.62.5-1.77,1.07-3.63,1.7-5.52.38-1.2.76-2.46,1.2-3.75.69-2.18,1.42-4.42,2.18-6.72,1.29-3.94,2.65-8.05,4.07-12.31.57-1.7,1.14-3.47,1.7-5.21.57-1.77,1.14-3.53,1.7-5.33v.13c-.03,1.74-.09,3.44-.13,5.17-.03.63-.06,1.26-.06,1.92-.03.63-.06,1.29-.06,1.92-.06,1.92-.09,3.85-.09,5.77-.09,5.11-.09,10.19,0,15.11.06,2.33.13,4.64.19,6.88.06,1.2.09,2.4.16,3.57.06,1.17.13,2.34.19,3.47.06,1.14.16,2.27.22,3.38.09,1.17.19,2.33.28,3.47.03.19.06.38.06.6.09.98.22,1.96.32,2.9.13.95.22,1.89.35,2.81.25,1.83.54,3.6.85,5.27.16.88.35,1.74.54,2.59.54,2.49,1.17,4.73,1.89,6.69.16.38.32.79.5,1.17.03.09.06.16.09.25-.82,3.66-1.64,7.38-2.49,11.17-.32,1.26-.6,2.52-.88,3.79Zm73.96-68.19s0,.13-.03.35c0,.25-.06.6-.09,1.07-.09,1.07-.28,2.81-.47,5.05-.13,1.1-.22,2.37-.35,3.72-.03.47-.09.92-.13,1.42-.09.95-.19,1.96-.28,3.03-.28,3.16-.63,6.72-.95,10.63-.09,1.33-.22,2.68-.35,4.07-.13,1.33-.22,2.68-.35,4.04-.32,3.63-.63,7.41-.95,11.36-.25,3.09-.54,6.28-.79,9.5-.85,10.51-1.67,21.55-2.4,32.03-.13,1.96-.25,3.91-.38,5.84-.35,5.02-.63,9.84-.85,14.39-.19,3.94-.35,7.64-.47,11.04,0,.25-.03.5-.03.76,0,.35-.03.73-.03,1.07-.03.47-.06.92-.03,1.39-.09,2.93-.09,5.81,0,8.65,0,.98.03,1.96.06,2.9,0,.54.03,1.04.06,1.61.09,2.97.28,5.84.5,8.65.16,2.24.38,4.45.6,6.56.06.73.13,1.42.22,2.11.13,1.26.28,2.49.44,3.72.25,2.05.54,4.04.82,5.93.13.92.28,1.8.41,2.68.85,5.43,1.8,10.19,2.62,14.1.06.19.09.38.13.57.66,2.93,1.23,5.36,1.7,7.19.16.66.32,1.23.44,1.74.06.28.13.54.16.76.03.06.06.16.09.22.03.06.03.13.03.16-.06-.13-.09-.25-.13-.38-.41-1.14-1.04-2.84-1.8-4.99,0,0,0-.03-.03-.06-.38-1.07-.79-2.3-1.26-3.63-.03-.06-.03-.16-.06-.22-.25-.76-.54-1.55-.82-2.37-.22-.66-.47-1.33-.69-2.05-.35-1.04-.73-2.15-1.1-3.28-2.11-6.28-4.54-13.85-7.1-22.25-.06-.19-.13-.38-.16-.57h-.03c-2.21-7.48-4.54-15.56-6.72-23.95-1.36-5.14-2.68-10.41-3.88-15.71-.41-1.77-.79-3.53-1.2-5.3-.79-3.53-1.51-7.07-2.18-10.6-.32-1.77-.63-3.5-.95-5.27-.35-1.74-.63-3.47-.85-5.21-.22-1.33-.44-2.68-.63-4.01l-.03-.03c-.06-.38-.09-.73-.13-1.1-.25-1.7-.47-3.38-.63-5.05,0-.03,0-.09-.03-.16-.03-.06-.03-.09-.03-.16-.19-1.58-.35-3.12-.47-4.64,0-.06,0-.13-.03-.22-.16-1.55-.25-3.09-.35-4.61-.13-1.58-.22-3.12-.25-4.67-.09-1.55-.13-3.06-.13-4.54,0-.5.03-1.01.13-1.55.22-2.15.92-4.61,2.02-7.26,1.33-3.31,3.22-6.91,5.4-10.6.41-.76.85-1.48,1.33-2.21.44-.76.91-1.48,1.39-2.24.95-1.48,1.89-2.97,2.9-4.45.16-.22.32-.44.47-.66v-.03c.85-1.2,1.7-2.43,2.56-3.63,1.45-2.11,2.97-4.17,4.48-6.12.47-.63.95-1.26,1.42-1.89t0-.03c.95-1.2,1.83-2.37,2.75-3.47,1.29-1.64,2.49-3.12,3.53-4.42,2.05-2.56,3.47-4.26,3.85-4.64.06-.13.09-.16.09-.16v.06Zm145.34,100.69c1.45-.63,2.84-1.23,4.17-1.8,4.01-1.7,7.57-3.12,10.67-4.23.5-.19,1.01-.38,1.48-.54,3.34-1.2,6-2.02,7.76-2.37.25-.06.5-.09.73-.16.95-.16,1.55-.13,1.77.06.09.09.19.28.25.54.06.22.06.47.06.76,0,.11,0,.27,0,.39,0,1.17-.22,2.88-.6,5.03-.09.47-.19.98-.28,1.48-.38,1.83-.85,3.88-1.42,6.15-.35,1.36-.73,2.81-1.14,4.29-.28.98-.57,1.99-.88,3.03-.22.79-.44,1.58-.69,2.37-1.33,4.35-2.9,9.06-4.67,13.85-.35.95-.69,1.92-1.07,2.87-.16.44-.35.88-.5,1.33-.47,1.2-.95,2.37-1.42,3.57-4.1,10.13-8.96,20.1-14.23,27.86-.6.92-1.23,1.8-1.89,2.62-3.16,4.23-6.44,7.6-9.81,9.69-.66.44-1.33.82-1.99,1.1,0,0-.03-.03-.03,0-.32.19-.66.32-.98.44-.35.13-.69.25-1.07.35-2.93.95-6.72,1.74-11.14,2.37-1.1.19-2.21.32-3.38.44-2.97.35-6.12.63-9.47.88-1.96.16-4.01.28-6.06.38h-.09c-1.39.09-2.75.16-4.17.22-2.18.06-4.39.16-6.63.22-1.45.03-2.9.06-4.35.09-6.25.13-12.59.16-18.77.09-1.74,0-3.44,0-5.11-.03-1.67,0-3.34-.03-4.99-.06-9.28-.16-17.77-.44-24.39-.69-3.25-.13-6.06-.25-8.3-.35-3.34-.16-5.43-.25-5.81-.28h-.06c1.04-.95,2.08-1.92,3.12-2.87.82-.73,1.61-1.45,2.46-2.18.95-.85,1.89-1.67,2.84-2.49,1.42-1.23,2.87-2.46,4.32-3.69,1.45-1.23,2.93-2.43,4.42-3.63,9.62-7.83,19.66-15.15,29.76-21.96.06-.06.16-.09.22-.16,1.39-.95,2.78-1.86,4.17-2.78,2.65-1.77,5.3-3.47,7.95-5.14,3.31-2.08,6.63-4.13,9.91-6.12,2.02-1.23,4.04-2.43,6.03-3.57,0,0,.03-.03.06-.03,1.99-1.2,3.98-2.33,5.93-3.44,1.01-.57,2.02-1.14,3.03-1.7,1.92-1.1,3.85-2.18,5.77-3.19,1.92-1.07,3.85-2.08,5.77-3.09,1.86-1.04,3.69-1.99,5.49-2.9,5.52-2.84,10.79-5.43,15.71-7.76,1.64-.79,3.25-1.55,4.8-2.24,2.15-1.01,4.23-1.96,6.22-2.81.19-.06.35-.13.54-.22Zm-34.3-110.79c2.27-4.45,4.13-8.17,5.58-11.08.54-1.04,1.01-1.99,1.42-2.81,0,0,0-.03.03-.03.44-.88.82-1.61,1.1-2.21.06-.16.13-.32.22-.44.13-.25.25-.5.35-.69.22-.47.35-.73.35-.73l.03-.03s.09.25.25.76c.19.57.47,1.45.79,2.62.85,2.65,2.08,6.66,3.53,11.61.03.16.09.32.16.5.22.73.44,1.48.66,2.27.73,2.46,1.48,5.11,2.27,7.89.44,1.51.88,3.09,1.29,4.67.32,1.1.6,2.24.92,3.41.19.73.38,1.45.57,2.18,1.51,5.68,3.03,11.58,4.35,17.42,0,.03,0,.06.03.09.25,1.14.51,2.3.76,3.47,1.17,5.33,2.18,10.51,2.9,15.27.19,1.07.32,2.11.44,3.12,1.14,8.33,1.26,15.11-.25,18.65-.25.6-.57,1.1-.92,1.51l-.09.09s-.03,0-.03.03l-.35.35c-.25.28-.57.6-.95.95-.35.35-.76.73-1.2,1.14-1.51,1.42-3.53,3.22-5.96,5.36-.69.57-1.42,1.2-2.21,1.89-2.81,2.43-6.06,5.21-9.66,8.24-1.51,1.26-3.09,2.59-4.73,3.98-2.84,2.37-5.81,4.83-8.9,7.38-1.39,1.2-2.84,2.37-4.29,3.6-1.77,1.42-3.53,2.9-5.3,4.35-3.03,2.49-6.12,5.05-9.25,7.64-6,4.89-12.15,9.91-18.24,14.93-1.51,1.2-3,2.43-4.48,3.63-.06.03-.09.09-.16.13-.5.41-.98.79-1.45,1.2-3.47,2.81-6.88,5.58-10.19,8.27-.98.79-1.92,1.55-2.87,2.33-1.33,1.07-2.62,2.15-3.91,3.19-.06.03-.09.06-.13.09-.19.16-.35.28-.54.44-1.7,1.39-3.38,2.71-5.02,4.07-.19.16-.35.28-.5.41-.92.73-1.8,1.45-2.68,2.18-.73.57-1.42,1.14-2.11,1.7-.79.63-1.55,1.26-2.3,1.86-.25.19-.47.38-.73.57-1.26,1.04-2.49,2.05-3.69,3-4.32,3.5-8.24,6.63-11.52,9.31-.73.57-1.42,1.1-2.05,1.64-.54.44-1.07.88-1.58,1.26-.51.41-1.01.79-1.48,1.17-.38.32-.76.63-1.14.95-.06.06-.13.09-.19.13-1.2.98-2.24,1.8-3.03,2.46-.03.03-.06.06-.09.06-1.01.79-1.7,1.36-1.96,1.55,3.69-4.39,7.86-10.1,12.34-16.79.51-.76,1.01-1.51,1.55-2.27.54-.82,1.1-1.64,1.67-2.52.98-1.51,1.99-3.06,3.03-4.67,1.74-2.68,3.5-5.52,5.3-8.46.03-.03.06-.06.09-.09.28-.5.6-1.01.92-1.51.41-.63.79-1.29,1.17-1.96v-.03s.03-.06.09-.09c.13-.28.28-.57.47-.85.09-.16.19-.28.28-.41.22-.32.41-.6.6-.95,2.65-4.39,5.36-8.93,8.14-13.63,1.58-2.68,3.16-5.4,4.73-8.17,1.86-3.25,3.75-6.53,5.62-9.88.5-.88,1.01-1.77,1.51-2.68.06-.09.13-.19.19-.28.13-.22.25-.44.38-.69.32-.57.63-1.14.98-1.7.06-.09.13-.22.19-.32.16-.32.35-.63.5-.92h.03c.13-.28.28-.57.44-.82.79-1.45,1.58-2.87,2.37-4.29,1.64-2.93,3.25-5.87,4.89-8.8.09-.22.22-.41.32-.63.03-.03.03-.06.06-.09.06-.13.13-.22.19-.32,1.58-2.87,3.16-5.74,4.7-8.61,3.06-5.65,6.09-11.26,9.09-16.82,1.55-2.9,3.09-5.81,4.61-8.65,1.29-2.49,2.59-4.92,3.88-7.35,1.04-1.96,2.05-3.88,3.06-5.77.03-.06.06-.13.09-.19.6-1.17,1.23-2.33,1.83-3.47,1.39-2.65,2.78-5.27,4.1-7.86,0-.03.03-.06.06-.09,2.24-4.26,4.35-8.43,6.44-12.37.06-.09.09-.22.16-.32.03-.06.06-.16.09-.22.03-.09.09-.19.13-.28.6-1.17,1.17-2.3,1.77-3.41.32-.57.6-1.14.88-1.7,0-.03.03-.06.06-.09,1.1-2.21,2.21-4.35,3.25-6.41l.03-.03c2.11-4.17,4.1-8.01,5.81-11.45Zm-162.16-181.31c-.66-20.13,9.75-34.93,9.75-34.93.32.5,3.28,5.27,6.63,7.73.09.09.22.19.32.25,0,.03.03.03.03.03,1.04.76,2.11,1.26,3.16,1.29.09,0,.22,0,.32-.03,2.68-.16,6.31-3.5,9.37-7.83.03-.03.03-.06.06-.09,2.21-3.16,4.13-6.85,5.05-10.16,0-.03.03-.06.03-.09t.03-.06c.03-.06.03-.13.06-.19.06-.22.13-.44.22-.66,0-.13.06-.25.09-.38,0-.06.03-.16.03-.22.35-1.1.69-2.18,1.07-3.25v-.06c2.21-6.66,5.33-12.21,11.45-10.54,7.45,2.05,25.72,21.3,36.13,26.28,5.21,2.56,16.19-.06,27.23-4.35.03-.03.06-.03.09-.03,10.63-4.17,21.27-9.91,26.82-14.14.06-.03.09-.06.16-.13h.03l.03.06s.09.09.16.19c.13.13.35.35.63.69.25.32.57.69.95,1.14.22.28.47.6.73.92.35.44.76.98,1.23,1.55.28.41.63.85.98,1.29,6.5,8.74,17.29,25.65,15.27,39.79-.03.19-.06.41-.09.6v.06c-2.15,14.7-10.6,30.32-27.55,44.43l-.03.03c-5.46,4.54-11.77,8.93-19.09,13.09-.19.09-.41.22-.63.35-.03,0-.03.03-.06.03-.03.03-.09.06-.13.06-.69.41-1.42.79-2.15,1.2-32.5,17.39-48.91,16.5-48.91,16.5h-.03s-.09-.06-.19-.09c-1.23-.76-7.89-4.73-16.28-10.76-.16-.09-.32-.22-.47-.35-14.61-10.54-34.24-27.17-39.76-43.77-.06-.19-.13-.41-.19-.6,0-.03-.03-.06-.03-.09-1.51-4.8-2.27-9.43-2.49-13.85-.03-.13-.03-.22-.03-.35v-.57Zm-12.97,307.78v-.06c.03-.09.06-.16.09-.25.41-1.2.82-2.43,1.26-3.69,1.1-3.22,2.33-6.59,3.66-10.1.41-1.07.82-2.15,1.26-3.25,1.33-3.5,2.78-7.1,4.29-10.82l.03.03c.06,0,.13.03.25.06.16.06.32.13.54.22.16.06.32.09.47.19.44.19,1.01.41,1.64.69.03,0,.03.03.03.03.66.28,1.39.63,2.18,1.01.79.38,1.64.82,2.52,1.33.44.25.88.5,1.33.79,2.71,1.61,5.55,3.69,7.89,6.22.44.44.85.92,1.23,1.42.38.47.76,1.14,1.1,1.99,0,.03.03.03.03.03.19.41.38.88.54,1.39,0,.03.03.03.03.03.22.6.44,1.26.66,1.99.16.54.32,1.1.5,1.7.06.19.09.38.16.6.13.41.22.85.32,1.29.09.35.19.73.28,1.1.19.76.35,1.55.54,2.33.03.09.06.22.06.32.16.66.28,1.33.44,2.02.13.69.28,1.39.41,2.11.16.66.28,1.33.41,2.02.16.92.32,1.83.5,2.75.16.95.32,1.89.47,2.87.66,3.85,1.26,7.83,1.83,11.77.19,1.48.41,2.93.6,4.39.22,1.45.41,2.9.57,4.29,1.29,10.41,2.21,19.06,2.43,21.3v.09c.03.13.06.19.09.28.03.06.03.13.03.16h-.06v.03h-.28c-.6,0-1.86.03-3.66-.03-.92,0-2.02-.03-3.19-.09-.82-.03-1.7-.06-2.62-.13-.5-.03-1.01-.06-1.55-.09-.6-.03-1.23-.06-1.86-.13-2.71-.19-5.68-.47-8.77-.88-.57-.06-1.17-.16-1.74-.25-2.4-.32-4.86-.73-7.29-1.26-.79-.16-1.61-.35-2.43-.54-.63-.16-1.26-.32-1.92-.47-.63-.13-1.26-.32-1.89-.5-.44-.13-.92-.25-1.36-.38-.22-.06-.47-.16-.69-.22-.22-.06-.41-.13-.63-.22-.06-.03-.16-.06-.22-.09-.06,0-.13-.03-.19-.06-.09-.03-.22-.03-.32-.09-.09-.03-.22-.06-.32-.09-1.8-.63-3.53-1.33-5.21-2.11-2.21-1.01-4.2-2.18-5.96-3.53v-.03c.19-.95,3.44-16.12,11.45-39.44Z"/><g class="cls-40"><path class="cls-28" d="m81.11,826.98c7.73-29.47,11.97-53.98,11.6-58.88-.65-8.89-17.21-36.57-17.21-36.57-.45,14.91-21.52,54.54-41.74,95.45h47.34Z"/><path class="cls-1" d="m66.34,325.57c-3.27,92.32-39.85,184.36-41.44,188.29,6.08-42.19,16.93-105.51,26.66-153.22,15.06-73.99-3.37-229.73,1.12-241.24,0,0,17.12,111.87,13.66,206.16Z"/><path class="cls-4" d="m101.61,643.79s-36.48.75-52.19-11.22c0,0,5.8-28.06,22.07-67.63,0,0,11.88,4.12,18.05,11.97,6.17,7.76,12.07,66.88,12.07,66.88Z"/><path class="cls-4" d="m124.43,665.21c-3.84-10.48-31.52-87.74-31.71-135.16,0-15.9,32.27-53.32,32.27-53.32,0,0-7.58,79.88-8.89,118.33-1.12,34.24,6.73,64.26,8.33,70.15Z"/><path class="cls-4" d="m255.57,655.76c-23.29,8.7-113.74,3.65-113.74,3.65,60.89-56.68,151.81-93.91,155.09-91.01,3.27,2.9-18.05,78.57-41.34,87.36Z"/><path class="cls-4" d="m262.87,544.08c-9.63,10.85-135.07,111.68-135.07,111.68,35.54-42.37,117.3-207.09,117.3-207.09,0,0,27.41,84.56,17.77,95.41Z"/></g><path class="cls-26" d="m200.09,537.44c-31.05,55.37-73.6,126.27-77.44,132.44-2.05,3.44-5.94,35.93-5.94,35.93,0,0,0-31.9,3.75-38.17,3.83-6.17,46.39-77.07,77.44-132.44,31.15-55.37,65.57-145.18,65.57-145.18,0,0-32.23,92.04-63.38,147.42Z"/><path class="cls-45" d="m71.69,729.95c-.64,18.73-33.85,76.7-56.82,127.04h4.54c22.94-49.98,55.48-106.96,56.12-125.5.84-27.02-26.2-62.94-26.85-88.2-.1-3.27.19-6.92.75-10.76,3.74-25.06,19.73-58.36,22.07-67.62,1.89-7.4-2.05-45.76-4.63-68.51,0,0,2.65,59.72.81,66.97-2.34,9.26-18.34,42.55-22.08,67.62-.55,3.84-.84,7.48-.74,10.76.65,25.26,27.69,61.18,26.84,88.2Z"/><path class="cls-45" d="m51.03,542.77c-4.93,3.25-5.43,5.33-5.94,7.45-.16.54-.29,1.11-.41,1.64-.35,1.33-.67,2.65-.99,3.98-.13.41-.22.82-.29,1.2-1.11,4.49-2.26,8.94-3.47,13.36-1.18,4.42-2.39,8.78-3.63,13.04-.99,3.41-1.97,6.76,1.46,8.82l13.28-49.49Z"/><path class="cls-45" d="m109.28,285c-5.25-1.62-11.91-6.44-15.07-10.14h-.01c-.38-.51-1.41-1.67-1.4-2,.14-4.21,9.12-14.44,10.6-16.4.05-.05.09-.11.11-.16-.76.89-4.53,5.34-7.71,9.47-.16.23-.34.44-.49.66-1.96,2.59-3.86,4.89-4.02,6.12-.7,5.52,17.98,12.46,17.98,12.46Z"/><polygon class="cls-45" points="50.77 532.07 51.73 527.01 64.4 482.5 52.29 539.57 50.77 532.07"/></g></g></g></svg>