<?xml version="1.0" encoding="UTF-8"?><svg id="Ebene_2" xmlns="http://www.w3.org/2000/svg" viewBox="0 0 11.33 447.59"><defs><style>.cls-1{opacity:.3;}.cls-2{fill:#ffde70;}.cls-3{opacity:.3;}</style></defs><g id="Ebene_1-2"><g class="cls-3"><circle class="cls-2" cx="5.67" cy="142.01" r="5.67"/></g><g class="cls-1"><circle class="cls-2" cx="5.67" cy="60.22" r="5.67"/></g><g class="cls-1"><circle class="cls-2" cx="5.67" cy="305.58" r="5.67"/></g><g class="cls-1"><circle class="cls-2" cx="5.67" cy="387.37" r="5.67"/></g><g class="cls-1"><circle class="cls-2" cx="5.67" cy="223.79" r="5.67"/></g><path class="cls-2" d="m5.67,284.01c-.28,0-.5-.22-.5-.5v-37.64c0-.28.22-.5.5-.5s.5.22.5.5v37.64c0,.28-.22.5-.5.5Z"/><path class="cls-2" d="m5.67,365.8c-.28,0-.5-.22-.5-.5v-37.64c0-.28.22-.5.5-.5s.5.22.5.5v37.64c0,.28-.22.5-.5.5Z"/><path class="cls-2" d="m5.67,202.22c-.28,0-.5-.22-.5-.5v-37.64c0-.28.22-.5.5-.5s.5.22.5.5v37.64c0,.28-.22.5-.5.5Z"/><path class="cls-2" d="m5.67,120.43c-.28,0-.5-.22-.5-.5v-37.64c0-.28.22-.5.5-.5s.5.22.5.5v37.64c0,.28-.22.5-.5.5Z"/><path class="cls-2" d="m5.67,38.64c-.28,0-.5-.22-.5-.5V.5c0-.28.22-.5.5-.5s.5.22.5.5v37.64c0,.28-.22.5-.5.5Z"/><path class="cls-2" d="m5.67,447.59c-.28,0-.5-.22-.5-.5v-37.64c0-.28.22-.5.5-.5s.5.22.5.5v37.64c0,.28-.22.5-.5.5Z"/></g></svg>