<?xml version="1.0" encoding="UTF-8"?><svg id="Ebene_2" xmlns="http://www.w3.org/2000/svg" xmlns:xlink="http://www.w3.org/1999/xlink" viewBox="0 0 1920 1080"><defs><style>.cls-1{fill:#fff;}.cls-2{letter-spacing:0em;}.cls-3{fill:#be1622;}.cls-4{fill:url(#_Áĺçűě_ííűé_ăđŕäčĺíň_4);}.cls-5{fill:#000d2e;}.cls-6,.cls-7{fill:#f9f1ea;}.cls-8{letter-spacing:0em;}.cls-9{clip-path:url(#clippath);}.cls-10{fill:none;}.cls-7{font-family:MyriadPro-Bold, 'Myriad Pro';font-size:232.79px;font-weight:700;}.cls-11{fill:#f7f7f7;}</style><clipPath id="clippath"><path class="cls-10" d="m894.09,622.76c-7.9-6.09-23.72-6.15-34.97-6.19-10.55-.04-18.88-.07-25.72,3.44-15.61,8-21.84,33.55-18.2,62.63-4.89-2.61-12.89-7.67-18.94-16.63-18.63-27.58,6.13-55.1-8.81-90.29-.62-1.45-15.16-34.51-42.4-40.69-.37-.08-13.11-2.02-38.58-5.89-9.02-1.37-18.96-2.87-20.39-8.16-.71-2.6,1.2-4.05,2.38-7.48,4.78-13.95-13.65-27.9-9.39-35.65,1.1-2.01,4.08-4.23,12.95-4.08,30.58,8.57,38.78,4,41.46.13,6.55-9.5-8.81-31.59-32.26-64.75-29.03-41.04-46.1-55.92-40.98-65.37,3.51-6.48,13.82-3.75,49.11-7.53,31.62-3.38,49.49-5.29,51.27-12.26,2.58-10.12-31.94-18.52-63.53-47.93-36.24-33.74-24.24-53.43-56.84-94.74-33.11-41.96-81.92-65.66-123.16-78.58-20.51-6.42-53.69-16.46-97.53-12.82-22.14,1.84-80.34,9.94-131.52,55.17-13.58,12-40.92,36.74-55.59,77.9-12.37,34.7-10.95,67.69-10.65,73.46,1.74,34.18,12.19,50.49,5.34,84.63-1.14,5.7-3.39,13.45-7.88,28.94-7.07,24.4-13.28,33.57-16.55,53.41-1.53,9.3-4.54,27.52,1.91,30.72,2.35,1.17,5.02-.12,20.45-8.2,4.34-2.27,10.22-5.36,17.22-9.06,19.04,18.31,50.91,54.9,60.12,108.34.39,2.28.73,4.52,1.02,6.74-4.99-1.47-10.11-2.86-15.4-4.12-12.35-2.95-49.7-11.88-54.24-2.32-1.28,2.69.43,6.03,1.3,7.62,9.23,16.93,19.84,32.47,30.82,46.45-18.37,22.74-37.18,49.01-55.09,79.04-47.74,80.07-71.19,156.99-83.29,216.13,60.67,15.89,125.59,35.86,193.58,61.05h354.51c-9.42-32.71-21.28-66.57-36.18-101.12-13.28-30.81-27.63-59.05-42.31-84.77-.16-.16-.34-.33-.5-.5,13.54-9.71,44.45-32.06,69.23-51.52,4.69-3.68,13.89-11.05,12.26-17.09-1.5-5.54-11.4-7.29-14.12-7.8-33.83-6.39-65.69-20.6-98.31-31.86,1.09-8.14,3.67-17.66,9.18-27.26,17.87-31.12,51.63-37.01,56.36-37.75,20.88,2.84,40.04-1.33,46.39-12.96,4.4-8.06,2.27-19.04-1.07-36.32-1.63-8.42-3.66-15.2-5.16-19.69,5.81-4,18.92-11.8,36.96-12.22,6.07-.14,24.78-.57,39.39,12.33,7.53,6.65,11.79,14.92,15.12,25.4,11.66,36.78-2.46,55.96,2.73,79.74,8.09,37.04,60.92,75.5,98.68,60.71,42.4-16.6,50.6-94.38,29.83-110.41Z"/></clipPath><linearGradient id="_Áĺçűě_ííűé_ăđŕäčĺíň_4" x1="516.27" y1="100.81" x2="516.27" y2="1056.55" gradientUnits="userSpaceOnUse"><stop offset="0" stop-color="#eacfb0"/><stop offset=".55" stop-color="#e5c3a2"/><stop offset="1" stop-color="#e0b794"/></linearGradient></defs><g id="Ebene_1-2"><rect class="cls-1" x="650.5" y="389.5" width="643" height="269"/><path d="m1293,390v268h-642v-268h642m1-1h-644v270h644v-270h0Z"/><rect class="cls-5" width="1920" height="1080"/><g class="cls-9"><path class="cls-4" d="m127.52,934.79c65.01,17.02,134.89,38.73,208.21,66.53h341.44c-9.66-34.4-22-70.12-37.73-106.6-13.28-30.81-27.63-59.05-42.31-84.77-.16-.16-.34-.33-.5-.5,13.54-9.71,44.45-32.06,69.23-51.52,4.69-3.68,13.89-11.05,12.26-17.09-1.5-5.54-11.4-7.29-14.12-7.8-33.83-6.39-65.69-20.6-98.31-31.86,1.09-8.14,3.67-17.66,9.18-27.26,17.87-31.12,51.63-37.01,56.36-37.75,20.88,2.84,40.04-1.33,46.39-12.96,4.4-8.06,2.27-19.04-1.07-36.32-1.63-8.42-3.66-15.2-5.16-19.69,5.81-4,18.92-11.8,36.96-12.22,6.07-.14,24.78-.57,39.39,12.33,7.53,6.65,11.79,14.92,15.12,25.4,11.66,36.78-2.46,55.96,2.73,79.74,8.09,37.04,60.92,75.5,98.68,60.71,42.4-16.6,50.6-94.38,29.83-110.41-7.9-6.09-23.72-6.15-34.97-6.19-10.55-.04-18.88-.07-25.72,3.44-15.61,8-21.84,33.55-18.2,62.63-4.89-2.61-12.89-7.67-18.94-16.63-18.63-27.58,6.13-55.1-8.81-90.29-.62-1.45-15.16-34.51-42.4-40.69-.37-.08-13.11-2.02-38.58-5.89-9.02-1.37-18.96-2.87-20.39-8.16-.71-2.6,1.2-4.05,2.38-7.48,4.78-13.95-13.65-27.9-9.39-35.65,1.1-2.01,4.08-4.23,12.95-4.08,30.58,8.57,38.78,4,41.46.13,6.55-9.5-8.81-31.59-32.26-64.75-29.03-41.04-46.1-55.92-40.98-65.37,3.51-6.48,13.82-3.75,49.11-7.53,31.62-3.38,49.49-5.29,51.27-12.26,2.58-10.12-31.94-18.52-63.53-47.93-36.24-33.74-24.24-53.43-56.84-94.74-33.11-41.96-81.92-65.66-123.16-78.58-20.51-6.42-53.69-16.46-97.53-12.82-22.14,1.84-80.34,9.94-131.52,55.17-13.58,12-40.92,36.74-55.59,77.9-12.37,34.7-10.95,67.69-10.65,73.46,1.74,34.18,12.19,50.49,5.34,84.63-1.14,5.7-3.39,13.45-7.88,28.94-7.07,24.4-13.28,33.57-16.55,53.41-1.53,9.3-4.54,27.52,1.91,30.72,2.35,1.17,5.02-.12,20.45-8.2,4.34-2.27,10.22-5.36,17.22-9.06,19.04,18.31,50.91,54.9,60.12,108.34.39,2.28.73,4.52,1.02,6.74-4.99-1.47-10.11-2.86-15.4-4.12-12.35-2.95-49.7-11.88-54.24-2.32-1.28,2.69.43,6.03,1.3,7.62,9.23,16.93,19.84,32.47,30.82,46.45-18.37,22.74-37.18,49.01-55.09,79.04-47.74,80.07-71.19,156.99-83.29,216.13Z"/><polygon class="cls-5" points="735.01 1001.32 735.01 908.02 723.53 908.02 721.05 896.27 718.58 908.02 718.58 907.29 715.15 907.29 705.64 889.02 693.42 889.02 690.95 875.41 688.47 889.02 676.25 889.02 666.74 907.29 661.07 907.29 661.07 832.17 658.07 813.98 655.08 832.17 648.79 832.17 638.36 797.48 614.33 797.48 611.35 779.39 608.37 797.48 584.34 797.48 573.91 832.17 567.62 832.17 564.63 813.98 561.63 832.17 561.63 896.27 558.17 877.3 554.72 896.27 533.42 896.27 529.97 877.3 526.52 896.27 505.22 896.27 501.77 877.3 498.31 896.27 498.31 952.6 491.95 952.6 491.95 945.42 443.51 945.42 443.51 926.57 394.93 926.57 394.93 947.86 351.52 947.86 351.52 921.95 346.41 921.95 346.41 911.33 340.81 911.33 340.81 886.17 338.56 886.17 331.84 831.95 325.11 886.17 323.37 886.17 323.37 911.33 317.76 911.33 317.76 921.95 312.65 921.95 312.65 969.94 307.25 969.94 307.25 922.17 304.32 906.08 301.39 922.17 283.33 922.17 280.4 906.08 277.48 922.17 259.41 922.17 256.49 906.08 253.56 922.17 253.56 867.81 251.01 852.38 248.47 867.81 243.14 867.81 234.29 838.39 213.92 838.39 211.39 823.05 208.86 838.39 188.48 838.39 179.64 867.81 174.31 867.81 171.76 852.38 169.22 867.81 169.22 931.51 164.41 931.51 156.35 916.02 145.99 916.02 143.89 904.48 141.79 916.02 131.42 916.02 123.36 931.51 120.45 931.51 120.45 932.13 118.35 922.17 116.25 932.13 103.29 932.13 101.19 922.17 99.09 932.13 86.13 932.13 84.99 926.73 84.99 1001.32 735.01 1001.32"/><path class="cls-5" d="m363.18,667.38h7.97v35.45h-7.97v298.49h138.76v-298.49h-7.97v-35.45h7.97v-146.98h.96v-1.44h-6.64v1.44h1.18v9.33h-7.86v-35.17h-.14v-10.38h7.04c-10.19-18.72-18.86-35.37-25.84-49.85-5.1-10.57-8.7-18.76-11.29-25.08h-.15v-52.92h4.15c-4.16-5.1-8.8-11.61-13.14-19.58-4.16-7.64-7.02-14.78-9.02-20.84h-.05v-31.96h-4.09v-44.35h-3.39v-44.35h-2.2v44.35h-3.16v44.35h-4.32v31.96h-.05c-2.27,5.92-5.15,12.43-8.82,19.3-4.39,8.21-9,15.24-13.34,21.12h4.15v52.92h-.15c-2.5,6.15-5.96,14.07-10.84,24.23-7.07,14.72-15.91,31.68-26.29,50.7h7.18v45.55h-8.14v-9.33h.96v-1.44h-6.64v1.44h1.18v146.98Z"/><circle class="cls-5" cx="432.56" cy="598.55" r="43.28" transform="translate(-235.1 914.16) rotate(-79.45)"/><circle class="cls-11" cx="432.56" cy="598.55" r="37.3"/><path class="cls-5" d="m432.56,571.79h0c-.56,0-1.02-.46-1.02-1.02v-4.4c0-.56.46-1.02,1.02-1.02h0c.56,0,1.02.46,1.02,1.02v4.4c0,.56-.46,1.02-1.02,1.02Z"/><path class="cls-5" d="m432.56,633.51h0c-.56,0-1.02-.46-1.02-1.02v-4.4c0-.56.46-1.02,1.02-1.02h0c.56,0,1.02.46,1.02,1.02v4.4c0,.56-.46,1.02-1.02,1.02Z"/><path class="cls-5" d="m404.92,599.43h0c0,.56-.46,1.02-1.02,1.02h-4.4c-.56,0-1.02-.46-1.02-1.02h0c0-.56.46-1.02,1.02-1.02h4.4c.56,0,1.02.46,1.02,1.02Z"/><path class="cls-5" d="m466.64,599.43h0c0,.56-.46,1.02-1.02,1.02h-4.4c-.56,0-1.02-.46-1.02-1.02h0c0-.56.46-1.02,1.02-1.02h4.4c.56,0,1.02.46,1.02,1.02Z"/><path class="cls-5" d="m420.56,570.46h0c-.22.09-.47-.01-.56-.23l-.71-1.72c-.09-.22.01-.47.23-.56h0c.22-.09.47.01.56.23l.71,1.72c.09.22-.01.47-.23.56Z"/><path class="cls-5" d="m445.6,630.92h0c-.22.09-.47-.01-.56-.23l-.71-1.72c-.09-.22.01-.47.23-.56h0c.22-.09.47.01.56.23l.71,1.72c.09.22-.01.47-.23.56Z"/><path class="cls-5" d="m410.39,577.26h0c-.17.17-.44.17-.61,0l-1.32-1.32c-.17-.17-.17-.44,0-.61h0c.17-.17.44-.17.61,0l1.32,1.32c.17.17.17.44,0,.61Z"/><path class="cls-5" d="m456.66,623.53h0c-.17.17-.44.17-.61,0l-1.32-1.32c-.17-.17-.17-.44,0-.61h0c.17-.17.44-.17.61,0l1.32,1.32c.17.17.17.44,0,.61Z"/><path class="cls-5" d="m403.59,587.43h0c-.09.22-.34.33-.56.23l-1.72-.71c-.22-.09-.33-.34-.23-.56h0c.09-.22.34-.32.56-.23l1.72.71c.22.09.33.34.23.56Z"/><path class="cls-5" d="m464.05,612.47h0c-.09.22-.34.32-.56.23l-1.72-.71c-.22-.09-.33-.34-.23-.56h0c.09-.22.34-.32.56-.23l1.72.71c.22.09.33.34.23.56Z"/><path class="cls-5" d="m403.59,611.43h0c.09.22-.01.47-.23.56l-1.72.71c-.22.09-.47-.01-.56-.23h0c-.09-.22.01-.47.23-.56l1.72-.71c.22-.09.47.01.56.23Z"/><path class="cls-5" d="m464.05,586.39h0c.09.22-.01.47-.23.56l-1.72.71c-.22.09-.47-.01-.56-.23h0c-.09-.22.01-.47.23-.56l1.72-.71c.22-.09.47.01.56.23Z"/><path class="cls-5" d="m410.39,621.6h0c.17.17.17.44,0,.61l-1.32,1.32c-.17.17-.44.17-.61,0h0c-.17-.17-.17-.44,0-.61l1.32-1.32c.17-.17.44-.17.61,0Z"/><path class="cls-5" d="m456.66,575.33h0c.17.17.17.44,0,.61l-1.32,1.32c-.17.17-.44.17-.61,0h0c-.17-.17-.17-.44,0-.61l1.32-1.32c.17-.17.44-.17.61,0Z"/><path class="cls-5" d="m420.56,628.4h0c.22.09.32.34.23.56l-.71,1.72c-.09.22-.34.32-.56.23h0c-.22-.09-.33-.34-.23-.56l.71-1.72c.09-.22.34-.33.56-.23Z"/><path class="cls-5" d="m445.6,567.94h0c.22.09.32.34.23.56l-.71,1.72c-.09.22-.34.32-.56.23h0c-.22-.09-.33-.34-.23-.56l.71-1.72c.09-.22.34-.32.56-.23Z"/><path class="cls-5" d="m435.41,599.35c0,1.53-1.24,2.77-2.77,2.77s-2.77-1.24-2.77-2.77,1.24-2.77,2.77-2.77,2.77,1.24,2.77,2.77Z"/><path class="cls-5" d="m434.69,597.5h-4.11c.68-8.3,1.37-16.59,2.05-24.89.68,8.3,1.37,16.59,2.05,24.89Z"/><path class="cls-5" d="m434.98,597.91v2.88c6.14-.48,12.28-.96,18.42-1.44-6.14-.48-12.28-.96-18.42-1.44Z"/></g><text class="cls-7" transform="translate(1020.09 541.1) rotate(.1) scale(.77 1)"><tspan x="0" y="0">LDN - </tspan><tspan class="cls-8" x="610.6" y="0">N</tspan><tspan class="cls-2" x="770.53" y="0">oir</tspan></text><text/><path class="cls-6" d="m1034.18,556.29c1.94-.58,4.2-.84,6.72-.84,4.59,0,7.82,1.16,10.21,3.3,3.36,2.91,5.88,8.53,5.88,17.65,0,9.96-2.46,15.39-5.24,18.36-2.84,3.23-6.98,4.72-12.02,4.72-2,0-4.07-.13-5.56-.45v-42.73Zm4.98,38.85c.71.13,1.42.13,1.87.13,5.49,0,10.8-3.94,10.8-18.75,0-10.99-3.36-17-10.34-17-.78,0-1.68.07-2.33.26v35.36Z"/><path class="cls-6" d="m1111.18,578.53h-10.92v16.35h12.41v4.33h-17.39v-43.57h16.61v4.33h-11.64v14.35h10.92v4.2Z"/><path class="cls-6" d="m1155.59,560.11h-7.95v-4.46h20.88v4.46h-7.95v39.11h-4.98v-39.11Z"/><path class="cls-6" d="m1221.6,578.53h-10.92v16.35h12.41v4.33h-17.39v-43.57h16.61v4.33h-11.64v14.35h10.92v4.2Z"/><path class="cls-6" d="m1279.91,598.44c-1.36.71-3.49,1.16-6.21,1.16-8.53,0-14.61-6.85-14.61-21.66,0-17.19,8.53-22.69,15.39-22.69,2.65,0,4.53.52,5.43,1.1l-1.1,4.2c-1.03-.45-2.13-.9-4.4-.9-4.65,0-10.08,4.53-10.08,17.84s4.91,17.71,10.21,17.71c1.87,0,3.56-.45,4.59-.97l.78,4.2Z"/><path class="cls-6" d="m1323.03,560.11h-7.95v-4.46h20.88v4.46h-7.95v39.11h-4.98v-39.11Z"/><path class="cls-6" d="m1378.11,555.65v43.57h-4.98v-43.57h4.98Z"/><path class="cls-6" d="m1425.44,599.22l-9.96-43.57h5.3l4.27,20.43c1.03,4.91,2.33,11.18,3.1,16.74h.19c.65-5.62,1.87-11.7,2.91-16.87l4.14-20.3h5.3l-10.15,43.57h-5.11Z"/><path class="cls-6" d="m1493.77,578.53h-10.92v16.35h12.41v4.33h-17.39v-43.57h16.61v4.33h-11.64v14.35h10.92v4.2Z"/><path class="cls-6" d="m1574.58,593.46c1.49.97,4.07,1.74,6.27,1.74,4.53,0,7.24-2.97,7.24-7.37,0-4.01-2.33-6.46-5.75-9.05-3.43-2.39-8.21-6.47-8.21-12.09,0-6.59,4.59-11.44,11.51-11.44,2.71,0,5.11.84,6.14,1.62l-1.23,4.27c-1.1-.78-2.91-1.49-5.17-1.49-4.27,0-6.27,3.23-6.27,6.21,0,4.33,2.26,6.01,6.4,8.99,5.24,3.68,7.56,7.69,7.56,12.54,0,7.5-5.3,12.22-12.22,12.22-2.97,0-6.14-.97-7.37-1.87l1.1-4.27Z"/><path class="cls-6" d="m1636.32,560.11h-7.95v-4.46h20.88v4.46h-7.95v39.11h-4.98v-39.11Z"/><path class="cls-6" d="m1707.24,577.11c0,16.36-5.62,22.63-12.61,22.63s-12.09-7.69-12.09-22.37,5.17-22.24,12.8-22.24,11.89,8.08,11.89,21.98Zm-19.52.32c0,8.99,1.75,17.91,7.24,17.91s7.11-9.5,7.11-18.04-1.49-17.78-7.18-17.78-7.18,9.05-7.18,17.91Z"/><path class="cls-6" d="m1745.51,556.29c2.13-.58,4.72-.84,7.18-.84,4.33,0,7.56.9,9.83,3.1,2.13,2.2,3.04,5.11,3.04,8.53,0,5.56-2.59,9.18-6.98,11.18v.13c3.23.97,4.91,4.07,5.88,9.76.97,6.01,1.87,9.7,2.46,11.05h-5.04c-.65-1.29-1.49-5.43-2.33-10.8-.97-5.95-2.84-8.21-7.11-8.21h-1.94v19.01h-4.98v-42.92Zm4.98,20.1h2.07c4.78,0,7.95-3.49,7.95-8.73s-2.07-8.15-7.43-8.21c-.97,0-1.94.06-2.58.26v16.68Z"/><path class="cls-6" d="m1809.65,599.22v-18.42l-9.57-25.15h5.24l3.88,10.92c1.1,3.04,2.26,6.46,3.23,9.83h.13c.9-3.36,2-6.66,3.17-10.02l3.68-10.73h5.24l-10.02,24.95v18.62h-4.98Z"/><path class="cls-3" d="m1562.15,316.48c1.27.83,2.29,1.91,3.05,3.24.76,1.33.82,2.7.19,4.1-.89,2.1-1.65,3.86-2.29,5.29-.63,1.43-1.19,2.7-1.67,3.81-.48,1.11-.95,2.16-1.43,3.14-.48.98-1,2.11-1.57,3.38-.57,1.27-1.25,2.75-2.05,4.43-.8,1.68-1.76,3.8-2.91,6.34-.25.57-.51,1.16-.76,1.76-.25.6-.54,1.25-.86,1.95l1.24-.19c1.27-.25,2.3-.44,3.1-.57.79-.13,1.7-.48,2.72-1.05.63.13,1.08.4,1.33.81.25.41.32.86.19,1.33-.13.48-.38.95-.76,1.43-.38.48-.86.87-1.43,1.19-.64.32-1.71.72-3.24,1.19-1.52.48-3.4,1.03-5.62,1.67-1.59,3.75-3.24,7.75-4.95,12-1.71,4.26-3.4,8.51-5.05,12.77-1.65,4.26-3.26,8.32-4.81,12.19-1.56,3.87-2.97,7.3-4.24,10.29-.76,1.71-1.37,3.16-1.81,4.33-.45,1.17-.8,2.13-1.05,2.86-.25.73-.43,1.29-.52,1.67-.1.38-.14.67-.14.86-.19,1.52-.67,2.59-1.43,3.19-.76.6-1.59.82-2.48.67-.89-.16-1.73-.65-2.52-1.48-.8-.83-1.29-1.91-1.48-3.24-.38-2.16.35-5.78,2.19-10.86,2.86-7.87,5.67-15.34,8.43-22.39,2.76-7.05,5.45-13.69,8.05-19.91-2.73.7-5.4,1.38-8,2.05-2.6.67-5.21,1.37-7.81,2.1-2.6.73-5.27,1.45-8,2.14-2.73.7-5.59,1.37-8.57,2-1.91,3.43-3.53,6.38-4.86,8.86-1.33,2.48-2.26,4.16-2.76,5.05-2.03,3.56-4.37,7.07-7,10.53-2.64,3.46-5.45,6.67-8.43,9.62-2.99,2.95-6.08,5.57-9.29,7.86-3.21,2.29-6.4,4-9.57,5.14-4.07,1.52-8,2.1-11.81,1.72-4.19-.38-7.99-1.68-11.38-3.91-3.4-2.22-6.29-4.97-8.67-8.24-2.38-3.27-4.18-6.89-5.38-10.86-1.21-3.97-1.68-7.89-1.43-11.77.38-5.78,1.92-11.5,4.62-17.15,2.7-5.65,6.1-10.88,10.19-15.67,4.1-4.8,8.65-9.02,13.67-12.67,5.02-3.65,10-6.4,14.96-8.24,3.81-1.4,7.18-1.72,10.1-.95,3.11.76,5.78,1.94,8,3.53.57.38.97,1.05,1.19,2,.22.95.13,1.89-.29,2.81-.41.92-1.22,1.7-2.43,2.33-1.21.64-2.95.79-5.24.48-1.46-.19-3.1-.05-4.91.43-1.81.48-3.83,1.13-6.05,1.95-2.22.89-4.38,1.86-6.48,2.91-2.1,1.05-4.1,2.27-6,3.67-1.97,1.33-3.81,2.73-5.53,4.19-1.71,1.46-3.37,2.99-4.95,4.57-2.29,2.42-4.38,5.02-6.29,7.81-1.91,2.8-3.48,5.67-4.72,8.62-1.24,2.95-2.13,5.89-2.67,8.81-.54,2.92-.6,5.72-.19,8.38.41,2.67,1.33,5.11,2.76,7.34,1.43,2.22,3.51,4.13,6.24,5.72,3.49,2.03,6.97,2.98,10.43,2.86,3.46-.13,6.8-.98,10-2.57,3.21-1.59,6.29-3.72,9.24-6.38,2.95-2.67,5.7-5.53,8.24-8.57,2.54-3.05,4.84-6.08,6.91-9.1,2.06-3.02,3.83-5.7,5.29-8.05-3.81.83-7.04,1.51-9.67,2.05-2.64.54-4.46.9-5.48,1.1-1.21.19-2.33.37-3.38.52-1.05.16-2.02.3-2.91.43-3.24.38-6.21.35-8.91-.1-2.7-.44-5.1-1.22-7.19-2.33-2.1-1.11-3.89-2.48-5.38-4.1-1.49-1.62-2.65-3.41-3.48-5.38-.25-.57-.25-1.17,0-1.81.25-.63.65-1.21,1.19-1.72.54-.51,1.14-.87,1.81-1.1.67-.22,1.32-.21,1.95.05,3.11,1.21,6.54,2.03,10.29,2.48,3.75.45,7.67.65,11.77.62,4.1-.03,8.32-.25,12.67-.67,4.35-.41,8.68-.9,13-1.48,2.35-4.45,4.76-9.13,7.24-14.05,2.48-4.92,4.76-9.67,6.86-14.24,2.1-4.57,3.87-8.76,5.34-12.58,1.46-3.81,2.38-6.83,2.76-9.05.13-.89.22-1.63.28-2.24.06-.6.03-1.06-.1-1.38-.25-.7.29-1.05,1.62-1.05s2.98.35,4.95,1.05c.51.19,1.27.56,2.29,1.1,1.02.54,2,1.19,2.95,1.95.95.76,1.75,1.59,2.38,2.48.63.89.79,1.75.48,2.57-.06.19-.45.95-1.14,2.29-.7,1.33-1.64,3.08-2.81,5.24-1.18,2.16-2.51,4.65-4,7.48-1.49,2.83-3.1,5.81-4.81,8.96-1.72,3.14-3.48,6.4-5.29,9.76-1.81,3.37-3.57,6.64-5.29,9.81.19-.06.4-.1.62-.1s.43-.03.62-.1l28.58-4.86c2.54-5.97,4.87-11.35,7-16.15,2.13-4.8,3.97-8.88,5.53-12.24,1.56-3.37,2.78-5.97,3.67-7.81.89-1.84,1.36-2.79,1.43-2.86,1.08-1.08,2.41-1.11,4-.1Z"/><path class="cls-3" d="m1601.88,373.26c-.76.7-1.86,1.37-3.29,2-1.43.63-2.95,1.16-4.57,1.57-1.62.41-3.26.65-4.91.72-1.65.06-3.11-.16-4.38-.67-1.08,2.8-2.54,5.59-4.38,8.38-1.84,2.8-3.95,5.19-6.34,7.19-2.38,2-4.94,3.41-7.67,4.24-2.73.83-5.53.7-8.38-.38-3.3-1.21-5.48-3.35-6.53-6.43-1.05-3.08-1.27-6.54-.67-10.38.6-3.84,1.87-7.76,3.81-11.77,1.94-4,4.25-7.54,6.95-10.62,2.7-3.08,5.59-5.4,8.67-6.95,3.08-1.56,6.05-1.82,8.91-.81,1.21.38,2.25.97,3.14,1.76.89.8,1.6,1.6,2.14,2.43.54.83.89,1.57,1.05,2.24.16.67.11,1.06-.14,1.19,1.08,0,2,.38,2.76,1.14.7.64,1.03,1.6,1,2.91-.03,1.3-.22,2.65-.57,4.05-.35,1.4-.76,2.7-1.24,3.91-.48,1.21-.78,2.03-.9,2.48,1.97.64,4.19.76,6.67.38,2.48-.38,5.24-1.4,8.29-3.05l.57,4.48Zm-35.82,16.39c2.16-.13,4.24-1.32,6.24-3.57,2-2.25,3.83-5.03,5.48-8.34.38-.7.65-1.21.81-1.52.16-.32.3-.67.43-1.05-1.52-.7-2.64-1.83-3.33-3.38-.7-1.56-.95-3.22-.76-5,.19-1.78.84-3.49,1.95-5.14,1.11-1.65,2.72-2.92,4.81-3.81-1.46-.25-3.02,0-4.67.76-1.65.76-3.29,1.84-4.91,3.24-1.62,1.4-3.19,3.03-4.72,4.91-1.52,1.87-2.86,3.83-4,5.86-1.14,2.03-2.03,4.03-2.67,6-.64,1.97-.91,3.75-.81,5.33.1,1.59.63,2.91,1.62,3.95.98,1.05,2.49,1.64,4.53,1.76Zm15.34-20.2c.13-.44.27-.98.43-1.62.16-.63.32-1.27.48-1.91.16-.63.3-1.25.43-1.86.13-.6.25-1.13.38-1.57l-.67.29c-.57.32-1.06.8-1.48,1.43-.41.64-.71,1.29-.9,1.95-.19.67-.19,1.32,0,1.95.19.64.63,1.08,1.33,1.33Z"/><path class="cls-3" d="m1625.98,330.39c-3.18,6.35-6.29,12.64-9.34,18.86-1.33,2.67-2.7,5.45-4.1,8.34-1.4,2.89-2.81,5.78-4.24,8.67-1.43,2.89-2.8,5.73-4.1,8.53-1.3,2.8-2.52,5.4-3.67,7.81-.51,1.4-.89,2.32-1.14,2.76-.25.45-.38.89-.38,1.33,0,.83.48,1.16,1.43,1,.95-.16,2.06-.59,3.34-1.29.13-.06.41-.27.86-.62.44-.35.92-.72,1.43-1.1.51-.38,1.01-.76,1.52-1.14.51-.38.89-.7,1.14-.95,1.91-1.71,3.84-3.54,5.81-5.48,1.97-1.94,3.46-3.54,4.48-4.81.57.76,1.05,1.4,1.43,1.91.38.51.7.92.95,1.24.25.32.48.57.67.76-2.8,3.3-5.59,6.38-8.38,9.24-1.21,1.21-2.46,2.43-3.76,3.67-1.3,1.24-2.62,2.38-3.95,3.43-1.33,1.05-2.65,1.95-3.95,2.72-1.3.76-2.52,1.33-3.67,1.71l-.19.1c-.19.06-.52.11-1,.14-.48.03-.99.05-1.52.05s-1.03-.02-1.48-.05c-.45-.03-.73-.05-.86-.05-1.84-.51-3.03-1.63-3.57-3.38-.54-1.75-.43-4.02.33-6.81.13-.64.41-1.51.86-2.62.44-1.11,1.01-2.43,1.71-3.95,1.27-3.11,2.59-6.15,3.95-9.1,1.36-2.95,2.49-5.32,3.38-7.1.38-.82,1.03-2.19,1.95-4.1.92-1.9,1.98-4.13,3.19-6.67,1.21-2.54,2.51-5.3,3.91-8.29,1.4-2.98,2.81-5.99,4.24-9,1.43-3.02,2.79-5.94,4.1-8.77,1.3-2.83,2.48-5.35,3.53-7.57,1.05-2.22,1.9-4.05,2.57-5.48.67-1.43,1.06-2.27,1.19-2.52.44-.89.97-1.56,1.57-2,.6-.44,1.44-.32,2.52.38.63.45,1.22.95,1.76,1.52.54.57.97,1.19,1.29,1.86.32.67.51,1.35.57,2.05.06.7-.06,1.37-.38,2-.32.57-.78,1.51-1.38,2.81-.6,1.3-1.22,2.65-1.86,4.05-.64,1.4-1.22,2.67-1.76,3.81-.54,1.14-.87,1.84-1,2.1Z"/><path class="cls-3" d="m1679.53,375.83c-1.97,2.35-4,4.64-6.1,6.86-1.84,1.91-3.86,3.89-6.05,5.95-2.19,2.07-4.4,3.83-6.62,5.29v.1c-.06.06-.11.09-.14.09s-.08.03-.14.1c-1.33.89-2.62,1.59-3.86,2.1-1.24.51-2.4.73-3.48.67-.95,0-1.84-.89-2.67-2.67l-.1-.1c-.06-.13-.1-.22-.1-.29s-.03-.16-.1-.29c-.19-.7-.25-1.49-.19-2.38.06-.89.19-1.73.38-2.52.19-.79.38-1.54.57-2.24.19-.7.35-1.21.48-1.52.06-.25.27-.81.62-1.67.35-.86.76-1.87,1.24-3.05.48-1.17,1.03-2.49,1.67-3.95.63-1.46,1.27-2.92,1.91-4.38,1.52-3.43,3.21-7.24,5.05-11.43l-17.34,17.34-1.24,2.95c-1.46,3.11-2.67,5.84-3.62,8.19-.95,2.35-1.49,4-1.62,4.95-.13.89-.3,1.54-.52,1.95-.22.41-.43.71-.62.9-.25.25-.51.38-.76.38-1.65-.13-2.8-.67-3.43-1.62-.64-.95-1.02-2-1.14-3.14-.13-.95-.02-2.19.33-3.72.35-1.52.84-3.19,1.48-5,.63-1.81,1.35-3.68,2.14-5.62.79-1.94,1.6-3.86,2.43-5.76.63-1.4,1.25-2.75,1.86-4.05.6-1.3,1.16-2.49,1.67-3.57.51-.7.95-1.49,1.33-2.38.38-.89.57-1.4.57-1.52,0-.38-.59-.03-1.76,1.05-1.18,1.08-2.71,2.6-4.62,4.57-1.9,1.97-4.03,4.27-6.38,6.91-2.35,2.64-4.67,5.35-6.95,8.15-.51.95-1.06,2.05-1.67,3.29-.6,1.24-1.18,2.45-1.71,3.62-.54,1.18-1.02,2.27-1.43,3.29-.41,1.02-.65,1.78-.72,2.29-.13.89-.3,1.54-.52,1.95-.22.41-.43.71-.62.9-.25.25-.51.38-.76.38-1.59-.13-2.72-.67-3.38-1.62-.67-.95-1.06-2-1.19-3.14-.19-1.72.11-3.99.9-6.81.79-2.83,1.82-5.87,3.1-9.15,1.27-3.27,2.71-6.54,4.33-9.81,1.62-3.27,3.21-6.18,4.76-8.72,1.56-2.54,2.97-4.53,4.24-5.95,1.27-1.43,2.22-1.92,2.86-1.48.63.38,1.22.86,1.76,1.43.54.57.97,1.19,1.29,1.86.32.67.51,1.35.57,2.05.06.7-.06,1.37-.38,2-.32.7-.84,1.84-1.57,3.43-.73,1.59-1.48,3.14-2.24,4.67,1.46-1.71,2.97-3.43,4.53-5.14,1.56-1.72,3.05-3.27,4.48-4.67,1.43-1.4,2.7-2.56,3.81-3.48,1.11-.92,1.99-1.41,2.62-1.48,1.59-.19,2.81.08,3.67.81.86.73,1.38,1.81,1.57,3.24.19,1.43.1,3.11-.29,5.05-.38,1.94-.99,3.99-1.81,6.15,1.72-1.71,3.44-3.4,5.19-5.05,1.75-1.65,3.37-3.18,4.86-4.57,1.49-1.4,2.79-2.56,3.91-3.48,1.11-.92,1.89-1.48,2.33-1.67.82-.38,1.75-.54,2.76-.48,1.02.06,1.92.38,2.72.95.79.57,1.33,1.45,1.62,2.62.29,1.18.11,2.72-.52,4.62-.45,1.27-1.06,2.73-1.86,4.38-.8,1.65-1.64,3.37-2.52,5.15-.89,1.78-1.78,3.56-2.67,5.33-.89,1.78-1.65,3.42-2.29,4.91-.64,1.49-1.08,2.8-1.33,3.91-.25,1.11-.19,1.86.19,2.24,2.29-2.1,4.41-4.03,6.38-5.81.82-.76,1.65-1.52,2.48-2.29.82-.76,1.6-1.49,2.33-2.19.73-.7,1.35-1.3,1.86-1.81.51-.51.89-.92,1.14-1.24.57.76,1.05,1.4,1.43,1.91.38.51.7.92.95,1.24.25.32.48.57.67.76Z"/><path class="cls-3" d="m1682.76,386.41c.38,1.65,1.51,2.7,3.38,3.14,1.87.45,4.08.33,6.62-.33,2.54-.67,5.25-1.84,8.15-3.53,2.89-1.68,5.54-3.86,7.95-6.53.82,1.27,1.56,2.26,2.19,2.95.38.44.76.86,1.14,1.24-2.73,3.18-5.65,5.94-8.76,8.29-1.33,1.02-2.78,1.99-4.34,2.91-1.56.92-3.19,1.72-4.91,2.38-1.72.67-3.49,1.14-5.34,1.43-1.84.29-3.72.3-5.62.05-2.67-.38-4.8-1.22-6.38-2.52-1.59-1.3-2.73-2.94-3.43-4.91-.7-1.97-1.02-4.16-.95-6.57.06-2.41.41-4.86,1.05-7.34.44-1.65,1.19-3.49,2.24-5.53,1.05-2.03,2.32-4.08,3.81-6.15,1.49-2.06,3.16-4.05,5-5.95,1.84-1.91,3.76-3.52,5.76-4.86,2-1.33,4.06-2.32,6.19-2.95,2.13-.63,4.21-.7,6.24-.19.57.19,1.19.67,1.86,1.43.67.76,1.24,1.71,1.71,2.86.48,1.14.75,2.46.81,3.95.06,1.49-.21,3.1-.81,4.81-.6,1.71-1.64,3.53-3.1,5.43-1.46,1.91-3.53,3.81-6.19,5.72-1.02.57-2.11,1.1-3.29,1.57-1.18.48-2.37.89-3.57,1.24-1.21.35-2.35.6-3.43.76-1.08.16-2.03.21-2.86.14l.95-3.53c1.84,0,3.65-.35,5.43-1.05,1.52-.63,3.13-1.65,4.81-3.05,1.68-1.4,3.19-3.43,4.53-6.1.89-1.84,1.3-3.57,1.24-5.19-.06-1.62-.45-2.78-1.14-3.48-3.62,2.61-6.73,5.46-9.34,8.57-1.14,1.33-2.24,2.8-3.29,4.38-1.05,1.59-1.94,3.26-2.67,5-.73,1.75-1.27,3.59-1.62,5.53-.35,1.94-.37,3.92-.05,5.95Z"/><path class="cls-3" d="m1756.31,375.45c-2.8,2.99-5.62,5.75-8.48,8.29-2.42,2.22-5.03,4.42-7.86,6.57-2.83,2.16-5.45,3.75-7.86,4.76-3.18,1.59-6.45,2.6-9.81,3.05-2.48.25-4.7.03-6.67-.67-1.97-.7-3.62-1.75-4.95-3.14-1.33-1.4-2.35-3.05-3.05-4.95-.7-1.91-.99-3.94-.86-6.1,0-1.14.27-2.54.81-4.19.54-1.65,1.24-3.29,2.1-4.91.86-1.62,1.79-3.11,2.81-4.48,1.01-1.36,1.97-2.33,2.86-2.91.44-.32.9-.43,1.38-.33.48.1,1.06.49,1.76,1.19.57.57,1.1,1.21,1.57,1.9.48.7.82,1.43,1.05,2.19.22.76.3,1.51.24,2.24-.06.73-.35,1.41-.86,2.05-.57.83-1.16,1.86-1.76,3.1-.6,1.24-1.11,2.52-1.52,3.86-.41,1.33-.68,2.62-.81,3.86-.13,1.24,0,2.24.38,3,.38.76.84,1.35,1.38,1.76.54.41,1.1.68,1.67.81.57.13,1.08.18,1.52.14.44-.03.76-.05.95-.05,2.6-.32,4.51-1.48,5.72-3.48,1.21-2,1.89-4.33,2.05-7,.16-2.67-.13-5.38-.86-8.15-.73-2.76-1.7-5.03-2.91-6.81-.89-1.91-1.52-3.81-1.9-5.72-.38-1.65-.56-3.43-.52-5.33.03-1.91.55-3.68,1.57-5.34.82-1.46,1.75-2.49,2.76-3.1,1.02-.6,2.22-1.03,3.62-1.29.57-.25,1.33-.35,2.29-.29.95.06,2,.19,3.14.38.76.25,1.56.6,2.38,1.05.82.45,1.54.95,2.14,1.52.6.57,1.08,1.19,1.43,1.86.35.67.43,1.32.24,1.95-.25.76-.73,1.03-1.43.81-.7-.22-1.43-.52-2.19-.9-.76-.38-1.48-.63-2.14-.76-.67-.13-1.1.22-1.29,1.05-.32,2.03-.44,3.76-.38,5.19.06,1.43.25,2.78.57,4.05.32,1.27.75,2.6,1.29,4,.54,1.4,1.13,3.05,1.76,4.95.32,1.14.57,2.11.76,2.91.19.79.36,1.57.52,2.33.16.76.27,1.62.33,2.57.06.95.1,2.13.1,3.53,1.08-.89,2.21-1.82,3.38-2.81,1.17-.98,2.3-1.97,3.38-2.95,1.08-.98,2.06-1.92,2.95-2.81.89-.89,1.62-1.68,2.19-2.38.57.76,1.05,1.4,1.43,1.91.38.51.7.92.95,1.24.25.32.48.57.67.76Z"/></g></svg>